G04 MADE WITH FRITZING*
G04 WWW.FRITZING.ORG*
G04 DOUBLE SIDED*
G04 HOLES PLATED*
G04 CONTOUR ON CENTER OF CONTOUR VECTOR*
%ASAXBY*%
%FSLAX23Y23*%
%MOIN*%
%OFA0B0*%
%SFA1.0B1.0*%
%ADD10C,0.075000*%
%ADD11C,0.039370*%
%ADD12C,0.314961*%
%ADD13C,0.044444*%
%ADD14C,0.045000*%
%ADD15C,0.067559*%
%ADD16C,0.079370*%
%ADD17R,0.046000X0.046000*%
%ADD18C,0.012000*%
%ADD19C,0.024000*%
%ADD20R,0.001000X0.001000*%
%LNCOPPER0*%
G90*
G70*
G54D10*
X597Y263D03*
X341Y263D03*
X597Y440D03*
X341Y440D03*
G54D11*
X3608Y3048D03*
G54D12*
X1955Y6769D03*
G54D11*
X2280Y6523D03*
X3067Y6523D03*
X2476Y6572D03*
X2378Y6474D03*
X2545Y5174D03*
X2152Y5174D03*
X2742Y5224D03*
X1561Y5224D03*
X1758Y5174D03*
X2349Y5224D03*
X1167Y5224D03*
X1364Y5174D03*
X1955Y5224D03*
X774Y5224D03*
X971Y5174D03*
X3461Y3757D03*
X1699Y3196D03*
G54D13*
X2575Y371D03*
X2775Y371D03*
X2575Y696D03*
X2775Y696D03*
X2034Y371D03*
X2234Y371D03*
X941Y273D03*
X1141Y273D03*
X941Y637D03*
X1141Y637D03*
G54D14*
X3904Y420D03*
X4004Y420D03*
X4104Y420D03*
X3904Y1798D03*
X4004Y1798D03*
X4104Y1798D03*
X1010Y4507D03*
X1010Y4407D03*
X1010Y4307D03*
X2791Y2120D03*
X2791Y2220D03*
X2791Y2320D03*
X3904Y814D03*
X4004Y814D03*
X4104Y814D03*
X3904Y2192D03*
X4004Y2192D03*
X4104Y2192D03*
X1404Y4507D03*
X1404Y4407D03*
X1404Y4307D03*
X2398Y2120D03*
X2398Y2220D03*
X2398Y2320D03*
X3904Y617D03*
X4004Y617D03*
X4104Y617D03*
X3904Y1995D03*
X4004Y1995D03*
X4104Y1995D03*
X1207Y4507D03*
X1207Y4407D03*
X1207Y4307D03*
X2595Y2120D03*
X2595Y2220D03*
X2595Y2320D03*
X3904Y1602D03*
X4004Y1602D03*
X4104Y1602D03*
X813Y4507D03*
X813Y4407D03*
X813Y4307D03*
X2988Y2120D03*
X2988Y2220D03*
X2988Y2320D03*
X3904Y1208D03*
X4004Y1208D03*
X4104Y1208D03*
X3904Y2586D03*
X4004Y2586D03*
X4104Y2586D03*
X1807Y4507D03*
X1807Y4407D03*
X1807Y4307D03*
X1994Y2120D03*
X1994Y2220D03*
X1994Y2320D03*
X2201Y4507D03*
X2201Y4407D03*
X2201Y4307D03*
X1601Y2120D03*
X1601Y2220D03*
X1601Y2320D03*
X3904Y1405D03*
X4004Y1405D03*
X4104Y1405D03*
X3904Y2783D03*
X4004Y2783D03*
X4104Y2783D03*
X2004Y4507D03*
X2004Y4407D03*
X2004Y4307D03*
X1797Y2120D03*
X1797Y2220D03*
X1797Y2320D03*
X3904Y1011D03*
X4004Y1011D03*
X4104Y1011D03*
X3904Y2389D03*
X4004Y2389D03*
X4104Y2389D03*
X1610Y4507D03*
X1610Y4407D03*
X1610Y4307D03*
X2191Y2120D03*
X2191Y2220D03*
X2191Y2320D03*
X2398Y4507D03*
X2398Y4407D03*
X2398Y4307D03*
X1404Y2120D03*
X1404Y2220D03*
X1404Y2320D03*
X2595Y4507D03*
X2595Y4407D03*
X2595Y4307D03*
X1207Y2120D03*
X1207Y2220D03*
X1207Y2320D03*
X2791Y4507D03*
X2791Y4407D03*
X2791Y4307D03*
X1010Y2120D03*
X1010Y2220D03*
X1010Y2320D03*
X2988Y4507D03*
X2988Y4407D03*
X2988Y4307D03*
X813Y2120D03*
X813Y2220D03*
X813Y2320D03*
X1335Y191D03*
X1335Y291D03*
X1335Y391D03*
X1335Y496D03*
X1335Y596D03*
X1335Y696D03*
X1207Y3902D03*
X1207Y4200D03*
X1305Y3491D03*
X1305Y3789D03*
X2693Y3117D03*
X2693Y2819D03*
X1610Y3902D03*
X1610Y4200D03*
X1699Y3491D03*
X1699Y3789D03*
X2289Y3117D03*
X2289Y2819D03*
X813Y3902D03*
X813Y4200D03*
X912Y3491D03*
X912Y3789D03*
X3087Y3117D03*
X3087Y2819D03*
X2004Y3902D03*
X2004Y4200D03*
X2093Y3491D03*
X2093Y3789D03*
X1896Y3117D03*
X1896Y2819D03*
X2398Y3902D03*
X2398Y4200D03*
X2496Y3491D03*
X2496Y3789D03*
X1502Y3117D03*
X1502Y2819D03*
X2791Y3902D03*
X2791Y4200D03*
X2890Y3491D03*
X2890Y3789D03*
X1108Y3117D03*
X1108Y2819D03*
X2595Y2724D03*
X2595Y2426D03*
X2988Y2724D03*
X2988Y2426D03*
X1797Y2724D03*
X1797Y2426D03*
X2191Y2724D03*
X2191Y2426D03*
X1404Y2724D03*
X1404Y2426D03*
X1010Y2724D03*
X1010Y2426D03*
X2939Y5000D03*
X2939Y4702D03*
X862Y1621D03*
X862Y1919D03*
X2152Y5000D03*
X2152Y4702D03*
X1650Y1621D03*
X1650Y1919D03*
X1758Y5000D03*
X1758Y4702D03*
X2043Y1621D03*
X2043Y1919D03*
X2545Y5000D03*
X2545Y4702D03*
X1256Y1621D03*
X1256Y1919D03*
X2595Y3902D03*
X2595Y4200D03*
X2693Y3491D03*
X2693Y3789D03*
X1305Y3117D03*
X1305Y2819D03*
X1807Y3902D03*
X1807Y4200D03*
X1896Y3491D03*
X1896Y3789D03*
X2093Y3117D03*
X2093Y2819D03*
X1404Y3902D03*
X1404Y4200D03*
X1502Y3491D03*
X1502Y3789D03*
X2496Y3117D03*
X2496Y2819D03*
X2201Y3902D03*
X2201Y4200D03*
X2289Y3491D03*
X2289Y3789D03*
X1699Y3117D03*
X1699Y2819D03*
X1010Y3902D03*
X1010Y4200D03*
X1108Y3491D03*
X1108Y3789D03*
X2890Y3117D03*
X2890Y2819D03*
X2988Y3902D03*
X2988Y4200D03*
X3087Y3491D03*
X3087Y3789D03*
X912Y3117D03*
X912Y2819D03*
X2791Y2724D03*
X2791Y2426D03*
X2398Y2724D03*
X2398Y2426D03*
X1994Y2724D03*
X1994Y2426D03*
X1601Y2724D03*
X1601Y2426D03*
X1207Y2724D03*
X1207Y2426D03*
X813Y2724D03*
X813Y2426D03*
X2742Y5000D03*
X2742Y4702D03*
X1059Y1621D03*
X1059Y1919D03*
X971Y5000D03*
X971Y4702D03*
X2831Y1621D03*
X2831Y1919D03*
X1364Y5000D03*
X1364Y4702D03*
X2437Y1621D03*
X2437Y1919D03*
X2349Y5000D03*
X2349Y4702D03*
X1453Y1621D03*
X1453Y1919D03*
X774Y5000D03*
X774Y4702D03*
X3028Y1621D03*
X3028Y1919D03*
X1561Y5000D03*
X1561Y4702D03*
X2240Y1621D03*
X2240Y1919D03*
X1955Y5000D03*
X1955Y4702D03*
X1847Y1621D03*
X1847Y1919D03*
X1167Y5000D03*
X1167Y4702D03*
X2634Y1621D03*
X2634Y1919D03*
X2250Y5787D03*
X2250Y5489D03*
X2772Y6011D03*
X2772Y6309D03*
X2250Y5394D03*
X2250Y5096D03*
X1463Y6798D03*
X1165Y6798D03*
X1059Y6848D03*
X761Y6848D03*
X1551Y1227D03*
X1551Y1525D03*
X1167Y5787D03*
X1167Y5489D03*
X1167Y5394D03*
X1167Y5096D03*
X1463Y7881D03*
X1165Y7881D03*
X1059Y7930D03*
X761Y7930D03*
X2634Y1227D03*
X2634Y1525D03*
X1758Y5787D03*
X1758Y5489D03*
X1758Y5394D03*
X1758Y5096D03*
X1463Y7290D03*
X1165Y7290D03*
X1059Y7340D03*
X761Y7340D03*
X2043Y1227D03*
X2043Y1525D03*
X971Y5787D03*
X971Y5489D03*
X971Y5394D03*
X971Y5096D03*
X1463Y8078D03*
X1165Y8078D03*
X1059Y8127D03*
X761Y8127D03*
X2831Y1227D03*
X2831Y1525D03*
X2545Y5787D03*
X2545Y5489D03*
X2378Y6011D03*
X2378Y6309D03*
X2545Y5394D03*
X2545Y5096D03*
X1463Y6503D03*
X1165Y6503D03*
X1059Y6552D03*
X761Y6552D03*
X1256Y1227D03*
X1256Y1525D03*
X1364Y5787D03*
X1364Y5489D03*
X1364Y5394D03*
X1364Y5096D03*
X1463Y7684D03*
X1165Y7684D03*
X1059Y7733D03*
X761Y7733D03*
X2437Y1227D03*
X2437Y1525D03*
X2349Y5787D03*
X2349Y5489D03*
X2673Y6011D03*
X2673Y6309D03*
X2349Y5394D03*
X2349Y5096D03*
X1463Y6700D03*
X1165Y6700D03*
X1059Y6749D03*
X761Y6749D03*
X1453Y1227D03*
X1453Y1525D03*
X2841Y5787D03*
X2841Y5489D03*
X2083Y6011D03*
X2083Y6309D03*
X2841Y5394D03*
X2841Y5096D03*
X1463Y6208D03*
X1165Y6208D03*
X1059Y6257D03*
X761Y6257D03*
X961Y1227D03*
X961Y1525D03*
X2152Y5787D03*
X2152Y5489D03*
X2870Y6011D03*
X2870Y6309D03*
X2152Y5394D03*
X2152Y5096D03*
X1463Y6897D03*
X1165Y6897D03*
X1059Y6946D03*
X761Y6946D03*
X1650Y1227D03*
X1650Y1525D03*
X2939Y5787D03*
X2939Y5489D03*
X1984Y6011D03*
X1984Y6309D03*
X2939Y5394D03*
X2939Y5096D03*
X1463Y6109D03*
X1165Y6109D03*
X1059Y6159D03*
X761Y6159D03*
X862Y1227D03*
X862Y1525D03*
X1660Y5787D03*
X1660Y5489D03*
X1660Y5394D03*
X1660Y5096D03*
X1463Y7389D03*
X1165Y7389D03*
X1059Y7438D03*
X761Y7438D03*
X2142Y1227D03*
X2142Y1525D03*
X1561Y5787D03*
X1561Y5489D03*
X1561Y5394D03*
X1561Y5096D03*
X1463Y7487D03*
X1165Y7487D03*
X1059Y7537D03*
X761Y7537D03*
X2240Y1227D03*
X2240Y1525D03*
X1955Y5787D03*
X1955Y5489D03*
X3067Y6011D03*
X3067Y6309D03*
X1955Y5394D03*
X1955Y5096D03*
X1463Y7094D03*
X1165Y7094D03*
X1059Y7143D03*
X761Y7143D03*
X1847Y1227D03*
X1847Y1525D03*
X2742Y5787D03*
X2742Y5489D03*
X2181Y6011D03*
X2181Y6309D03*
X2742Y5394D03*
X2742Y5096D03*
X1463Y6306D03*
X1165Y6306D03*
X1059Y6355D03*
X761Y6355D03*
X1059Y1227D03*
X1059Y1525D03*
X1069Y5787D03*
X1069Y5489D03*
X1069Y5394D03*
X1069Y5096D03*
X1463Y7979D03*
X1165Y7979D03*
X1059Y8029D03*
X761Y8029D03*
X2732Y1227D03*
X2732Y1525D03*
X1463Y5787D03*
X1463Y5489D03*
X1463Y5394D03*
X1463Y5096D03*
X1463Y7586D03*
X1165Y7586D03*
X1059Y7635D03*
X761Y7635D03*
X2339Y1227D03*
X2339Y1525D03*
X2053Y5787D03*
X2053Y5489D03*
X2969Y6011D03*
X2969Y6309D03*
X2053Y5394D03*
X2053Y5096D03*
X1463Y6995D03*
X1165Y6995D03*
X1059Y7044D03*
X761Y7044D03*
X1748Y1227D03*
X1748Y1525D03*
X3038Y5787D03*
X3038Y5489D03*
X1886Y6011D03*
X1886Y6309D03*
X3038Y5394D03*
X3038Y5096D03*
X1463Y6011D03*
X1165Y6011D03*
X1059Y6060D03*
X761Y6060D03*
X764Y1227D03*
X764Y1525D03*
X872Y5787D03*
X872Y5489D03*
X872Y5394D03*
X872Y5096D03*
X1463Y8176D03*
X1165Y8176D03*
X1059Y8226D03*
X761Y8226D03*
X2929Y1227D03*
X2929Y1525D03*
X1856Y5787D03*
X1856Y5489D03*
X1856Y5394D03*
X1856Y5096D03*
X1463Y7192D03*
X1165Y7192D03*
X1059Y7241D03*
X761Y7241D03*
X1945Y1227D03*
X1945Y1525D03*
X2644Y5787D03*
X2644Y5489D03*
X2280Y6011D03*
X2280Y6309D03*
X2644Y5394D03*
X2644Y5096D03*
X1463Y6405D03*
X1165Y6405D03*
X1059Y6454D03*
X761Y6454D03*
X1158Y1227D03*
X1158Y1525D03*
X2447Y5787D03*
X2447Y5489D03*
X2575Y6011D03*
X2575Y6309D03*
X2476Y6011D03*
X2476Y6309D03*
X2447Y5394D03*
X2447Y5096D03*
X1463Y6602D03*
X1165Y6602D03*
X1059Y6651D03*
X761Y6651D03*
X1354Y1227D03*
X1354Y1525D03*
X774Y5787D03*
X774Y5489D03*
X774Y5394D03*
X774Y5096D03*
X1463Y8373D03*
X1165Y8373D03*
X1463Y8275D03*
X1165Y8275D03*
X1059Y8324D03*
X761Y8324D03*
X3028Y1227D03*
X3028Y1525D03*
X1266Y5787D03*
X1266Y5489D03*
X1266Y5394D03*
X1266Y5096D03*
X1463Y7783D03*
X1165Y7783D03*
X1059Y7832D03*
X761Y7832D03*
X2536Y1227D03*
X2536Y1525D03*
X3028Y844D03*
X3028Y1142D03*
X2929Y844D03*
X2929Y1142D03*
X2732Y844D03*
X2732Y1142D03*
X2339Y844D03*
X2339Y1142D03*
X2634Y844D03*
X2634Y1142D03*
X2536Y844D03*
X2536Y1142D03*
X2831Y844D03*
X2831Y1142D03*
X2437Y844D03*
X2437Y1142D03*
X1650Y844D03*
X1650Y1142D03*
X1551Y844D03*
X1551Y1142D03*
X2043Y844D03*
X2043Y1142D03*
X1748Y844D03*
X1748Y1142D03*
X2142Y844D03*
X2142Y1142D03*
X2240Y844D03*
X2240Y1142D03*
X1847Y844D03*
X1847Y1142D03*
X1945Y844D03*
X1945Y1142D03*
X1158Y844D03*
X1158Y1142D03*
X1256Y844D03*
X1256Y1142D03*
X1453Y844D03*
X1453Y1142D03*
X1354Y844D03*
X1354Y1142D03*
X961Y844D03*
X961Y1142D03*
X1059Y844D03*
X1059Y1142D03*
X862Y844D03*
X862Y1142D03*
X764Y844D03*
X764Y1142D03*
X1492Y391D03*
X1790Y391D03*
X1492Y499D03*
X1790Y499D03*
X1788Y292D03*
X1490Y292D03*
X1788Y598D03*
X1490Y598D03*
G54D15*
X4199Y617D03*
X4199Y617D03*
X1610Y8078D03*
X1610Y8078D03*
X4199Y420D03*
X4199Y420D03*
X1610Y8275D03*
X1610Y8275D03*
X4199Y1011D03*
X4199Y1011D03*
X1610Y7684D03*
X1610Y7684D03*
X4199Y814D03*
X4199Y814D03*
X1610Y7881D03*
X1610Y7881D03*
X4199Y1405D03*
X4199Y1405D03*
X1610Y7290D03*
X1610Y7290D03*
X4199Y1208D03*
X4199Y1208D03*
X1610Y7487D03*
X1610Y7487D03*
X4199Y1798D03*
X4199Y1798D03*
X1610Y6700D03*
X1610Y6700D03*
X4199Y1602D03*
X4199Y1602D03*
X1610Y6897D03*
X1610Y6897D03*
X4199Y1995D03*
X4199Y1995D03*
X1610Y6503D03*
X1610Y6503D03*
X4199Y2192D03*
X4199Y2192D03*
X1610Y6208D03*
X1610Y6208D03*
G54D16*
X4228Y2389D03*
X4228Y2489D03*
X4228Y2589D03*
G54D15*
X2217Y6898D03*
X2317Y6898D03*
X2417Y6898D03*
X2517Y6898D03*
X2617Y6898D03*
X2717Y6898D03*
X2817Y6898D03*
X2217Y6898D03*
X2317Y6898D03*
X2417Y6898D03*
X2517Y6898D03*
X2617Y6898D03*
X2717Y6898D03*
X2817Y6898D03*
X351Y5565D03*
X351Y5665D03*
X351Y5765D03*
X351Y5865D03*
X351Y5965D03*
X351Y6065D03*
X351Y6165D03*
X351Y5565D03*
X351Y5665D03*
X351Y5765D03*
X351Y5865D03*
X351Y5965D03*
X351Y6065D03*
X351Y6165D03*
X124Y5568D03*
X124Y5668D03*
X124Y5768D03*
X124Y5868D03*
X124Y5968D03*
X124Y6068D03*
X124Y6168D03*
X124Y5568D03*
X124Y5668D03*
X124Y5768D03*
X124Y5868D03*
X124Y5968D03*
X124Y6068D03*
X124Y6168D03*
X124Y165D03*
X124Y265D03*
X124Y365D03*
X124Y465D03*
X124Y165D03*
X124Y265D03*
X124Y365D03*
X124Y465D03*
X124Y862D03*
X124Y962D03*
X124Y1062D03*
X124Y1162D03*
X124Y1262D03*
X124Y1362D03*
X124Y1462D03*
X124Y1562D03*
X124Y862D03*
X124Y962D03*
X124Y1062D03*
X124Y1162D03*
X124Y1262D03*
X124Y1362D03*
X124Y1462D03*
X124Y1562D03*
X124Y7930D03*
X124Y8030D03*
X124Y8130D03*
X124Y8230D03*
X124Y8330D03*
X124Y8430D03*
X124Y8530D03*
X124Y7930D03*
X124Y8030D03*
X124Y8130D03*
X124Y8230D03*
X124Y8330D03*
X124Y8430D03*
X124Y8530D03*
G54D11*
X1847Y1454D03*
X2240Y1454D03*
X1650Y1454D03*
X1059Y1454D03*
X1453Y1454D03*
X1256Y1454D03*
X862Y1454D03*
X2988Y2586D03*
X3412Y3708D03*
X2595Y3619D03*
X2289Y3619D03*
X2388Y3570D03*
X2289Y3413D03*
X2093Y3363D03*
X1896Y3245D03*
X3215Y3196D03*
X3608Y3491D03*
X3510Y3619D03*
X3559Y3570D03*
X3362Y3413D03*
X3313Y3363D03*
X3264Y3245D03*
X1305Y2989D03*
X2988Y2989D03*
X3658Y2989D03*
X3707Y2940D03*
X1108Y2940D03*
X2791Y2940D03*
X3087Y2940D03*
X2890Y2891D03*
X2595Y2891D03*
X2791Y2586D03*
X2634Y1405D03*
X2437Y1405D03*
X2831Y1405D03*
X2536Y1355D03*
X2339Y1355D03*
X2732Y1355D03*
X1354Y1355D03*
X961Y1355D03*
X764Y1355D03*
X1158Y1355D03*
X2634Y1060D03*
X2437Y1060D03*
X1847Y1060D03*
X1650Y1060D03*
X1059Y1060D03*
X862Y1060D03*
X1256Y1011D03*
X1453Y1011D03*
X2043Y1011D03*
X2240Y1011D03*
X2831Y1011D03*
X2732Y962D03*
X2339Y962D03*
X1945Y962D03*
X1551Y962D03*
X1158Y962D03*
X764Y962D03*
X695Y5716D03*
X1108Y1798D03*
X695Y1454D03*
X459Y6306D03*
X557Y6454D03*
X606Y6503D03*
X508Y6651D03*
X557Y6700D03*
X508Y6848D03*
X459Y6798D03*
X410Y6897D03*
X508Y7143D03*
X459Y7094D03*
X410Y7192D03*
X508Y7340D03*
X410Y7389D03*
X557Y7438D03*
X656Y7487D03*
X459Y7537D03*
X508Y7586D03*
X410Y7635D03*
X459Y7783D03*
X410Y7832D03*
X557Y7881D03*
X606Y7930D03*
X508Y8029D03*
X557Y8078D03*
X459Y8127D03*
X508Y8176D03*
X557Y8226D03*
X606Y8275D03*
X656Y8324D03*
X705Y8373D03*
X646Y5666D03*
X646Y1405D03*
X597Y5617D03*
X597Y1355D03*
X2969Y6572D03*
X2181Y6523D03*
X2083Y6474D03*
X2870Y6474D03*
X2772Y6424D03*
X1984Y6424D03*
X547Y5568D03*
X547Y1306D03*
X2545Y5617D03*
X2742Y5617D03*
X2939Y5617D03*
X2349Y5617D03*
X971Y5617D03*
X1167Y5617D03*
X1364Y5617D03*
X774Y5617D03*
X1955Y5568D03*
X2152Y5568D03*
X1561Y5568D03*
X1758Y5568D03*
X2250Y5273D03*
X2053Y5273D03*
X1463Y5273D03*
X1266Y5273D03*
X498Y5322D03*
X498Y1060D03*
X449Y5273D03*
X449Y1011D03*
X400Y5224D03*
X400Y962D03*
X2939Y5174D03*
X351Y5174D03*
X351Y913D03*
X2043Y1454D03*
G54D14*
X1433Y194D03*
X1833Y194D03*
X807Y391D03*
X1207Y391D03*
X807Y499D03*
X1207Y499D03*
X1266Y5000D03*
X1266Y4600D03*
X2536Y1621D03*
X2536Y2021D03*
X1069Y5000D03*
X1069Y4600D03*
X2732Y1621D03*
X2732Y2021D03*
X872Y5000D03*
X872Y4600D03*
X2929Y1621D03*
X2929Y2021D03*
X1463Y5000D03*
X1463Y4600D03*
X2339Y1621D03*
X2339Y2021D03*
X2053Y5000D03*
X2053Y4600D03*
X1748Y1621D03*
X1748Y2021D03*
X1856Y5000D03*
X1856Y4600D03*
X1945Y1621D03*
X1945Y2021D03*
X1660Y5000D03*
X1660Y4600D03*
X2142Y1621D03*
X2142Y2021D03*
X2250Y5000D03*
X2250Y4600D03*
X1551Y1621D03*
X1551Y2021D03*
X2644Y5000D03*
X2644Y4600D03*
X1158Y1621D03*
X1158Y2021D03*
X2319Y7399D03*
X2319Y6999D03*
X2417Y7399D03*
X2417Y6999D03*
X2219Y7399D03*
X2219Y6999D03*
X2811Y7399D03*
X2811Y6999D03*
X2713Y7399D03*
X2713Y6999D03*
X2614Y7399D03*
X2614Y6999D03*
X2516Y7399D03*
X2516Y6999D03*
X2447Y5000D03*
X2447Y4600D03*
X1354Y1621D03*
X1354Y2021D03*
X2841Y5000D03*
X2841Y4600D03*
X961Y1621D03*
X961Y2021D03*
X3038Y5000D03*
X3038Y4600D03*
X764Y1621D03*
X764Y2021D03*
X1935Y224D03*
X2335Y224D03*
X1935Y519D03*
X2335Y519D03*
X3412Y322D03*
X3812Y322D03*
X3412Y519D03*
X3812Y519D03*
X3412Y716D03*
X3812Y716D03*
X3412Y913D03*
X3812Y913D03*
X3412Y1109D03*
X3812Y1109D03*
X3412Y1306D03*
X3812Y1306D03*
X3412Y1503D03*
X3812Y1503D03*
X3412Y1700D03*
X3812Y1700D03*
X3412Y1897D03*
X3812Y1897D03*
X3412Y2094D03*
X3812Y2094D03*
X3412Y2290D03*
X3812Y2290D03*
X3412Y2487D03*
X3812Y2487D03*
X3412Y2684D03*
X3812Y2684D03*
X1935Y666D03*
X2335Y666D03*
X1433Y696D03*
X1833Y696D03*
G54D17*
X1207Y3902D03*
X1305Y3491D03*
X2693Y3117D03*
X1610Y3902D03*
X1699Y3491D03*
X2289Y3117D03*
X813Y3902D03*
X912Y3491D03*
X3087Y3117D03*
X2004Y3902D03*
X2093Y3491D03*
X1896Y3117D03*
X2398Y3902D03*
X2496Y3491D03*
X1502Y3117D03*
X2791Y3902D03*
X2890Y3491D03*
X1108Y3117D03*
X2595Y2724D03*
X2988Y2724D03*
X1797Y2724D03*
X2191Y2724D03*
X1404Y2724D03*
X1010Y2724D03*
X2939Y5000D03*
X862Y1621D03*
X2152Y5000D03*
X1650Y1621D03*
X1758Y5000D03*
X2043Y1621D03*
X2545Y5000D03*
X1256Y1621D03*
X2595Y3902D03*
X2693Y3491D03*
X1305Y3117D03*
X1807Y3902D03*
X1896Y3491D03*
X2093Y3117D03*
X1404Y3902D03*
X1502Y3491D03*
X2496Y3117D03*
X2201Y3902D03*
X2289Y3491D03*
X1699Y3117D03*
X1010Y3902D03*
X1108Y3491D03*
X2890Y3117D03*
X2988Y3902D03*
X3087Y3491D03*
X912Y3117D03*
X2791Y2724D03*
X2398Y2724D03*
X1994Y2724D03*
X1601Y2724D03*
X1207Y2724D03*
X813Y2724D03*
X2742Y5000D03*
X1059Y1621D03*
X971Y5000D03*
X2831Y1621D03*
X1364Y5000D03*
X2437Y1621D03*
X2349Y5000D03*
X1453Y1621D03*
X774Y5000D03*
X3028Y1621D03*
X1561Y5000D03*
X2240Y1621D03*
X1955Y5000D03*
X1847Y1621D03*
X1167Y5000D03*
X2634Y1621D03*
X2250Y5787D03*
X2772Y6011D03*
X2250Y5394D03*
X1463Y6798D03*
X1059Y6848D03*
X1551Y1227D03*
X1167Y5787D03*
X1167Y5394D03*
X1463Y7881D03*
X1059Y7930D03*
X2634Y1227D03*
X1758Y5787D03*
X1758Y5394D03*
X1463Y7290D03*
X1059Y7340D03*
X2043Y1227D03*
X971Y5787D03*
X971Y5394D03*
X1463Y8078D03*
X1059Y8127D03*
X2831Y1227D03*
X2545Y5787D03*
X2378Y6011D03*
X2545Y5394D03*
X1463Y6503D03*
X1059Y6552D03*
X1256Y1227D03*
X1364Y5787D03*
X1364Y5394D03*
X1463Y7684D03*
X1059Y7733D03*
X2437Y1227D03*
X2349Y5787D03*
X2673Y6011D03*
X2349Y5394D03*
X1463Y6700D03*
X1059Y6749D03*
X1453Y1227D03*
X2841Y5787D03*
X2083Y6011D03*
X2841Y5394D03*
X1463Y6208D03*
X1059Y6257D03*
X961Y1227D03*
X2152Y5787D03*
X2870Y6011D03*
X2152Y5394D03*
X1463Y6897D03*
X1059Y6946D03*
X1650Y1227D03*
X2939Y5787D03*
X1984Y6011D03*
X2939Y5394D03*
X1463Y6109D03*
X1059Y6159D03*
X862Y1227D03*
X1660Y5787D03*
X1660Y5394D03*
X1463Y7389D03*
X1059Y7438D03*
X2142Y1227D03*
X1561Y5787D03*
X1561Y5394D03*
X1463Y7487D03*
X1059Y7537D03*
X2240Y1227D03*
X1955Y5787D03*
X3067Y6011D03*
X1955Y5394D03*
X1463Y7094D03*
X1059Y7143D03*
X1847Y1227D03*
X2742Y5787D03*
X2181Y6011D03*
X2742Y5394D03*
X1463Y6306D03*
X1059Y6355D03*
X1059Y1227D03*
X1069Y5787D03*
X1069Y5394D03*
X1463Y7979D03*
X1059Y8029D03*
X2732Y1227D03*
X1463Y5787D03*
X1463Y5394D03*
X1463Y7586D03*
X1059Y7635D03*
X2339Y1227D03*
X2053Y5787D03*
X2969Y6011D03*
X2053Y5394D03*
X1463Y6995D03*
X1059Y7044D03*
X1748Y1227D03*
X3038Y5787D03*
X1886Y6011D03*
X3038Y5394D03*
X1463Y6011D03*
X1059Y6060D03*
X764Y1227D03*
X872Y5787D03*
X872Y5394D03*
X1463Y8176D03*
X1059Y8226D03*
X2929Y1227D03*
X1856Y5787D03*
X1856Y5394D03*
X1463Y7192D03*
X1059Y7241D03*
X1945Y1227D03*
X2644Y5787D03*
X2280Y6011D03*
X2644Y5394D03*
X1463Y6405D03*
X1059Y6454D03*
X1158Y1227D03*
X2447Y5787D03*
X2575Y6011D03*
X2476Y6011D03*
X2447Y5394D03*
X1463Y6602D03*
X1059Y6651D03*
X1354Y1227D03*
X774Y5787D03*
X774Y5394D03*
X1463Y8373D03*
X1463Y8275D03*
X1059Y8324D03*
X3028Y1227D03*
X1266Y5787D03*
X1266Y5394D03*
X1463Y7783D03*
X1059Y7832D03*
X2536Y1227D03*
X3028Y844D03*
X2929Y844D03*
X2732Y844D03*
X2339Y844D03*
X2634Y844D03*
X2536Y844D03*
X2831Y844D03*
X2437Y844D03*
X1650Y844D03*
X1551Y844D03*
X2043Y844D03*
X1748Y844D03*
X2142Y844D03*
X2240Y844D03*
X1847Y844D03*
X1945Y844D03*
X1158Y844D03*
X1256Y844D03*
X1453Y844D03*
X1354Y844D03*
X961Y844D03*
X1059Y844D03*
X862Y844D03*
X764Y844D03*
X1492Y391D03*
X1492Y499D03*
X1788Y292D03*
X1788Y598D03*
G54D18*
X2987Y3708D02*
X2988Y3889D01*
D02*
X2791Y3708D02*
X2791Y3889D01*
D02*
X2595Y3708D02*
X2595Y3889D01*
D02*
X2397Y3766D02*
X2398Y3889D01*
D02*
X2448Y3708D02*
X2397Y3766D01*
D02*
X3057Y2153D02*
X3057Y1985D01*
D02*
X3057Y1985D02*
X3033Y1931D01*
D02*
X2997Y2211D02*
X3057Y2153D01*
D02*
X2317Y6912D02*
X2319Y6986D01*
D02*
X2417Y6912D02*
X2417Y6986D01*
D02*
X2517Y6912D02*
X2516Y6986D01*
D02*
X2617Y6912D02*
X2615Y6986D01*
D02*
X2717Y6912D02*
X2713Y6986D01*
D02*
X2816Y6912D02*
X2812Y6986D01*
D02*
X2319Y7329D02*
X1747Y6985D01*
D02*
X2084Y6551D02*
X2319Y6671D01*
D02*
X1867Y6551D02*
X2084Y6551D01*
D02*
X1747Y6701D02*
X1867Y6551D01*
D02*
X2674Y6622D02*
X2673Y6321D01*
D02*
X1747Y6985D02*
X1747Y6701D01*
D02*
X2319Y6671D02*
X2624Y6671D01*
D02*
X2624Y6671D02*
X2674Y6622D01*
D02*
X2319Y7386D02*
X2319Y7329D01*
D02*
X1152Y8373D02*
X713Y8373D01*
D02*
X697Y8375D02*
X137Y8527D01*
D02*
X749Y8324D02*
X664Y8324D01*
D02*
X648Y8325D02*
X138Y8428D01*
D02*
X1152Y8275D02*
X614Y8275D01*
D02*
X599Y8276D02*
X138Y8329D01*
D02*
X749Y8226D02*
X565Y8226D01*
D02*
X549Y8226D02*
X138Y8230D01*
D02*
X1152Y8176D02*
X516Y8176D01*
D02*
X749Y8127D02*
X467Y8127D01*
D02*
X452Y8123D02*
X136Y7937D01*
D02*
X409Y8176D02*
X136Y8036D01*
D02*
X500Y8176D02*
X409Y8176D01*
D02*
X1152Y8078D02*
X565Y8078D01*
D02*
X749Y8029D02*
X516Y8029D01*
D02*
X749Y7930D02*
X614Y7930D01*
D02*
X565Y7881D02*
X1152Y7881D01*
D02*
X749Y7832D02*
X417Y7832D01*
D02*
X1152Y7783D02*
X467Y7783D01*
D02*
X749Y7635D02*
X417Y7635D01*
D02*
X1152Y7586D02*
X516Y7586D01*
D02*
X749Y7537D02*
X467Y7537D01*
D02*
X1152Y7487D02*
X664Y7487D01*
D02*
X749Y7438D02*
X565Y7438D01*
D02*
X1152Y7389D02*
X417Y7389D01*
D02*
X749Y7340D02*
X516Y7340D01*
D02*
X1152Y7192D02*
X417Y7192D01*
D02*
X749Y7143D02*
X516Y7143D01*
D02*
X1152Y7094D02*
X467Y7094D01*
D02*
X1152Y6897D02*
X417Y6897D01*
D02*
X749Y6848D02*
X516Y6848D01*
D02*
X1152Y6798D02*
X467Y6798D01*
D02*
X1152Y6700D02*
X565Y6700D01*
D02*
X749Y6651D02*
X516Y6651D01*
D02*
X1152Y6503D02*
X614Y6503D01*
D02*
X749Y6454D02*
X565Y6454D01*
D02*
X507Y6405D02*
X409Y6503D01*
D02*
X1152Y6405D02*
X507Y6405D01*
D02*
X1152Y6306D02*
X467Y6306D01*
G54D19*
D02*
X579Y440D02*
X358Y440D01*
D02*
X579Y263D02*
X358Y263D01*
D02*
X2978Y224D02*
X2784Y365D01*
D02*
X3953Y224D02*
X2978Y224D01*
G54D18*
D02*
X1227Y6159D02*
X1227Y6356D01*
D02*
X1227Y6356D02*
X1175Y6397D01*
D02*
X1174Y6117D02*
X1227Y6159D01*
D02*
X409Y6503D02*
X410Y6889D01*
D02*
X343Y911D02*
X138Y865D01*
D02*
X138Y962D02*
X392Y962D01*
D02*
X138Y1060D02*
X441Y1012D01*
D02*
X137Y1159D02*
X491Y1062D01*
D02*
X540Y1305D02*
X138Y1264D01*
D02*
X589Y1356D02*
X138Y1362D01*
D02*
X638Y1406D02*
X138Y1461D01*
D02*
X687Y1455D02*
X138Y1560D01*
D02*
X323Y442D02*
X138Y463D01*
G54D19*
D02*
X323Y263D02*
X138Y264D01*
D02*
X2308Y75D02*
X2766Y365D01*
D02*
X675Y75D02*
X2308Y75D01*
D02*
X603Y247D02*
X675Y75D01*
G54D18*
D02*
X645Y362D02*
X138Y364D01*
D02*
X2259Y125D02*
X744Y125D01*
D02*
X744Y125D02*
X645Y362D01*
D02*
X2328Y214D02*
X2259Y125D01*
D02*
X1197Y8323D02*
X1450Y8371D01*
D02*
X1072Y8324D02*
X1197Y8323D01*
D02*
X1197Y8029D02*
X1450Y8076D01*
D02*
X1072Y8029D02*
X1197Y8029D01*
D02*
X1197Y7930D02*
X1450Y7977D01*
D02*
X1072Y7930D02*
X1197Y7930D01*
D02*
X1197Y7439D02*
X1450Y7485D01*
D02*
X1072Y7438D02*
X1197Y7439D01*
D02*
X1197Y7634D02*
X1450Y7682D01*
D02*
X1072Y7635D02*
X1197Y7634D01*
D02*
X1197Y7241D02*
X1450Y7288D01*
D02*
X1072Y7241D02*
X1197Y7241D01*
D02*
X1207Y6947D02*
X1450Y6993D01*
D02*
X1072Y6946D02*
X1207Y6947D01*
D02*
X1197Y6650D02*
X1450Y6698D01*
D02*
X1072Y6651D02*
X1197Y6650D01*
D02*
X1197Y6552D02*
X1450Y6599D01*
D02*
X1072Y6552D02*
X1197Y6552D01*
D02*
X911Y2980D02*
X980Y2891D01*
D02*
X911Y3105D02*
X911Y2980D01*
D02*
X1040Y2989D02*
X915Y3479D01*
D02*
X1112Y3479D02*
X1226Y3049D01*
D02*
X1502Y3197D02*
X1312Y3481D01*
D02*
X1700Y3245D02*
X1510Y3482D01*
D02*
X1817Y3363D02*
X1707Y3482D01*
D02*
X1984Y6416D02*
X1984Y6321D01*
D02*
X2083Y6466D02*
X2083Y6321D01*
D02*
X2181Y6515D02*
X2181Y6321D01*
D02*
X2280Y6515D02*
X2280Y6321D01*
D02*
X2378Y6466D02*
X2378Y6321D01*
D02*
X2476Y6564D02*
X2476Y6321D01*
D02*
X2771Y6622D02*
X2772Y6432D01*
D02*
X2418Y7261D02*
X2143Y7094D01*
D02*
X2143Y7094D02*
X2143Y6848D01*
D02*
X2143Y6848D02*
X2319Y6730D01*
D02*
X2319Y6730D02*
X2654Y6730D01*
D02*
X2654Y6730D02*
X2771Y6622D01*
D02*
X2418Y7386D02*
X2418Y7261D01*
D02*
X2900Y6730D02*
X2871Y6622D01*
D02*
X2871Y6622D02*
X2870Y6481D01*
D02*
X2900Y7044D02*
X2900Y6730D01*
D02*
X2516Y7261D02*
X2900Y7044D01*
D02*
X2516Y7386D02*
X2516Y7261D01*
D02*
X2959Y7074D02*
X2968Y6580D01*
D02*
X2720Y7389D02*
X2959Y7074D01*
D02*
X2969Y6564D02*
X2969Y6321D01*
D02*
X3067Y6515D02*
X3067Y6321D01*
D02*
X2870Y6466D02*
X2870Y6321D01*
D02*
X2772Y6416D02*
X2772Y6321D01*
D02*
X3215Y2507D02*
X3403Y2300D01*
D02*
X2723Y2507D02*
X3215Y2507D01*
D02*
X2217Y6912D02*
X2219Y6986D01*
D02*
X2890Y4929D02*
X2742Y4929D01*
D02*
X2742Y4929D02*
X2545Y4928D01*
D02*
X2545Y4928D02*
X2349Y4928D01*
D02*
X2349Y4928D02*
X2152Y4928D01*
D02*
X2152Y4928D02*
X1955Y4928D01*
D02*
X1955Y4928D02*
X1758Y4928D01*
D02*
X1758Y4928D02*
X1561Y4928D01*
D02*
X1561Y4928D02*
X1364Y4929D01*
D02*
X1364Y4929D02*
X1167Y4928D01*
D02*
X1167Y4928D02*
X970Y4929D01*
D02*
X970Y4929D02*
X774Y4928D01*
D02*
X2932Y4990D02*
X2890Y4929D01*
D02*
X774Y4928D02*
X774Y4987D01*
D02*
X970Y4929D02*
X970Y4987D01*
D02*
X1167Y4928D02*
X1167Y4987D01*
D02*
X1364Y4929D02*
X1364Y4987D01*
D02*
X1561Y4928D02*
X1561Y4987D01*
D02*
X1758Y4928D02*
X1758Y4987D01*
D02*
X1955Y4928D02*
X1955Y4987D01*
D02*
X2152Y4928D02*
X2152Y4987D01*
D02*
X2349Y4928D02*
X2349Y4987D01*
D02*
X2545Y4928D02*
X2545Y4987D01*
D02*
X2742Y4929D02*
X2742Y4987D01*
D02*
X2538Y5174D02*
X2160Y5174D01*
D02*
X2931Y5174D02*
X2553Y5174D01*
D02*
X2144Y5174D02*
X1766Y5174D01*
D02*
X1750Y5174D02*
X1372Y5174D01*
D02*
X1356Y5174D02*
X978Y5174D01*
D02*
X963Y5174D02*
X358Y5174D01*
D02*
X766Y5224D02*
X408Y5224D01*
D02*
X1160Y5224D02*
X782Y5224D01*
D02*
X1553Y5224D02*
X1175Y5224D01*
D02*
X1947Y5224D02*
X1569Y5224D01*
D02*
X2341Y5224D02*
X1963Y5224D01*
D02*
X2734Y5224D02*
X2356Y5224D01*
D02*
X1258Y5273D02*
X457Y5273D01*
D02*
X1455Y5273D02*
X1274Y5273D01*
D02*
X2045Y5273D02*
X1471Y5273D01*
D02*
X2242Y5273D02*
X2061Y5273D01*
D02*
X2841Y5272D02*
X2258Y5273D01*
D02*
X2939Y5272D02*
X2841Y5272D01*
D02*
X3030Y5384D02*
X2939Y5272D01*
D02*
X2841Y5272D02*
X2841Y5381D01*
D02*
X872Y5321D02*
X506Y5322D01*
D02*
X1068Y5321D02*
X872Y5321D01*
D02*
X1660Y5322D02*
X1068Y5321D01*
D02*
X1857Y5321D02*
X1660Y5322D01*
D02*
X2447Y5322D02*
X1857Y5321D01*
D02*
X2584Y5321D02*
X2447Y5322D01*
D02*
X2636Y5384D02*
X2584Y5321D01*
D02*
X872Y5321D02*
X872Y5381D01*
D02*
X1068Y5321D02*
X1069Y5381D01*
D02*
X1660Y5322D02*
X1660Y5381D01*
D02*
X1857Y5321D02*
X1857Y5381D01*
D02*
X2447Y5322D02*
X2447Y5381D01*
D02*
X1553Y5568D02*
X555Y5568D01*
D02*
X1750Y5568D02*
X1569Y5568D01*
D02*
X1947Y5568D02*
X1766Y5568D01*
D02*
X2144Y5568D02*
X1963Y5568D01*
D02*
X766Y5617D02*
X604Y5617D01*
D02*
X963Y5617D02*
X782Y5617D01*
D02*
X1160Y5617D02*
X978Y5617D01*
D02*
X1356Y5617D02*
X1175Y5617D01*
D02*
X2341Y5617D02*
X1372Y5617D01*
D02*
X2538Y5617D02*
X2356Y5617D01*
D02*
X2734Y5617D02*
X2553Y5617D01*
D02*
X2931Y5617D02*
X2750Y5617D01*
D02*
X2841Y5666D02*
X2644Y5667D01*
D02*
X2644Y5667D02*
X2447Y5667D01*
D02*
X2447Y5667D02*
X654Y5666D01*
D02*
X2939Y5667D02*
X2841Y5666D01*
D02*
X3030Y5778D02*
X2939Y5667D01*
D02*
X2447Y5667D02*
X2447Y5775D01*
D02*
X2644Y5667D02*
X2644Y5775D01*
D02*
X2841Y5666D02*
X2841Y5775D01*
D02*
X873Y5716D02*
X703Y5716D01*
D02*
X1068Y5716D02*
X873Y5716D01*
D02*
X1266Y5716D02*
X1068Y5716D01*
D02*
X1463Y5716D02*
X1266Y5716D01*
D02*
X1660Y5716D02*
X1463Y5716D01*
D02*
X1856Y5716D02*
X1660Y5716D01*
D02*
X2053Y5716D02*
X1856Y5716D01*
D02*
X2201Y5716D02*
X2053Y5716D01*
D02*
X2243Y5777D02*
X2201Y5716D01*
D02*
X873Y5716D02*
X872Y5775D01*
D02*
X1068Y5716D02*
X1069Y5775D01*
D02*
X1266Y5716D02*
X1266Y5775D01*
D02*
X1463Y5716D02*
X1463Y5775D01*
D02*
X1660Y5716D02*
X1660Y5775D01*
D02*
X1856Y5716D02*
X1856Y5775D01*
D02*
X2053Y5716D02*
X2053Y5775D01*
D02*
X2775Y685D02*
X2775Y382D01*
G54D19*
D02*
X4104Y2598D02*
X4104Y2770D01*
D02*
X4104Y2401D02*
X4104Y2573D01*
D02*
X4104Y2205D02*
X4104Y2376D01*
D02*
X4104Y2008D02*
X4104Y2180D01*
D02*
X4104Y1811D02*
X4104Y1983D01*
D02*
X4104Y1614D02*
X4104Y1786D01*
D02*
X4104Y1417D02*
X4104Y1589D01*
D02*
X4104Y1220D02*
X4104Y1392D01*
D02*
X4104Y1023D02*
X4104Y1195D01*
D02*
X4104Y827D02*
X4104Y998D01*
D02*
X4104Y630D02*
X4104Y802D01*
D02*
X4104Y433D02*
X4104Y605D01*
D02*
X4096Y410D02*
X3953Y224D01*
D02*
X1057Y4600D02*
X885Y4600D01*
D02*
X1253Y4600D02*
X1082Y4600D01*
D02*
X1450Y4600D02*
X1278Y4600D01*
D02*
X1647Y4600D02*
X1475Y4600D01*
D02*
X1844Y4600D02*
X1672Y4600D01*
D02*
X2041Y4600D02*
X1869Y4600D01*
D02*
X2238Y4600D02*
X2066Y4600D01*
D02*
X2434Y4600D02*
X2263Y4600D01*
D02*
X2631Y4600D02*
X2459Y4600D01*
D02*
X2828Y4600D02*
X2656Y4600D01*
D02*
X3025Y4600D02*
X2853Y4600D01*
G54D18*
D02*
X783Y1799D02*
X676Y1917D01*
D02*
X676Y1917D02*
X673Y4791D01*
D02*
X1101Y1798D02*
X783Y1799D01*
D02*
X673Y4791D02*
X774Y4928D01*
D02*
X3086Y3983D02*
X2202Y3983D01*
D02*
X2202Y3983D02*
X2005Y3983D01*
D02*
X2005Y3983D02*
X1808Y3983D01*
D02*
X1808Y3983D02*
X1611Y3983D01*
D02*
X1611Y3983D02*
X1403Y3984D01*
D02*
X1403Y3984D02*
X1207Y3984D01*
D02*
X1207Y3984D02*
X1010Y3984D01*
D02*
X1010Y3984D02*
X883Y3984D01*
D02*
X883Y3984D02*
X821Y3911D01*
D02*
X3454Y3761D02*
X3086Y3983D01*
D02*
X1010Y3984D02*
X1010Y3914D01*
D02*
X1207Y3984D02*
X1207Y3914D01*
D02*
X1403Y3984D02*
X1404Y3914D01*
D02*
X1611Y3983D02*
X1610Y3914D01*
D02*
X1808Y3983D02*
X1807Y3914D01*
D02*
X2005Y3983D02*
X2004Y3914D01*
D02*
X2202Y3983D02*
X2201Y3914D01*
D02*
X2587Y2891D02*
X980Y2891D01*
D02*
X2882Y2891D02*
X2602Y2891D01*
D02*
X3332Y2122D02*
X3471Y2241D01*
D02*
X3471Y2241D02*
X3471Y2842D01*
D02*
X3471Y2842D02*
X3411Y2891D01*
D02*
X3332Y410D02*
X3332Y2122D01*
D02*
X3411Y2891D02*
X2898Y2891D01*
D02*
X3403Y331D02*
X3332Y410D01*
D02*
X2784Y2940D02*
X1116Y2940D01*
D02*
X3079Y2940D02*
X2799Y2940D01*
D02*
X3699Y2940D02*
X3095Y2940D01*
D02*
X1297Y2989D02*
X1040Y2989D01*
D02*
X2980Y2989D02*
X1313Y2989D01*
D02*
X3650Y2989D02*
X2996Y2989D01*
D02*
X1502Y3048D02*
X1226Y3049D01*
D02*
X3601Y3048D02*
X1502Y3048D01*
D02*
X1502Y3048D02*
X1502Y3105D01*
D02*
X1691Y3196D02*
X1502Y3197D01*
D02*
X3207Y3196D02*
X1707Y3196D01*
D02*
X3601Y3491D02*
X3099Y3491D01*
D02*
X1888Y3245D02*
X1700Y3245D01*
D02*
X3256Y3245D02*
X1904Y3245D01*
D02*
X2085Y3363D02*
X1817Y3363D01*
D02*
X3305Y3363D02*
X2101Y3363D01*
D02*
X1965Y3412D02*
X1904Y3482D01*
D02*
X2282Y3413D02*
X1965Y3412D01*
D02*
X3354Y3413D02*
X2297Y3413D01*
D02*
X2161Y3569D02*
X2101Y3501D01*
D02*
X2380Y3570D02*
X2161Y3569D01*
D02*
X3551Y3570D02*
X2396Y3570D01*
D02*
X2587Y3619D02*
X2297Y3619D01*
D02*
X3502Y3619D02*
X2602Y3619D01*
D02*
X2595Y3708D02*
X2448Y3708D01*
D02*
X2791Y3708D02*
X2595Y3708D01*
D02*
X2987Y3708D02*
X2791Y3708D01*
D02*
X3404Y3708D02*
X2987Y3708D01*
D02*
X2980Y2586D02*
X2799Y2586D01*
D02*
X3323Y2586D02*
X2996Y2586D01*
D02*
X3403Y2497D02*
X3323Y2586D01*
D02*
X2595Y2644D02*
X2723Y2507D01*
D02*
X2399Y2644D02*
X2595Y2644D01*
D02*
X2191Y2644D02*
X2399Y2644D01*
D02*
X1995Y2644D02*
X2191Y2644D01*
D02*
X1797Y2644D02*
X1995Y2644D01*
D02*
X1600Y2644D02*
X1797Y2644D01*
D02*
X1404Y2644D02*
X1600Y2644D01*
D02*
X1206Y2644D02*
X1404Y2644D01*
D02*
X1010Y2644D02*
X1206Y2644D01*
D02*
X891Y2644D02*
X1010Y2644D01*
D02*
X822Y2715D02*
X891Y2644D01*
D02*
X1010Y2644D02*
X1010Y2711D01*
D02*
X1206Y2644D02*
X1207Y2711D01*
D02*
X1404Y2644D02*
X1404Y2711D01*
D02*
X1600Y2644D02*
X1601Y2711D01*
D02*
X1797Y2644D02*
X1797Y2711D01*
D02*
X1995Y2644D02*
X1994Y2711D01*
D02*
X2191Y2644D02*
X2191Y2711D01*
D02*
X2399Y2644D02*
X2398Y2711D01*
D02*
X2595Y2644D02*
X2595Y2711D01*
D02*
X933Y629D02*
X816Y508D01*
D02*
X933Y280D02*
X816Y383D01*
D02*
X1201Y510D02*
X1146Y627D01*
D02*
X1146Y282D02*
X1201Y380D01*
D02*
X1322Y290D02*
X1152Y274D01*
D02*
X1477Y292D02*
X1347Y291D01*
D02*
X1490Y305D02*
X1492Y378D01*
D02*
X1492Y512D02*
X1490Y585D01*
D02*
X1477Y597D02*
X1347Y596D01*
D02*
X1323Y599D02*
X1152Y635D01*
D02*
X1260Y443D02*
X1325Y489D01*
D02*
X1099Y440D02*
X1260Y443D01*
D02*
X949Y281D02*
X1099Y440D01*
D02*
X1924Y525D02*
X1799Y592D01*
D02*
X1935Y531D02*
X1935Y654D01*
D02*
X1856Y292D02*
X1800Y292D01*
D02*
X1931Y507D02*
X1856Y292D01*
D02*
X2027Y380D02*
X1942Y508D01*
D02*
X2224Y366D02*
X1946Y229D01*
D02*
X2766Y377D02*
X2346Y659D01*
D02*
X1708Y695D02*
X1649Y756D01*
D02*
X1395Y756D02*
X1344Y705D01*
D02*
X1649Y756D02*
X1395Y756D01*
D02*
X1757Y756D02*
X1708Y695D01*
D02*
X2201Y755D02*
X1757Y756D01*
D02*
X2325Y673D02*
X2201Y755D01*
D02*
X1709Y568D02*
X1781Y507D01*
D02*
X1708Y695D02*
X1709Y568D01*
D02*
X1421Y194D02*
X1347Y191D01*
D02*
X2536Y913D02*
X2141Y913D01*
D02*
X2141Y913D02*
X1747Y913D01*
D02*
X1747Y913D02*
X1354Y913D01*
D02*
X1354Y913D02*
X961Y913D01*
D02*
X961Y913D02*
X358Y913D01*
D02*
X2861Y913D02*
X2536Y913D01*
D02*
X2921Y853D02*
X2861Y913D01*
D02*
X961Y913D02*
X961Y856D01*
D02*
X1354Y913D02*
X1354Y856D01*
D02*
X1747Y913D02*
X1748Y856D01*
D02*
X2141Y913D02*
X2142Y856D01*
D02*
X2536Y913D02*
X2536Y856D01*
D02*
X408Y962D02*
X756Y962D01*
D02*
X1150Y962D02*
X772Y962D01*
D02*
X1543Y962D02*
X1165Y962D01*
D02*
X1937Y962D02*
X1559Y962D01*
D02*
X2331Y962D02*
X1953Y962D01*
D02*
X2725Y962D02*
X2347Y962D01*
D02*
X1248Y1011D02*
X457Y1011D01*
D02*
X1445Y1011D02*
X1264Y1011D01*
D02*
X2036Y1011D02*
X1461Y1011D01*
D02*
X2232Y1011D02*
X2051Y1011D01*
D02*
X2823Y1011D02*
X2248Y1011D01*
D02*
X2978Y1010D02*
X2839Y1011D01*
D02*
X3028Y952D02*
X2978Y1010D01*
D02*
X3028Y856D02*
X3028Y952D01*
D02*
X854Y1060D02*
X506Y1060D01*
D02*
X1051Y1060D02*
X870Y1060D01*
D02*
X1642Y1060D02*
X1067Y1060D01*
D02*
X1658Y1060D02*
X1839Y1060D01*
D02*
X1854Y1060D02*
X2429Y1060D01*
D02*
X2445Y1060D02*
X2626Y1060D01*
D02*
X1551Y1306D02*
X555Y1306D01*
D02*
X1748Y1306D02*
X1551Y1306D01*
D02*
X1945Y1306D02*
X1748Y1306D01*
D02*
X2072Y1307D02*
X1945Y1306D01*
D02*
X756Y1355D02*
X604Y1355D01*
D02*
X953Y1355D02*
X772Y1355D01*
D02*
X1150Y1355D02*
X969Y1355D01*
D02*
X1347Y1355D02*
X1165Y1355D01*
D02*
X2331Y1355D02*
X1362Y1355D01*
D02*
X2528Y1355D02*
X2347Y1355D01*
D02*
X2725Y1355D02*
X2543Y1355D01*
D02*
X2831Y1356D02*
X2740Y1355D01*
D02*
X1551Y1240D02*
X1551Y1306D01*
D02*
X1748Y1240D02*
X1748Y1306D01*
D02*
X1945Y1240D02*
X1945Y1306D01*
D02*
X2134Y1237D02*
X2072Y1307D01*
D02*
X2922Y1237D02*
X2831Y1356D01*
D02*
X2429Y1405D02*
X654Y1405D01*
D02*
X2626Y1405D02*
X2445Y1405D01*
D02*
X2823Y1405D02*
X2642Y1405D01*
D02*
X3028Y1346D02*
X2979Y1404D01*
D02*
X2979Y1404D02*
X2839Y1405D01*
D02*
X3028Y1240D02*
X3028Y1346D01*
D02*
X854Y1454D02*
X703Y1454D01*
D02*
X1051Y1454D02*
X870Y1454D01*
D02*
X1248Y1454D02*
X1067Y1454D01*
D02*
X1445Y1454D02*
X1264Y1454D01*
D02*
X1642Y1454D02*
X1461Y1454D01*
D02*
X1839Y1454D02*
X1658Y1454D01*
D02*
X2036Y1454D02*
X1854Y1454D01*
D02*
X2232Y1454D02*
X2051Y1454D01*
D02*
X2831Y1700D02*
X2634Y1700D01*
D02*
X2634Y1700D02*
X2436Y1700D01*
D02*
X2436Y1700D02*
X2241Y1700D01*
D02*
X2241Y1700D02*
X2043Y1700D01*
D02*
X2043Y1700D02*
X1847Y1700D01*
D02*
X1847Y1700D02*
X1650Y1700D01*
D02*
X1650Y1700D02*
X1453Y1700D01*
D02*
X1453Y1700D02*
X1256Y1700D01*
D02*
X1256Y1700D02*
X1059Y1700D01*
D02*
X1059Y1700D02*
X941Y1700D01*
D02*
X2950Y1700D02*
X2831Y1700D01*
D02*
X941Y1700D02*
X871Y1630D01*
D02*
X3019Y1630D02*
X2950Y1700D01*
D02*
X1059Y1700D02*
X1059Y1634D01*
D02*
X1256Y1700D02*
X1256Y1634D01*
D02*
X1453Y1700D02*
X1453Y1634D01*
D02*
X1650Y1700D02*
X1650Y1634D01*
D02*
X1847Y1700D02*
X1847Y1634D01*
D02*
X2043Y1700D02*
X2043Y1634D01*
D02*
X2241Y1700D02*
X2240Y1634D01*
D02*
X2436Y1700D02*
X2437Y1634D01*
D02*
X2634Y1700D02*
X2634Y1634D01*
D02*
X2831Y1700D02*
X2831Y1634D01*
G54D19*
D02*
X948Y2021D02*
X776Y2021D01*
D02*
X1145Y2021D02*
X973Y2021D01*
D02*
X1342Y2021D02*
X1170Y2021D01*
D02*
X1539Y2021D02*
X1367Y2021D01*
D02*
X1736Y2021D02*
X1564Y2021D01*
D02*
X1933Y2021D02*
X1761Y2021D01*
D02*
X2129Y2021D02*
X1958Y2021D01*
D02*
X2326Y2021D02*
X2154Y2021D01*
D02*
X2523Y2021D02*
X2351Y2021D01*
D02*
X2720Y2021D02*
X2548Y2021D01*
D02*
X2917Y2021D02*
X2745Y2021D01*
G54D20*
X2835Y6235D02*
X2841Y6235D01*
X2834Y6234D02*
X2842Y6234D01*
X2833Y6233D02*
X2843Y6233D01*
X1835Y6232D02*
X1837Y6232D01*
X2084Y6232D02*
X2086Y6232D01*
X2137Y6232D02*
X2139Y6232D01*
X2166Y6232D02*
X2195Y6232D01*
X2303Y6232D02*
X2305Y6232D01*
X2452Y6232D02*
X2465Y6232D01*
X2492Y6232D02*
X2509Y6232D01*
X2833Y6232D02*
X2843Y6232D01*
X3091Y6232D02*
X3128Y6232D01*
X1834Y6231D02*
X1838Y6231D01*
X2083Y6231D02*
X2087Y6231D01*
X2135Y6231D02*
X2140Y6231D01*
X2164Y6231D02*
X2197Y6231D01*
X2301Y6231D02*
X2306Y6231D01*
X2451Y6231D02*
X2467Y6231D01*
X2490Y6231D02*
X2511Y6231D01*
X2833Y6231D02*
X2843Y6231D01*
X3091Y6231D02*
X3128Y6231D01*
X1833Y6230D02*
X1839Y6230D01*
X2082Y6230D02*
X2088Y6230D01*
X2135Y6230D02*
X2141Y6230D01*
X2163Y6230D02*
X2197Y6230D01*
X2301Y6230D02*
X2307Y6230D01*
X2450Y6230D02*
X2467Y6230D01*
X2490Y6230D02*
X2513Y6230D01*
X2833Y6230D02*
X2843Y6230D01*
X3091Y6230D02*
X3128Y6230D01*
X1833Y6229D02*
X1839Y6229D01*
X2082Y6229D02*
X2088Y6229D01*
X2135Y6229D02*
X2141Y6229D01*
X2162Y6229D02*
X2198Y6229D01*
X2301Y6229D02*
X2307Y6229D01*
X2450Y6229D02*
X2467Y6229D01*
X2489Y6229D02*
X2514Y6229D01*
X2734Y6229D02*
X2734Y6229D01*
X2833Y6229D02*
X2843Y6229D01*
X3091Y6229D02*
X3128Y6229D01*
X1833Y6228D02*
X1839Y6228D01*
X2081Y6228D02*
X2088Y6228D01*
X2134Y6228D02*
X2141Y6228D01*
X2162Y6228D02*
X2198Y6228D01*
X2300Y6228D02*
X2307Y6228D01*
X2450Y6228D02*
X2467Y6228D01*
X2489Y6228D02*
X2515Y6228D01*
X2732Y6228D02*
X2736Y6228D01*
X2833Y6228D02*
X2843Y6228D01*
X3091Y6228D02*
X3128Y6228D01*
X1833Y6227D02*
X1839Y6227D01*
X2081Y6227D02*
X2088Y6227D01*
X2134Y6227D02*
X2141Y6227D01*
X2161Y6227D02*
X2197Y6227D01*
X2300Y6227D02*
X2307Y6227D01*
X2450Y6227D02*
X2467Y6227D01*
X2490Y6227D02*
X2516Y6227D01*
X2731Y6227D02*
X2737Y6227D01*
X2833Y6227D02*
X2843Y6227D01*
X3091Y6227D02*
X3128Y6227D01*
X1833Y6226D02*
X1839Y6226D01*
X2081Y6226D02*
X2088Y6226D01*
X2134Y6226D02*
X2141Y6226D01*
X2161Y6226D02*
X2197Y6226D01*
X2300Y6226D02*
X2307Y6226D01*
X2450Y6226D02*
X2466Y6226D01*
X2490Y6226D02*
X2517Y6226D01*
X2731Y6226D02*
X2737Y6226D01*
X2834Y6226D02*
X2842Y6226D01*
X3091Y6226D02*
X3128Y6226D01*
X1833Y6225D02*
X1839Y6225D01*
X2081Y6225D02*
X2088Y6225D01*
X2113Y6225D02*
X2117Y6225D01*
X2134Y6225D02*
X2141Y6225D01*
X2161Y6225D02*
X2195Y6225D01*
X2300Y6225D02*
X2307Y6225D01*
X2450Y6225D02*
X2465Y6225D01*
X2492Y6225D02*
X2517Y6225D01*
X2731Y6225D02*
X2737Y6225D01*
X2835Y6225D02*
X2841Y6225D01*
X3091Y6225D02*
X3128Y6225D01*
X1833Y6224D02*
X1839Y6224D01*
X2081Y6224D02*
X2088Y6224D01*
X2112Y6224D02*
X2118Y6224D01*
X2134Y6224D02*
X2141Y6224D01*
X2161Y6224D02*
X2168Y6224D01*
X2300Y6224D02*
X2307Y6224D01*
X2450Y6224D02*
X2456Y6224D01*
X2509Y6224D02*
X2518Y6224D01*
X2731Y6224D02*
X2737Y6224D01*
X3091Y6224D02*
X3098Y6224D01*
X3106Y6224D02*
X3113Y6224D01*
X3121Y6224D02*
X3128Y6224D01*
X1833Y6223D02*
X1839Y6223D01*
X2081Y6223D02*
X2088Y6223D01*
X2112Y6223D02*
X2118Y6223D01*
X2134Y6223D02*
X2141Y6223D01*
X2161Y6223D02*
X2168Y6223D01*
X2300Y6223D02*
X2307Y6223D01*
X2450Y6223D02*
X2456Y6223D01*
X2510Y6223D02*
X2518Y6223D01*
X2731Y6223D02*
X2737Y6223D01*
X3091Y6223D02*
X3098Y6223D01*
X3106Y6223D02*
X3113Y6223D01*
X3121Y6223D02*
X3128Y6223D01*
X1833Y6222D02*
X1839Y6222D01*
X2081Y6222D02*
X2088Y6222D01*
X2112Y6222D02*
X2118Y6222D01*
X2134Y6222D02*
X2141Y6222D01*
X2161Y6222D02*
X2168Y6222D01*
X2300Y6222D02*
X2307Y6222D01*
X2450Y6222D02*
X2456Y6222D01*
X2511Y6222D02*
X2519Y6222D01*
X2731Y6222D02*
X2737Y6222D01*
X3091Y6222D02*
X3098Y6222D01*
X3106Y6222D02*
X3113Y6222D01*
X3121Y6222D02*
X3128Y6222D01*
X1833Y6221D02*
X1839Y6221D01*
X2081Y6221D02*
X2088Y6221D01*
X2112Y6221D02*
X2119Y6221D01*
X2134Y6221D02*
X2141Y6221D01*
X2161Y6221D02*
X2168Y6221D01*
X2300Y6221D02*
X2307Y6221D01*
X2450Y6221D02*
X2456Y6221D01*
X2511Y6221D02*
X2519Y6221D01*
X2731Y6221D02*
X2737Y6221D01*
X3092Y6221D02*
X3098Y6221D01*
X3106Y6221D02*
X3113Y6221D01*
X3122Y6221D02*
X3128Y6221D01*
X1833Y6220D02*
X1839Y6220D01*
X2081Y6220D02*
X2088Y6220D01*
X2112Y6220D02*
X2119Y6220D01*
X2134Y6220D02*
X2141Y6220D01*
X2161Y6220D02*
X2168Y6220D01*
X2300Y6220D02*
X2307Y6220D01*
X2450Y6220D02*
X2456Y6220D01*
X2512Y6220D02*
X2520Y6220D01*
X2731Y6220D02*
X2737Y6220D01*
X3092Y6220D02*
X3097Y6220D01*
X3106Y6220D02*
X3113Y6220D01*
X3122Y6220D02*
X3127Y6220D01*
X1833Y6219D02*
X1839Y6219D01*
X2081Y6219D02*
X2088Y6219D01*
X2112Y6219D02*
X2119Y6219D01*
X2134Y6219D02*
X2141Y6219D01*
X2161Y6219D02*
X2168Y6219D01*
X2300Y6219D02*
X2307Y6219D01*
X2450Y6219D02*
X2456Y6219D01*
X2512Y6219D02*
X2520Y6219D01*
X2731Y6219D02*
X2737Y6219D01*
X3093Y6219D02*
X3096Y6219D01*
X3106Y6219D02*
X3113Y6219D01*
X3123Y6219D02*
X3126Y6219D01*
X1833Y6218D02*
X1839Y6218D01*
X2081Y6218D02*
X2088Y6218D01*
X2112Y6218D02*
X2119Y6218D01*
X2134Y6218D02*
X2141Y6218D01*
X2161Y6218D02*
X2168Y6218D01*
X2300Y6218D02*
X2307Y6218D01*
X2450Y6218D02*
X2456Y6218D01*
X2513Y6218D02*
X2521Y6218D01*
X2731Y6218D02*
X2737Y6218D01*
X3106Y6218D02*
X3113Y6218D01*
X1833Y6217D02*
X1839Y6217D01*
X2081Y6217D02*
X2088Y6217D01*
X2112Y6217D02*
X2119Y6217D01*
X2134Y6217D02*
X2141Y6217D01*
X2161Y6217D02*
X2168Y6217D01*
X2300Y6217D02*
X2307Y6217D01*
X2450Y6217D02*
X2456Y6217D01*
X2513Y6217D02*
X2521Y6217D01*
X2731Y6217D02*
X2737Y6217D01*
X3106Y6217D02*
X3113Y6217D01*
X1833Y6216D02*
X1839Y6216D01*
X1848Y6216D02*
X1858Y6216D01*
X1899Y6216D02*
X1912Y6216D01*
X1951Y6216D02*
X1951Y6216D01*
X1964Y6216D02*
X1967Y6216D01*
X1975Y6216D02*
X1977Y6216D01*
X2061Y6216D02*
X2069Y6216D01*
X2081Y6216D02*
X2088Y6216D01*
X2112Y6216D02*
X2119Y6216D01*
X2134Y6216D02*
X2141Y6216D01*
X2161Y6216D02*
X2168Y6216D01*
X2277Y6216D02*
X2278Y6216D01*
X2300Y6216D02*
X2307Y6216D01*
X2328Y6216D02*
X2346Y6216D01*
X2392Y6216D02*
X2405Y6216D01*
X2450Y6216D02*
X2456Y6216D01*
X2514Y6216D02*
X2522Y6216D01*
X2608Y6216D02*
X2618Y6216D01*
X2631Y6216D02*
X2633Y6216D01*
X2665Y6216D02*
X2679Y6216D01*
X2715Y6216D02*
X2742Y6216D01*
X2771Y6216D02*
X2791Y6216D01*
X2835Y6216D02*
X2848Y6216D01*
X2881Y6216D02*
X2901Y6216D01*
X2937Y6216D02*
X2945Y6216D01*
X2960Y6216D02*
X2961Y6216D01*
X2992Y6216D02*
X3009Y6216D01*
X3045Y6216D02*
X3056Y6216D01*
X3069Y6216D02*
X3071Y6216D01*
X3106Y6216D02*
X3113Y6216D01*
X1833Y6215D02*
X1839Y6215D01*
X1845Y6215D02*
X1860Y6215D01*
X1896Y6215D02*
X1915Y6215D01*
X1947Y6215D02*
X1955Y6215D01*
X1962Y6215D02*
X1970Y6215D01*
X1974Y6215D02*
X1978Y6215D01*
X2059Y6215D02*
X2072Y6215D01*
X2081Y6215D02*
X2088Y6215D01*
X2112Y6215D02*
X2119Y6215D01*
X2134Y6215D02*
X2141Y6215D01*
X2161Y6215D02*
X2168Y6215D01*
X2275Y6215D02*
X2280Y6215D01*
X2300Y6215D02*
X2307Y6215D01*
X2326Y6215D02*
X2349Y6215D01*
X2389Y6215D02*
X2408Y6215D01*
X2450Y6215D02*
X2456Y6215D01*
X2514Y6215D02*
X2522Y6215D01*
X2605Y6215D02*
X2620Y6215D01*
X2630Y6215D02*
X2634Y6215D01*
X2662Y6215D02*
X2681Y6215D01*
X2713Y6215D02*
X2744Y6215D01*
X2769Y6215D02*
X2794Y6215D01*
X2834Y6215D02*
X2850Y6215D01*
X2878Y6215D02*
X2903Y6215D01*
X2934Y6215D02*
X2948Y6215D01*
X2958Y6215D02*
X2963Y6215D01*
X2989Y6215D02*
X3010Y6215D01*
X3043Y6215D02*
X3057Y6215D01*
X3068Y6215D02*
X3072Y6215D01*
X3106Y6215D02*
X3113Y6215D01*
X1833Y6214D02*
X1839Y6214D01*
X1844Y6214D02*
X1862Y6214D01*
X1895Y6214D02*
X1917Y6214D01*
X1946Y6214D02*
X1956Y6214D01*
X1960Y6214D02*
X1971Y6214D01*
X1973Y6214D02*
X1979Y6214D01*
X2057Y6214D02*
X2074Y6214D01*
X2081Y6214D02*
X2088Y6214D01*
X2112Y6214D02*
X2119Y6214D01*
X2134Y6214D02*
X2141Y6214D01*
X2161Y6214D02*
X2168Y6214D01*
X2275Y6214D02*
X2281Y6214D01*
X2300Y6214D02*
X2307Y6214D01*
X2325Y6214D02*
X2351Y6214D01*
X2387Y6214D02*
X2409Y6214D01*
X2450Y6214D02*
X2456Y6214D01*
X2515Y6214D02*
X2522Y6214D01*
X2603Y6214D02*
X2621Y6214D01*
X2629Y6214D02*
X2635Y6214D01*
X2661Y6214D02*
X2683Y6214D01*
X2712Y6214D02*
X2745Y6214D01*
X2767Y6214D02*
X2795Y6214D01*
X2833Y6214D02*
X2850Y6214D01*
X2877Y6214D02*
X2905Y6214D01*
X2933Y6214D02*
X2950Y6214D01*
X2958Y6214D02*
X2963Y6214D01*
X2987Y6214D02*
X3011Y6214D01*
X3041Y6214D02*
X3059Y6214D01*
X3067Y6214D02*
X3073Y6214D01*
X3106Y6214D02*
X3113Y6214D01*
X1833Y6213D02*
X1839Y6213D01*
X1842Y6213D02*
X1863Y6213D01*
X1893Y6213D02*
X1918Y6213D01*
X1945Y6213D02*
X1979Y6213D01*
X2056Y6213D02*
X2076Y6213D01*
X2081Y6213D02*
X2088Y6213D01*
X2112Y6213D02*
X2119Y6213D01*
X2134Y6213D02*
X2141Y6213D01*
X2161Y6213D02*
X2168Y6213D01*
X2274Y6213D02*
X2282Y6213D01*
X2300Y6213D02*
X2307Y6213D01*
X2325Y6213D02*
X2352Y6213D01*
X2386Y6213D02*
X2410Y6213D01*
X2450Y6213D02*
X2456Y6213D01*
X2515Y6213D02*
X2523Y6213D01*
X2602Y6213D02*
X2622Y6213D01*
X2629Y6213D02*
X2635Y6213D01*
X2660Y6213D02*
X2684Y6213D01*
X2712Y6213D02*
X2745Y6213D01*
X2766Y6213D02*
X2796Y6213D01*
X2833Y6213D02*
X2851Y6213D01*
X2875Y6213D02*
X2906Y6213D01*
X2932Y6213D02*
X2951Y6213D01*
X2957Y6213D02*
X2964Y6213D01*
X2986Y6213D02*
X3011Y6213D01*
X3040Y6213D02*
X3060Y6213D01*
X3067Y6213D02*
X3073Y6213D01*
X3106Y6213D02*
X3113Y6213D01*
X1833Y6212D02*
X1839Y6212D01*
X1841Y6212D02*
X1864Y6212D01*
X1892Y6212D02*
X1919Y6212D01*
X1944Y6212D02*
X1979Y6212D01*
X2055Y6212D02*
X2077Y6212D01*
X2081Y6212D02*
X2088Y6212D01*
X2112Y6212D02*
X2119Y6212D01*
X2134Y6212D02*
X2141Y6212D01*
X2161Y6212D02*
X2168Y6212D01*
X2274Y6212D02*
X2283Y6212D01*
X2300Y6212D02*
X2307Y6212D01*
X2325Y6212D02*
X2353Y6212D01*
X2385Y6212D02*
X2412Y6212D01*
X2450Y6212D02*
X2456Y6212D01*
X2516Y6212D02*
X2523Y6212D01*
X2601Y6212D02*
X2623Y6212D01*
X2629Y6212D02*
X2635Y6212D01*
X2658Y6212D02*
X2685Y6212D01*
X2712Y6212D02*
X2745Y6212D01*
X2765Y6212D02*
X2797Y6212D01*
X2833Y6212D02*
X2851Y6212D01*
X2874Y6212D02*
X2907Y6212D01*
X2931Y6212D02*
X2953Y6212D01*
X2957Y6212D02*
X2964Y6212D01*
X2985Y6212D02*
X3011Y6212D01*
X3039Y6212D02*
X3061Y6212D01*
X3067Y6212D02*
X3073Y6212D01*
X3106Y6212D02*
X3113Y6212D01*
X1833Y6211D02*
X1865Y6211D01*
X1891Y6211D02*
X1920Y6211D01*
X1943Y6211D02*
X1979Y6211D01*
X2054Y6211D02*
X2079Y6211D01*
X2081Y6211D02*
X2088Y6211D01*
X2112Y6211D02*
X2119Y6211D01*
X2134Y6211D02*
X2141Y6211D01*
X2161Y6211D02*
X2168Y6211D01*
X2274Y6211D02*
X2285Y6211D01*
X2300Y6211D02*
X2307Y6211D01*
X2325Y6211D02*
X2355Y6211D01*
X2384Y6211D02*
X2413Y6211D01*
X2450Y6211D02*
X2456Y6211D01*
X2516Y6211D02*
X2524Y6211D01*
X2601Y6211D02*
X2624Y6211D01*
X2629Y6211D02*
X2635Y6211D01*
X2657Y6211D02*
X2686Y6211D01*
X2712Y6211D02*
X2745Y6211D01*
X2764Y6211D02*
X2798Y6211D01*
X2833Y6211D02*
X2850Y6211D01*
X2874Y6211D02*
X2907Y6211D01*
X2930Y6211D02*
X2954Y6211D01*
X2957Y6211D02*
X2964Y6211D01*
X2985Y6211D02*
X3011Y6211D01*
X3038Y6211D02*
X3062Y6211D01*
X3067Y6211D02*
X3073Y6211D01*
X3106Y6211D02*
X3113Y6211D01*
X1833Y6210D02*
X1866Y6210D01*
X1890Y6210D02*
X1921Y6210D01*
X1943Y6210D02*
X1979Y6210D01*
X2054Y6210D02*
X2088Y6210D01*
X2112Y6210D02*
X2119Y6210D01*
X2134Y6210D02*
X2141Y6210D01*
X2161Y6210D02*
X2168Y6210D01*
X2275Y6210D02*
X2286Y6210D01*
X2300Y6210D02*
X2307Y6210D01*
X2326Y6210D02*
X2356Y6210D01*
X2383Y6210D02*
X2414Y6210D01*
X2450Y6210D02*
X2456Y6210D01*
X2517Y6210D02*
X2524Y6210D01*
X2600Y6210D02*
X2625Y6210D01*
X2629Y6210D02*
X2635Y6210D01*
X2656Y6210D02*
X2687Y6210D01*
X2713Y6210D02*
X2744Y6210D01*
X2764Y6210D02*
X2798Y6210D01*
X2833Y6210D02*
X2850Y6210D01*
X2873Y6210D02*
X2908Y6210D01*
X2929Y6210D02*
X2964Y6210D01*
X2984Y6210D02*
X3010Y6210D01*
X3038Y6210D02*
X3063Y6210D01*
X3067Y6210D02*
X3073Y6210D01*
X3106Y6210D02*
X3113Y6210D01*
X1833Y6209D02*
X1867Y6209D01*
X1889Y6209D02*
X1922Y6209D01*
X1943Y6209D02*
X1979Y6209D01*
X2053Y6209D02*
X2088Y6209D01*
X2112Y6209D02*
X2119Y6209D01*
X2134Y6209D02*
X2141Y6209D01*
X2161Y6209D02*
X2168Y6209D01*
X2276Y6209D02*
X2287Y6209D01*
X2300Y6209D02*
X2307Y6209D01*
X2327Y6209D02*
X2357Y6209D01*
X2382Y6209D02*
X2414Y6209D01*
X2450Y6209D02*
X2456Y6209D01*
X2517Y6209D02*
X2525Y6209D01*
X2600Y6209D02*
X2627Y6209D01*
X2629Y6209D02*
X2635Y6209D01*
X2656Y6209D02*
X2688Y6209D01*
X2714Y6209D02*
X2743Y6209D01*
X2764Y6209D02*
X2798Y6209D01*
X2833Y6209D02*
X2848Y6209D01*
X2873Y6209D02*
X2908Y6209D01*
X2929Y6209D02*
X2964Y6209D01*
X2984Y6209D02*
X3009Y6209D01*
X3037Y6209D02*
X3064Y6209D01*
X3067Y6209D02*
X3073Y6209D01*
X3106Y6209D02*
X3113Y6209D01*
X1833Y6208D02*
X1847Y6208D01*
X1858Y6208D02*
X1868Y6208D01*
X1889Y6208D02*
X1898Y6208D01*
X1913Y6208D02*
X1922Y6208D01*
X1943Y6208D02*
X1950Y6208D01*
X1953Y6208D02*
X1964Y6208D01*
X1968Y6208D02*
X1979Y6208D01*
X2053Y6208D02*
X2061Y6208D01*
X2070Y6208D02*
X2088Y6208D01*
X2112Y6208D02*
X2119Y6208D01*
X2134Y6208D02*
X2141Y6208D01*
X2161Y6208D02*
X2168Y6208D01*
X2277Y6208D02*
X2288Y6208D01*
X2300Y6208D02*
X2307Y6208D01*
X2347Y6208D02*
X2358Y6208D01*
X2381Y6208D02*
X2391Y6208D01*
X2406Y6208D02*
X2415Y6208D01*
X2450Y6208D02*
X2456Y6208D01*
X2518Y6208D02*
X2525Y6208D01*
X2599Y6208D02*
X2607Y6208D01*
X2617Y6208D02*
X2635Y6208D01*
X2655Y6208D02*
X2664Y6208D01*
X2679Y6208D02*
X2689Y6208D01*
X2731Y6208D02*
X2737Y6208D01*
X2764Y6208D02*
X2771Y6208D01*
X2791Y6208D02*
X2799Y6208D01*
X2833Y6208D02*
X2839Y6208D01*
X2873Y6208D02*
X2880Y6208D01*
X2901Y6208D02*
X2908Y6208D01*
X2929Y6208D02*
X2937Y6208D01*
X2946Y6208D02*
X2964Y6208D01*
X2983Y6208D02*
X2991Y6208D01*
X3037Y6208D02*
X3045Y6208D01*
X3055Y6208D02*
X3073Y6208D01*
X3106Y6208D02*
X3113Y6208D01*
X1833Y6207D02*
X1846Y6207D01*
X1860Y6207D02*
X1868Y6207D01*
X1888Y6207D02*
X1897Y6207D01*
X1914Y6207D02*
X1923Y6207D01*
X1943Y6207D02*
X1949Y6207D01*
X1954Y6207D02*
X1964Y6207D01*
X1969Y6207D02*
X1979Y6207D01*
X2053Y6207D02*
X2060Y6207D01*
X2072Y6207D02*
X2088Y6207D01*
X2112Y6207D02*
X2119Y6207D01*
X2134Y6207D02*
X2141Y6207D01*
X2161Y6207D02*
X2168Y6207D01*
X2279Y6207D02*
X2289Y6207D01*
X2300Y6207D02*
X2307Y6207D01*
X2348Y6207D02*
X2359Y6207D01*
X2381Y6207D02*
X2389Y6207D01*
X2407Y6207D02*
X2416Y6207D01*
X2450Y6207D02*
X2456Y6207D01*
X2518Y6207D02*
X2525Y6207D01*
X2599Y6207D02*
X2606Y6207D01*
X2618Y6207D02*
X2635Y6207D01*
X2654Y6207D02*
X2663Y6207D01*
X2680Y6207D02*
X2689Y6207D01*
X2731Y6207D02*
X2737Y6207D01*
X2765Y6207D02*
X2770Y6207D01*
X2792Y6207D02*
X2799Y6207D01*
X2833Y6207D02*
X2839Y6207D01*
X2874Y6207D02*
X2879Y6207D01*
X2902Y6207D02*
X2908Y6207D01*
X2928Y6207D02*
X2936Y6207D01*
X2947Y6207D02*
X2964Y6207D01*
X2983Y6207D02*
X2990Y6207D01*
X3037Y6207D02*
X3044Y6207D01*
X3056Y6207D02*
X3073Y6207D01*
X3106Y6207D02*
X3113Y6207D01*
X1833Y6206D02*
X1845Y6206D01*
X1861Y6206D02*
X1869Y6206D01*
X1888Y6206D02*
X1896Y6206D01*
X1915Y6206D02*
X1923Y6206D01*
X1943Y6206D02*
X1949Y6206D01*
X1955Y6206D02*
X1964Y6206D01*
X1970Y6206D02*
X1979Y6206D01*
X2053Y6206D02*
X2059Y6206D01*
X2073Y6206D02*
X2088Y6206D01*
X2112Y6206D02*
X2119Y6206D01*
X2134Y6206D02*
X2141Y6206D01*
X2161Y6206D02*
X2193Y6206D01*
X2280Y6206D02*
X2290Y6206D01*
X2300Y6206D02*
X2307Y6206D01*
X2349Y6206D02*
X2360Y6206D01*
X2380Y6206D02*
X2388Y6206D01*
X2408Y6206D02*
X2416Y6206D01*
X2450Y6206D02*
X2456Y6206D01*
X2519Y6206D02*
X2526Y6206D01*
X2599Y6206D02*
X2606Y6206D01*
X2619Y6206D02*
X2635Y6206D01*
X2654Y6206D02*
X2662Y6206D01*
X2682Y6206D02*
X2690Y6206D01*
X2731Y6206D02*
X2737Y6206D01*
X2766Y6206D02*
X2768Y6206D01*
X2792Y6206D02*
X2799Y6206D01*
X2833Y6206D02*
X2839Y6206D01*
X2875Y6206D02*
X2878Y6206D01*
X2902Y6206D02*
X2908Y6206D01*
X2928Y6206D02*
X2935Y6206D01*
X2949Y6206D02*
X2964Y6206D01*
X2983Y6206D02*
X2990Y6206D01*
X3037Y6206D02*
X3043Y6206D01*
X3057Y6206D02*
X3073Y6206D01*
X3106Y6206D02*
X3113Y6206D01*
X1833Y6205D02*
X1844Y6205D01*
X1862Y6205D02*
X1869Y6205D01*
X1888Y6205D02*
X1895Y6205D01*
X1916Y6205D02*
X1924Y6205D01*
X1942Y6205D02*
X1949Y6205D01*
X1956Y6205D02*
X1964Y6205D01*
X1971Y6205D02*
X1979Y6205D01*
X2052Y6205D02*
X2059Y6205D01*
X2075Y6205D02*
X2088Y6205D01*
X2112Y6205D02*
X2119Y6205D01*
X2134Y6205D02*
X2141Y6205D01*
X2161Y6205D02*
X2195Y6205D01*
X2281Y6205D02*
X2292Y6205D01*
X2300Y6205D02*
X2307Y6205D01*
X2351Y6205D02*
X2360Y6205D01*
X2380Y6205D02*
X2387Y6205D01*
X2409Y6205D02*
X2416Y6205D01*
X2450Y6205D02*
X2456Y6205D01*
X2519Y6205D02*
X2526Y6205D01*
X2599Y6205D02*
X2605Y6205D01*
X2620Y6205D02*
X2635Y6205D01*
X2654Y6205D02*
X2661Y6205D01*
X2683Y6205D02*
X2690Y6205D01*
X2731Y6205D02*
X2737Y6205D01*
X2791Y6205D02*
X2798Y6205D01*
X2833Y6205D02*
X2839Y6205D01*
X2901Y6205D02*
X2908Y6205D01*
X2928Y6205D02*
X2935Y6205D01*
X2950Y6205D02*
X2964Y6205D01*
X2983Y6205D02*
X2990Y6205D01*
X3037Y6205D02*
X3043Y6205D01*
X3058Y6205D02*
X3073Y6205D01*
X3106Y6205D02*
X3113Y6205D01*
X1833Y6204D02*
X1843Y6204D01*
X1862Y6204D02*
X1869Y6204D01*
X1887Y6204D02*
X1894Y6204D01*
X1917Y6204D02*
X1924Y6204D01*
X1942Y6204D02*
X1949Y6204D01*
X1957Y6204D02*
X1964Y6204D01*
X1972Y6204D02*
X1979Y6204D01*
X2052Y6204D02*
X2059Y6204D01*
X2076Y6204D02*
X2088Y6204D01*
X2112Y6204D02*
X2119Y6204D01*
X2134Y6204D02*
X2141Y6204D01*
X2161Y6204D02*
X2196Y6204D01*
X2282Y6204D02*
X2293Y6204D01*
X2300Y6204D02*
X2307Y6204D01*
X2352Y6204D02*
X2361Y6204D01*
X2380Y6204D02*
X2387Y6204D01*
X2410Y6204D02*
X2416Y6204D01*
X2450Y6204D02*
X2456Y6204D01*
X2519Y6204D02*
X2526Y6204D01*
X2599Y6204D02*
X2605Y6204D01*
X2622Y6204D02*
X2635Y6204D01*
X2654Y6204D02*
X2660Y6204D01*
X2683Y6204D02*
X2690Y6204D01*
X2731Y6204D02*
X2737Y6204D01*
X2789Y6204D02*
X2798Y6204D01*
X2833Y6204D02*
X2839Y6204D01*
X2899Y6204D02*
X2908Y6204D01*
X2928Y6204D02*
X2935Y6204D01*
X2952Y6204D02*
X2964Y6204D01*
X2983Y6204D02*
X2989Y6204D01*
X3037Y6204D02*
X3043Y6204D01*
X3059Y6204D02*
X3073Y6204D01*
X3106Y6204D02*
X3113Y6204D01*
X1833Y6203D02*
X1842Y6203D01*
X1862Y6203D02*
X1869Y6203D01*
X1887Y6203D02*
X1894Y6203D01*
X1917Y6203D02*
X1924Y6203D01*
X1942Y6203D02*
X1949Y6203D01*
X1957Y6203D02*
X1964Y6203D01*
X1973Y6203D02*
X1979Y6203D01*
X2052Y6203D02*
X2059Y6203D01*
X2078Y6203D02*
X2088Y6203D01*
X2112Y6203D02*
X2119Y6203D01*
X2134Y6203D02*
X2141Y6203D01*
X2162Y6203D02*
X2196Y6203D01*
X2283Y6203D02*
X2294Y6203D01*
X2300Y6203D02*
X2307Y6203D01*
X2353Y6203D02*
X2361Y6203D01*
X2380Y6203D02*
X2387Y6203D01*
X2410Y6203D02*
X2416Y6203D01*
X2450Y6203D02*
X2456Y6203D01*
X2519Y6203D02*
X2526Y6203D01*
X2599Y6203D02*
X2605Y6203D01*
X2623Y6203D02*
X2635Y6203D01*
X2654Y6203D02*
X2660Y6203D01*
X2683Y6203D02*
X2690Y6203D01*
X2731Y6203D02*
X2737Y6203D01*
X2787Y6203D02*
X2798Y6203D01*
X2833Y6203D02*
X2839Y6203D01*
X2897Y6203D02*
X2907Y6203D01*
X2928Y6203D02*
X2935Y6203D01*
X2954Y6203D02*
X2964Y6203D01*
X2983Y6203D02*
X2989Y6203D01*
X3037Y6203D02*
X3043Y6203D01*
X3061Y6203D02*
X3073Y6203D01*
X3106Y6203D02*
X3113Y6203D01*
X1833Y6202D02*
X1840Y6202D01*
X1863Y6202D02*
X1869Y6202D01*
X1887Y6202D02*
X1894Y6202D01*
X1917Y6202D02*
X1924Y6202D01*
X1942Y6202D02*
X1949Y6202D01*
X1957Y6202D02*
X1964Y6202D01*
X1973Y6202D02*
X1979Y6202D01*
X2052Y6202D02*
X2059Y6202D01*
X2079Y6202D02*
X2088Y6202D01*
X2112Y6202D02*
X2119Y6202D01*
X2134Y6202D02*
X2141Y6202D01*
X2163Y6202D02*
X2197Y6202D01*
X2284Y6202D02*
X2295Y6202D01*
X2300Y6202D02*
X2307Y6202D01*
X2354Y6202D02*
X2361Y6202D01*
X2380Y6202D02*
X2386Y6202D01*
X2410Y6202D02*
X2417Y6202D01*
X2450Y6202D02*
X2456Y6202D01*
X2519Y6202D02*
X2526Y6202D01*
X2599Y6202D02*
X2605Y6202D01*
X2624Y6202D02*
X2635Y6202D01*
X2653Y6202D02*
X2660Y6202D01*
X2684Y6202D02*
X2690Y6202D01*
X2731Y6202D02*
X2737Y6202D01*
X2785Y6202D02*
X2797Y6202D01*
X2833Y6202D02*
X2839Y6202D01*
X2894Y6202D02*
X2907Y6202D01*
X2928Y6202D02*
X2935Y6202D01*
X2955Y6202D02*
X2964Y6202D01*
X2983Y6202D02*
X2989Y6202D01*
X3037Y6202D02*
X3043Y6202D01*
X3062Y6202D02*
X3073Y6202D01*
X3106Y6202D02*
X3113Y6202D01*
X1833Y6201D02*
X1840Y6201D01*
X1863Y6201D02*
X1869Y6201D01*
X1887Y6201D02*
X1894Y6201D01*
X1917Y6201D02*
X1924Y6201D01*
X1942Y6201D02*
X1949Y6201D01*
X1957Y6201D02*
X1964Y6201D01*
X1973Y6201D02*
X1979Y6201D01*
X2052Y6201D02*
X2059Y6201D01*
X2081Y6201D02*
X2088Y6201D01*
X2112Y6201D02*
X2119Y6201D01*
X2134Y6201D02*
X2141Y6201D01*
X2164Y6201D02*
X2197Y6201D01*
X2285Y6201D02*
X2296Y6201D01*
X2300Y6201D02*
X2307Y6201D01*
X2355Y6201D02*
X2362Y6201D01*
X2380Y6201D02*
X2386Y6201D01*
X2410Y6201D02*
X2417Y6201D01*
X2450Y6201D02*
X2456Y6201D01*
X2519Y6201D02*
X2526Y6201D01*
X2599Y6201D02*
X2605Y6201D01*
X2625Y6201D02*
X2635Y6201D01*
X2653Y6201D02*
X2660Y6201D01*
X2684Y6201D02*
X2690Y6201D01*
X2731Y6201D02*
X2737Y6201D01*
X2783Y6201D02*
X2797Y6201D01*
X2833Y6201D02*
X2839Y6201D01*
X2892Y6201D02*
X2906Y6201D01*
X2928Y6201D02*
X2935Y6201D01*
X2957Y6201D02*
X2964Y6201D01*
X2983Y6201D02*
X2989Y6201D01*
X3037Y6201D02*
X3043Y6201D01*
X3063Y6201D02*
X3073Y6201D01*
X3106Y6201D02*
X3113Y6201D01*
X1833Y6200D02*
X1839Y6200D01*
X1863Y6200D02*
X1869Y6200D01*
X1887Y6200D02*
X1894Y6200D01*
X1917Y6200D02*
X1924Y6200D01*
X1942Y6200D02*
X1949Y6200D01*
X1957Y6200D02*
X1964Y6200D01*
X1973Y6200D02*
X1979Y6200D01*
X2052Y6200D02*
X2059Y6200D01*
X2081Y6200D02*
X2088Y6200D01*
X2111Y6200D02*
X2141Y6200D01*
X2165Y6200D02*
X2198Y6200D01*
X2287Y6200D02*
X2297Y6200D01*
X2300Y6200D02*
X2307Y6200D01*
X2355Y6200D02*
X2362Y6200D01*
X2380Y6200D02*
X2386Y6200D01*
X2410Y6200D02*
X2417Y6200D01*
X2450Y6200D02*
X2456Y6200D01*
X2519Y6200D02*
X2526Y6200D01*
X2600Y6200D02*
X2604Y6200D01*
X2626Y6200D02*
X2635Y6200D01*
X2653Y6200D02*
X2660Y6200D01*
X2684Y6200D02*
X2690Y6200D01*
X2731Y6200D02*
X2737Y6200D01*
X2780Y6200D02*
X2796Y6200D01*
X2833Y6200D02*
X2839Y6200D01*
X2890Y6200D02*
X2905Y6200D01*
X2928Y6200D02*
X2935Y6200D01*
X2957Y6200D02*
X2964Y6200D01*
X2983Y6200D02*
X2990Y6200D01*
X2992Y6200D02*
X3010Y6200D01*
X3038Y6200D02*
X3042Y6200D01*
X3064Y6200D02*
X3073Y6200D01*
X3106Y6200D02*
X3113Y6200D01*
X1833Y6199D02*
X1839Y6199D01*
X1863Y6199D02*
X1869Y6199D01*
X1887Y6199D02*
X1894Y6199D01*
X1917Y6199D02*
X1924Y6199D01*
X1942Y6199D02*
X1949Y6199D01*
X1957Y6199D02*
X1964Y6199D01*
X1973Y6199D02*
X1979Y6199D01*
X2052Y6199D02*
X2059Y6199D01*
X2081Y6199D02*
X2088Y6199D01*
X2109Y6199D02*
X2141Y6199D01*
X2191Y6199D02*
X2198Y6199D01*
X2288Y6199D02*
X2307Y6199D01*
X2355Y6199D02*
X2362Y6199D01*
X2380Y6199D02*
X2386Y6199D01*
X2410Y6199D02*
X2417Y6199D01*
X2450Y6199D02*
X2456Y6199D01*
X2519Y6199D02*
X2526Y6199D01*
X2627Y6199D02*
X2635Y6199D01*
X2653Y6199D02*
X2660Y6199D01*
X2684Y6199D02*
X2690Y6199D01*
X2731Y6199D02*
X2737Y6199D01*
X2778Y6199D02*
X2795Y6199D01*
X2833Y6199D02*
X2839Y6199D01*
X2887Y6199D02*
X2904Y6199D01*
X2928Y6199D02*
X2935Y6199D01*
X2957Y6199D02*
X2964Y6199D01*
X2983Y6199D02*
X3012Y6199D01*
X3065Y6199D02*
X3073Y6199D01*
X3106Y6199D02*
X3113Y6199D01*
X1833Y6198D02*
X1839Y6198D01*
X1863Y6198D02*
X1869Y6198D01*
X1887Y6198D02*
X1894Y6198D01*
X1917Y6198D02*
X1924Y6198D01*
X1942Y6198D02*
X1949Y6198D01*
X1957Y6198D02*
X1964Y6198D01*
X1973Y6198D02*
X1979Y6198D01*
X2052Y6198D02*
X2059Y6198D01*
X2081Y6198D02*
X2088Y6198D01*
X2108Y6198D02*
X2141Y6198D01*
X2191Y6198D02*
X2198Y6198D01*
X2289Y6198D02*
X2307Y6198D01*
X2355Y6198D02*
X2362Y6198D01*
X2380Y6198D02*
X2386Y6198D01*
X2410Y6198D02*
X2417Y6198D01*
X2450Y6198D02*
X2456Y6198D01*
X2518Y6198D02*
X2525Y6198D01*
X2629Y6198D02*
X2635Y6198D01*
X2653Y6198D02*
X2660Y6198D01*
X2684Y6198D02*
X2690Y6198D01*
X2731Y6198D02*
X2737Y6198D01*
X2776Y6198D02*
X2793Y6198D01*
X2833Y6198D02*
X2839Y6198D01*
X2885Y6198D02*
X2903Y6198D01*
X2928Y6198D02*
X2935Y6198D01*
X2957Y6198D02*
X2964Y6198D01*
X2983Y6198D02*
X3014Y6198D01*
X3066Y6198D02*
X3073Y6198D01*
X3106Y6198D02*
X3113Y6198D01*
X1833Y6197D02*
X1839Y6197D01*
X1863Y6197D02*
X1869Y6197D01*
X1887Y6197D02*
X1894Y6197D01*
X1917Y6197D02*
X1924Y6197D01*
X1942Y6197D02*
X1949Y6197D01*
X1957Y6197D02*
X1964Y6197D01*
X1973Y6197D02*
X1979Y6197D01*
X2052Y6197D02*
X2059Y6197D01*
X2081Y6197D02*
X2088Y6197D01*
X2108Y6197D02*
X2141Y6197D01*
X2191Y6197D02*
X2198Y6197D01*
X2290Y6197D02*
X2307Y6197D01*
X2355Y6197D02*
X2362Y6197D01*
X2380Y6197D02*
X2386Y6197D01*
X2410Y6197D02*
X2417Y6197D01*
X2450Y6197D02*
X2456Y6197D01*
X2518Y6197D02*
X2525Y6197D01*
X2629Y6197D02*
X2635Y6197D01*
X2653Y6197D02*
X2660Y6197D01*
X2684Y6197D02*
X2690Y6197D01*
X2731Y6197D02*
X2737Y6197D01*
X2773Y6197D02*
X2791Y6197D01*
X2833Y6197D02*
X2839Y6197D01*
X2883Y6197D02*
X2901Y6197D01*
X2928Y6197D02*
X2934Y6197D01*
X2957Y6197D02*
X2964Y6197D01*
X2983Y6197D02*
X3015Y6197D01*
X3067Y6197D02*
X3073Y6197D01*
X3106Y6197D02*
X3113Y6197D01*
X1833Y6196D02*
X1839Y6196D01*
X1863Y6196D02*
X1869Y6196D01*
X1887Y6196D02*
X1894Y6196D01*
X1917Y6196D02*
X1924Y6196D01*
X1942Y6196D02*
X1949Y6196D01*
X1957Y6196D02*
X1964Y6196D01*
X1973Y6196D02*
X1979Y6196D01*
X2052Y6196D02*
X2059Y6196D01*
X2081Y6196D02*
X2088Y6196D01*
X2108Y6196D02*
X2141Y6196D01*
X2191Y6196D02*
X2198Y6196D01*
X2290Y6196D02*
X2307Y6196D01*
X2355Y6196D02*
X2362Y6196D01*
X2380Y6196D02*
X2386Y6196D01*
X2410Y6196D02*
X2417Y6196D01*
X2450Y6196D02*
X2456Y6196D01*
X2517Y6196D02*
X2525Y6196D01*
X2629Y6196D02*
X2635Y6196D01*
X2653Y6196D02*
X2660Y6196D01*
X2684Y6196D02*
X2690Y6196D01*
X2731Y6196D02*
X2737Y6196D01*
X2771Y6196D02*
X2789Y6196D01*
X2833Y6196D02*
X2839Y6196D01*
X2880Y6196D02*
X2899Y6196D01*
X2928Y6196D02*
X2934Y6196D01*
X2957Y6196D02*
X2964Y6196D01*
X2983Y6196D02*
X3016Y6196D01*
X3067Y6196D02*
X3073Y6196D01*
X3106Y6196D02*
X3113Y6196D01*
X1833Y6195D02*
X1839Y6195D01*
X1863Y6195D02*
X1869Y6195D01*
X1887Y6195D02*
X1894Y6195D01*
X1917Y6195D02*
X1924Y6195D01*
X1942Y6195D02*
X1949Y6195D01*
X1957Y6195D02*
X1964Y6195D01*
X1973Y6195D02*
X1979Y6195D01*
X2052Y6195D02*
X2059Y6195D01*
X2081Y6195D02*
X2088Y6195D01*
X2108Y6195D02*
X2141Y6195D01*
X2191Y6195D02*
X2198Y6195D01*
X2289Y6195D02*
X2307Y6195D01*
X2355Y6195D02*
X2362Y6195D01*
X2380Y6195D02*
X2386Y6195D01*
X2410Y6195D02*
X2417Y6195D01*
X2450Y6195D02*
X2456Y6195D01*
X2517Y6195D02*
X2524Y6195D01*
X2629Y6195D02*
X2635Y6195D01*
X2653Y6195D02*
X2660Y6195D01*
X2684Y6195D02*
X2690Y6195D01*
X2731Y6195D02*
X2737Y6195D01*
X2769Y6195D02*
X2787Y6195D01*
X2833Y6195D02*
X2839Y6195D01*
X2879Y6195D02*
X2896Y6195D01*
X2928Y6195D02*
X2934Y6195D01*
X2957Y6195D02*
X2964Y6195D01*
X2982Y6195D02*
X3017Y6195D01*
X3067Y6195D02*
X3073Y6195D01*
X3106Y6195D02*
X3113Y6195D01*
X1833Y6194D02*
X1839Y6194D01*
X1863Y6194D02*
X1869Y6194D01*
X1887Y6194D02*
X1894Y6194D01*
X1917Y6194D02*
X1924Y6194D01*
X1942Y6194D02*
X1949Y6194D01*
X1957Y6194D02*
X1964Y6194D01*
X1973Y6194D02*
X1979Y6194D01*
X2052Y6194D02*
X2059Y6194D01*
X2081Y6194D02*
X2088Y6194D01*
X2109Y6194D02*
X2141Y6194D01*
X2191Y6194D02*
X2198Y6194D01*
X2288Y6194D02*
X2307Y6194D01*
X2355Y6194D02*
X2362Y6194D01*
X2380Y6194D02*
X2386Y6194D01*
X2410Y6194D02*
X2417Y6194D01*
X2450Y6194D02*
X2456Y6194D01*
X2516Y6194D02*
X2524Y6194D01*
X2629Y6194D02*
X2635Y6194D01*
X2653Y6194D02*
X2660Y6194D01*
X2684Y6194D02*
X2690Y6194D01*
X2731Y6194D02*
X2737Y6194D01*
X2768Y6194D02*
X2785Y6194D01*
X2833Y6194D02*
X2839Y6194D01*
X2877Y6194D02*
X2894Y6194D01*
X2928Y6194D02*
X2934Y6194D01*
X2957Y6194D02*
X2964Y6194D01*
X2982Y6194D02*
X3017Y6194D01*
X3067Y6194D02*
X3073Y6194D01*
X3106Y6194D02*
X3113Y6194D01*
X1833Y6193D02*
X1839Y6193D01*
X1863Y6193D02*
X1869Y6193D01*
X1887Y6193D02*
X1894Y6193D01*
X1917Y6193D02*
X1924Y6193D01*
X1942Y6193D02*
X1949Y6193D01*
X1957Y6193D02*
X1964Y6193D01*
X1973Y6193D02*
X1979Y6193D01*
X2052Y6193D02*
X2059Y6193D01*
X2081Y6193D02*
X2088Y6193D01*
X2110Y6193D02*
X2141Y6193D01*
X2191Y6193D02*
X2198Y6193D01*
X2287Y6193D02*
X2307Y6193D01*
X2355Y6193D02*
X2362Y6193D01*
X2380Y6193D02*
X2386Y6193D01*
X2410Y6193D02*
X2417Y6193D01*
X2450Y6193D02*
X2456Y6193D01*
X2516Y6193D02*
X2523Y6193D01*
X2629Y6193D02*
X2635Y6193D01*
X2653Y6193D02*
X2660Y6193D01*
X2684Y6193D02*
X2690Y6193D01*
X2731Y6193D02*
X2737Y6193D01*
X2767Y6193D02*
X2782Y6193D01*
X2833Y6193D02*
X2839Y6193D01*
X2876Y6193D02*
X2892Y6193D01*
X2928Y6193D02*
X2934Y6193D01*
X2957Y6193D02*
X2964Y6193D01*
X2982Y6193D02*
X3018Y6193D01*
X3067Y6193D02*
X3073Y6193D01*
X3106Y6193D02*
X3113Y6193D01*
X1833Y6192D02*
X1839Y6192D01*
X1863Y6192D02*
X1869Y6192D01*
X1887Y6192D02*
X1894Y6192D01*
X1917Y6192D02*
X1924Y6192D01*
X1942Y6192D02*
X1949Y6192D01*
X1957Y6192D02*
X1964Y6192D01*
X1973Y6192D02*
X1979Y6192D01*
X2052Y6192D02*
X2059Y6192D01*
X2081Y6192D02*
X2088Y6192D01*
X2112Y6192D02*
X2119Y6192D01*
X2191Y6192D02*
X2198Y6192D01*
X2286Y6192D02*
X2307Y6192D01*
X2355Y6192D02*
X2362Y6192D01*
X2380Y6192D02*
X2386Y6192D01*
X2410Y6192D02*
X2417Y6192D01*
X2450Y6192D02*
X2456Y6192D01*
X2515Y6192D02*
X2523Y6192D01*
X2629Y6192D02*
X2635Y6192D01*
X2653Y6192D02*
X2660Y6192D01*
X2684Y6192D02*
X2690Y6192D01*
X2731Y6192D02*
X2737Y6192D01*
X2766Y6192D02*
X2780Y6192D01*
X2833Y6192D02*
X2839Y6192D01*
X2875Y6192D02*
X2889Y6192D01*
X2928Y6192D02*
X2934Y6192D01*
X2957Y6192D02*
X2964Y6192D01*
X2982Y6192D02*
X2991Y6192D01*
X3010Y6192D02*
X3018Y6192D01*
X3067Y6192D02*
X3073Y6192D01*
X3106Y6192D02*
X3113Y6192D01*
X1833Y6191D02*
X1839Y6191D01*
X1863Y6191D02*
X1869Y6191D01*
X1887Y6191D02*
X1894Y6191D01*
X1917Y6191D02*
X1924Y6191D01*
X1942Y6191D02*
X1949Y6191D01*
X1957Y6191D02*
X1964Y6191D01*
X1973Y6191D02*
X1979Y6191D01*
X2052Y6191D02*
X2059Y6191D01*
X2081Y6191D02*
X2088Y6191D01*
X2112Y6191D02*
X2119Y6191D01*
X2191Y6191D02*
X2198Y6191D01*
X2285Y6191D02*
X2295Y6191D01*
X2297Y6191D02*
X2307Y6191D01*
X2355Y6191D02*
X2362Y6191D01*
X2380Y6191D02*
X2386Y6191D01*
X2410Y6191D02*
X2417Y6191D01*
X2450Y6191D02*
X2456Y6191D01*
X2515Y6191D02*
X2522Y6191D01*
X2629Y6191D02*
X2635Y6191D01*
X2653Y6191D02*
X2660Y6191D01*
X2684Y6191D02*
X2690Y6191D01*
X2731Y6191D02*
X2737Y6191D01*
X2765Y6191D02*
X2778Y6191D01*
X2833Y6191D02*
X2839Y6191D01*
X2874Y6191D02*
X2887Y6191D01*
X2928Y6191D02*
X2934Y6191D01*
X2957Y6191D02*
X2964Y6191D01*
X2982Y6191D02*
X2990Y6191D01*
X3011Y6191D02*
X3018Y6191D01*
X3067Y6191D02*
X3073Y6191D01*
X3106Y6191D02*
X3113Y6191D01*
X1833Y6190D02*
X1839Y6190D01*
X1863Y6190D02*
X1869Y6190D01*
X1887Y6190D02*
X1894Y6190D01*
X1917Y6190D02*
X1924Y6190D01*
X1942Y6190D02*
X1949Y6190D01*
X1957Y6190D02*
X1964Y6190D01*
X1973Y6190D02*
X1979Y6190D01*
X2052Y6190D02*
X2059Y6190D01*
X2081Y6190D02*
X2088Y6190D01*
X2112Y6190D02*
X2119Y6190D01*
X2191Y6190D02*
X2198Y6190D01*
X2283Y6190D02*
X2294Y6190D01*
X2298Y6190D02*
X2307Y6190D01*
X2355Y6190D02*
X2362Y6190D01*
X2380Y6190D02*
X2386Y6190D01*
X2410Y6190D02*
X2417Y6190D01*
X2450Y6190D02*
X2456Y6190D01*
X2514Y6190D02*
X2522Y6190D01*
X2629Y6190D02*
X2635Y6190D01*
X2653Y6190D02*
X2660Y6190D01*
X2684Y6190D02*
X2690Y6190D01*
X2731Y6190D02*
X2737Y6190D01*
X2764Y6190D02*
X2775Y6190D01*
X2833Y6190D02*
X2839Y6190D01*
X2874Y6190D02*
X2885Y6190D01*
X2928Y6190D02*
X2934Y6190D01*
X2957Y6190D02*
X2964Y6190D01*
X2982Y6190D02*
X2989Y6190D01*
X3012Y6190D02*
X3018Y6190D01*
X3067Y6190D02*
X3073Y6190D01*
X3106Y6190D02*
X3113Y6190D01*
X1833Y6189D02*
X1839Y6189D01*
X1863Y6189D02*
X1869Y6189D01*
X1887Y6189D02*
X1894Y6189D01*
X1917Y6189D02*
X1924Y6189D01*
X1942Y6189D02*
X1949Y6189D01*
X1957Y6189D02*
X1964Y6189D01*
X1973Y6189D02*
X1979Y6189D01*
X2052Y6189D02*
X2059Y6189D01*
X2081Y6189D02*
X2088Y6189D01*
X2112Y6189D02*
X2119Y6189D01*
X2191Y6189D02*
X2198Y6189D01*
X2282Y6189D02*
X2293Y6189D01*
X2300Y6189D02*
X2307Y6189D01*
X2355Y6189D02*
X2362Y6189D01*
X2380Y6189D02*
X2386Y6189D01*
X2410Y6189D02*
X2417Y6189D01*
X2450Y6189D02*
X2456Y6189D01*
X2514Y6189D02*
X2521Y6189D01*
X2629Y6189D02*
X2635Y6189D01*
X2653Y6189D02*
X2660Y6189D01*
X2684Y6189D02*
X2690Y6189D01*
X2731Y6189D02*
X2737Y6189D01*
X2764Y6189D02*
X2773Y6189D01*
X2833Y6189D02*
X2839Y6189D01*
X2873Y6189D02*
X2882Y6189D01*
X2928Y6189D02*
X2934Y6189D01*
X2957Y6189D02*
X2964Y6189D01*
X2982Y6189D02*
X2989Y6189D01*
X3012Y6189D02*
X3019Y6189D01*
X3067Y6189D02*
X3073Y6189D01*
X3106Y6189D02*
X3113Y6189D01*
X1833Y6188D02*
X1840Y6188D01*
X1863Y6188D02*
X1869Y6188D01*
X1887Y6188D02*
X1894Y6188D01*
X1917Y6188D02*
X1924Y6188D01*
X1942Y6188D02*
X1948Y6188D01*
X1957Y6188D02*
X1964Y6188D01*
X1973Y6188D02*
X1979Y6188D01*
X2052Y6188D02*
X2058Y6188D01*
X2081Y6188D02*
X2088Y6188D01*
X2112Y6188D02*
X2119Y6188D01*
X2191Y6188D02*
X2198Y6188D01*
X2281Y6188D02*
X2292Y6188D01*
X2300Y6188D02*
X2307Y6188D01*
X2354Y6188D02*
X2362Y6188D01*
X2380Y6188D02*
X2386Y6188D01*
X2410Y6188D02*
X2417Y6188D01*
X2450Y6188D02*
X2456Y6188D01*
X2513Y6188D02*
X2521Y6188D01*
X2629Y6188D02*
X2635Y6188D01*
X2653Y6188D02*
X2660Y6188D01*
X2684Y6188D02*
X2690Y6188D01*
X2731Y6188D02*
X2737Y6188D01*
X2764Y6188D02*
X2771Y6188D01*
X2833Y6188D02*
X2839Y6188D01*
X2873Y6188D02*
X2881Y6188D01*
X2928Y6188D02*
X2934Y6188D01*
X2957Y6188D02*
X2964Y6188D01*
X2982Y6188D02*
X2989Y6188D01*
X3012Y6188D02*
X3019Y6188D01*
X3067Y6188D02*
X3073Y6188D01*
X3106Y6188D02*
X3113Y6188D01*
X1833Y6187D02*
X1841Y6187D01*
X1863Y6187D02*
X1869Y6187D01*
X1887Y6187D02*
X1894Y6187D01*
X1917Y6187D02*
X1924Y6187D01*
X1942Y6187D02*
X1948Y6187D01*
X1957Y6187D02*
X1964Y6187D01*
X1973Y6187D02*
X1979Y6187D01*
X2052Y6187D02*
X2058Y6187D01*
X2081Y6187D02*
X2088Y6187D01*
X2112Y6187D02*
X2119Y6187D01*
X2191Y6187D02*
X2198Y6187D01*
X2280Y6187D02*
X2291Y6187D01*
X2300Y6187D02*
X2307Y6187D01*
X2353Y6187D02*
X2361Y6187D01*
X2380Y6187D02*
X2387Y6187D01*
X2410Y6187D02*
X2417Y6187D01*
X2450Y6187D02*
X2456Y6187D01*
X2513Y6187D02*
X2520Y6187D01*
X2629Y6187D02*
X2635Y6187D01*
X2653Y6187D02*
X2660Y6187D01*
X2684Y6187D02*
X2690Y6187D01*
X2711Y6187D02*
X2713Y6187D01*
X2731Y6187D02*
X2737Y6187D01*
X2763Y6187D02*
X2770Y6187D01*
X2833Y6187D02*
X2839Y6187D01*
X2873Y6187D02*
X2880Y6187D01*
X2928Y6187D02*
X2934Y6187D01*
X2957Y6187D02*
X2964Y6187D01*
X2982Y6187D02*
X2989Y6187D01*
X3012Y6187D02*
X3019Y6187D01*
X3067Y6187D02*
X3073Y6187D01*
X3106Y6187D02*
X3113Y6187D01*
X1833Y6186D02*
X1842Y6186D01*
X1862Y6186D02*
X1869Y6186D01*
X1887Y6186D02*
X1894Y6186D01*
X1917Y6186D02*
X1924Y6186D01*
X1942Y6186D02*
X1948Y6186D01*
X1957Y6186D02*
X1964Y6186D01*
X1973Y6186D02*
X1979Y6186D01*
X2052Y6186D02*
X2058Y6186D01*
X2081Y6186D02*
X2088Y6186D01*
X2112Y6186D02*
X2119Y6186D01*
X2191Y6186D02*
X2198Y6186D01*
X2279Y6186D02*
X2290Y6186D01*
X2300Y6186D02*
X2307Y6186D01*
X2352Y6186D02*
X2361Y6186D01*
X2380Y6186D02*
X2387Y6186D01*
X2410Y6186D02*
X2416Y6186D01*
X2450Y6186D02*
X2456Y6186D01*
X2512Y6186D02*
X2520Y6186D01*
X2629Y6186D02*
X2635Y6186D01*
X2654Y6186D02*
X2660Y6186D01*
X2683Y6186D02*
X2690Y6186D01*
X2709Y6186D02*
X2714Y6186D01*
X2731Y6186D02*
X2737Y6186D01*
X2763Y6186D02*
X2770Y6186D01*
X2833Y6186D02*
X2839Y6186D01*
X2873Y6186D02*
X2879Y6186D01*
X2928Y6186D02*
X2934Y6186D01*
X2957Y6186D02*
X2964Y6186D01*
X2982Y6186D02*
X2989Y6186D01*
X3012Y6186D02*
X3019Y6186D01*
X3067Y6186D02*
X3073Y6186D01*
X3106Y6186D02*
X3113Y6186D01*
X1833Y6185D02*
X1843Y6185D01*
X1862Y6185D02*
X1869Y6185D01*
X1887Y6185D02*
X1895Y6185D01*
X1917Y6185D02*
X1924Y6185D01*
X1942Y6185D02*
X1948Y6185D01*
X1957Y6185D02*
X1964Y6185D01*
X1973Y6185D02*
X1979Y6185D01*
X2052Y6185D02*
X2058Y6185D01*
X2081Y6185D02*
X2088Y6185D01*
X2112Y6185D02*
X2119Y6185D01*
X2191Y6185D02*
X2198Y6185D01*
X2278Y6185D02*
X2288Y6185D01*
X2300Y6185D02*
X2307Y6185D01*
X2351Y6185D02*
X2361Y6185D01*
X2380Y6185D02*
X2387Y6185D01*
X2409Y6185D02*
X2416Y6185D01*
X2450Y6185D02*
X2456Y6185D01*
X2512Y6185D02*
X2519Y6185D01*
X2629Y6185D02*
X2635Y6185D01*
X2654Y6185D02*
X2661Y6185D01*
X2683Y6185D02*
X2690Y6185D01*
X2709Y6185D02*
X2714Y6185D01*
X2731Y6185D02*
X2737Y6185D01*
X2763Y6185D02*
X2770Y6185D01*
X2833Y6185D02*
X2839Y6185D01*
X2873Y6185D02*
X2879Y6185D01*
X2927Y6185D02*
X2934Y6185D01*
X2957Y6185D02*
X2964Y6185D01*
X2982Y6185D02*
X2990Y6185D01*
X3012Y6185D02*
X3019Y6185D01*
X3067Y6185D02*
X3073Y6185D01*
X3106Y6185D02*
X3113Y6185D01*
X1833Y6184D02*
X1845Y6184D01*
X1861Y6184D02*
X1869Y6184D01*
X1888Y6184D02*
X1895Y6184D01*
X1916Y6184D02*
X1924Y6184D01*
X1942Y6184D02*
X1948Y6184D01*
X1957Y6184D02*
X1964Y6184D01*
X1973Y6184D02*
X1979Y6184D01*
X2052Y6184D02*
X2058Y6184D01*
X2081Y6184D02*
X2088Y6184D01*
X2112Y6184D02*
X2119Y6184D01*
X2191Y6184D02*
X2198Y6184D01*
X2276Y6184D02*
X2287Y6184D01*
X2300Y6184D02*
X2307Y6184D01*
X2350Y6184D02*
X2360Y6184D01*
X2380Y6184D02*
X2388Y6184D01*
X2408Y6184D02*
X2416Y6184D01*
X2450Y6184D02*
X2456Y6184D01*
X2511Y6184D02*
X2519Y6184D01*
X2629Y6184D02*
X2635Y6184D01*
X2654Y6184D02*
X2662Y6184D01*
X2682Y6184D02*
X2690Y6184D01*
X2708Y6184D02*
X2715Y6184D01*
X2731Y6184D02*
X2737Y6184D01*
X2763Y6184D02*
X2770Y6184D01*
X2796Y6184D02*
X2797Y6184D01*
X2833Y6184D02*
X2839Y6184D01*
X2873Y6184D02*
X2879Y6184D01*
X2906Y6184D02*
X2906Y6184D01*
X2927Y6184D02*
X2934Y6184D01*
X2957Y6184D02*
X2964Y6184D01*
X2982Y6184D02*
X2992Y6184D01*
X3012Y6184D02*
X3019Y6184D01*
X3067Y6184D02*
X3073Y6184D01*
X3106Y6184D02*
X3113Y6184D01*
X1833Y6183D02*
X1846Y6183D01*
X1860Y6183D02*
X1869Y6183D01*
X1888Y6183D02*
X1897Y6183D01*
X1915Y6183D02*
X1923Y6183D01*
X1942Y6183D02*
X1948Y6183D01*
X1957Y6183D02*
X1964Y6183D01*
X1973Y6183D02*
X1979Y6183D01*
X2052Y6183D02*
X2058Y6183D01*
X2081Y6183D02*
X2088Y6183D01*
X2112Y6183D02*
X2119Y6183D01*
X2191Y6183D02*
X2198Y6183D01*
X2275Y6183D02*
X2286Y6183D01*
X2300Y6183D02*
X2307Y6183D01*
X2349Y6183D02*
X2359Y6183D01*
X2381Y6183D02*
X2389Y6183D01*
X2407Y6183D02*
X2416Y6183D01*
X2450Y6183D02*
X2456Y6183D01*
X2511Y6183D02*
X2518Y6183D01*
X2629Y6183D02*
X2635Y6183D01*
X2654Y6183D02*
X2663Y6183D01*
X2681Y6183D02*
X2689Y6183D01*
X2708Y6183D02*
X2715Y6183D01*
X2730Y6183D02*
X2737Y6183D01*
X2763Y6183D02*
X2770Y6183D01*
X2794Y6183D02*
X2799Y6183D01*
X2833Y6183D02*
X2839Y6183D01*
X2873Y6183D02*
X2880Y6183D01*
X2904Y6183D02*
X2908Y6183D01*
X2927Y6183D02*
X2934Y6183D01*
X2957Y6183D02*
X2964Y6183D01*
X2982Y6183D02*
X2994Y6183D01*
X3011Y6183D02*
X3018Y6183D01*
X3067Y6183D02*
X3073Y6183D01*
X3106Y6183D02*
X3113Y6183D01*
X1833Y6182D02*
X1847Y6182D01*
X1859Y6182D02*
X1868Y6182D01*
X1888Y6182D02*
X1898Y6182D01*
X1913Y6182D02*
X1923Y6182D01*
X1942Y6182D02*
X1948Y6182D01*
X1957Y6182D02*
X1964Y6182D01*
X1973Y6182D02*
X1979Y6182D01*
X2052Y6182D02*
X2058Y6182D01*
X2081Y6182D02*
X2088Y6182D01*
X2112Y6182D02*
X2119Y6182D01*
X2191Y6182D02*
X2198Y6182D01*
X2274Y6182D02*
X2285Y6182D01*
X2300Y6182D02*
X2307Y6182D01*
X2348Y6182D02*
X2358Y6182D01*
X2381Y6182D02*
X2390Y6182D01*
X2406Y6182D02*
X2415Y6182D01*
X2450Y6182D02*
X2456Y6182D01*
X2510Y6182D02*
X2518Y6182D01*
X2629Y6182D02*
X2635Y6182D01*
X2655Y6182D02*
X2664Y6182D01*
X2680Y6182D02*
X2689Y6182D01*
X2708Y6182D02*
X2716Y6182D01*
X2730Y6182D02*
X2737Y6182D01*
X2763Y6182D02*
X2771Y6182D01*
X2793Y6182D02*
X2799Y6182D01*
X2833Y6182D02*
X2839Y6182D01*
X2873Y6182D02*
X2881Y6182D01*
X2902Y6182D02*
X2909Y6182D01*
X2927Y6182D02*
X2934Y6182D01*
X2957Y6182D02*
X2964Y6182D01*
X2982Y6182D02*
X2995Y6182D01*
X3011Y6182D02*
X3018Y6182D01*
X3067Y6182D02*
X3073Y6182D01*
X3106Y6182D02*
X3113Y6182D01*
X1833Y6181D02*
X1849Y6181D01*
X1857Y6181D02*
X1868Y6181D01*
X1889Y6181D02*
X1900Y6181D01*
X1911Y6181D02*
X1922Y6181D01*
X1942Y6181D02*
X1948Y6181D01*
X1957Y6181D02*
X1964Y6181D01*
X1973Y6181D02*
X1979Y6181D01*
X2052Y6181D02*
X2058Y6181D01*
X2081Y6181D02*
X2088Y6181D01*
X2112Y6181D02*
X2119Y6181D01*
X2191Y6181D02*
X2198Y6181D01*
X2273Y6181D02*
X2284Y6181D01*
X2300Y6181D02*
X2307Y6181D01*
X2345Y6181D02*
X2357Y6181D01*
X2382Y6181D02*
X2392Y6181D01*
X2404Y6181D02*
X2415Y6181D01*
X2449Y6181D02*
X2457Y6181D01*
X2508Y6181D02*
X2517Y6181D01*
X2629Y6181D02*
X2635Y6181D01*
X2655Y6181D02*
X2666Y6181D01*
X2678Y6181D02*
X2689Y6181D01*
X2709Y6181D02*
X2718Y6181D01*
X2728Y6181D02*
X2737Y6181D01*
X2764Y6181D02*
X2773Y6181D01*
X2790Y6181D02*
X2800Y6181D01*
X2832Y6181D02*
X2840Y6181D01*
X2873Y6181D02*
X2883Y6181D01*
X2900Y6181D02*
X2909Y6181D01*
X2927Y6181D02*
X2934Y6181D01*
X2957Y6181D02*
X2964Y6181D01*
X2982Y6181D02*
X2997Y6181D01*
X3009Y6181D02*
X3018Y6181D01*
X3067Y6181D02*
X3073Y6181D01*
X3106Y6181D02*
X3113Y6181D01*
X1833Y6180D02*
X1867Y6180D01*
X1890Y6180D02*
X1922Y6180D01*
X1942Y6180D02*
X1948Y6180D01*
X1957Y6180D02*
X1964Y6180D01*
X1973Y6180D02*
X1979Y6180D01*
X2052Y6180D02*
X2058Y6180D01*
X2081Y6180D02*
X2088Y6180D01*
X2112Y6180D02*
X2119Y6180D01*
X2162Y6180D02*
X2198Y6180D01*
X2272Y6180D02*
X2282Y6180D01*
X2300Y6180D02*
X2307Y6180D01*
X2327Y6180D02*
X2356Y6180D01*
X2382Y6180D02*
X2414Y6180D01*
X2440Y6180D02*
X2466Y6180D01*
X2491Y6180D02*
X2517Y6180D01*
X2629Y6180D02*
X2635Y6180D01*
X2656Y6180D02*
X2688Y6180D01*
X2709Y6180D02*
X2736Y6180D01*
X2764Y6180D02*
X2800Y6180D01*
X2823Y6180D02*
X2849Y6180D01*
X2874Y6180D02*
X2909Y6180D01*
X2927Y6180D02*
X2934Y6180D01*
X2957Y6180D02*
X2964Y6180D01*
X2982Y6180D02*
X3018Y6180D01*
X3067Y6180D02*
X3073Y6180D01*
X3106Y6180D02*
X3113Y6180D01*
X1833Y6179D02*
X1866Y6179D01*
X1891Y6179D02*
X1921Y6179D01*
X1942Y6179D02*
X1948Y6179D01*
X1957Y6179D02*
X1964Y6179D01*
X1973Y6179D02*
X1979Y6179D01*
X2052Y6179D02*
X2058Y6179D01*
X2081Y6179D02*
X2088Y6179D01*
X2112Y6179D02*
X2119Y6179D01*
X2161Y6179D02*
X2198Y6179D01*
X2271Y6179D02*
X2281Y6179D01*
X2300Y6179D02*
X2307Y6179D01*
X2326Y6179D02*
X2355Y6179D01*
X2383Y6179D02*
X2413Y6179D01*
X2439Y6179D02*
X2467Y6179D01*
X2490Y6179D02*
X2516Y6179D01*
X2629Y6179D02*
X2635Y6179D01*
X2657Y6179D02*
X2687Y6179D01*
X2710Y6179D02*
X2736Y6179D01*
X2765Y6179D02*
X2799Y6179D01*
X2822Y6179D02*
X2850Y6179D01*
X2874Y6179D02*
X2909Y6179D01*
X2927Y6179D02*
X2934Y6179D01*
X2957Y6179D02*
X2964Y6179D01*
X2982Y6179D02*
X3017Y6179D01*
X3067Y6179D02*
X3073Y6179D01*
X3106Y6179D02*
X3113Y6179D01*
X1833Y6178D02*
X1865Y6178D01*
X1892Y6178D02*
X1920Y6178D01*
X1941Y6178D02*
X1948Y6178D01*
X1957Y6178D02*
X1964Y6178D01*
X1973Y6178D02*
X1979Y6178D01*
X2052Y6178D02*
X2058Y6178D01*
X2081Y6178D02*
X2088Y6178D01*
X2112Y6178D02*
X2119Y6178D01*
X2161Y6178D02*
X2198Y6178D01*
X2271Y6178D02*
X2280Y6178D01*
X2300Y6178D02*
X2307Y6178D01*
X2325Y6178D02*
X2354Y6178D01*
X2384Y6178D02*
X2412Y6178D01*
X2439Y6178D02*
X2467Y6178D01*
X2489Y6178D02*
X2515Y6178D01*
X2629Y6178D02*
X2635Y6178D01*
X2658Y6178D02*
X2686Y6178D01*
X2710Y6178D02*
X2735Y6178D01*
X2765Y6178D02*
X2799Y6178D01*
X2822Y6178D02*
X2850Y6178D01*
X2875Y6178D02*
X2908Y6178D01*
X2927Y6178D02*
X2934Y6178D01*
X2957Y6178D02*
X2964Y6178D01*
X2982Y6178D02*
X3016Y6178D01*
X3067Y6178D02*
X3073Y6178D01*
X3106Y6178D02*
X3113Y6178D01*
X1833Y6177D02*
X1839Y6177D01*
X1842Y6177D02*
X1864Y6177D01*
X1893Y6177D02*
X1918Y6177D01*
X1942Y6177D02*
X1948Y6177D01*
X1957Y6177D02*
X1964Y6177D01*
X1973Y6177D02*
X1979Y6177D01*
X2052Y6177D02*
X2058Y6177D01*
X2082Y6177D02*
X2088Y6177D01*
X2112Y6177D02*
X2118Y6177D01*
X2161Y6177D02*
X2198Y6177D01*
X2270Y6177D02*
X2279Y6177D01*
X2300Y6177D02*
X2307Y6177D01*
X2325Y6177D02*
X2353Y6177D01*
X2385Y6177D02*
X2411Y6177D01*
X2438Y6177D02*
X2467Y6177D01*
X2489Y6177D02*
X2515Y6177D01*
X2629Y6177D02*
X2635Y6177D01*
X2659Y6177D02*
X2685Y6177D01*
X2711Y6177D02*
X2734Y6177D01*
X2766Y6177D02*
X2798Y6177D01*
X2822Y6177D02*
X2851Y6177D01*
X2876Y6177D02*
X2907Y6177D01*
X2927Y6177D02*
X2934Y6177D01*
X2957Y6177D02*
X2964Y6177D01*
X2982Y6177D02*
X3016Y6177D01*
X3067Y6177D02*
X3073Y6177D01*
X3106Y6177D02*
X3113Y6177D01*
X1833Y6176D02*
X1839Y6176D01*
X1843Y6176D02*
X1863Y6176D01*
X1894Y6176D02*
X1917Y6176D01*
X1942Y6176D02*
X1948Y6176D01*
X1957Y6176D02*
X1963Y6176D01*
X1973Y6176D02*
X1979Y6176D01*
X2052Y6176D02*
X2058Y6176D01*
X2082Y6176D02*
X2088Y6176D01*
X2112Y6176D02*
X2118Y6176D01*
X2161Y6176D02*
X2198Y6176D01*
X2271Y6176D02*
X2278Y6176D01*
X2301Y6176D02*
X2307Y6176D01*
X2325Y6176D02*
X2351Y6176D01*
X2387Y6176D02*
X2410Y6176D01*
X2439Y6176D02*
X2467Y6176D01*
X2490Y6176D02*
X2513Y6176D01*
X2629Y6176D02*
X2635Y6176D01*
X2660Y6176D02*
X2683Y6176D01*
X2712Y6176D02*
X2733Y6176D01*
X2767Y6176D02*
X2796Y6176D01*
X2822Y6176D02*
X2850Y6176D01*
X2877Y6176D02*
X2906Y6176D01*
X2927Y6176D02*
X2934Y6176D01*
X2957Y6176D02*
X2964Y6176D01*
X2982Y6176D02*
X2988Y6176D01*
X2991Y6176D02*
X3015Y6176D01*
X3067Y6176D02*
X3073Y6176D01*
X3107Y6176D02*
X3113Y6176D01*
X1833Y6175D02*
X1838Y6175D01*
X1845Y6175D02*
X1861Y6175D01*
X1895Y6175D02*
X1916Y6175D01*
X1942Y6175D02*
X1947Y6175D01*
X1958Y6175D02*
X1963Y6175D01*
X1973Y6175D02*
X1979Y6175D01*
X2052Y6175D02*
X2057Y6175D01*
X2082Y6175D02*
X2087Y6175D01*
X2113Y6175D02*
X2118Y6175D01*
X2162Y6175D02*
X2198Y6175D01*
X2271Y6175D02*
X2277Y6175D01*
X2301Y6175D02*
X2306Y6175D01*
X2326Y6175D02*
X2350Y6175D01*
X2388Y6175D02*
X2408Y6175D01*
X2439Y6175D02*
X2467Y6175D01*
X2490Y6175D02*
X2512Y6175D01*
X2630Y6175D02*
X2635Y6175D01*
X2662Y6175D02*
X2682Y6175D01*
X2714Y6175D02*
X2732Y6175D01*
X2769Y6175D02*
X2795Y6175D01*
X2822Y6175D02*
X2850Y6175D01*
X2878Y6175D02*
X2904Y6175D01*
X2928Y6175D02*
X2933Y6175D01*
X2958Y6175D02*
X2963Y6175D01*
X2983Y6175D02*
X2988Y6175D01*
X2993Y6175D02*
X3013Y6175D01*
X3067Y6175D02*
X3073Y6175D01*
X3107Y6175D02*
X3112Y6175D01*
X1834Y6174D02*
X1837Y6174D01*
X1847Y6174D02*
X1859Y6174D01*
X1897Y6174D02*
X1914Y6174D01*
X1943Y6174D02*
X1946Y6174D01*
X1959Y6174D02*
X1962Y6174D01*
X1974Y6174D02*
X1978Y6174D01*
X2053Y6174D02*
X2056Y6174D01*
X2083Y6174D02*
X2086Y6174D01*
X2114Y6174D02*
X2117Y6174D01*
X2163Y6174D02*
X2198Y6174D01*
X2272Y6174D02*
X2275Y6174D01*
X2302Y6174D02*
X2305Y6174D01*
X2327Y6174D02*
X2348Y6174D01*
X2390Y6174D02*
X2406Y6174D01*
X2440Y6174D02*
X2466Y6174D01*
X2491Y6174D02*
X2510Y6174D01*
X2631Y6174D02*
X2634Y6174D01*
X2664Y6174D02*
X2680Y6174D01*
X2716Y6174D02*
X2730Y6174D01*
X2771Y6174D02*
X2792Y6174D01*
X2823Y6174D02*
X2849Y6174D01*
X2880Y6174D02*
X2902Y6174D01*
X2929Y6174D02*
X2932Y6174D01*
X2959Y6174D02*
X2962Y6174D01*
X2984Y6174D02*
X2987Y6174D01*
X2995Y6174D02*
X3011Y6174D01*
X3068Y6174D02*
X3072Y6174D01*
X3108Y6174D02*
X3111Y6174D01*
X2720Y6144D02*
X2726Y6144D01*
X2718Y6143D02*
X2727Y6143D01*
X2718Y6142D02*
X2728Y6142D01*
X1832Y6141D02*
X1861Y6141D01*
X1887Y6141D02*
X1916Y6141D01*
X1942Y6141D02*
X1967Y6141D01*
X1997Y6141D02*
X2025Y6141D01*
X2116Y6141D02*
X2134Y6141D01*
X2225Y6141D02*
X2244Y6141D01*
X2626Y6141D02*
X2627Y6141D01*
X2717Y6141D02*
X2728Y6141D01*
X2775Y6141D02*
X2791Y6141D01*
X3086Y6141D02*
X3094Y6141D01*
X3113Y6141D02*
X3122Y6141D01*
X1830Y6140D02*
X1862Y6140D01*
X1885Y6140D02*
X1917Y6140D01*
X1940Y6140D02*
X1969Y6140D01*
X1994Y6140D02*
X2026Y6140D01*
X2115Y6140D02*
X2136Y6140D01*
X2225Y6140D02*
X2245Y6140D01*
X2624Y6140D02*
X2628Y6140D01*
X2717Y6140D02*
X2728Y6140D01*
X2772Y6140D02*
X2793Y6140D01*
X3085Y6140D02*
X3095Y6140D01*
X3113Y6140D02*
X3122Y6140D01*
X1829Y6139D02*
X1863Y6139D01*
X1884Y6139D02*
X1918Y6139D01*
X1938Y6139D02*
X1970Y6139D01*
X1993Y6139D02*
X2027Y6139D01*
X2115Y6139D02*
X2137Y6139D01*
X2225Y6139D02*
X2246Y6139D01*
X2623Y6139D02*
X2629Y6139D01*
X2717Y6139D02*
X2728Y6139D01*
X2770Y6139D02*
X2793Y6139D01*
X3085Y6139D02*
X3096Y6139D01*
X3112Y6139D02*
X3122Y6139D01*
X1828Y6138D02*
X1863Y6138D01*
X1883Y6138D02*
X1918Y6138D01*
X1938Y6138D02*
X1971Y6138D01*
X1992Y6138D02*
X2027Y6138D01*
X2115Y6138D02*
X2137Y6138D01*
X2225Y6138D02*
X2246Y6138D01*
X2623Y6138D02*
X2629Y6138D01*
X2717Y6138D02*
X2728Y6138D01*
X2769Y6138D02*
X2794Y6138D01*
X3085Y6138D02*
X3096Y6138D01*
X3111Y6138D02*
X3122Y6138D01*
X1827Y6137D02*
X1863Y6137D01*
X1882Y6137D02*
X1918Y6137D01*
X1937Y6137D02*
X1972Y6137D01*
X1992Y6137D02*
X2027Y6137D01*
X2115Y6137D02*
X2137Y6137D01*
X2225Y6137D02*
X2246Y6137D01*
X2623Y6137D02*
X2630Y6137D01*
X2717Y6137D02*
X2728Y6137D01*
X2768Y6137D02*
X2794Y6137D01*
X3085Y6137D02*
X3097Y6137D01*
X3111Y6137D02*
X3122Y6137D01*
X1827Y6136D02*
X1863Y6136D01*
X1882Y6136D02*
X1918Y6136D01*
X1937Y6136D02*
X1972Y6136D01*
X1991Y6136D02*
X2027Y6136D01*
X2115Y6136D02*
X2137Y6136D01*
X2225Y6136D02*
X2246Y6136D01*
X2623Y6136D02*
X2630Y6136D01*
X2718Y6136D02*
X2727Y6136D01*
X2767Y6136D02*
X2793Y6136D01*
X3085Y6136D02*
X3098Y6136D01*
X3110Y6136D02*
X3122Y6136D01*
X1827Y6135D02*
X1862Y6135D01*
X1882Y6135D02*
X1917Y6135D01*
X1936Y6135D02*
X1973Y6135D01*
X1991Y6135D02*
X2027Y6135D01*
X2115Y6135D02*
X2136Y6135D01*
X2225Y6135D02*
X2246Y6135D01*
X2623Y6135D02*
X2630Y6135D01*
X2718Y6135D02*
X2727Y6135D01*
X2767Y6135D02*
X2793Y6135D01*
X3085Y6135D02*
X3098Y6135D01*
X3109Y6135D02*
X3122Y6135D01*
X1827Y6134D02*
X1861Y6134D01*
X1881Y6134D02*
X1916Y6134D01*
X1936Y6134D02*
X1973Y6134D01*
X1991Y6134D02*
X2025Y6134D01*
X2115Y6134D02*
X2135Y6134D01*
X2225Y6134D02*
X2244Y6134D01*
X2623Y6134D02*
X2630Y6134D01*
X2720Y6134D02*
X2726Y6134D01*
X2766Y6134D02*
X2792Y6134D01*
X3085Y6134D02*
X3099Y6134D01*
X3108Y6134D02*
X3122Y6134D01*
X1827Y6133D02*
X1833Y6133D01*
X1881Y6133D02*
X1888Y6133D01*
X1936Y6133D02*
X1943Y6133D01*
X1966Y6133D02*
X1973Y6133D01*
X1991Y6133D02*
X1997Y6133D01*
X2115Y6133D02*
X2122Y6133D01*
X2225Y6133D02*
X2231Y6133D01*
X2623Y6133D02*
X2630Y6133D01*
X2766Y6133D02*
X2774Y6133D01*
X2780Y6133D02*
X2786Y6133D01*
X3085Y6133D02*
X3100Y6133D01*
X3108Y6133D02*
X3122Y6133D01*
X1827Y6132D02*
X1833Y6132D01*
X1881Y6132D02*
X1888Y6132D01*
X1936Y6132D02*
X1943Y6132D01*
X1966Y6132D02*
X1973Y6132D01*
X1991Y6132D02*
X1997Y6132D01*
X2115Y6132D02*
X2122Y6132D01*
X2225Y6132D02*
X2231Y6132D01*
X2623Y6132D02*
X2630Y6132D01*
X2765Y6132D02*
X2773Y6132D01*
X2780Y6132D02*
X2786Y6132D01*
X3085Y6132D02*
X3100Y6132D01*
X3107Y6132D02*
X3122Y6132D01*
X1827Y6131D02*
X1833Y6131D01*
X1881Y6131D02*
X1888Y6131D01*
X1936Y6131D02*
X1943Y6131D01*
X1966Y6131D02*
X1973Y6131D01*
X1991Y6131D02*
X1997Y6131D01*
X2115Y6131D02*
X2122Y6131D01*
X2225Y6131D02*
X2231Y6131D01*
X2623Y6131D02*
X2630Y6131D01*
X2765Y6131D02*
X2772Y6131D01*
X2780Y6131D02*
X2786Y6131D01*
X3085Y6131D02*
X3101Y6131D01*
X3106Y6131D02*
X3122Y6131D01*
X1827Y6130D02*
X1833Y6130D01*
X1881Y6130D02*
X1888Y6130D01*
X1936Y6130D02*
X1943Y6130D01*
X1966Y6130D02*
X1973Y6130D01*
X1991Y6130D02*
X1997Y6130D01*
X2115Y6130D02*
X2122Y6130D01*
X2225Y6130D02*
X2231Y6130D01*
X2623Y6130D02*
X2630Y6130D01*
X2764Y6130D02*
X2772Y6130D01*
X2780Y6130D02*
X2786Y6130D01*
X3085Y6130D02*
X3092Y6130D01*
X3094Y6130D02*
X3102Y6130D01*
X3106Y6130D02*
X3122Y6130D01*
X1827Y6129D02*
X1833Y6129D01*
X1881Y6129D02*
X1888Y6129D01*
X1936Y6129D02*
X1943Y6129D01*
X1966Y6129D02*
X1973Y6129D01*
X1991Y6129D02*
X1997Y6129D01*
X2115Y6129D02*
X2122Y6129D01*
X2225Y6129D02*
X2231Y6129D01*
X2623Y6129D02*
X2630Y6129D01*
X2764Y6129D02*
X2771Y6129D01*
X2780Y6129D02*
X2786Y6129D01*
X3085Y6129D02*
X3092Y6129D01*
X3094Y6129D02*
X3103Y6129D01*
X3105Y6129D02*
X3113Y6129D01*
X3115Y6129D02*
X3122Y6129D01*
X1827Y6128D02*
X1833Y6128D01*
X1881Y6128D02*
X1888Y6128D01*
X1936Y6128D02*
X1943Y6128D01*
X1966Y6128D02*
X1973Y6128D01*
X1991Y6128D02*
X1997Y6128D01*
X2115Y6128D02*
X2122Y6128D01*
X2225Y6128D02*
X2231Y6128D01*
X2623Y6128D02*
X2630Y6128D01*
X2763Y6128D02*
X2771Y6128D01*
X2780Y6128D02*
X2786Y6128D01*
X3085Y6128D02*
X3092Y6128D01*
X3095Y6128D02*
X3113Y6128D01*
X3115Y6128D02*
X3122Y6128D01*
X1827Y6127D02*
X1833Y6127D01*
X1881Y6127D02*
X1888Y6127D01*
X1936Y6127D02*
X1943Y6127D01*
X1966Y6127D02*
X1973Y6127D01*
X1991Y6127D02*
X1997Y6127D01*
X2115Y6127D02*
X2122Y6127D01*
X2225Y6127D02*
X2231Y6127D01*
X2623Y6127D02*
X2630Y6127D01*
X2763Y6127D02*
X2770Y6127D01*
X2780Y6127D02*
X2786Y6127D01*
X3085Y6127D02*
X3092Y6127D01*
X3096Y6127D02*
X3112Y6127D01*
X3115Y6127D02*
X3122Y6127D01*
X1827Y6126D02*
X1833Y6126D01*
X1881Y6126D02*
X1888Y6126D01*
X1936Y6126D02*
X1943Y6126D01*
X1966Y6126D02*
X1973Y6126D01*
X1991Y6126D02*
X1997Y6126D01*
X2115Y6126D02*
X2122Y6126D01*
X2225Y6126D02*
X2231Y6126D01*
X2623Y6126D02*
X2630Y6126D01*
X2762Y6126D02*
X2770Y6126D01*
X2780Y6126D02*
X2786Y6126D01*
X3085Y6126D02*
X3092Y6126D01*
X3096Y6126D02*
X3111Y6126D01*
X3115Y6126D02*
X3122Y6126D01*
X1827Y6125D02*
X1833Y6125D01*
X1881Y6125D02*
X1888Y6125D01*
X1936Y6125D02*
X1943Y6125D01*
X1966Y6125D02*
X1973Y6125D01*
X1991Y6125D02*
X1997Y6125D01*
X2115Y6125D02*
X2122Y6125D01*
X2225Y6125D02*
X2231Y6125D01*
X2267Y6125D02*
X2268Y6125D01*
X2297Y6125D02*
X2298Y6125D01*
X2542Y6125D02*
X2543Y6125D01*
X2570Y6125D02*
X2571Y6125D01*
X2599Y6125D02*
X2601Y6125D01*
X2623Y6125D02*
X2630Y6125D01*
X2657Y6125D02*
X2667Y6125D01*
X2680Y6125D02*
X2682Y6125D01*
X2720Y6125D02*
X2733Y6125D01*
X2762Y6125D02*
X2769Y6125D01*
X2780Y6125D02*
X2786Y6125D01*
X2878Y6125D02*
X2891Y6125D01*
X2924Y6125D02*
X2942Y6125D01*
X2985Y6125D02*
X2995Y6125D01*
X3009Y6125D02*
X3010Y6125D01*
X3041Y6125D02*
X3057Y6125D01*
X3085Y6125D02*
X3092Y6125D01*
X3097Y6125D02*
X3111Y6125D01*
X3115Y6125D02*
X3122Y6125D01*
X1827Y6124D02*
X1833Y6124D01*
X1881Y6124D02*
X1888Y6124D01*
X1936Y6124D02*
X1943Y6124D01*
X1966Y6124D02*
X1973Y6124D01*
X1991Y6124D02*
X1997Y6124D01*
X2115Y6124D02*
X2122Y6124D01*
X2225Y6124D02*
X2231Y6124D01*
X2266Y6124D02*
X2270Y6124D01*
X2296Y6124D02*
X2300Y6124D01*
X2540Y6124D02*
X2544Y6124D01*
X2569Y6124D02*
X2573Y6124D01*
X2598Y6124D02*
X2602Y6124D01*
X2623Y6124D02*
X2630Y6124D01*
X2654Y6124D02*
X2668Y6124D01*
X2679Y6124D02*
X2683Y6124D01*
X2719Y6124D02*
X2734Y6124D01*
X2761Y6124D02*
X2769Y6124D01*
X2780Y6124D02*
X2786Y6124D01*
X2876Y6124D02*
X2894Y6124D01*
X2922Y6124D02*
X2945Y6124D01*
X2982Y6124D02*
X2997Y6124D01*
X3007Y6124D02*
X3012Y6124D01*
X3038Y6124D02*
X3059Y6124D01*
X3085Y6124D02*
X3092Y6124D01*
X3098Y6124D02*
X3110Y6124D01*
X3115Y6124D02*
X3122Y6124D01*
X1827Y6123D02*
X1833Y6123D01*
X1881Y6123D02*
X1888Y6123D01*
X1936Y6123D02*
X1943Y6123D01*
X1966Y6123D02*
X1973Y6123D01*
X1991Y6123D02*
X1997Y6123D01*
X2115Y6123D02*
X2122Y6123D01*
X2225Y6123D02*
X2231Y6123D01*
X2265Y6123D02*
X2271Y6123D01*
X2295Y6123D02*
X2301Y6123D01*
X2539Y6123D02*
X2545Y6123D01*
X2568Y6123D02*
X2574Y6123D01*
X2597Y6123D02*
X2603Y6123D01*
X2623Y6123D02*
X2630Y6123D01*
X2652Y6123D02*
X2670Y6123D01*
X2678Y6123D02*
X2684Y6123D01*
X2718Y6123D02*
X2735Y6123D01*
X2761Y6123D02*
X2768Y6123D01*
X2780Y6123D02*
X2786Y6123D01*
X2874Y6123D02*
X2896Y6123D01*
X2922Y6123D02*
X2947Y6123D01*
X2981Y6123D02*
X2998Y6123D01*
X3006Y6123D02*
X3012Y6123D01*
X3036Y6123D02*
X3059Y6123D01*
X3085Y6123D02*
X3092Y6123D01*
X3098Y6123D02*
X3109Y6123D01*
X3115Y6123D02*
X3122Y6123D01*
X1827Y6122D02*
X1833Y6122D01*
X1881Y6122D02*
X1888Y6122D01*
X1936Y6122D02*
X1943Y6122D01*
X1966Y6122D02*
X1973Y6122D01*
X1991Y6122D02*
X1997Y6122D01*
X2115Y6122D02*
X2122Y6122D01*
X2225Y6122D02*
X2231Y6122D01*
X2265Y6122D02*
X2271Y6122D01*
X2295Y6122D02*
X2301Y6122D01*
X2539Y6122D02*
X2546Y6122D01*
X2567Y6122D02*
X2574Y6122D01*
X2597Y6122D02*
X2605Y6122D01*
X2623Y6122D02*
X2630Y6122D01*
X2651Y6122D02*
X2671Y6122D01*
X2678Y6122D02*
X2684Y6122D01*
X2718Y6122D02*
X2735Y6122D01*
X2760Y6122D02*
X2768Y6122D01*
X2780Y6122D02*
X2786Y6122D01*
X2873Y6122D02*
X2897Y6122D01*
X2921Y6122D02*
X2948Y6122D01*
X2980Y6122D02*
X2999Y6122D01*
X3006Y6122D02*
X3013Y6122D01*
X3035Y6122D02*
X3060Y6122D01*
X3085Y6122D02*
X3092Y6122D01*
X3099Y6122D02*
X3108Y6122D01*
X3115Y6122D02*
X3122Y6122D01*
X1827Y6121D02*
X1833Y6121D01*
X1881Y6121D02*
X1888Y6121D01*
X1936Y6121D02*
X1943Y6121D01*
X1966Y6121D02*
X1973Y6121D01*
X1991Y6121D02*
X1997Y6121D01*
X2115Y6121D02*
X2122Y6121D01*
X2225Y6121D02*
X2231Y6121D01*
X2264Y6121D02*
X2271Y6121D01*
X2295Y6121D02*
X2301Y6121D01*
X2539Y6121D02*
X2547Y6121D01*
X2566Y6121D02*
X2574Y6121D01*
X2597Y6121D02*
X2606Y6121D01*
X2623Y6121D02*
X2630Y6121D01*
X2650Y6121D02*
X2672Y6121D01*
X2678Y6121D02*
X2684Y6121D01*
X2717Y6121D02*
X2735Y6121D01*
X2760Y6121D02*
X2767Y6121D01*
X2780Y6121D02*
X2786Y6121D01*
X2872Y6121D02*
X2898Y6121D01*
X2921Y6121D02*
X2950Y6121D01*
X2979Y6121D02*
X3000Y6121D01*
X3006Y6121D02*
X3013Y6121D01*
X3034Y6121D02*
X3060Y6121D01*
X3085Y6121D02*
X3092Y6121D01*
X3100Y6121D02*
X3108Y6121D01*
X3115Y6121D02*
X3122Y6121D01*
X1827Y6120D02*
X1833Y6120D01*
X1881Y6120D02*
X1888Y6120D01*
X1936Y6120D02*
X1943Y6120D01*
X1966Y6120D02*
X1973Y6120D01*
X1991Y6120D02*
X1997Y6120D01*
X2115Y6120D02*
X2122Y6120D01*
X2225Y6120D02*
X2231Y6120D01*
X2264Y6120D02*
X2271Y6120D01*
X2295Y6120D02*
X2301Y6120D01*
X2539Y6120D02*
X2548Y6120D01*
X2565Y6120D02*
X2574Y6120D01*
X2597Y6120D02*
X2607Y6120D01*
X2623Y6120D02*
X2630Y6120D01*
X2649Y6120D02*
X2673Y6120D01*
X2678Y6120D02*
X2684Y6120D01*
X2717Y6120D02*
X2735Y6120D01*
X2759Y6120D02*
X2767Y6120D01*
X2780Y6120D02*
X2786Y6120D01*
X2870Y6120D02*
X2899Y6120D01*
X2922Y6120D02*
X2951Y6120D01*
X2978Y6120D02*
X3001Y6120D01*
X3006Y6120D02*
X3013Y6120D01*
X3034Y6120D02*
X3060Y6120D01*
X3085Y6120D02*
X3092Y6120D01*
X3100Y6120D02*
X3107Y6120D01*
X3115Y6120D02*
X3122Y6120D01*
X1827Y6119D02*
X1833Y6119D01*
X1881Y6119D02*
X1888Y6119D01*
X1936Y6119D02*
X1943Y6119D01*
X1966Y6119D02*
X1973Y6119D01*
X1991Y6119D02*
X1997Y6119D01*
X2115Y6119D02*
X2122Y6119D01*
X2225Y6119D02*
X2231Y6119D01*
X2264Y6119D02*
X2271Y6119D01*
X2295Y6119D02*
X2301Y6119D01*
X2540Y6119D02*
X2549Y6119D01*
X2564Y6119D02*
X2573Y6119D01*
X2598Y6119D02*
X2608Y6119D01*
X2623Y6119D02*
X2630Y6119D01*
X2649Y6119D02*
X2674Y6119D01*
X2678Y6119D02*
X2684Y6119D01*
X2717Y6119D02*
X2734Y6119D01*
X2759Y6119D02*
X2766Y6119D01*
X2780Y6119D02*
X2786Y6119D01*
X2869Y6119D02*
X2900Y6119D01*
X2922Y6119D02*
X2952Y6119D01*
X2977Y6119D02*
X3003Y6119D01*
X3006Y6119D02*
X3013Y6119D01*
X3033Y6119D02*
X3059Y6119D01*
X3085Y6119D02*
X3092Y6119D01*
X3100Y6119D02*
X3107Y6119D01*
X3115Y6119D02*
X3122Y6119D01*
X1827Y6118D02*
X1833Y6118D01*
X1881Y6118D02*
X1888Y6118D01*
X1936Y6118D02*
X1943Y6118D01*
X1966Y6118D02*
X1973Y6118D01*
X1991Y6118D02*
X1997Y6118D01*
X2115Y6118D02*
X2122Y6118D01*
X2225Y6118D02*
X2231Y6118D01*
X2264Y6118D02*
X2271Y6118D01*
X2295Y6118D02*
X2301Y6118D01*
X2541Y6118D02*
X2550Y6118D01*
X2563Y6118D02*
X2572Y6118D01*
X2599Y6118D02*
X2609Y6118D01*
X2623Y6118D02*
X2630Y6118D01*
X2648Y6118D02*
X2675Y6118D01*
X2678Y6118D02*
X2684Y6118D01*
X2717Y6118D02*
X2733Y6118D01*
X2758Y6118D02*
X2766Y6118D01*
X2780Y6118D02*
X2786Y6118D01*
X2869Y6118D02*
X2901Y6118D01*
X2923Y6118D02*
X2953Y6118D01*
X2977Y6118D02*
X3004Y6118D01*
X3006Y6118D02*
X3013Y6118D01*
X3032Y6118D02*
X3058Y6118D01*
X3085Y6118D02*
X3092Y6118D01*
X3101Y6118D02*
X3107Y6118D01*
X3115Y6118D02*
X3122Y6118D01*
X1827Y6117D02*
X1833Y6117D01*
X1881Y6117D02*
X1888Y6117D01*
X1936Y6117D02*
X1943Y6117D01*
X1966Y6117D02*
X1973Y6117D01*
X1991Y6117D02*
X1997Y6117D01*
X2115Y6117D02*
X2122Y6117D01*
X2225Y6117D02*
X2231Y6117D01*
X2264Y6117D02*
X2271Y6117D01*
X2295Y6117D02*
X2301Y6117D01*
X2541Y6117D02*
X2550Y6117D01*
X2563Y6117D02*
X2572Y6117D01*
X2600Y6117D02*
X2611Y6117D01*
X2623Y6117D02*
X2630Y6117D01*
X2648Y6117D02*
X2656Y6117D01*
X2666Y6117D02*
X2684Y6117D01*
X2717Y6117D02*
X2724Y6117D01*
X2758Y6117D02*
X2765Y6117D01*
X2780Y6117D02*
X2786Y6117D01*
X2868Y6117D02*
X2878Y6117D01*
X2892Y6117D02*
X2902Y6117D01*
X2943Y6117D02*
X2954Y6117D01*
X2976Y6117D02*
X2985Y6117D01*
X2994Y6117D02*
X3013Y6117D01*
X3032Y6117D02*
X3040Y6117D01*
X3085Y6117D02*
X3092Y6117D01*
X3101Y6117D02*
X3107Y6117D01*
X3115Y6117D02*
X3122Y6117D01*
X1827Y6116D02*
X1833Y6116D01*
X1881Y6116D02*
X1888Y6116D01*
X1936Y6116D02*
X1943Y6116D01*
X1966Y6116D02*
X1973Y6116D01*
X1991Y6116D02*
X1997Y6116D01*
X2115Y6116D02*
X2122Y6116D01*
X2225Y6116D02*
X2231Y6116D01*
X2264Y6116D02*
X2271Y6116D01*
X2295Y6116D02*
X2301Y6116D01*
X2542Y6116D02*
X2551Y6116D01*
X2562Y6116D02*
X2571Y6116D01*
X2601Y6116D02*
X2612Y6116D01*
X2623Y6116D02*
X2630Y6116D01*
X2648Y6116D02*
X2655Y6116D01*
X2667Y6116D02*
X2684Y6116D01*
X2717Y6116D02*
X2724Y6116D01*
X2758Y6116D02*
X2765Y6116D01*
X2780Y6116D02*
X2786Y6116D01*
X2867Y6116D02*
X2876Y6116D01*
X2893Y6116D02*
X2902Y6116D01*
X2944Y6116D02*
X2955Y6116D01*
X2976Y6116D02*
X2983Y6116D01*
X2995Y6116D02*
X3013Y6116D01*
X3032Y6116D02*
X3039Y6116D01*
X3085Y6116D02*
X3092Y6116D01*
X3101Y6116D02*
X3106Y6116D01*
X3115Y6116D02*
X3122Y6116D01*
X1827Y6115D02*
X1858Y6115D01*
X1881Y6115D02*
X1913Y6115D01*
X1936Y6115D02*
X1943Y6115D01*
X1966Y6115D02*
X1973Y6115D01*
X1991Y6115D02*
X2023Y6115D01*
X2115Y6115D02*
X2122Y6115D01*
X2225Y6115D02*
X2231Y6115D01*
X2265Y6115D02*
X2271Y6115D01*
X2294Y6115D02*
X2301Y6115D01*
X2543Y6115D02*
X2552Y6115D01*
X2561Y6115D02*
X2570Y6115D01*
X2602Y6115D02*
X2613Y6115D01*
X2623Y6115D02*
X2630Y6115D01*
X2648Y6115D02*
X2654Y6115D01*
X2668Y6115D02*
X2684Y6115D01*
X2717Y6115D02*
X2724Y6115D01*
X2757Y6115D02*
X2764Y6115D01*
X2780Y6115D02*
X2786Y6115D01*
X2867Y6115D02*
X2875Y6115D01*
X2895Y6115D02*
X2903Y6115D01*
X2945Y6115D02*
X2956Y6115D01*
X2976Y6115D02*
X2983Y6115D01*
X2996Y6115D02*
X3013Y6115D01*
X3032Y6115D02*
X3039Y6115D01*
X3085Y6115D02*
X3092Y6115D01*
X3102Y6115D02*
X3105Y6115D01*
X3115Y6115D02*
X3122Y6115D01*
X1827Y6114D02*
X1860Y6114D01*
X1882Y6114D02*
X1915Y6114D01*
X1936Y6114D02*
X1943Y6114D01*
X1966Y6114D02*
X1973Y6114D01*
X1991Y6114D02*
X2024Y6114D01*
X2115Y6114D02*
X2122Y6114D01*
X2225Y6114D02*
X2231Y6114D01*
X2265Y6114D02*
X2272Y6114D01*
X2294Y6114D02*
X2301Y6114D01*
X2544Y6114D02*
X2553Y6114D01*
X2560Y6114D02*
X2569Y6114D01*
X2603Y6114D02*
X2614Y6114D01*
X2623Y6114D02*
X2630Y6114D01*
X2648Y6114D02*
X2654Y6114D01*
X2669Y6114D02*
X2684Y6114D01*
X2717Y6114D02*
X2724Y6114D01*
X2757Y6114D02*
X2764Y6114D01*
X2780Y6114D02*
X2786Y6114D01*
X2867Y6114D02*
X2874Y6114D01*
X2896Y6114D02*
X2903Y6114D01*
X2947Y6114D02*
X2956Y6114D01*
X2976Y6114D02*
X2983Y6114D01*
X2998Y6114D02*
X3013Y6114D01*
X3032Y6114D02*
X3038Y6114D01*
X3085Y6114D02*
X3092Y6114D01*
X3115Y6114D02*
X3122Y6114D01*
X1827Y6113D02*
X1861Y6113D01*
X1882Y6113D02*
X1916Y6113D01*
X1936Y6113D02*
X1943Y6113D01*
X1966Y6113D02*
X1973Y6113D01*
X1991Y6113D02*
X2025Y6113D01*
X2115Y6113D02*
X2122Y6113D01*
X2225Y6113D02*
X2231Y6113D01*
X2265Y6113D02*
X2272Y6113D01*
X2293Y6113D02*
X2301Y6113D01*
X2545Y6113D02*
X2554Y6113D01*
X2559Y6113D02*
X2568Y6113D01*
X2604Y6113D02*
X2615Y6113D01*
X2623Y6113D02*
X2630Y6113D01*
X2648Y6113D02*
X2654Y6113D01*
X2670Y6113D02*
X2684Y6113D01*
X2717Y6113D02*
X2724Y6113D01*
X2757Y6113D02*
X2764Y6113D01*
X2780Y6113D02*
X2786Y6113D01*
X2867Y6113D02*
X2874Y6113D01*
X2896Y6113D02*
X2903Y6113D01*
X2948Y6113D02*
X2957Y6113D01*
X2976Y6113D02*
X2983Y6113D01*
X2999Y6113D02*
X3013Y6113D01*
X3032Y6113D02*
X3038Y6113D01*
X3085Y6113D02*
X3092Y6113D01*
X3115Y6113D02*
X3122Y6113D01*
X1828Y6112D02*
X1862Y6112D01*
X1882Y6112D02*
X1917Y6112D01*
X1936Y6112D02*
X1943Y6112D01*
X1966Y6112D02*
X1973Y6112D01*
X1992Y6112D02*
X2026Y6112D01*
X2115Y6112D02*
X2122Y6112D01*
X2225Y6112D02*
X2231Y6112D01*
X2265Y6112D02*
X2273Y6112D01*
X2293Y6112D02*
X2300Y6112D01*
X2546Y6112D02*
X2555Y6112D01*
X2558Y6112D02*
X2567Y6112D01*
X2606Y6112D02*
X2616Y6112D01*
X2623Y6112D02*
X2630Y6112D01*
X2648Y6112D02*
X2654Y6112D01*
X2672Y6112D02*
X2684Y6112D01*
X2717Y6112D02*
X2724Y6112D01*
X2757Y6112D02*
X2764Y6112D01*
X2780Y6112D02*
X2786Y6112D01*
X2867Y6112D02*
X2873Y6112D01*
X2896Y6112D02*
X2903Y6112D01*
X2949Y6112D02*
X2957Y6112D01*
X2976Y6112D02*
X2983Y6112D01*
X3000Y6112D02*
X3013Y6112D01*
X3032Y6112D02*
X3038Y6112D01*
X3085Y6112D02*
X3092Y6112D01*
X3115Y6112D02*
X3122Y6112D01*
X1828Y6111D02*
X1863Y6111D01*
X1883Y6111D02*
X1917Y6111D01*
X1936Y6111D02*
X1943Y6111D01*
X1966Y6111D02*
X1973Y6111D01*
X1992Y6111D02*
X2027Y6111D01*
X2115Y6111D02*
X2122Y6111D01*
X2225Y6111D02*
X2231Y6111D01*
X2266Y6111D02*
X2273Y6111D01*
X2292Y6111D02*
X2300Y6111D01*
X2546Y6111D02*
X2555Y6111D01*
X2558Y6111D02*
X2567Y6111D01*
X2607Y6111D02*
X2618Y6111D01*
X2623Y6111D02*
X2630Y6111D01*
X2648Y6111D02*
X2654Y6111D01*
X2673Y6111D02*
X2684Y6111D01*
X2717Y6111D02*
X2724Y6111D01*
X2757Y6111D02*
X2764Y6111D01*
X2780Y6111D02*
X2786Y6111D01*
X2867Y6111D02*
X2873Y6111D01*
X2897Y6111D02*
X2903Y6111D01*
X2950Y6111D02*
X2958Y6111D01*
X2976Y6111D02*
X2982Y6111D01*
X3001Y6111D02*
X3013Y6111D01*
X3032Y6111D02*
X3038Y6111D01*
X3085Y6111D02*
X3092Y6111D01*
X3115Y6111D02*
X3122Y6111D01*
X1829Y6110D02*
X1863Y6110D01*
X1884Y6110D02*
X1918Y6110D01*
X1936Y6110D02*
X1943Y6110D01*
X1966Y6110D02*
X1973Y6110D01*
X1993Y6110D02*
X2027Y6110D01*
X2115Y6110D02*
X2122Y6110D01*
X2225Y6110D02*
X2231Y6110D01*
X2266Y6110D02*
X2274Y6110D01*
X2292Y6110D02*
X2299Y6110D01*
X2547Y6110D02*
X2566Y6110D01*
X2608Y6110D02*
X2619Y6110D01*
X2623Y6110D02*
X2630Y6110D01*
X2648Y6110D02*
X2654Y6110D01*
X2674Y6110D02*
X2684Y6110D01*
X2717Y6110D02*
X2724Y6110D01*
X2757Y6110D02*
X2764Y6110D01*
X2780Y6110D02*
X2786Y6110D01*
X2867Y6110D02*
X2873Y6110D01*
X2897Y6110D02*
X2903Y6110D01*
X2951Y6110D02*
X2958Y6110D01*
X2976Y6110D02*
X2982Y6110D01*
X3002Y6110D02*
X3013Y6110D01*
X3032Y6110D02*
X3038Y6110D01*
X3085Y6110D02*
X3092Y6110D01*
X3115Y6110D02*
X3122Y6110D01*
X1831Y6109D02*
X1863Y6109D01*
X1885Y6109D02*
X1918Y6109D01*
X1936Y6109D02*
X1943Y6109D01*
X1966Y6109D02*
X1973Y6109D01*
X1995Y6109D02*
X2027Y6109D01*
X2103Y6109D02*
X2104Y6109D01*
X2115Y6109D02*
X2122Y6109D01*
X2213Y6109D02*
X2213Y6109D01*
X2225Y6109D02*
X2231Y6109D01*
X2267Y6109D02*
X2274Y6109D01*
X2292Y6109D02*
X2299Y6109D01*
X2548Y6109D02*
X2565Y6109D01*
X2609Y6109D02*
X2620Y6109D01*
X2623Y6109D02*
X2630Y6109D01*
X2649Y6109D02*
X2653Y6109D01*
X2675Y6109D02*
X2684Y6109D01*
X2717Y6109D02*
X2724Y6109D01*
X2757Y6109D02*
X2764Y6109D01*
X2780Y6109D02*
X2786Y6109D01*
X2867Y6109D02*
X2873Y6109D01*
X2897Y6109D02*
X2903Y6109D01*
X2951Y6109D02*
X2958Y6109D01*
X2977Y6109D02*
X2981Y6109D01*
X3003Y6109D02*
X3013Y6109D01*
X3032Y6109D02*
X3038Y6109D01*
X3041Y6109D02*
X3058Y6109D01*
X3085Y6109D02*
X3092Y6109D01*
X3115Y6109D02*
X3122Y6109D01*
X1834Y6108D02*
X1863Y6108D01*
X1888Y6108D02*
X1918Y6108D01*
X1936Y6108D02*
X1943Y6108D01*
X1966Y6108D02*
X1973Y6108D01*
X1998Y6108D02*
X2028Y6108D01*
X2101Y6108D02*
X2106Y6108D01*
X2115Y6108D02*
X2122Y6108D01*
X2211Y6108D02*
X2215Y6108D01*
X2225Y6108D02*
X2231Y6108D01*
X2267Y6108D02*
X2275Y6108D01*
X2291Y6108D02*
X2299Y6108D01*
X2549Y6108D02*
X2564Y6108D01*
X2610Y6108D02*
X2621Y6108D01*
X2623Y6108D02*
X2630Y6108D01*
X2651Y6108D02*
X2651Y6108D01*
X2676Y6108D02*
X2684Y6108D01*
X2717Y6108D02*
X2724Y6108D01*
X2758Y6108D02*
X2765Y6108D01*
X2780Y6108D02*
X2786Y6108D01*
X2867Y6108D02*
X2873Y6108D01*
X2897Y6108D02*
X2903Y6108D01*
X2951Y6108D02*
X2958Y6108D01*
X3005Y6108D02*
X3013Y6108D01*
X3031Y6108D02*
X3061Y6108D01*
X3085Y6108D02*
X3092Y6108D01*
X3115Y6108D02*
X3122Y6108D01*
X1857Y6107D02*
X1863Y6107D01*
X1911Y6107D02*
X1918Y6107D01*
X1936Y6107D02*
X1943Y6107D01*
X1966Y6107D02*
X1973Y6107D01*
X2021Y6107D02*
X2028Y6107D01*
X2101Y6107D02*
X2106Y6107D01*
X2115Y6107D02*
X2122Y6107D01*
X2210Y6107D02*
X2216Y6107D01*
X2225Y6107D02*
X2231Y6107D01*
X2268Y6107D02*
X2275Y6107D01*
X2291Y6107D02*
X2298Y6107D01*
X2550Y6107D02*
X2563Y6107D01*
X2611Y6107D02*
X2630Y6107D01*
X2677Y6107D02*
X2684Y6107D01*
X2717Y6107D02*
X2724Y6107D01*
X2758Y6107D02*
X2765Y6107D01*
X2780Y6107D02*
X2786Y6107D01*
X2867Y6107D02*
X2873Y6107D01*
X2897Y6107D02*
X2903Y6107D01*
X2951Y6107D02*
X2958Y6107D01*
X3006Y6107D02*
X3013Y6107D01*
X3031Y6107D02*
X3063Y6107D01*
X3085Y6107D02*
X3092Y6107D01*
X3115Y6107D02*
X3122Y6107D01*
X1857Y6106D02*
X1863Y6106D01*
X1911Y6106D02*
X1918Y6106D01*
X1936Y6106D02*
X1943Y6106D01*
X1966Y6106D02*
X1973Y6106D01*
X2021Y6106D02*
X2028Y6106D01*
X2100Y6106D02*
X2107Y6106D01*
X2115Y6106D02*
X2122Y6106D01*
X2210Y6106D02*
X2216Y6106D01*
X2225Y6106D02*
X2231Y6106D01*
X2268Y6106D02*
X2275Y6106D01*
X2290Y6106D02*
X2298Y6106D01*
X2551Y6106D02*
X2562Y6106D01*
X2613Y6106D02*
X2630Y6106D01*
X2678Y6106D02*
X2684Y6106D01*
X2717Y6106D02*
X2724Y6106D01*
X2758Y6106D02*
X2765Y6106D01*
X2780Y6106D02*
X2786Y6106D01*
X2867Y6106D02*
X2873Y6106D01*
X2897Y6106D02*
X2903Y6106D01*
X2951Y6106D02*
X2958Y6106D01*
X3006Y6106D02*
X3013Y6106D01*
X3031Y6106D02*
X3064Y6106D01*
X3085Y6106D02*
X3092Y6106D01*
X3115Y6106D02*
X3122Y6106D01*
X1857Y6105D02*
X1863Y6105D01*
X1911Y6105D02*
X1918Y6105D01*
X1936Y6105D02*
X1943Y6105D01*
X1966Y6105D02*
X1973Y6105D01*
X2021Y6105D02*
X2028Y6105D01*
X2100Y6105D02*
X2107Y6105D01*
X2115Y6105D02*
X2122Y6105D01*
X2168Y6105D02*
X2179Y6105D01*
X2210Y6105D02*
X2216Y6105D01*
X2225Y6105D02*
X2231Y6105D01*
X2269Y6105D02*
X2276Y6105D01*
X2290Y6105D02*
X2297Y6105D01*
X2551Y6105D02*
X2562Y6105D01*
X2613Y6105D02*
X2630Y6105D01*
X2678Y6105D02*
X2684Y6105D01*
X2717Y6105D02*
X2724Y6105D01*
X2759Y6105D02*
X2766Y6105D01*
X2780Y6105D02*
X2786Y6105D01*
X2867Y6105D02*
X2873Y6105D01*
X2897Y6105D02*
X2903Y6105D01*
X2951Y6105D02*
X2958Y6105D01*
X3006Y6105D02*
X3013Y6105D01*
X3031Y6105D02*
X3065Y6105D01*
X3085Y6105D02*
X3092Y6105D01*
X3115Y6105D02*
X3122Y6105D01*
X1857Y6104D02*
X1863Y6104D01*
X1911Y6104D02*
X1918Y6104D01*
X1936Y6104D02*
X1943Y6104D01*
X1966Y6104D02*
X1973Y6104D01*
X2021Y6104D02*
X2028Y6104D01*
X2100Y6104D02*
X2107Y6104D01*
X2115Y6104D02*
X2122Y6104D01*
X2167Y6104D02*
X2180Y6104D01*
X2210Y6104D02*
X2216Y6104D01*
X2225Y6104D02*
X2231Y6104D01*
X2269Y6104D02*
X2276Y6104D01*
X2289Y6104D02*
X2297Y6104D01*
X2552Y6104D02*
X2561Y6104D01*
X2612Y6104D02*
X2630Y6104D01*
X2678Y6104D02*
X2684Y6104D01*
X2717Y6104D02*
X2724Y6104D01*
X2759Y6104D02*
X2766Y6104D01*
X2780Y6104D02*
X2786Y6104D01*
X2867Y6104D02*
X2873Y6104D01*
X2897Y6104D02*
X2903Y6104D01*
X2951Y6104D02*
X2958Y6104D01*
X3006Y6104D02*
X3013Y6104D01*
X3031Y6104D02*
X3066Y6104D01*
X3085Y6104D02*
X3092Y6104D01*
X3115Y6104D02*
X3122Y6104D01*
X1857Y6103D02*
X1863Y6103D01*
X1911Y6103D02*
X1918Y6103D01*
X1936Y6103D02*
X1943Y6103D01*
X1966Y6103D02*
X1973Y6103D01*
X2021Y6103D02*
X2028Y6103D01*
X2100Y6103D02*
X2107Y6103D01*
X2115Y6103D02*
X2122Y6103D01*
X2166Y6103D02*
X2180Y6103D01*
X2210Y6103D02*
X2216Y6103D01*
X2225Y6103D02*
X2231Y6103D01*
X2269Y6103D02*
X2277Y6103D01*
X2289Y6103D02*
X2296Y6103D01*
X2551Y6103D02*
X2562Y6103D01*
X2611Y6103D02*
X2630Y6103D01*
X2678Y6103D02*
X2684Y6103D01*
X2717Y6103D02*
X2724Y6103D01*
X2759Y6103D02*
X2767Y6103D01*
X2780Y6103D02*
X2786Y6103D01*
X2867Y6103D02*
X2873Y6103D01*
X2897Y6103D02*
X2903Y6103D01*
X2951Y6103D02*
X2958Y6103D01*
X3006Y6103D02*
X3013Y6103D01*
X3031Y6103D02*
X3066Y6103D01*
X3085Y6103D02*
X3092Y6103D01*
X3115Y6103D02*
X3122Y6103D01*
X1857Y6102D02*
X1863Y6102D01*
X1911Y6102D02*
X1918Y6102D01*
X1936Y6102D02*
X1943Y6102D01*
X1966Y6102D02*
X1973Y6102D01*
X2021Y6102D02*
X2028Y6102D01*
X2100Y6102D02*
X2107Y6102D01*
X2115Y6102D02*
X2122Y6102D01*
X2166Y6102D02*
X2181Y6102D01*
X2210Y6102D02*
X2216Y6102D01*
X2225Y6102D02*
X2231Y6102D01*
X2270Y6102D02*
X2277Y6102D01*
X2289Y6102D02*
X2296Y6102D01*
X2550Y6102D02*
X2563Y6102D01*
X2610Y6102D02*
X2630Y6102D01*
X2678Y6102D02*
X2684Y6102D01*
X2717Y6102D02*
X2724Y6102D01*
X2760Y6102D02*
X2767Y6102D01*
X2780Y6102D02*
X2786Y6102D01*
X2867Y6102D02*
X2873Y6102D01*
X2897Y6102D02*
X2903Y6102D01*
X2951Y6102D02*
X2958Y6102D01*
X3006Y6102D02*
X3013Y6102D01*
X3031Y6102D02*
X3067Y6102D01*
X3085Y6102D02*
X3092Y6102D01*
X3115Y6102D02*
X3122Y6102D01*
X1857Y6101D02*
X1863Y6101D01*
X1911Y6101D02*
X1918Y6101D01*
X1936Y6101D02*
X1943Y6101D01*
X1966Y6101D02*
X1973Y6101D01*
X2021Y6101D02*
X2028Y6101D01*
X2100Y6101D02*
X2107Y6101D01*
X2115Y6101D02*
X2122Y6101D01*
X2166Y6101D02*
X2181Y6101D01*
X2210Y6101D02*
X2216Y6101D01*
X2225Y6101D02*
X2231Y6101D01*
X2270Y6101D02*
X2278Y6101D01*
X2288Y6101D02*
X2295Y6101D01*
X2549Y6101D02*
X2564Y6101D01*
X2608Y6101D02*
X2630Y6101D01*
X2678Y6101D02*
X2684Y6101D01*
X2717Y6101D02*
X2724Y6101D01*
X2760Y6101D02*
X2768Y6101D01*
X2780Y6101D02*
X2786Y6101D01*
X2867Y6101D02*
X2873Y6101D01*
X2897Y6101D02*
X2903Y6101D01*
X2951Y6101D02*
X2958Y6101D01*
X3006Y6101D02*
X3013Y6101D01*
X3031Y6101D02*
X3040Y6101D01*
X3059Y6101D02*
X3067Y6101D01*
X3085Y6101D02*
X3092Y6101D01*
X3115Y6101D02*
X3122Y6101D01*
X1857Y6100D02*
X1863Y6100D01*
X1911Y6100D02*
X1918Y6100D01*
X1936Y6100D02*
X1943Y6100D01*
X1966Y6100D02*
X1973Y6100D01*
X2021Y6100D02*
X2028Y6100D01*
X2100Y6100D02*
X2107Y6100D01*
X2115Y6100D02*
X2122Y6100D01*
X2166Y6100D02*
X2181Y6100D01*
X2210Y6100D02*
X2216Y6100D01*
X2225Y6100D02*
X2231Y6100D01*
X2271Y6100D02*
X2278Y6100D01*
X2288Y6100D02*
X2295Y6100D01*
X2549Y6100D02*
X2564Y6100D01*
X2607Y6100D02*
X2618Y6100D01*
X2620Y6100D02*
X2630Y6100D01*
X2678Y6100D02*
X2684Y6100D01*
X2717Y6100D02*
X2724Y6100D01*
X2761Y6100D02*
X2768Y6100D01*
X2780Y6100D02*
X2786Y6100D01*
X2867Y6100D02*
X2873Y6100D01*
X2897Y6100D02*
X2903Y6100D01*
X2951Y6100D02*
X2958Y6100D01*
X3006Y6100D02*
X3013Y6100D01*
X3031Y6100D02*
X3039Y6100D01*
X3060Y6100D02*
X3067Y6100D01*
X3085Y6100D02*
X3092Y6100D01*
X3115Y6100D02*
X3122Y6100D01*
X1857Y6099D02*
X1863Y6099D01*
X1911Y6099D02*
X1918Y6099D01*
X1936Y6099D02*
X1943Y6099D01*
X1966Y6099D02*
X1973Y6099D01*
X2021Y6099D02*
X2028Y6099D01*
X2100Y6099D02*
X2107Y6099D01*
X2115Y6099D02*
X2122Y6099D01*
X2166Y6099D02*
X2181Y6099D01*
X2210Y6099D02*
X2216Y6099D01*
X2225Y6099D02*
X2231Y6099D01*
X2271Y6099D02*
X2278Y6099D01*
X2287Y6099D02*
X2295Y6099D01*
X2548Y6099D02*
X2565Y6099D01*
X2606Y6099D02*
X2617Y6099D01*
X2621Y6099D02*
X2630Y6099D01*
X2678Y6099D02*
X2684Y6099D01*
X2717Y6099D02*
X2724Y6099D01*
X2761Y6099D02*
X2769Y6099D01*
X2780Y6099D02*
X2786Y6099D01*
X2867Y6099D02*
X2873Y6099D01*
X2897Y6099D02*
X2903Y6099D01*
X2951Y6099D02*
X2958Y6099D01*
X3006Y6099D02*
X3013Y6099D01*
X3031Y6099D02*
X3038Y6099D01*
X3061Y6099D02*
X3067Y6099D01*
X3085Y6099D02*
X3092Y6099D01*
X3115Y6099D02*
X3122Y6099D01*
X1857Y6098D02*
X1863Y6098D01*
X1911Y6098D02*
X1918Y6098D01*
X1936Y6098D02*
X1943Y6098D01*
X1966Y6098D02*
X1973Y6098D01*
X2021Y6098D02*
X2028Y6098D01*
X2100Y6098D02*
X2107Y6098D01*
X2115Y6098D02*
X2122Y6098D01*
X2166Y6098D02*
X2181Y6098D01*
X2210Y6098D02*
X2216Y6098D01*
X2225Y6098D02*
X2231Y6098D01*
X2272Y6098D02*
X2279Y6098D01*
X2287Y6098D02*
X2294Y6098D01*
X2547Y6098D02*
X2566Y6098D01*
X2605Y6098D02*
X2616Y6098D01*
X2622Y6098D02*
X2630Y6098D01*
X2678Y6098D02*
X2684Y6098D01*
X2717Y6098D02*
X2724Y6098D01*
X2762Y6098D02*
X2769Y6098D01*
X2780Y6098D02*
X2786Y6098D01*
X2867Y6098D02*
X2873Y6098D01*
X2897Y6098D02*
X2903Y6098D01*
X2951Y6098D02*
X2958Y6098D01*
X3006Y6098D02*
X3013Y6098D01*
X3031Y6098D02*
X3038Y6098D01*
X3061Y6098D02*
X3067Y6098D01*
X3085Y6098D02*
X3092Y6098D01*
X3115Y6098D02*
X3122Y6098D01*
X1857Y6097D02*
X1863Y6097D01*
X1911Y6097D02*
X1918Y6097D01*
X1936Y6097D02*
X1943Y6097D01*
X1966Y6097D02*
X1973Y6097D01*
X2021Y6097D02*
X2028Y6097D01*
X2100Y6097D02*
X2107Y6097D01*
X2115Y6097D02*
X2122Y6097D01*
X2166Y6097D02*
X2181Y6097D01*
X2210Y6097D02*
X2216Y6097D01*
X2225Y6097D02*
X2231Y6097D01*
X2272Y6097D02*
X2279Y6097D01*
X2286Y6097D02*
X2294Y6097D01*
X2546Y6097D02*
X2555Y6097D01*
X2558Y6097D02*
X2567Y6097D01*
X2604Y6097D02*
X2614Y6097D01*
X2623Y6097D02*
X2630Y6097D01*
X2678Y6097D02*
X2684Y6097D01*
X2717Y6097D02*
X2724Y6097D01*
X2762Y6097D02*
X2770Y6097D01*
X2780Y6097D02*
X2786Y6097D01*
X2867Y6097D02*
X2873Y6097D01*
X2897Y6097D02*
X2903Y6097D01*
X2951Y6097D02*
X2958Y6097D01*
X3006Y6097D02*
X3013Y6097D01*
X3031Y6097D02*
X3038Y6097D01*
X3061Y6097D02*
X3067Y6097D01*
X3085Y6097D02*
X3092Y6097D01*
X3115Y6097D02*
X3122Y6097D01*
X1857Y6096D02*
X1863Y6096D01*
X1911Y6096D02*
X1918Y6096D01*
X1936Y6096D02*
X1943Y6096D01*
X1966Y6096D02*
X1973Y6096D01*
X2021Y6096D02*
X2028Y6096D01*
X2100Y6096D02*
X2107Y6096D01*
X2115Y6096D02*
X2122Y6096D01*
X2166Y6096D02*
X2181Y6096D01*
X2210Y6096D02*
X2216Y6096D01*
X2225Y6096D02*
X2231Y6096D01*
X2272Y6096D02*
X2280Y6096D01*
X2286Y6096D02*
X2293Y6096D01*
X2545Y6096D02*
X2554Y6096D01*
X2559Y6096D02*
X2568Y6096D01*
X2602Y6096D02*
X2613Y6096D01*
X2623Y6096D02*
X2630Y6096D01*
X2678Y6096D02*
X2684Y6096D01*
X2717Y6096D02*
X2724Y6096D01*
X2763Y6096D02*
X2771Y6096D01*
X2780Y6096D02*
X2786Y6096D01*
X2867Y6096D02*
X2873Y6096D01*
X2897Y6096D02*
X2903Y6096D01*
X2950Y6096D02*
X2957Y6096D01*
X3006Y6096D02*
X3013Y6096D01*
X3031Y6096D02*
X3038Y6096D01*
X3061Y6096D02*
X3067Y6096D01*
X3085Y6096D02*
X3092Y6096D01*
X3115Y6096D02*
X3122Y6096D01*
X1857Y6095D02*
X1863Y6095D01*
X1911Y6095D02*
X1918Y6095D01*
X1936Y6095D02*
X1943Y6095D01*
X1966Y6095D02*
X1973Y6095D01*
X2021Y6095D02*
X2028Y6095D01*
X2100Y6095D02*
X2107Y6095D01*
X2115Y6095D02*
X2122Y6095D01*
X2166Y6095D02*
X2180Y6095D01*
X2210Y6095D02*
X2216Y6095D01*
X2225Y6095D02*
X2231Y6095D01*
X2273Y6095D02*
X2280Y6095D01*
X2286Y6095D02*
X2293Y6095D01*
X2544Y6095D02*
X2553Y6095D01*
X2560Y6095D02*
X2569Y6095D01*
X2601Y6095D02*
X2612Y6095D01*
X2623Y6095D02*
X2630Y6095D01*
X2678Y6095D02*
X2684Y6095D01*
X2717Y6095D02*
X2724Y6095D01*
X2763Y6095D02*
X2771Y6095D01*
X2780Y6095D02*
X2786Y6095D01*
X2867Y6095D02*
X2873Y6095D01*
X2896Y6095D02*
X2903Y6095D01*
X2949Y6095D02*
X2957Y6095D01*
X3006Y6095D02*
X3013Y6095D01*
X3031Y6095D02*
X3038Y6095D01*
X3061Y6095D02*
X3067Y6095D01*
X3085Y6095D02*
X3092Y6095D01*
X3115Y6095D02*
X3122Y6095D01*
X1857Y6094D02*
X1863Y6094D01*
X1911Y6094D02*
X1918Y6094D01*
X1936Y6094D02*
X1943Y6094D01*
X1966Y6094D02*
X1973Y6094D01*
X2021Y6094D02*
X2028Y6094D01*
X2100Y6094D02*
X2107Y6094D01*
X2115Y6094D02*
X2122Y6094D01*
X2167Y6094D02*
X2180Y6094D01*
X2210Y6094D02*
X2216Y6094D01*
X2225Y6094D02*
X2231Y6094D01*
X2273Y6094D02*
X2281Y6094D01*
X2285Y6094D02*
X2292Y6094D01*
X2544Y6094D02*
X2553Y6094D01*
X2560Y6094D02*
X2569Y6094D01*
X2600Y6094D02*
X2611Y6094D01*
X2623Y6094D02*
X2630Y6094D01*
X2678Y6094D02*
X2684Y6094D01*
X2717Y6094D02*
X2724Y6094D01*
X2764Y6094D02*
X2772Y6094D01*
X2780Y6094D02*
X2786Y6094D01*
X2867Y6094D02*
X2874Y6094D01*
X2896Y6094D02*
X2903Y6094D01*
X2947Y6094D02*
X2957Y6094D01*
X3006Y6094D02*
X3013Y6094D01*
X3031Y6094D02*
X3039Y6094D01*
X3061Y6094D02*
X3067Y6094D01*
X3085Y6094D02*
X3092Y6094D01*
X3115Y6094D02*
X3122Y6094D01*
X1857Y6093D02*
X1863Y6093D01*
X1911Y6093D02*
X1918Y6093D01*
X1936Y6093D02*
X1943Y6093D01*
X1966Y6093D02*
X1973Y6093D01*
X2021Y6093D02*
X2028Y6093D01*
X2100Y6093D02*
X2107Y6093D01*
X2115Y6093D02*
X2122Y6093D01*
X2167Y6093D02*
X2179Y6093D01*
X2210Y6093D02*
X2216Y6093D01*
X2225Y6093D02*
X2231Y6093D01*
X2274Y6093D02*
X2281Y6093D01*
X2285Y6093D02*
X2292Y6093D01*
X2543Y6093D02*
X2552Y6093D01*
X2561Y6093D02*
X2570Y6093D01*
X2599Y6093D02*
X2610Y6093D01*
X2623Y6093D02*
X2630Y6093D01*
X2678Y6093D02*
X2684Y6093D01*
X2717Y6093D02*
X2724Y6093D01*
X2764Y6093D02*
X2772Y6093D01*
X2780Y6093D02*
X2786Y6093D01*
X2867Y6093D02*
X2875Y6093D01*
X2895Y6093D02*
X2903Y6093D01*
X2946Y6093D02*
X2956Y6093D01*
X3006Y6093D02*
X3013Y6093D01*
X3031Y6093D02*
X3041Y6093D01*
X3061Y6093D02*
X3067Y6093D01*
X3085Y6093D02*
X3092Y6093D01*
X3115Y6093D02*
X3122Y6093D01*
X1857Y6092D02*
X1863Y6092D01*
X1911Y6092D02*
X1918Y6092D01*
X1936Y6092D02*
X1943Y6092D01*
X1966Y6092D02*
X1973Y6092D01*
X2021Y6092D02*
X2028Y6092D01*
X2100Y6092D02*
X2107Y6092D01*
X2115Y6092D02*
X2122Y6092D01*
X2169Y6092D02*
X2178Y6092D01*
X2210Y6092D02*
X2216Y6092D01*
X2225Y6092D02*
X2231Y6092D01*
X2274Y6092D02*
X2282Y6092D01*
X2284Y6092D02*
X2292Y6092D01*
X2542Y6092D02*
X2551Y6092D01*
X2562Y6092D02*
X2571Y6092D01*
X2598Y6092D02*
X2609Y6092D01*
X2623Y6092D02*
X2630Y6092D01*
X2678Y6092D02*
X2684Y6092D01*
X2717Y6092D02*
X2724Y6092D01*
X2765Y6092D02*
X2773Y6092D01*
X2780Y6092D02*
X2786Y6092D01*
X2867Y6092D02*
X2876Y6092D01*
X2894Y6092D02*
X2903Y6092D01*
X2945Y6092D02*
X2955Y6092D01*
X3006Y6092D02*
X3013Y6092D01*
X3031Y6092D02*
X3042Y6092D01*
X3060Y6092D02*
X3067Y6092D01*
X3085Y6092D02*
X3092Y6092D01*
X3115Y6092D02*
X3122Y6092D01*
X1857Y6091D02*
X1863Y6091D01*
X1911Y6091D02*
X1918Y6091D01*
X1936Y6091D02*
X1943Y6091D01*
X1966Y6091D02*
X1973Y6091D01*
X2021Y6091D02*
X2028Y6091D01*
X2100Y6091D02*
X2107Y6091D01*
X2115Y6091D02*
X2122Y6091D01*
X2210Y6091D02*
X2216Y6091D01*
X2225Y6091D02*
X2231Y6091D01*
X2275Y6091D02*
X2282Y6091D01*
X2284Y6091D02*
X2291Y6091D01*
X2541Y6091D02*
X2550Y6091D01*
X2563Y6091D02*
X2572Y6091D01*
X2597Y6091D02*
X2607Y6091D01*
X2623Y6091D02*
X2630Y6091D01*
X2678Y6091D02*
X2684Y6091D01*
X2717Y6091D02*
X2724Y6091D01*
X2765Y6091D02*
X2773Y6091D01*
X2780Y6091D02*
X2786Y6091D01*
X2868Y6091D02*
X2877Y6091D01*
X2893Y6091D02*
X2902Y6091D01*
X2944Y6091D02*
X2954Y6091D01*
X3006Y6091D02*
X3013Y6091D01*
X3031Y6091D02*
X3044Y6091D01*
X3060Y6091D02*
X3067Y6091D01*
X3085Y6091D02*
X3092Y6091D01*
X3115Y6091D02*
X3122Y6091D01*
X1856Y6090D02*
X1863Y6090D01*
X1911Y6090D02*
X1918Y6090D01*
X1936Y6090D02*
X1943Y6090D01*
X1966Y6090D02*
X1973Y6090D01*
X2021Y6090D02*
X2028Y6090D01*
X2100Y6090D02*
X2107Y6090D01*
X2115Y6090D02*
X2122Y6090D01*
X2210Y6090D02*
X2217Y6090D01*
X2225Y6090D02*
X2232Y6090D01*
X2275Y6090D02*
X2291Y6090D01*
X2540Y6090D02*
X2549Y6090D01*
X2564Y6090D02*
X2573Y6090D01*
X2595Y6090D02*
X2606Y6090D01*
X2623Y6090D02*
X2630Y6090D01*
X2678Y6090D02*
X2684Y6090D01*
X2717Y6090D02*
X2724Y6090D01*
X2766Y6090D02*
X2775Y6090D01*
X2779Y6090D02*
X2787Y6090D01*
X2868Y6090D02*
X2879Y6090D01*
X2891Y6090D02*
X2902Y6090D01*
X2942Y6090D02*
X2953Y6090D01*
X3006Y6090D02*
X3013Y6090D01*
X3031Y6090D02*
X3046Y6090D01*
X3058Y6090D02*
X3067Y6090D01*
X3085Y6090D02*
X3092Y6090D01*
X3115Y6090D02*
X3122Y6090D01*
X1828Y6089D02*
X1863Y6089D01*
X1883Y6089D02*
X1918Y6089D01*
X1936Y6089D02*
X1973Y6089D01*
X1992Y6089D02*
X2028Y6089D01*
X2100Y6089D02*
X2135Y6089D01*
X2210Y6089D02*
X2245Y6089D01*
X2276Y6089D02*
X2290Y6089D01*
X2539Y6089D02*
X2548Y6089D01*
X2565Y6089D02*
X2574Y6089D01*
X2594Y6089D02*
X2605Y6089D01*
X2623Y6089D02*
X2630Y6089D01*
X2678Y6089D02*
X2684Y6089D01*
X2708Y6089D02*
X2734Y6089D01*
X2766Y6089D02*
X2792Y6089D01*
X2869Y6089D02*
X2901Y6089D01*
X2923Y6089D02*
X2952Y6089D01*
X3006Y6089D02*
X3013Y6089D01*
X3031Y6089D02*
X3066Y6089D01*
X3085Y6089D02*
X3092Y6089D01*
X3115Y6089D02*
X3122Y6089D01*
X1827Y6088D02*
X1863Y6088D01*
X1882Y6088D02*
X1918Y6088D01*
X1936Y6088D02*
X1973Y6088D01*
X1991Y6088D02*
X2028Y6088D01*
X2100Y6088D02*
X2136Y6088D01*
X2210Y6088D02*
X2246Y6088D01*
X2276Y6088D02*
X2290Y6088D01*
X2539Y6088D02*
X2548Y6088D01*
X2565Y6088D02*
X2574Y6088D01*
X2593Y6088D02*
X2604Y6088D01*
X2623Y6088D02*
X2630Y6088D01*
X2678Y6088D02*
X2684Y6088D01*
X2707Y6088D02*
X2735Y6088D01*
X2767Y6088D02*
X2793Y6088D01*
X2870Y6088D02*
X2900Y6088D01*
X2922Y6088D02*
X2951Y6088D01*
X3006Y6088D02*
X3013Y6088D01*
X3031Y6088D02*
X3066Y6088D01*
X3085Y6088D02*
X3092Y6088D01*
X3115Y6088D02*
X3122Y6088D01*
X1827Y6087D02*
X1863Y6087D01*
X1882Y6087D02*
X1918Y6087D01*
X1937Y6087D02*
X1972Y6087D01*
X1991Y6087D02*
X2028Y6087D01*
X2100Y6087D02*
X2137Y6087D01*
X2210Y6087D02*
X2246Y6087D01*
X2276Y6087D02*
X2289Y6087D01*
X2538Y6087D02*
X2547Y6087D01*
X2566Y6087D02*
X2575Y6087D01*
X2593Y6087D02*
X2603Y6087D01*
X2623Y6087D02*
X2630Y6087D01*
X2678Y6087D02*
X2684Y6087D01*
X2706Y6087D02*
X2735Y6087D01*
X2768Y6087D02*
X2794Y6087D01*
X2871Y6087D02*
X2899Y6087D01*
X2921Y6087D02*
X2950Y6087D01*
X3006Y6087D02*
X3013Y6087D01*
X3031Y6087D02*
X3065Y6087D01*
X3085Y6087D02*
X3092Y6087D01*
X3115Y6087D02*
X3122Y6087D01*
X1827Y6086D02*
X1863Y6086D01*
X1881Y6086D02*
X1918Y6086D01*
X1937Y6086D02*
X1972Y6086D01*
X1991Y6086D02*
X2028Y6086D01*
X2100Y6086D02*
X2137Y6086D01*
X2210Y6086D02*
X2246Y6086D01*
X2277Y6086D02*
X2289Y6086D01*
X2538Y6086D02*
X2546Y6086D01*
X2567Y6086D02*
X2575Y6086D01*
X2593Y6086D02*
X2602Y6086D01*
X2623Y6086D02*
X2630Y6086D01*
X2678Y6086D02*
X2684Y6086D01*
X2706Y6086D02*
X2735Y6086D01*
X2768Y6086D02*
X2794Y6086D01*
X2872Y6086D02*
X2898Y6086D01*
X2921Y6086D02*
X2949Y6086D01*
X3006Y6086D02*
X3013Y6086D01*
X3031Y6086D02*
X3064Y6086D01*
X3085Y6086D02*
X3092Y6086D01*
X3116Y6086D02*
X3122Y6086D01*
X1827Y6085D02*
X1863Y6085D01*
X1882Y6085D02*
X1918Y6085D01*
X1938Y6085D02*
X1971Y6085D01*
X1991Y6085D02*
X2028Y6085D01*
X2100Y6085D02*
X2137Y6085D01*
X2210Y6085D02*
X2246Y6085D01*
X2277Y6085D02*
X2288Y6085D01*
X2538Y6085D02*
X2545Y6085D01*
X2568Y6085D02*
X2575Y6085D01*
X2593Y6085D02*
X2600Y6085D01*
X2623Y6085D02*
X2629Y6085D01*
X2678Y6085D02*
X2684Y6085D01*
X2706Y6085D02*
X2735Y6085D01*
X2769Y6085D02*
X2794Y6085D01*
X2873Y6085D02*
X2897Y6085D01*
X2921Y6085D02*
X2948Y6085D01*
X3006Y6085D02*
X3012Y6085D01*
X3031Y6085D02*
X3037Y6085D01*
X3040Y6085D02*
X3063Y6085D01*
X3086Y6085D02*
X3092Y6085D01*
X3116Y6085D02*
X3122Y6085D01*
X1827Y6084D02*
X1863Y6084D01*
X1882Y6084D02*
X1918Y6084D01*
X1939Y6084D02*
X1970Y6084D01*
X1992Y6084D02*
X2028Y6084D01*
X2101Y6084D02*
X2136Y6084D01*
X2210Y6084D02*
X2246Y6084D01*
X2278Y6084D02*
X2288Y6084D01*
X2539Y6084D02*
X2544Y6084D01*
X2569Y6084D02*
X2574Y6084D01*
X2594Y6084D02*
X2599Y6084D01*
X2624Y6084D02*
X2629Y6084D01*
X2678Y6084D02*
X2684Y6084D01*
X2707Y6084D02*
X2735Y6084D01*
X2771Y6084D02*
X2793Y6084D01*
X2875Y6084D02*
X2895Y6084D01*
X2922Y6084D02*
X2946Y6084D01*
X3007Y6084D02*
X3012Y6084D01*
X3031Y6084D02*
X3037Y6084D01*
X3042Y6084D02*
X3062Y6084D01*
X3086Y6084D02*
X3091Y6084D01*
X3116Y6084D02*
X3121Y6084D01*
X1828Y6083D02*
X1863Y6083D01*
X1883Y6083D02*
X1918Y6083D01*
X1940Y6083D02*
X1968Y6083D01*
X1992Y6083D02*
X2028Y6083D01*
X2102Y6083D02*
X2135Y6083D01*
X2211Y6083D02*
X2245Y6083D01*
X2279Y6083D02*
X2287Y6083D01*
X2540Y6083D02*
X2543Y6083D01*
X2570Y6083D02*
X2573Y6083D01*
X2594Y6083D02*
X2598Y6083D01*
X2625Y6083D02*
X2628Y6083D01*
X2679Y6083D02*
X2683Y6083D01*
X2708Y6083D02*
X2734Y6083D01*
X2773Y6083D02*
X2792Y6083D01*
X2876Y6083D02*
X2893Y6083D01*
X2923Y6083D02*
X2944Y6083D01*
X3008Y6083D02*
X3011Y6083D01*
X3032Y6083D02*
X3036Y6083D01*
X3043Y6083D02*
X3060Y6083D01*
X3087Y6083D02*
X3090Y6083D01*
X3117Y6083D02*
X3121Y6083D01*
D02*
G04 End of Copper0*
M02*