G04 MADE WITH FRITZING*
G04 WWW.FRITZING.ORG*
G04 DOUBLE SIDED*
G04 HOLES PLATED*
G04 CONTOUR ON CENTER OF CONTOUR VECTOR*
%ASAXBY*%
%FSLAX23Y23*%
%MOIN*%
%OFA0B0*%
%SFA1.0B1.0*%
%ADD10C,0.085000*%
%ADD11C,0.049370*%
%ADD12C,0.324961*%
%ADD13C,0.054444*%
%ADD14C,0.055000*%
%ADD15C,0.077559*%
%ADD16C,0.089370*%
%ADD17R,0.056000X0.056000*%
%LNMASK1*%
G90*
G70*
G54D10*
X597Y263D03*
X341Y263D03*
X597Y440D03*
X341Y440D03*
G54D11*
X3608Y3048D03*
G54D12*
X1955Y6769D03*
G54D11*
X2280Y6523D03*
X3067Y6523D03*
X2476Y6572D03*
X2378Y6474D03*
X2545Y5174D03*
X2152Y5174D03*
X2742Y5224D03*
X1561Y5224D03*
X1758Y5174D03*
X2349Y5224D03*
X1167Y5224D03*
X1364Y5174D03*
X1955Y5224D03*
X774Y5224D03*
X971Y5174D03*
X3461Y3757D03*
X1699Y3196D03*
G54D13*
X2575Y371D03*
X2775Y371D03*
X2575Y696D03*
X2775Y696D03*
X2034Y371D03*
X2234Y371D03*
X941Y273D03*
X1141Y273D03*
X941Y637D03*
X1141Y637D03*
G54D14*
X3904Y420D03*
X4004Y420D03*
X4104Y420D03*
X3904Y1798D03*
X4004Y1798D03*
X4104Y1798D03*
X1010Y4507D03*
X1010Y4407D03*
X1010Y4307D03*
X2791Y2120D03*
X2791Y2220D03*
X2791Y2320D03*
X3904Y814D03*
X4004Y814D03*
X4104Y814D03*
X3904Y2192D03*
X4004Y2192D03*
X4104Y2192D03*
X1404Y4507D03*
X1404Y4407D03*
X1404Y4307D03*
X2398Y2120D03*
X2398Y2220D03*
X2398Y2320D03*
X3904Y617D03*
X4004Y617D03*
X4104Y617D03*
X3904Y1995D03*
X4004Y1995D03*
X4104Y1995D03*
X1207Y4507D03*
X1207Y4407D03*
X1207Y4307D03*
X2595Y2120D03*
X2595Y2220D03*
X2595Y2320D03*
X3904Y1602D03*
X4004Y1602D03*
X4104Y1602D03*
X813Y4507D03*
X813Y4407D03*
X813Y4307D03*
X2988Y2120D03*
X2988Y2220D03*
X2988Y2320D03*
X3904Y1208D03*
X4004Y1208D03*
X4104Y1208D03*
X3904Y2586D03*
X4004Y2586D03*
X4104Y2586D03*
X1807Y4507D03*
X1807Y4407D03*
X1807Y4307D03*
X1994Y2120D03*
X1994Y2220D03*
X1994Y2320D03*
X2201Y4507D03*
X2201Y4407D03*
X2201Y4307D03*
X1601Y2120D03*
X1601Y2220D03*
X1601Y2320D03*
X3904Y1405D03*
X4004Y1405D03*
X4104Y1405D03*
X3904Y2783D03*
X4004Y2783D03*
X4104Y2783D03*
X2004Y4507D03*
X2004Y4407D03*
X2004Y4307D03*
X1797Y2120D03*
X1797Y2220D03*
X1797Y2320D03*
X3904Y1011D03*
X4004Y1011D03*
X4104Y1011D03*
X3904Y2389D03*
X4004Y2389D03*
X4104Y2389D03*
X1610Y4507D03*
X1610Y4407D03*
X1610Y4307D03*
X2191Y2120D03*
X2191Y2220D03*
X2191Y2320D03*
X2398Y4507D03*
X2398Y4407D03*
X2398Y4307D03*
X1404Y2120D03*
X1404Y2220D03*
X1404Y2320D03*
X2595Y4507D03*
X2595Y4407D03*
X2595Y4307D03*
X1207Y2120D03*
X1207Y2220D03*
X1207Y2320D03*
X2791Y4507D03*
X2791Y4407D03*
X2791Y4307D03*
X1010Y2120D03*
X1010Y2220D03*
X1010Y2320D03*
X2988Y4507D03*
X2988Y4407D03*
X2988Y4307D03*
X813Y2120D03*
X813Y2220D03*
X813Y2320D03*
X1335Y191D03*
X1335Y291D03*
X1335Y391D03*
X1335Y496D03*
X1335Y596D03*
X1335Y696D03*
X1207Y3902D03*
X1207Y4200D03*
X1305Y3491D03*
X1305Y3789D03*
X2693Y3117D03*
X2693Y2819D03*
X1610Y3902D03*
X1610Y4200D03*
X1699Y3491D03*
X1699Y3789D03*
X2289Y3117D03*
X2289Y2819D03*
X813Y3902D03*
X813Y4200D03*
X912Y3491D03*
X912Y3789D03*
X3087Y3117D03*
X3087Y2819D03*
X2004Y3902D03*
X2004Y4200D03*
X2093Y3491D03*
X2093Y3789D03*
X1896Y3117D03*
X1896Y2819D03*
X2398Y3902D03*
X2398Y4200D03*
X2496Y3491D03*
X2496Y3789D03*
X1502Y3117D03*
X1502Y2819D03*
X2791Y3902D03*
X2791Y4200D03*
X2890Y3491D03*
X2890Y3789D03*
X1108Y3117D03*
X1108Y2819D03*
X2595Y2724D03*
X2595Y2426D03*
X2988Y2724D03*
X2988Y2426D03*
X1797Y2724D03*
X1797Y2426D03*
X2191Y2724D03*
X2191Y2426D03*
X1404Y2724D03*
X1404Y2426D03*
X1010Y2724D03*
X1010Y2426D03*
X2939Y5000D03*
X2939Y4702D03*
X862Y1621D03*
X862Y1919D03*
X2152Y5000D03*
X2152Y4702D03*
X1650Y1621D03*
X1650Y1919D03*
X1758Y5000D03*
X1758Y4702D03*
X2043Y1621D03*
X2043Y1919D03*
X2545Y5000D03*
X2545Y4702D03*
X1256Y1621D03*
X1256Y1919D03*
X2595Y3902D03*
X2595Y4200D03*
X2693Y3491D03*
X2693Y3789D03*
X1305Y3117D03*
X1305Y2819D03*
X1807Y3902D03*
X1807Y4200D03*
X1896Y3491D03*
X1896Y3789D03*
X2093Y3117D03*
X2093Y2819D03*
X1404Y3902D03*
X1404Y4200D03*
X1502Y3491D03*
X1502Y3789D03*
X2496Y3117D03*
X2496Y2819D03*
X2201Y3902D03*
X2201Y4200D03*
X2289Y3491D03*
X2289Y3789D03*
X1699Y3117D03*
X1699Y2819D03*
X1010Y3902D03*
X1010Y4200D03*
X1108Y3491D03*
X1108Y3789D03*
X2890Y3117D03*
X2890Y2819D03*
X2988Y3902D03*
X2988Y4200D03*
X3087Y3491D03*
X3087Y3789D03*
X912Y3117D03*
X912Y2819D03*
X2791Y2724D03*
X2791Y2426D03*
X2398Y2724D03*
X2398Y2426D03*
X1994Y2724D03*
X1994Y2426D03*
X1601Y2724D03*
X1601Y2426D03*
X1207Y2724D03*
X1207Y2426D03*
X813Y2724D03*
X813Y2426D03*
X2742Y5000D03*
X2742Y4702D03*
X1059Y1621D03*
X1059Y1919D03*
X971Y5000D03*
X971Y4702D03*
X2831Y1621D03*
X2831Y1919D03*
X1364Y5000D03*
X1364Y4702D03*
X2437Y1621D03*
X2437Y1919D03*
X2349Y5000D03*
X2349Y4702D03*
X1453Y1621D03*
X1453Y1919D03*
X774Y5000D03*
X774Y4702D03*
X3028Y1621D03*
X3028Y1919D03*
X1561Y5000D03*
X1561Y4702D03*
X2240Y1621D03*
X2240Y1919D03*
X1955Y5000D03*
X1955Y4702D03*
X1847Y1621D03*
X1847Y1919D03*
X1167Y5000D03*
X1167Y4702D03*
X2634Y1621D03*
X2634Y1919D03*
X2250Y5787D03*
X2250Y5489D03*
X2772Y6011D03*
X2772Y6309D03*
X2250Y5394D03*
X2250Y5096D03*
X1463Y6798D03*
X1165Y6798D03*
X1059Y6848D03*
X761Y6848D03*
X1551Y1227D03*
X1551Y1525D03*
X1167Y5787D03*
X1167Y5489D03*
X1167Y5394D03*
X1167Y5096D03*
X1463Y7881D03*
X1165Y7881D03*
X1059Y7930D03*
X761Y7930D03*
X2634Y1227D03*
X2634Y1525D03*
X1758Y5787D03*
X1758Y5489D03*
X1758Y5394D03*
X1758Y5096D03*
X1463Y7290D03*
X1165Y7290D03*
X1059Y7340D03*
X761Y7340D03*
X2043Y1227D03*
X2043Y1525D03*
X971Y5787D03*
X971Y5489D03*
X971Y5394D03*
X971Y5096D03*
X1463Y8078D03*
X1165Y8078D03*
X1059Y8127D03*
X761Y8127D03*
X2831Y1227D03*
X2831Y1525D03*
X2545Y5787D03*
X2545Y5489D03*
X2378Y6011D03*
X2378Y6309D03*
X2545Y5394D03*
X2545Y5096D03*
X1463Y6503D03*
X1165Y6503D03*
X1059Y6552D03*
X761Y6552D03*
X1256Y1227D03*
X1256Y1525D03*
X1364Y5787D03*
X1364Y5489D03*
X1364Y5394D03*
X1364Y5096D03*
X1463Y7684D03*
X1165Y7684D03*
X1059Y7733D03*
X761Y7733D03*
X2437Y1227D03*
X2437Y1525D03*
X2349Y5787D03*
X2349Y5489D03*
X2673Y6011D03*
X2673Y6309D03*
X2349Y5394D03*
X2349Y5096D03*
X1463Y6700D03*
X1165Y6700D03*
X1059Y6749D03*
X761Y6749D03*
X1453Y1227D03*
X1453Y1525D03*
X2841Y5787D03*
X2841Y5489D03*
X2083Y6011D03*
X2083Y6309D03*
X2841Y5394D03*
X2841Y5096D03*
X1463Y6208D03*
X1165Y6208D03*
X1059Y6257D03*
X761Y6257D03*
X961Y1227D03*
X961Y1525D03*
X2152Y5787D03*
X2152Y5489D03*
X2870Y6011D03*
X2870Y6309D03*
X2152Y5394D03*
X2152Y5096D03*
X1463Y6897D03*
X1165Y6897D03*
X1059Y6946D03*
X761Y6946D03*
X1650Y1227D03*
X1650Y1525D03*
X2939Y5787D03*
X2939Y5489D03*
X1984Y6011D03*
X1984Y6309D03*
X2939Y5394D03*
X2939Y5096D03*
X1463Y6109D03*
X1165Y6109D03*
X1059Y6159D03*
X761Y6159D03*
X862Y1227D03*
X862Y1525D03*
X1660Y5787D03*
X1660Y5489D03*
X1660Y5394D03*
X1660Y5096D03*
X1463Y7389D03*
X1165Y7389D03*
X1059Y7438D03*
X761Y7438D03*
X2142Y1227D03*
X2142Y1525D03*
X1561Y5787D03*
X1561Y5489D03*
X1561Y5394D03*
X1561Y5096D03*
X1463Y7487D03*
X1165Y7487D03*
X1059Y7537D03*
X761Y7537D03*
X2240Y1227D03*
X2240Y1525D03*
X1955Y5787D03*
X1955Y5489D03*
X3067Y6011D03*
X3067Y6309D03*
X1955Y5394D03*
X1955Y5096D03*
X1463Y7094D03*
X1165Y7094D03*
X1059Y7143D03*
X761Y7143D03*
X1847Y1227D03*
X1847Y1525D03*
X2742Y5787D03*
X2742Y5489D03*
X2181Y6011D03*
X2181Y6309D03*
X2742Y5394D03*
X2742Y5096D03*
X1463Y6306D03*
X1165Y6306D03*
X1059Y6355D03*
X761Y6355D03*
X1059Y1227D03*
X1059Y1525D03*
X1069Y5787D03*
X1069Y5489D03*
X1069Y5394D03*
X1069Y5096D03*
X1463Y7979D03*
X1165Y7979D03*
X1059Y8029D03*
X761Y8029D03*
X2732Y1227D03*
X2732Y1525D03*
X1463Y5787D03*
X1463Y5489D03*
X1463Y5394D03*
X1463Y5096D03*
X1463Y7586D03*
X1165Y7586D03*
X1059Y7635D03*
X761Y7635D03*
X2339Y1227D03*
X2339Y1525D03*
X2053Y5787D03*
X2053Y5489D03*
X2969Y6011D03*
X2969Y6309D03*
X2053Y5394D03*
X2053Y5096D03*
X1463Y6995D03*
X1165Y6995D03*
X1059Y7044D03*
X761Y7044D03*
X1748Y1227D03*
X1748Y1525D03*
X3038Y5787D03*
X3038Y5489D03*
X1886Y6011D03*
X1886Y6309D03*
X3038Y5394D03*
X3038Y5096D03*
X1463Y6011D03*
X1165Y6011D03*
X1059Y6060D03*
X761Y6060D03*
X764Y1227D03*
X764Y1525D03*
X872Y5787D03*
X872Y5489D03*
X872Y5394D03*
X872Y5096D03*
X1463Y8176D03*
X1165Y8176D03*
X1059Y8226D03*
X761Y8226D03*
X2929Y1227D03*
X2929Y1525D03*
X1856Y5787D03*
X1856Y5489D03*
X1856Y5394D03*
X1856Y5096D03*
X1463Y7192D03*
X1165Y7192D03*
X1059Y7241D03*
X761Y7241D03*
X1945Y1227D03*
X1945Y1525D03*
X2644Y5787D03*
X2644Y5489D03*
X2280Y6011D03*
X2280Y6309D03*
X2644Y5394D03*
X2644Y5096D03*
X1463Y6405D03*
X1165Y6405D03*
X1059Y6454D03*
X761Y6454D03*
X1158Y1227D03*
X1158Y1525D03*
X2447Y5787D03*
X2447Y5489D03*
X2575Y6011D03*
X2575Y6309D03*
X2476Y6011D03*
X2476Y6309D03*
X2447Y5394D03*
X2447Y5096D03*
X1463Y6602D03*
X1165Y6602D03*
X1059Y6651D03*
X761Y6651D03*
X1354Y1227D03*
X1354Y1525D03*
X774Y5787D03*
X774Y5489D03*
X774Y5394D03*
X774Y5096D03*
X1463Y8373D03*
X1165Y8373D03*
X1463Y8275D03*
X1165Y8275D03*
X1059Y8324D03*
X761Y8324D03*
X3028Y1227D03*
X3028Y1525D03*
X1266Y5787D03*
X1266Y5489D03*
X1266Y5394D03*
X1266Y5096D03*
X1463Y7783D03*
X1165Y7783D03*
X1059Y7832D03*
X761Y7832D03*
X2536Y1227D03*
X2536Y1525D03*
X3028Y844D03*
X3028Y1142D03*
X2929Y844D03*
X2929Y1142D03*
X2732Y844D03*
X2732Y1142D03*
X2339Y844D03*
X2339Y1142D03*
X2634Y844D03*
X2634Y1142D03*
X2536Y844D03*
X2536Y1142D03*
X2831Y844D03*
X2831Y1142D03*
X2437Y844D03*
X2437Y1142D03*
X1650Y844D03*
X1650Y1142D03*
X1551Y844D03*
X1551Y1142D03*
X2043Y844D03*
X2043Y1142D03*
X1748Y844D03*
X1748Y1142D03*
X2142Y844D03*
X2142Y1142D03*
X2240Y844D03*
X2240Y1142D03*
X1847Y844D03*
X1847Y1142D03*
X1945Y844D03*
X1945Y1142D03*
X1158Y844D03*
X1158Y1142D03*
X1256Y844D03*
X1256Y1142D03*
X1453Y844D03*
X1453Y1142D03*
X1354Y844D03*
X1354Y1142D03*
X961Y844D03*
X961Y1142D03*
X1059Y844D03*
X1059Y1142D03*
X862Y844D03*
X862Y1142D03*
X764Y844D03*
X764Y1142D03*
X1492Y391D03*
X1790Y391D03*
X1492Y499D03*
X1790Y499D03*
X1788Y292D03*
X1490Y292D03*
X1788Y598D03*
X1490Y598D03*
G54D15*
X4199Y617D03*
X4199Y617D03*
X1610Y8078D03*
X1610Y8078D03*
X4199Y420D03*
X4199Y420D03*
X1610Y8275D03*
X1610Y8275D03*
X4199Y1011D03*
X4199Y1011D03*
X1610Y7684D03*
X1610Y7684D03*
X4199Y814D03*
X4199Y814D03*
X1610Y7881D03*
X1610Y7881D03*
X4199Y1405D03*
X4199Y1405D03*
X1610Y7290D03*
X1610Y7290D03*
X4199Y1208D03*
X4199Y1208D03*
X1610Y7487D03*
X1610Y7487D03*
X4199Y1798D03*
X4199Y1798D03*
X1610Y6700D03*
X1610Y6700D03*
X4199Y1602D03*
X4199Y1602D03*
X1610Y6897D03*
X1610Y6897D03*
X4199Y1995D03*
X4199Y1995D03*
X1610Y6503D03*
X1610Y6503D03*
X4199Y2192D03*
X4199Y2192D03*
X1610Y6208D03*
X1610Y6208D03*
G54D16*
X4228Y2389D03*
X4228Y2489D03*
X4228Y2589D03*
G54D15*
X2217Y6898D03*
X2317Y6898D03*
X2417Y6898D03*
X2517Y6898D03*
X2617Y6898D03*
X2717Y6898D03*
X2817Y6898D03*
X2217Y6898D03*
X2317Y6898D03*
X2417Y6898D03*
X2517Y6898D03*
X2617Y6898D03*
X2717Y6898D03*
X2817Y6898D03*
X351Y5565D03*
X351Y5665D03*
X351Y5765D03*
X351Y5865D03*
X351Y5965D03*
X351Y6065D03*
X351Y6165D03*
X351Y5565D03*
X351Y5665D03*
X351Y5765D03*
X351Y5865D03*
X351Y5965D03*
X351Y6065D03*
X351Y6165D03*
X124Y5568D03*
X124Y5668D03*
X124Y5768D03*
X124Y5868D03*
X124Y5968D03*
X124Y6068D03*
X124Y6168D03*
X124Y5568D03*
X124Y5668D03*
X124Y5768D03*
X124Y5868D03*
X124Y5968D03*
X124Y6068D03*
X124Y6168D03*
X124Y165D03*
X124Y265D03*
X124Y365D03*
X124Y465D03*
X124Y165D03*
X124Y265D03*
X124Y365D03*
X124Y465D03*
X124Y862D03*
X124Y962D03*
X124Y1062D03*
X124Y1162D03*
X124Y1262D03*
X124Y1362D03*
X124Y1462D03*
X124Y1562D03*
X124Y862D03*
X124Y962D03*
X124Y1062D03*
X124Y1162D03*
X124Y1262D03*
X124Y1362D03*
X124Y1462D03*
X124Y1562D03*
X124Y7930D03*
X124Y8030D03*
X124Y8130D03*
X124Y8230D03*
X124Y8330D03*
X124Y8430D03*
X124Y8530D03*
X124Y7930D03*
X124Y8030D03*
X124Y8130D03*
X124Y8230D03*
X124Y8330D03*
X124Y8430D03*
X124Y8530D03*
G54D11*
X1847Y1454D03*
X2240Y1454D03*
X1650Y1454D03*
X1059Y1454D03*
X1453Y1454D03*
X1256Y1454D03*
X862Y1454D03*
X2988Y2586D03*
X3412Y3708D03*
X2595Y3619D03*
X2289Y3619D03*
X2388Y3570D03*
X2289Y3413D03*
X2093Y3363D03*
X1896Y3245D03*
X3215Y3196D03*
X3608Y3491D03*
X3510Y3619D03*
X3559Y3570D03*
X3362Y3413D03*
X3313Y3363D03*
X3264Y3245D03*
X1305Y2989D03*
X2988Y2989D03*
X3658Y2989D03*
X3707Y2940D03*
X1108Y2940D03*
X2791Y2940D03*
X3087Y2940D03*
X2890Y2891D03*
X2595Y2891D03*
X2791Y2586D03*
X2634Y1405D03*
X2437Y1405D03*
X2831Y1405D03*
X2536Y1355D03*
X2339Y1355D03*
X2732Y1355D03*
X1354Y1355D03*
X961Y1355D03*
X764Y1355D03*
X1158Y1355D03*
X2634Y1060D03*
X2437Y1060D03*
X1847Y1060D03*
X1650Y1060D03*
X1059Y1060D03*
X862Y1060D03*
X1256Y1011D03*
X1453Y1011D03*
X2043Y1011D03*
X2240Y1011D03*
X2831Y1011D03*
X2732Y962D03*
X2339Y962D03*
X1945Y962D03*
X1551Y962D03*
X1158Y962D03*
X764Y962D03*
X695Y5716D03*
X1108Y1798D03*
X695Y1454D03*
X459Y6306D03*
X557Y6454D03*
X606Y6503D03*
X508Y6651D03*
X557Y6700D03*
X508Y6848D03*
X459Y6798D03*
X410Y6897D03*
X508Y7143D03*
X459Y7094D03*
X410Y7192D03*
X508Y7340D03*
X410Y7389D03*
X557Y7438D03*
X656Y7487D03*
X459Y7537D03*
X508Y7586D03*
X410Y7635D03*
X459Y7783D03*
X410Y7832D03*
X557Y7881D03*
X606Y7930D03*
X508Y8029D03*
X557Y8078D03*
X459Y8127D03*
X508Y8176D03*
X557Y8226D03*
X606Y8275D03*
X656Y8324D03*
X705Y8373D03*
X646Y5666D03*
X646Y1405D03*
X597Y5617D03*
X597Y1355D03*
X2969Y6572D03*
X2181Y6523D03*
X2083Y6474D03*
X2870Y6474D03*
X2772Y6424D03*
X1984Y6424D03*
X547Y5568D03*
X547Y1306D03*
X2545Y5617D03*
X2742Y5617D03*
X2939Y5617D03*
X2349Y5617D03*
X971Y5617D03*
X1167Y5617D03*
X1364Y5617D03*
X774Y5617D03*
X1955Y5568D03*
X2152Y5568D03*
X1561Y5568D03*
X1758Y5568D03*
X2250Y5273D03*
X2053Y5273D03*
X1463Y5273D03*
X1266Y5273D03*
X498Y5322D03*
X498Y1060D03*
X449Y5273D03*
X449Y1011D03*
X400Y5224D03*
X400Y962D03*
X2939Y5174D03*
X351Y5174D03*
X351Y913D03*
X2043Y1454D03*
G54D14*
X1433Y194D03*
X1833Y194D03*
X807Y391D03*
X1207Y391D03*
X807Y499D03*
X1207Y499D03*
X1266Y5000D03*
X1266Y4600D03*
X2536Y1621D03*
X2536Y2021D03*
X1069Y5000D03*
X1069Y4600D03*
X2732Y1621D03*
X2732Y2021D03*
X872Y5000D03*
X872Y4600D03*
X2929Y1621D03*
X2929Y2021D03*
X1463Y5000D03*
X1463Y4600D03*
X2339Y1621D03*
X2339Y2021D03*
X2053Y5000D03*
X2053Y4600D03*
X1748Y1621D03*
X1748Y2021D03*
X1856Y5000D03*
X1856Y4600D03*
X1945Y1621D03*
X1945Y2021D03*
X1660Y5000D03*
X1660Y4600D03*
X2142Y1621D03*
X2142Y2021D03*
X2250Y5000D03*
X2250Y4600D03*
X1551Y1621D03*
X1551Y2021D03*
X2644Y5000D03*
X2644Y4600D03*
X1158Y1621D03*
X1158Y2021D03*
X2319Y7399D03*
X2319Y6999D03*
X2417Y7399D03*
X2417Y6999D03*
X2219Y7399D03*
X2219Y6999D03*
X2811Y7399D03*
X2811Y6999D03*
X2713Y7399D03*
X2713Y6999D03*
X2614Y7399D03*
X2614Y6999D03*
X2516Y7399D03*
X2516Y6999D03*
X2447Y5000D03*
X2447Y4600D03*
X1354Y1621D03*
X1354Y2021D03*
X2841Y5000D03*
X2841Y4600D03*
X961Y1621D03*
X961Y2021D03*
X3038Y5000D03*
X3038Y4600D03*
X764Y1621D03*
X764Y2021D03*
X1935Y224D03*
X2335Y224D03*
X1935Y519D03*
X2335Y519D03*
X3412Y322D03*
X3812Y322D03*
X3412Y519D03*
X3812Y519D03*
X3412Y716D03*
X3812Y716D03*
X3412Y913D03*
X3812Y913D03*
X3412Y1109D03*
X3812Y1109D03*
X3412Y1306D03*
X3812Y1306D03*
X3412Y1503D03*
X3812Y1503D03*
X3412Y1700D03*
X3812Y1700D03*
X3412Y1897D03*
X3812Y1897D03*
X3412Y2094D03*
X3812Y2094D03*
X3412Y2290D03*
X3812Y2290D03*
X3412Y2487D03*
X3812Y2487D03*
X3412Y2684D03*
X3812Y2684D03*
X1935Y666D03*
X2335Y666D03*
X1433Y696D03*
X1833Y696D03*
G54D17*
X1207Y3902D03*
X1305Y3491D03*
X2693Y3117D03*
X1610Y3902D03*
X1699Y3491D03*
X2289Y3117D03*
X813Y3902D03*
X912Y3491D03*
X3087Y3117D03*
X2004Y3902D03*
X2093Y3491D03*
X1896Y3117D03*
X2398Y3902D03*
X2496Y3491D03*
X1502Y3117D03*
X2791Y3902D03*
X2890Y3491D03*
X1108Y3117D03*
X2595Y2724D03*
X2988Y2724D03*
X1797Y2724D03*
X2191Y2724D03*
X1404Y2724D03*
X1010Y2724D03*
X2939Y5000D03*
X862Y1621D03*
X2152Y5000D03*
X1650Y1621D03*
X1758Y5000D03*
X2043Y1621D03*
X2545Y5000D03*
X1256Y1621D03*
X2595Y3902D03*
X2693Y3491D03*
X1305Y3117D03*
X1807Y3902D03*
X1896Y3491D03*
X2093Y3117D03*
X1404Y3902D03*
X1502Y3491D03*
X2496Y3117D03*
X2201Y3902D03*
X2289Y3491D03*
X1699Y3117D03*
X1010Y3902D03*
X1108Y3491D03*
X2890Y3117D03*
X2988Y3902D03*
X3087Y3491D03*
X912Y3117D03*
X2791Y2724D03*
X2398Y2724D03*
X1994Y2724D03*
X1601Y2724D03*
X1207Y2724D03*
X813Y2724D03*
X2742Y5000D03*
X1059Y1621D03*
X971Y5000D03*
X2831Y1621D03*
X1364Y5000D03*
X2437Y1621D03*
X2349Y5000D03*
X1453Y1621D03*
X774Y5000D03*
X3028Y1621D03*
X1561Y5000D03*
X2240Y1621D03*
X1955Y5000D03*
X1847Y1621D03*
X1167Y5000D03*
X2634Y1621D03*
X2250Y5787D03*
X2772Y6011D03*
X2250Y5394D03*
X1463Y6798D03*
X1059Y6848D03*
X1551Y1227D03*
X1167Y5787D03*
X1167Y5394D03*
X1463Y7881D03*
X1059Y7930D03*
X2634Y1227D03*
X1758Y5787D03*
X1758Y5394D03*
X1463Y7290D03*
X1059Y7340D03*
X2043Y1227D03*
X971Y5787D03*
X971Y5394D03*
X1463Y8078D03*
X1059Y8127D03*
X2831Y1227D03*
X2545Y5787D03*
X2378Y6011D03*
X2545Y5394D03*
X1463Y6503D03*
X1059Y6552D03*
X1256Y1227D03*
X1364Y5787D03*
X1364Y5394D03*
X1463Y7684D03*
X1059Y7733D03*
X2437Y1227D03*
X2349Y5787D03*
X2673Y6011D03*
X2349Y5394D03*
X1463Y6700D03*
X1059Y6749D03*
X1453Y1227D03*
X2841Y5787D03*
X2083Y6011D03*
X2841Y5394D03*
X1463Y6208D03*
X1059Y6257D03*
X961Y1227D03*
X2152Y5787D03*
X2870Y6011D03*
X2152Y5394D03*
X1463Y6897D03*
X1059Y6946D03*
X1650Y1227D03*
X2939Y5787D03*
X1984Y6011D03*
X2939Y5394D03*
X1463Y6109D03*
X1059Y6159D03*
X862Y1227D03*
X1660Y5787D03*
X1660Y5394D03*
X1463Y7389D03*
X1059Y7438D03*
X2142Y1227D03*
X1561Y5787D03*
X1561Y5394D03*
X1463Y7487D03*
X1059Y7537D03*
X2240Y1227D03*
X1955Y5787D03*
X3067Y6011D03*
X1955Y5394D03*
X1463Y7094D03*
X1059Y7143D03*
X1847Y1227D03*
X2742Y5787D03*
X2181Y6011D03*
X2742Y5394D03*
X1463Y6306D03*
X1059Y6355D03*
X1059Y1227D03*
X1069Y5787D03*
X1069Y5394D03*
X1463Y7979D03*
X1059Y8029D03*
X2732Y1227D03*
X1463Y5787D03*
X1463Y5394D03*
X1463Y7586D03*
X1059Y7635D03*
X2339Y1227D03*
X2053Y5787D03*
X2969Y6011D03*
X2053Y5394D03*
X1463Y6995D03*
X1059Y7044D03*
X1748Y1227D03*
X3038Y5787D03*
X1886Y6011D03*
X3038Y5394D03*
X1463Y6011D03*
X1059Y6060D03*
X764Y1227D03*
X872Y5787D03*
X872Y5394D03*
X1463Y8176D03*
X1059Y8226D03*
X2929Y1227D03*
X1856Y5787D03*
X1856Y5394D03*
X1463Y7192D03*
X1059Y7241D03*
X1945Y1227D03*
X2644Y5787D03*
X2280Y6011D03*
X2644Y5394D03*
X1463Y6405D03*
X1059Y6454D03*
X1158Y1227D03*
X2447Y5787D03*
X2575Y6011D03*
X2476Y6011D03*
X2447Y5394D03*
X1463Y6602D03*
X1059Y6651D03*
X1354Y1227D03*
X774Y5787D03*
X774Y5394D03*
X1463Y8373D03*
X1463Y8275D03*
X1059Y8324D03*
X3028Y1227D03*
X1266Y5787D03*
X1266Y5394D03*
X1463Y7783D03*
X1059Y7832D03*
X2536Y1227D03*
X3028Y844D03*
X2929Y844D03*
X2732Y844D03*
X2339Y844D03*
X2634Y844D03*
X2536Y844D03*
X2831Y844D03*
X2437Y844D03*
X1650Y844D03*
X1551Y844D03*
X2043Y844D03*
X1748Y844D03*
X2142Y844D03*
X2240Y844D03*
X1847Y844D03*
X1945Y844D03*
X1158Y844D03*
X1256Y844D03*
X1453Y844D03*
X1354Y844D03*
X961Y844D03*
X1059Y844D03*
X862Y844D03*
X764Y844D03*
X1492Y391D03*
X1492Y499D03*
X1788Y292D03*
X1788Y598D03*
G04 End of Mask1*
M02*