G04 MADE WITH FRITZING*
G04 WWW.FRITZING.ORG*
G04 DOUBLE SIDED*
G04 HOLES PLATED*
G04 CONTOUR ON CENTER OF CONTOUR VECTOR*
%ASAXBY*%
%FSLAX23Y23*%
%MOIN*%
%OFA0B0*%
%SFA1.0B1.0*%
%ADD10C,0.075000*%
%ADD11C,0.039370*%
%ADD12C,0.314961*%
%ADD13C,0.044444*%
%ADD14C,0.045000*%
%ADD15C,0.067559*%
%ADD16C,0.079370*%
%ADD17R,0.046000X0.046000*%
%ADD18C,0.012000*%
%ADD19C,0.008000*%
%ADD20C,0.024000*%
%ADD21C,0.016000*%
%ADD22R,0.001000X0.001000*%
%LNCOPPER1*%
G90*
G70*
G54D10*
X597Y263D03*
X341Y263D03*
X597Y440D03*
X341Y440D03*
G54D11*
X3608Y3048D03*
G54D12*
X1955Y6769D03*
G54D11*
X2280Y6523D03*
X3067Y6523D03*
X2476Y6572D03*
X2378Y6474D03*
X2545Y5174D03*
X2152Y5174D03*
X2742Y5224D03*
X1561Y5224D03*
X1758Y5174D03*
X2349Y5224D03*
X1167Y5224D03*
X1364Y5174D03*
X1955Y5224D03*
X774Y5224D03*
X971Y5174D03*
X3461Y3757D03*
X1699Y3196D03*
G54D13*
X2575Y371D03*
X2775Y371D03*
X2575Y696D03*
X2775Y696D03*
X2034Y371D03*
X2234Y371D03*
X941Y273D03*
X1141Y273D03*
X941Y637D03*
X1141Y637D03*
G54D14*
X3904Y420D03*
X4004Y420D03*
X4104Y420D03*
X3904Y1798D03*
X4004Y1798D03*
X4104Y1798D03*
X1010Y4507D03*
X1010Y4407D03*
X1010Y4307D03*
X2791Y2120D03*
X2791Y2220D03*
X2791Y2320D03*
X3904Y814D03*
X4004Y814D03*
X4104Y814D03*
X3904Y2192D03*
X4004Y2192D03*
X4104Y2192D03*
X1404Y4507D03*
X1404Y4407D03*
X1404Y4307D03*
X2398Y2120D03*
X2398Y2220D03*
X2398Y2320D03*
X3904Y617D03*
X4004Y617D03*
X4104Y617D03*
X3904Y1995D03*
X4004Y1995D03*
X4104Y1995D03*
X1207Y4507D03*
X1207Y4407D03*
X1207Y4307D03*
X2595Y2120D03*
X2595Y2220D03*
X2595Y2320D03*
X3904Y1602D03*
X4004Y1602D03*
X4104Y1602D03*
X813Y4507D03*
X813Y4407D03*
X813Y4307D03*
X2988Y2120D03*
X2988Y2220D03*
X2988Y2320D03*
X3904Y1208D03*
X4004Y1208D03*
X4104Y1208D03*
X3904Y2586D03*
X4004Y2586D03*
X4104Y2586D03*
X1807Y4507D03*
X1807Y4407D03*
X1807Y4307D03*
X1994Y2120D03*
X1994Y2220D03*
X1994Y2320D03*
X2201Y4507D03*
X2201Y4407D03*
X2201Y4307D03*
X1601Y2120D03*
X1601Y2220D03*
X1601Y2320D03*
X3904Y1405D03*
X4004Y1405D03*
X4104Y1405D03*
X3904Y2783D03*
X4004Y2783D03*
X4104Y2783D03*
X2004Y4507D03*
X2004Y4407D03*
X2004Y4307D03*
X1797Y2120D03*
X1797Y2220D03*
X1797Y2320D03*
X3904Y1011D03*
X4004Y1011D03*
X4104Y1011D03*
X3904Y2389D03*
X4004Y2389D03*
X4104Y2389D03*
X1610Y4507D03*
X1610Y4407D03*
X1610Y4307D03*
X2191Y2120D03*
X2191Y2220D03*
X2191Y2320D03*
X2398Y4507D03*
X2398Y4407D03*
X2398Y4307D03*
X1404Y2120D03*
X1404Y2220D03*
X1404Y2320D03*
X2595Y4507D03*
X2595Y4407D03*
X2595Y4307D03*
X1207Y2120D03*
X1207Y2220D03*
X1207Y2320D03*
X2791Y4507D03*
X2791Y4407D03*
X2791Y4307D03*
X1010Y2120D03*
X1010Y2220D03*
X1010Y2320D03*
X2988Y4507D03*
X2988Y4407D03*
X2988Y4307D03*
X813Y2120D03*
X813Y2220D03*
X813Y2320D03*
X1335Y191D03*
X1335Y291D03*
X1335Y391D03*
X1335Y496D03*
X1335Y596D03*
X1335Y696D03*
X1207Y3902D03*
X1207Y4200D03*
X1305Y3491D03*
X1305Y3789D03*
X2693Y3117D03*
X2693Y2819D03*
X1610Y3902D03*
X1610Y4200D03*
X1699Y3491D03*
X1699Y3789D03*
X2289Y3117D03*
X2289Y2819D03*
X813Y3902D03*
X813Y4200D03*
X912Y3491D03*
X912Y3789D03*
X3087Y3117D03*
X3087Y2819D03*
X2004Y3902D03*
X2004Y4200D03*
X2093Y3491D03*
X2093Y3789D03*
X1896Y3117D03*
X1896Y2819D03*
X2398Y3902D03*
X2398Y4200D03*
X2496Y3491D03*
X2496Y3789D03*
X1502Y3117D03*
X1502Y2819D03*
X2791Y3902D03*
X2791Y4200D03*
X2890Y3491D03*
X2890Y3789D03*
X1108Y3117D03*
X1108Y2819D03*
X2595Y2724D03*
X2595Y2426D03*
X2988Y2724D03*
X2988Y2426D03*
X1797Y2724D03*
X1797Y2426D03*
X2191Y2724D03*
X2191Y2426D03*
X1404Y2724D03*
X1404Y2426D03*
X1010Y2724D03*
X1010Y2426D03*
X2939Y5000D03*
X2939Y4702D03*
X862Y1621D03*
X862Y1919D03*
X2152Y5000D03*
X2152Y4702D03*
X1650Y1621D03*
X1650Y1919D03*
X1758Y5000D03*
X1758Y4702D03*
X2043Y1621D03*
X2043Y1919D03*
X2545Y5000D03*
X2545Y4702D03*
X1256Y1621D03*
X1256Y1919D03*
X2595Y3902D03*
X2595Y4200D03*
X2693Y3491D03*
X2693Y3789D03*
X1305Y3117D03*
X1305Y2819D03*
X1807Y3902D03*
X1807Y4200D03*
X1896Y3491D03*
X1896Y3789D03*
X2093Y3117D03*
X2093Y2819D03*
X1404Y3902D03*
X1404Y4200D03*
X1502Y3491D03*
X1502Y3789D03*
X2496Y3117D03*
X2496Y2819D03*
X2201Y3902D03*
X2201Y4200D03*
X2289Y3491D03*
X2289Y3789D03*
X1699Y3117D03*
X1699Y2819D03*
X1010Y3902D03*
X1010Y4200D03*
X1108Y3491D03*
X1108Y3789D03*
X2890Y3117D03*
X2890Y2819D03*
X2988Y3902D03*
X2988Y4200D03*
X3087Y3491D03*
X3087Y3789D03*
X912Y3117D03*
X912Y2819D03*
X2791Y2724D03*
X2791Y2426D03*
X2398Y2724D03*
X2398Y2426D03*
X1994Y2724D03*
X1994Y2426D03*
X1601Y2724D03*
X1601Y2426D03*
X1207Y2724D03*
X1207Y2426D03*
X813Y2724D03*
X813Y2426D03*
X2742Y5000D03*
X2742Y4702D03*
X1059Y1621D03*
X1059Y1919D03*
X971Y5000D03*
X971Y4702D03*
X2831Y1621D03*
X2831Y1919D03*
X1364Y5000D03*
X1364Y4702D03*
X2437Y1621D03*
X2437Y1919D03*
X2349Y5000D03*
X2349Y4702D03*
X1453Y1621D03*
X1453Y1919D03*
X774Y5000D03*
X774Y4702D03*
X3028Y1621D03*
X3028Y1919D03*
X1561Y5000D03*
X1561Y4702D03*
X2240Y1621D03*
X2240Y1919D03*
X1955Y5000D03*
X1955Y4702D03*
X1847Y1621D03*
X1847Y1919D03*
X1167Y5000D03*
X1167Y4702D03*
X2634Y1621D03*
X2634Y1919D03*
X2250Y5787D03*
X2250Y5489D03*
X2772Y6011D03*
X2772Y6309D03*
X2250Y5394D03*
X2250Y5096D03*
X1463Y6798D03*
X1165Y6798D03*
X1059Y6848D03*
X761Y6848D03*
X1551Y1227D03*
X1551Y1525D03*
X1167Y5787D03*
X1167Y5489D03*
X1167Y5394D03*
X1167Y5096D03*
X1463Y7881D03*
X1165Y7881D03*
X1059Y7930D03*
X761Y7930D03*
X2634Y1227D03*
X2634Y1525D03*
X1758Y5787D03*
X1758Y5489D03*
X1758Y5394D03*
X1758Y5096D03*
X1463Y7290D03*
X1165Y7290D03*
X1059Y7340D03*
X761Y7340D03*
X2043Y1227D03*
X2043Y1525D03*
X971Y5787D03*
X971Y5489D03*
X971Y5394D03*
X971Y5096D03*
X1463Y8078D03*
X1165Y8078D03*
X1059Y8127D03*
X761Y8127D03*
X2831Y1227D03*
X2831Y1525D03*
X2545Y5787D03*
X2545Y5489D03*
X2378Y6011D03*
X2378Y6309D03*
X2545Y5394D03*
X2545Y5096D03*
X1463Y6503D03*
X1165Y6503D03*
X1059Y6552D03*
X761Y6552D03*
X1256Y1227D03*
X1256Y1525D03*
X1364Y5787D03*
X1364Y5489D03*
X1364Y5394D03*
X1364Y5096D03*
X1463Y7684D03*
X1165Y7684D03*
X1059Y7733D03*
X761Y7733D03*
X2437Y1227D03*
X2437Y1525D03*
X2349Y5787D03*
X2349Y5489D03*
X2673Y6011D03*
X2673Y6309D03*
X2349Y5394D03*
X2349Y5096D03*
X1463Y6700D03*
X1165Y6700D03*
X1059Y6749D03*
X761Y6749D03*
X1453Y1227D03*
X1453Y1525D03*
X2841Y5787D03*
X2841Y5489D03*
X2083Y6011D03*
X2083Y6309D03*
X2841Y5394D03*
X2841Y5096D03*
X1463Y6208D03*
X1165Y6208D03*
X1059Y6257D03*
X761Y6257D03*
X961Y1227D03*
X961Y1525D03*
X2152Y5787D03*
X2152Y5489D03*
X2870Y6011D03*
X2870Y6309D03*
X2152Y5394D03*
X2152Y5096D03*
X1463Y6897D03*
X1165Y6897D03*
X1059Y6946D03*
X761Y6946D03*
X1650Y1227D03*
X1650Y1525D03*
X2939Y5787D03*
X2939Y5489D03*
X1984Y6011D03*
X1984Y6309D03*
X2939Y5394D03*
X2939Y5096D03*
X1463Y6109D03*
X1165Y6109D03*
X1059Y6159D03*
X761Y6159D03*
X862Y1227D03*
X862Y1525D03*
X1660Y5787D03*
X1660Y5489D03*
X1660Y5394D03*
X1660Y5096D03*
X1463Y7389D03*
X1165Y7389D03*
X1059Y7438D03*
X761Y7438D03*
X2142Y1227D03*
X2142Y1525D03*
X1561Y5787D03*
X1561Y5489D03*
X1561Y5394D03*
X1561Y5096D03*
X1463Y7487D03*
X1165Y7487D03*
X1059Y7537D03*
X761Y7537D03*
X2240Y1227D03*
X2240Y1525D03*
X1955Y5787D03*
X1955Y5489D03*
X3067Y6011D03*
X3067Y6309D03*
X1955Y5394D03*
X1955Y5096D03*
X1463Y7094D03*
X1165Y7094D03*
X1059Y7143D03*
X761Y7143D03*
X1847Y1227D03*
X1847Y1525D03*
X2742Y5787D03*
X2742Y5489D03*
X2181Y6011D03*
X2181Y6309D03*
X2742Y5394D03*
X2742Y5096D03*
X1463Y6306D03*
X1165Y6306D03*
X1059Y6355D03*
X761Y6355D03*
X1059Y1227D03*
X1059Y1525D03*
X1069Y5787D03*
X1069Y5489D03*
X1069Y5394D03*
X1069Y5096D03*
X1463Y7979D03*
X1165Y7979D03*
X1059Y8029D03*
X761Y8029D03*
X2732Y1227D03*
X2732Y1525D03*
X1463Y5787D03*
X1463Y5489D03*
X1463Y5394D03*
X1463Y5096D03*
X1463Y7586D03*
X1165Y7586D03*
X1059Y7635D03*
X761Y7635D03*
X2339Y1227D03*
X2339Y1525D03*
X2053Y5787D03*
X2053Y5489D03*
X2969Y6011D03*
X2969Y6309D03*
X2053Y5394D03*
X2053Y5096D03*
X1463Y6995D03*
X1165Y6995D03*
X1059Y7044D03*
X761Y7044D03*
X1748Y1227D03*
X1748Y1525D03*
X3038Y5787D03*
X3038Y5489D03*
X1886Y6011D03*
X1886Y6309D03*
X3038Y5394D03*
X3038Y5096D03*
X1463Y6011D03*
X1165Y6011D03*
X1059Y6060D03*
X761Y6060D03*
X764Y1227D03*
X764Y1525D03*
X872Y5787D03*
X872Y5489D03*
X872Y5394D03*
X872Y5096D03*
X1463Y8176D03*
X1165Y8176D03*
X1059Y8226D03*
X761Y8226D03*
X2929Y1227D03*
X2929Y1525D03*
X1856Y5787D03*
X1856Y5489D03*
X1856Y5394D03*
X1856Y5096D03*
X1463Y7192D03*
X1165Y7192D03*
X1059Y7241D03*
X761Y7241D03*
X1945Y1227D03*
X1945Y1525D03*
X2644Y5787D03*
X2644Y5489D03*
X2280Y6011D03*
X2280Y6309D03*
X2644Y5394D03*
X2644Y5096D03*
X1463Y6405D03*
X1165Y6405D03*
X1059Y6454D03*
X761Y6454D03*
X1158Y1227D03*
X1158Y1525D03*
X2447Y5787D03*
X2447Y5489D03*
X2575Y6011D03*
X2575Y6309D03*
X2476Y6011D03*
X2476Y6309D03*
X2447Y5394D03*
X2447Y5096D03*
X1463Y6602D03*
X1165Y6602D03*
X1059Y6651D03*
X761Y6651D03*
X1354Y1227D03*
X1354Y1525D03*
X774Y5787D03*
X774Y5489D03*
X774Y5394D03*
X774Y5096D03*
X1463Y8373D03*
X1165Y8373D03*
X1463Y8275D03*
X1165Y8275D03*
X1059Y8324D03*
X761Y8324D03*
X3028Y1227D03*
X3028Y1525D03*
X1266Y5787D03*
X1266Y5489D03*
X1266Y5394D03*
X1266Y5096D03*
X1463Y7783D03*
X1165Y7783D03*
X1059Y7832D03*
X761Y7832D03*
X2536Y1227D03*
X2536Y1525D03*
X3028Y844D03*
X3028Y1142D03*
X2929Y844D03*
X2929Y1142D03*
X2732Y844D03*
X2732Y1142D03*
X2339Y844D03*
X2339Y1142D03*
X2634Y844D03*
X2634Y1142D03*
X2536Y844D03*
X2536Y1142D03*
X2831Y844D03*
X2831Y1142D03*
X2437Y844D03*
X2437Y1142D03*
X1650Y844D03*
X1650Y1142D03*
X1551Y844D03*
X1551Y1142D03*
X2043Y844D03*
X2043Y1142D03*
X1748Y844D03*
X1748Y1142D03*
X2142Y844D03*
X2142Y1142D03*
X2240Y844D03*
X2240Y1142D03*
X1847Y844D03*
X1847Y1142D03*
X1945Y844D03*
X1945Y1142D03*
X1158Y844D03*
X1158Y1142D03*
X1256Y844D03*
X1256Y1142D03*
X1453Y844D03*
X1453Y1142D03*
X1354Y844D03*
X1354Y1142D03*
X961Y844D03*
X961Y1142D03*
X1059Y844D03*
X1059Y1142D03*
X862Y844D03*
X862Y1142D03*
X764Y844D03*
X764Y1142D03*
X1492Y391D03*
X1790Y391D03*
X1492Y499D03*
X1790Y499D03*
X1788Y292D03*
X1490Y292D03*
X1788Y598D03*
X1490Y598D03*
G54D15*
X4199Y617D03*
X4199Y617D03*
X1610Y8078D03*
X1610Y8078D03*
X4199Y420D03*
X4199Y420D03*
X1610Y8275D03*
X1610Y8275D03*
X4199Y1011D03*
X4199Y1011D03*
X1610Y7684D03*
X1610Y7684D03*
X4199Y814D03*
X4199Y814D03*
X1610Y7881D03*
X1610Y7881D03*
X4199Y1405D03*
X4199Y1405D03*
X1610Y7290D03*
X1610Y7290D03*
X4199Y1208D03*
X4199Y1208D03*
X1610Y7487D03*
X1610Y7487D03*
X4199Y1798D03*
X4199Y1798D03*
X1610Y6700D03*
X1610Y6700D03*
X4199Y1602D03*
X4199Y1602D03*
X1610Y6897D03*
X1610Y6897D03*
X4199Y1995D03*
X4199Y1995D03*
X1610Y6503D03*
X1610Y6503D03*
X4199Y2192D03*
X4199Y2192D03*
X1610Y6208D03*
X1610Y6208D03*
G54D16*
X4228Y2389D03*
X4228Y2489D03*
X4228Y2589D03*
G54D15*
X2217Y6898D03*
X2317Y6898D03*
X2417Y6898D03*
X2517Y6898D03*
X2617Y6898D03*
X2717Y6898D03*
X2817Y6898D03*
X2217Y6898D03*
X2317Y6898D03*
X2417Y6898D03*
X2517Y6898D03*
X2617Y6898D03*
X2717Y6898D03*
X2817Y6898D03*
X351Y5565D03*
X351Y5665D03*
X351Y5765D03*
X351Y5865D03*
X351Y5965D03*
X351Y6065D03*
X351Y6165D03*
X351Y5565D03*
X351Y5665D03*
X351Y5765D03*
X351Y5865D03*
X351Y5965D03*
X351Y6065D03*
X351Y6165D03*
X124Y5568D03*
X124Y5668D03*
X124Y5768D03*
X124Y5868D03*
X124Y5968D03*
X124Y6068D03*
X124Y6168D03*
X124Y5568D03*
X124Y5668D03*
X124Y5768D03*
X124Y5868D03*
X124Y5968D03*
X124Y6068D03*
X124Y6168D03*
X124Y165D03*
X124Y265D03*
X124Y365D03*
X124Y465D03*
X124Y165D03*
X124Y265D03*
X124Y365D03*
X124Y465D03*
X124Y862D03*
X124Y962D03*
X124Y1062D03*
X124Y1162D03*
X124Y1262D03*
X124Y1362D03*
X124Y1462D03*
X124Y1562D03*
X124Y862D03*
X124Y962D03*
X124Y1062D03*
X124Y1162D03*
X124Y1262D03*
X124Y1362D03*
X124Y1462D03*
X124Y1562D03*
X124Y7930D03*
X124Y8030D03*
X124Y8130D03*
X124Y8230D03*
X124Y8330D03*
X124Y8430D03*
X124Y8530D03*
X124Y7930D03*
X124Y8030D03*
X124Y8130D03*
X124Y8230D03*
X124Y8330D03*
X124Y8430D03*
X124Y8530D03*
G54D11*
X1847Y1454D03*
X2240Y1454D03*
X1650Y1454D03*
X1059Y1454D03*
X1453Y1454D03*
X1256Y1454D03*
X862Y1454D03*
X2988Y2586D03*
X3412Y3708D03*
X2595Y3619D03*
X2289Y3619D03*
X2388Y3570D03*
X2289Y3413D03*
X2093Y3363D03*
X1896Y3245D03*
X3215Y3196D03*
X3608Y3491D03*
X3510Y3619D03*
X3559Y3570D03*
X3362Y3413D03*
X3313Y3363D03*
X3264Y3245D03*
X1305Y2989D03*
X2988Y2989D03*
X3658Y2989D03*
X3707Y2940D03*
X1108Y2940D03*
X2791Y2940D03*
X3087Y2940D03*
X2890Y2891D03*
X2595Y2891D03*
X2791Y2586D03*
X2634Y1405D03*
X2437Y1405D03*
X2831Y1405D03*
X2536Y1355D03*
X2339Y1355D03*
X2732Y1355D03*
X1354Y1355D03*
X961Y1355D03*
X764Y1355D03*
X1158Y1355D03*
X2634Y1060D03*
X2437Y1060D03*
X1847Y1060D03*
X1650Y1060D03*
X1059Y1060D03*
X862Y1060D03*
X1256Y1011D03*
X1453Y1011D03*
X2043Y1011D03*
X2240Y1011D03*
X2831Y1011D03*
X2732Y962D03*
X2339Y962D03*
X1945Y962D03*
X1551Y962D03*
X1158Y962D03*
X764Y962D03*
X695Y5716D03*
X1108Y1798D03*
X695Y1454D03*
X459Y6306D03*
X557Y6454D03*
X606Y6503D03*
X508Y6651D03*
X557Y6700D03*
X508Y6848D03*
X459Y6798D03*
X410Y6897D03*
X508Y7143D03*
X459Y7094D03*
X410Y7192D03*
X508Y7340D03*
X410Y7389D03*
X557Y7438D03*
X656Y7487D03*
X459Y7537D03*
X508Y7586D03*
X410Y7635D03*
X459Y7783D03*
X410Y7832D03*
X557Y7881D03*
X606Y7930D03*
X508Y8029D03*
X557Y8078D03*
X459Y8127D03*
X508Y8176D03*
X557Y8226D03*
X606Y8275D03*
X656Y8324D03*
X705Y8373D03*
X646Y5666D03*
X646Y1405D03*
X597Y5617D03*
X597Y1355D03*
X2969Y6572D03*
X2181Y6523D03*
X2083Y6474D03*
X2870Y6474D03*
X2772Y6424D03*
X1984Y6424D03*
X547Y5568D03*
X547Y1306D03*
X2545Y5617D03*
X2742Y5617D03*
X2939Y5617D03*
X2349Y5617D03*
X971Y5617D03*
X1167Y5617D03*
X1364Y5617D03*
X774Y5617D03*
X1955Y5568D03*
X2152Y5568D03*
X1561Y5568D03*
X1758Y5568D03*
X2250Y5273D03*
X2053Y5273D03*
X1463Y5273D03*
X1266Y5273D03*
X498Y5322D03*
X498Y1060D03*
X449Y5273D03*
X449Y1011D03*
X400Y5224D03*
X400Y962D03*
X2939Y5174D03*
X351Y5174D03*
X351Y913D03*
X2043Y1454D03*
G54D14*
X1433Y194D03*
X1833Y194D03*
X807Y391D03*
X1207Y391D03*
X807Y499D03*
X1207Y499D03*
X1266Y5000D03*
X1266Y4600D03*
X2536Y1621D03*
X2536Y2021D03*
X1069Y5000D03*
X1069Y4600D03*
X2732Y1621D03*
X2732Y2021D03*
X872Y5000D03*
X872Y4600D03*
X2929Y1621D03*
X2929Y2021D03*
X1463Y5000D03*
X1463Y4600D03*
X2339Y1621D03*
X2339Y2021D03*
X2053Y5000D03*
X2053Y4600D03*
X1748Y1621D03*
X1748Y2021D03*
X1856Y5000D03*
X1856Y4600D03*
X1945Y1621D03*
X1945Y2021D03*
X1660Y5000D03*
X1660Y4600D03*
X2142Y1621D03*
X2142Y2021D03*
X2250Y5000D03*
X2250Y4600D03*
X1551Y1621D03*
X1551Y2021D03*
X2644Y5000D03*
X2644Y4600D03*
X1158Y1621D03*
X1158Y2021D03*
X2319Y7399D03*
X2319Y6999D03*
X2417Y7399D03*
X2417Y6999D03*
X2219Y7399D03*
X2219Y6999D03*
X2811Y7399D03*
X2811Y6999D03*
X2713Y7399D03*
X2713Y6999D03*
X2614Y7399D03*
X2614Y6999D03*
X2516Y7399D03*
X2516Y6999D03*
X2447Y5000D03*
X2447Y4600D03*
X1354Y1621D03*
X1354Y2021D03*
X2841Y5000D03*
X2841Y4600D03*
X961Y1621D03*
X961Y2021D03*
X3038Y5000D03*
X3038Y4600D03*
X764Y1621D03*
X764Y2021D03*
X1935Y224D03*
X2335Y224D03*
X1935Y519D03*
X2335Y519D03*
X3412Y322D03*
X3812Y322D03*
X3412Y519D03*
X3812Y519D03*
X3412Y716D03*
X3812Y716D03*
X3412Y913D03*
X3812Y913D03*
X3412Y1109D03*
X3812Y1109D03*
X3412Y1306D03*
X3812Y1306D03*
X3412Y1503D03*
X3812Y1503D03*
X3412Y1700D03*
X3812Y1700D03*
X3412Y1897D03*
X3812Y1897D03*
X3412Y2094D03*
X3812Y2094D03*
X3412Y2290D03*
X3812Y2290D03*
X3412Y2487D03*
X3812Y2487D03*
X3412Y2684D03*
X3812Y2684D03*
X1935Y666D03*
X2335Y666D03*
X1433Y696D03*
X1833Y696D03*
G54D17*
X1207Y3902D03*
X1305Y3491D03*
X2693Y3117D03*
X1610Y3902D03*
X1699Y3491D03*
X2289Y3117D03*
X813Y3902D03*
X912Y3491D03*
X3087Y3117D03*
X2004Y3902D03*
X2093Y3491D03*
X1896Y3117D03*
X2398Y3902D03*
X2496Y3491D03*
X1502Y3117D03*
X2791Y3902D03*
X2890Y3491D03*
X1108Y3117D03*
X2595Y2724D03*
X2988Y2724D03*
X1797Y2724D03*
X2191Y2724D03*
X1404Y2724D03*
X1010Y2724D03*
X2939Y5000D03*
X862Y1621D03*
X2152Y5000D03*
X1650Y1621D03*
X1758Y5000D03*
X2043Y1621D03*
X2545Y5000D03*
X1256Y1621D03*
X2595Y3902D03*
X2693Y3491D03*
X1305Y3117D03*
X1807Y3902D03*
X1896Y3491D03*
X2093Y3117D03*
X1404Y3902D03*
X1502Y3491D03*
X2496Y3117D03*
X2201Y3902D03*
X2289Y3491D03*
X1699Y3117D03*
X1010Y3902D03*
X1108Y3491D03*
X2890Y3117D03*
X2988Y3902D03*
X3087Y3491D03*
X912Y3117D03*
X2791Y2724D03*
X2398Y2724D03*
X1994Y2724D03*
X1601Y2724D03*
X1207Y2724D03*
X813Y2724D03*
X2742Y5000D03*
X1059Y1621D03*
X971Y5000D03*
X2831Y1621D03*
X1364Y5000D03*
X2437Y1621D03*
X2349Y5000D03*
X1453Y1621D03*
X774Y5000D03*
X3028Y1621D03*
X1561Y5000D03*
X2240Y1621D03*
X1955Y5000D03*
X1847Y1621D03*
X1167Y5000D03*
X2634Y1621D03*
X2250Y5787D03*
X2772Y6011D03*
X2250Y5394D03*
X1463Y6798D03*
X1059Y6848D03*
X1551Y1227D03*
X1167Y5787D03*
X1167Y5394D03*
X1463Y7881D03*
X1059Y7930D03*
X2634Y1227D03*
X1758Y5787D03*
X1758Y5394D03*
X1463Y7290D03*
X1059Y7340D03*
X2043Y1227D03*
X971Y5787D03*
X971Y5394D03*
X1463Y8078D03*
X1059Y8127D03*
X2831Y1227D03*
X2545Y5787D03*
X2378Y6011D03*
X2545Y5394D03*
X1463Y6503D03*
X1059Y6552D03*
X1256Y1227D03*
X1364Y5787D03*
X1364Y5394D03*
X1463Y7684D03*
X1059Y7733D03*
X2437Y1227D03*
X2349Y5787D03*
X2673Y6011D03*
X2349Y5394D03*
X1463Y6700D03*
X1059Y6749D03*
X1453Y1227D03*
X2841Y5787D03*
X2083Y6011D03*
X2841Y5394D03*
X1463Y6208D03*
X1059Y6257D03*
X961Y1227D03*
X2152Y5787D03*
X2870Y6011D03*
X2152Y5394D03*
X1463Y6897D03*
X1059Y6946D03*
X1650Y1227D03*
X2939Y5787D03*
X1984Y6011D03*
X2939Y5394D03*
X1463Y6109D03*
X1059Y6159D03*
X862Y1227D03*
X1660Y5787D03*
X1660Y5394D03*
X1463Y7389D03*
X1059Y7438D03*
X2142Y1227D03*
X1561Y5787D03*
X1561Y5394D03*
X1463Y7487D03*
X1059Y7537D03*
X2240Y1227D03*
X1955Y5787D03*
X3067Y6011D03*
X1955Y5394D03*
X1463Y7094D03*
X1059Y7143D03*
X1847Y1227D03*
X2742Y5787D03*
X2181Y6011D03*
X2742Y5394D03*
X1463Y6306D03*
X1059Y6355D03*
X1059Y1227D03*
X1069Y5787D03*
X1069Y5394D03*
X1463Y7979D03*
X1059Y8029D03*
X2732Y1227D03*
X1463Y5787D03*
X1463Y5394D03*
X1463Y7586D03*
X1059Y7635D03*
X2339Y1227D03*
X2053Y5787D03*
X2969Y6011D03*
X2053Y5394D03*
X1463Y6995D03*
X1059Y7044D03*
X1748Y1227D03*
X3038Y5787D03*
X1886Y6011D03*
X3038Y5394D03*
X1463Y6011D03*
X1059Y6060D03*
X764Y1227D03*
X872Y5787D03*
X872Y5394D03*
X1463Y8176D03*
X1059Y8226D03*
X2929Y1227D03*
X1856Y5787D03*
X1856Y5394D03*
X1463Y7192D03*
X1059Y7241D03*
X1945Y1227D03*
X2644Y5787D03*
X2280Y6011D03*
X2644Y5394D03*
X1463Y6405D03*
X1059Y6454D03*
X1158Y1227D03*
X2447Y5787D03*
X2575Y6011D03*
X2476Y6011D03*
X2447Y5394D03*
X1463Y6602D03*
X1059Y6651D03*
X1354Y1227D03*
X774Y5787D03*
X774Y5394D03*
X1463Y8373D03*
X1463Y8275D03*
X1059Y8324D03*
X3028Y1227D03*
X1266Y5787D03*
X1266Y5394D03*
X1463Y7783D03*
X1059Y7832D03*
X2536Y1227D03*
X3028Y844D03*
X2929Y844D03*
X2732Y844D03*
X2339Y844D03*
X2634Y844D03*
X2536Y844D03*
X2831Y844D03*
X2437Y844D03*
X1650Y844D03*
X1551Y844D03*
X2043Y844D03*
X1748Y844D03*
X2142Y844D03*
X2240Y844D03*
X1847Y844D03*
X1945Y844D03*
X1158Y844D03*
X1256Y844D03*
X1453Y844D03*
X1354Y844D03*
X961Y844D03*
X1059Y844D03*
X862Y844D03*
X764Y844D03*
X1492Y391D03*
X1492Y499D03*
X1788Y292D03*
X1788Y598D03*
G54D18*
X3944Y745D02*
X3824Y718D01*
D02*
X3995Y805D02*
X3944Y745D01*
D02*
X4139Y686D02*
X3973Y686D01*
D02*
X3973Y686D02*
X3913Y626D01*
D02*
X4190Y628D02*
X4139Y686D01*
D02*
X3944Y547D02*
X3824Y521D01*
D02*
X3996Y608D02*
X3944Y547D01*
D02*
X3944Y352D02*
X3824Y325D01*
D02*
X3995Y411D02*
X3944Y352D01*
D02*
X4141Y489D02*
X4190Y431D01*
D02*
X3973Y488D02*
X4141Y489D01*
D02*
X3913Y429D02*
X3973Y488D01*
D02*
X3944Y1729D02*
X3824Y1703D01*
D02*
X3996Y1789D02*
X3944Y1729D01*
D02*
X4139Y1670D02*
X3982Y1670D01*
D02*
X3982Y1670D02*
X3913Y1610D01*
D02*
X4190Y1612D02*
X4139Y1670D01*
D02*
X3952Y1534D02*
X3824Y1506D01*
D02*
X3996Y1592D02*
X3952Y1534D01*
D02*
X4131Y1472D02*
X3982Y1472D01*
D02*
X3982Y1472D02*
X3913Y1413D01*
D02*
X4189Y1414D02*
X4131Y1472D01*
D02*
X3944Y1336D02*
X3824Y1309D01*
D02*
X3995Y1395D02*
X3944Y1336D01*
D02*
X4139Y1277D02*
X3982Y1277D01*
D02*
X3982Y1277D02*
X3913Y1216D01*
D02*
X4190Y1218D02*
X4139Y1277D01*
D02*
X3944Y1138D02*
X3824Y1112D01*
D02*
X3996Y1198D02*
X3944Y1138D01*
D02*
X3982Y1079D02*
X3913Y1019D01*
D02*
X4139Y1079D02*
X3982Y1079D01*
D02*
X4190Y1021D02*
X4139Y1079D01*
D02*
X3944Y943D02*
X3824Y915D01*
D02*
X3995Y1002D02*
X3944Y943D01*
D02*
X4139Y884D02*
X3982Y884D01*
D02*
X3982Y884D02*
X3913Y822D01*
D02*
X4190Y825D02*
X4139Y884D01*
D02*
X3943Y2724D02*
X3824Y2688D01*
D02*
X3995Y2774D02*
X3943Y2724D01*
D02*
X3944Y2518D02*
X3824Y2490D01*
D02*
X3995Y2576D02*
X3944Y2518D01*
D02*
X4161Y2467D02*
X3982Y2467D01*
D02*
X3982Y2467D02*
X3912Y2398D01*
D02*
X4210Y2483D02*
X4161Y2467D01*
D02*
X3944Y2320D02*
X3824Y2293D01*
D02*
X3995Y2379D02*
X3944Y2320D01*
D02*
X4139Y2261D02*
X3973Y2261D01*
D02*
X3973Y2261D02*
X3913Y2201D01*
D02*
X4190Y2202D02*
X4139Y2261D01*
D02*
X3944Y2122D02*
X3824Y2096D01*
D02*
X3996Y2183D02*
X3944Y2122D01*
D02*
X4139Y2063D02*
X3973Y2063D01*
D02*
X3973Y2063D02*
X3913Y2004D01*
D02*
X4190Y2006D02*
X4139Y2063D01*
D02*
X3944Y1927D02*
X3824Y1900D01*
D02*
X3995Y1986D02*
X3944Y1927D01*
D02*
X4139Y1868D02*
X3973Y1868D01*
D02*
X3973Y1868D02*
X3913Y1807D01*
D02*
X4190Y1809D02*
X4139Y1868D01*
D02*
X1069Y5012D02*
X1069Y5083D01*
D02*
X872Y5012D02*
X872Y5083D01*
D02*
X3038Y5012D02*
X3038Y5083D01*
D02*
X2841Y5012D02*
X2841Y5083D01*
D02*
X2644Y5012D02*
X2644Y5083D01*
D02*
X2447Y5012D02*
X2447Y5083D01*
D02*
X2250Y5012D02*
X2250Y5083D01*
D02*
X2053Y5012D02*
X2053Y5083D01*
D02*
X1856Y5012D02*
X1856Y5083D01*
D02*
X1660Y5012D02*
X1660Y5083D01*
D02*
X1463Y5012D02*
X1463Y5083D01*
D02*
X1266Y5012D02*
X1266Y5083D01*
D02*
X1880Y6320D02*
X1729Y6581D01*
G54D19*
D02*
X2661Y6011D02*
X2587Y6011D01*
G54D18*
D02*
X2815Y7387D02*
X3065Y6530D01*
D02*
X2615Y7300D02*
X2143Y7044D01*
D02*
X2181Y6809D02*
X2181Y6531D01*
D02*
X2143Y6848D02*
X2181Y6809D01*
D02*
X2143Y7044D02*
X2143Y6848D01*
D02*
X2614Y7386D02*
X2615Y7300D01*
D02*
X1729Y7035D02*
X2209Y7391D01*
D02*
X1729Y6581D02*
X1729Y7035D01*
D02*
X1059Y6073D02*
X1059Y6146D01*
D02*
X1059Y6171D02*
X1059Y6245D01*
D02*
X508Y7594D02*
X508Y8021D01*
D02*
X410Y7643D02*
X410Y7824D01*
D02*
X459Y7790D02*
X459Y8119D01*
D02*
X557Y7889D02*
X557Y8070D01*
D02*
X606Y7938D02*
X606Y8267D01*
D02*
X508Y8037D02*
X508Y8168D01*
D02*
X557Y8086D02*
X557Y8218D01*
D02*
X705Y7094D02*
X705Y8365D01*
D02*
X752Y7053D02*
X705Y7094D01*
D02*
X459Y7102D02*
X459Y7529D01*
D02*
X508Y7151D02*
X508Y7332D01*
D02*
X410Y7200D02*
X410Y7381D01*
D02*
X508Y7348D02*
X508Y7578D01*
D02*
X410Y7397D02*
X410Y7627D01*
D02*
X557Y7446D02*
X557Y7873D01*
D02*
X656Y7495D02*
X656Y8316D01*
D02*
X459Y7544D02*
X459Y7775D01*
D02*
X606Y6511D02*
X606Y7922D01*
D02*
X656Y6651D02*
X656Y7479D01*
D02*
X508Y6659D02*
X508Y6840D01*
D02*
X557Y6708D02*
X557Y7430D01*
D02*
X459Y6806D02*
X459Y7086D01*
D02*
X508Y6855D02*
X508Y7135D01*
D02*
X410Y6905D02*
X410Y7184D01*
D02*
X1058Y5962D02*
X763Y5962D01*
D02*
X763Y5962D02*
X459Y6238D01*
D02*
X1153Y6006D02*
X1058Y5962D01*
D02*
X752Y6069D02*
X509Y6287D01*
D02*
X459Y6238D02*
X459Y6298D01*
D02*
X509Y6287D02*
X508Y6643D01*
D02*
X557Y6335D02*
X557Y6446D01*
D02*
X459Y6314D02*
X459Y6790D01*
D02*
X557Y6462D02*
X557Y6692D01*
D02*
X337Y6165D02*
X138Y6168D01*
G54D20*
D02*
X3008Y519D02*
X2348Y519D01*
D02*
X2802Y76D02*
X675Y75D01*
D02*
X675Y75D02*
X341Y164D01*
D02*
X341Y164D02*
X138Y164D01*
D02*
X2802Y76D02*
X3008Y519D01*
G54D18*
D02*
X1108Y765D02*
X1108Y1790D01*
D02*
X371Y8128D02*
X138Y8130D01*
D02*
X409Y8088D02*
X371Y8128D01*
D02*
X410Y7840D02*
X409Y8088D01*
D02*
X705Y6306D02*
X705Y6503D01*
D02*
X705Y6503D02*
X752Y6544D01*
D02*
X752Y6167D02*
X557Y6335D01*
D02*
X752Y6265D02*
X705Y6306D01*
D02*
X752Y6561D02*
X656Y6651D01*
D02*
X1197Y6159D02*
X1450Y6206D01*
D02*
X1072Y6159D02*
X1197Y6159D01*
G54D20*
D02*
X3147Y852D02*
X3008Y519D01*
G54D18*
D02*
X4228Y2783D02*
X4228Y2609D01*
D02*
X337Y5565D02*
X138Y5568D01*
D02*
X337Y5665D02*
X138Y5668D01*
D02*
X337Y5765D02*
X138Y5768D01*
D02*
X337Y5865D02*
X138Y5868D01*
D02*
X337Y5965D02*
X138Y5968D01*
D02*
X337Y6065D02*
X138Y6068D01*
D02*
X1463Y8189D02*
X1463Y8262D01*
D02*
X1463Y8287D02*
X1463Y8361D01*
D02*
X1463Y6589D02*
X1463Y6516D01*
D02*
X1463Y6884D02*
X1463Y6811D01*
D02*
X1463Y6983D02*
X1463Y6909D01*
D02*
X1463Y7180D02*
X1463Y7106D01*
D02*
X1463Y7278D02*
X1463Y7205D01*
D02*
X1463Y7475D02*
X1463Y7401D01*
D02*
X1463Y7672D02*
X1463Y7598D01*
D02*
X1463Y7869D02*
X1463Y7795D01*
D02*
X1463Y7967D02*
X1463Y7894D01*
D02*
X1059Y7352D02*
X1059Y7426D01*
D02*
X1059Y7549D02*
X1059Y7622D01*
D02*
X1059Y7647D02*
X1059Y7721D01*
D02*
X1059Y7844D02*
X1059Y7918D01*
D02*
X1059Y8140D02*
X1059Y8213D01*
D02*
X1059Y8238D02*
X1059Y8311D01*
D02*
X1463Y6097D02*
X1463Y6023D01*
D02*
X1463Y6195D02*
X1463Y6122D01*
D02*
X1463Y6392D02*
X1463Y6319D01*
D02*
X1463Y6491D02*
X1463Y6417D01*
D02*
X1059Y6368D02*
X1059Y6441D01*
D02*
X1059Y6466D02*
X1059Y6540D01*
D02*
X1059Y6663D02*
X1059Y6737D01*
D02*
X1059Y6860D02*
X1059Y6933D01*
D02*
X1059Y6958D02*
X1059Y7032D01*
D02*
X1059Y7155D02*
X1059Y7229D01*
D02*
X1475Y7881D02*
X1597Y7881D01*
D02*
X1475Y8275D02*
X1597Y8275D01*
D02*
X1475Y8078D02*
X1597Y8078D01*
D02*
X1475Y7684D02*
X1597Y7684D01*
D02*
X1475Y7487D02*
X1597Y7487D01*
D02*
X1475Y6897D02*
X1597Y6897D01*
D02*
X1475Y7290D02*
X1597Y7290D01*
D02*
X1475Y6700D02*
X1597Y6700D01*
D02*
X1475Y6208D02*
X1597Y6208D01*
D02*
X1475Y6503D02*
X1597Y6503D01*
D02*
X824Y7782D02*
X824Y7881D01*
D02*
X824Y7881D02*
X771Y7923D01*
D02*
X771Y7741D02*
X824Y7782D01*
D02*
X1227Y7044D02*
X1175Y7003D01*
D02*
X1227Y7241D02*
X1227Y7044D01*
D02*
X1227Y7438D02*
X1175Y7480D01*
D02*
X1227Y7341D02*
X1227Y7438D01*
D02*
X1175Y7283D02*
X1227Y7241D01*
D02*
X1174Y7298D02*
X1227Y7341D01*
D02*
X1228Y8324D02*
X1228Y8038D01*
D02*
X1228Y8038D02*
X1174Y7988D01*
D02*
X1175Y8365D02*
X1228Y8324D01*
D02*
X1275Y6680D02*
X1175Y6609D01*
D02*
X1275Y7890D02*
X1275Y6680D01*
D02*
X1174Y7972D02*
X1275Y7890D01*
D02*
X824Y6601D02*
X824Y6404D01*
D02*
X824Y6404D02*
X771Y6363D01*
D02*
X771Y6643D02*
X824Y6601D01*
D02*
X1227Y6266D02*
X1174Y6216D01*
D02*
X1227Y6453D02*
X1227Y6266D01*
D02*
X1174Y6495D02*
X1227Y6453D01*
D02*
X1227Y7724D02*
X1175Y7691D01*
D02*
X1227Y7832D02*
X1227Y7724D01*
D02*
X1175Y7873D02*
X1227Y7832D01*
D02*
X824Y6798D02*
X771Y6757D01*
D02*
X824Y6897D02*
X824Y6798D01*
D02*
X824Y6996D02*
X771Y6954D01*
D02*
X824Y7193D02*
X824Y6996D01*
D02*
X824Y7290D02*
X771Y7249D01*
D02*
X824Y7685D02*
X824Y7290D01*
D02*
X771Y6938D02*
X824Y6897D01*
D02*
X771Y7234D02*
X824Y7193D01*
D02*
X771Y7726D02*
X824Y7685D01*
D02*
X3059Y6523D02*
X2288Y6523D01*
D02*
X2961Y6572D02*
X2484Y6572D01*
D02*
X2370Y6474D02*
X2091Y6474D01*
D02*
X2862Y6474D02*
X2386Y6474D01*
D02*
X2764Y6424D02*
X1992Y6424D01*
D02*
X1946Y6374D02*
X1894Y6318D01*
D02*
X2517Y6375D02*
X1946Y6374D01*
D02*
X2567Y6318D02*
X2517Y6375D01*
D02*
X2267Y6011D02*
X2194Y6011D01*
D02*
X2169Y6011D02*
X2095Y6011D01*
D02*
X2070Y6011D02*
X1997Y6011D01*
D02*
X1972Y6011D02*
X1898Y6011D01*
D02*
X3055Y6011D02*
X2981Y6011D01*
D02*
X2956Y6011D02*
X2883Y6011D01*
D02*
X2858Y6011D02*
X2784Y6011D01*
D02*
X2759Y6011D02*
X2686Y6011D01*
D02*
X2464Y6011D02*
X2391Y6011D01*
D02*
X3175Y5912D02*
X3076Y6003D01*
D02*
X4228Y2783D02*
X3992Y3167D01*
D02*
X3992Y3167D02*
X3175Y5912D01*
D02*
X4050Y2814D02*
X3122Y5902D01*
D02*
X4051Y2724D02*
X4050Y2814D01*
D02*
X3913Y2594D02*
X4051Y2724D01*
D02*
X2594Y5903D02*
X2486Y6002D01*
D02*
X3122Y5902D02*
X2594Y5903D01*
D02*
X2427Y5853D02*
X2288Y6002D01*
D02*
X3086Y5854D02*
X2427Y5853D01*
D02*
X3895Y3157D02*
X3086Y5854D01*
D02*
X3903Y2795D02*
X3895Y3157D01*
D02*
X823Y5145D02*
X783Y5104D01*
D02*
X1020Y5145D02*
X979Y5104D01*
D02*
X1060Y5104D02*
X1020Y5145D01*
D02*
X863Y5104D02*
X823Y5145D01*
D02*
X1217Y5145D02*
X1176Y5104D01*
D02*
X1414Y5145D02*
X1373Y5104D01*
D02*
X1610Y5145D02*
X1570Y5104D01*
D02*
X1807Y5145D02*
X1767Y5104D01*
D02*
X2004Y5145D02*
X1964Y5104D01*
D02*
X2201Y5145D02*
X2161Y5104D01*
D02*
X2398Y5145D02*
X2357Y5104D01*
D02*
X2595Y5145D02*
X2554Y5104D01*
D02*
X2791Y5145D02*
X2751Y5104D01*
D02*
X2988Y5145D02*
X2948Y5104D01*
D02*
X3029Y5104D02*
X2988Y5145D01*
D02*
X2832Y5104D02*
X2791Y5145D01*
D02*
X2635Y5104D02*
X2595Y5145D01*
D02*
X2438Y5104D02*
X2398Y5145D01*
D02*
X2241Y5104D02*
X2201Y5145D01*
D02*
X2044Y5104D02*
X2004Y5145D01*
D02*
X1848Y5104D02*
X1807Y5145D01*
D02*
X1651Y5104D02*
X1610Y5145D01*
D02*
X1454Y5104D02*
X1414Y5145D01*
D02*
X1257Y5104D02*
X1217Y5145D01*
D02*
X822Y5440D02*
X783Y5480D01*
D02*
X1019Y5440D02*
X979Y5480D01*
D02*
X1217Y5440D02*
X1176Y5480D01*
D02*
X1257Y5480D02*
X1217Y5440D01*
D02*
X1060Y5481D02*
X1019Y5440D01*
D02*
X863Y5481D02*
X822Y5440D01*
D02*
X2988Y5440D02*
X2988Y5145D01*
D02*
X1414Y5440D02*
X1373Y5481D01*
D02*
X1611Y5440D02*
X1570Y5481D01*
D02*
X1806Y5440D02*
X1767Y5480D01*
D02*
X2004Y5440D02*
X1964Y5480D01*
D02*
X2201Y5440D02*
X2161Y5480D01*
D02*
X2398Y5440D02*
X2357Y5481D01*
D02*
X2594Y5440D02*
X2554Y5480D01*
D02*
X2791Y5440D02*
X2751Y5480D01*
D02*
X2988Y5440D02*
X2948Y5480D01*
D02*
X3029Y5480D02*
X2988Y5440D01*
D02*
X2832Y5481D02*
X2791Y5440D01*
D02*
X2635Y5481D02*
X2594Y5440D01*
D02*
X2438Y5480D02*
X2398Y5440D01*
D02*
X2241Y5480D02*
X2201Y5440D01*
D02*
X2044Y5480D02*
X2004Y5440D01*
D02*
X1847Y5481D02*
X1806Y5440D01*
D02*
X1651Y5480D02*
X1611Y5440D01*
D02*
X1454Y5480D02*
X1414Y5440D01*
D02*
X1019Y5440D02*
X1020Y5145D01*
D02*
X1217Y5440D02*
X1217Y5145D01*
D02*
X1414Y5440D02*
X1414Y5145D01*
D02*
X1611Y5440D02*
X1610Y5145D01*
D02*
X1806Y5440D02*
X1807Y5145D01*
D02*
X2004Y5440D02*
X2004Y5145D01*
D02*
X2201Y5440D02*
X2201Y5145D01*
D02*
X2398Y5440D02*
X2398Y5145D01*
D02*
X2594Y5440D02*
X2595Y5145D01*
D02*
X2791Y5440D02*
X2791Y5145D01*
D02*
X1167Y5231D02*
X1167Y5381D01*
D02*
X774Y5231D02*
X774Y5381D01*
D02*
X2939Y5182D02*
X2939Y5381D01*
D02*
X2545Y5182D02*
X2545Y5381D01*
D02*
X2152Y5182D02*
X2152Y5381D01*
D02*
X1758Y5182D02*
X1758Y5381D01*
D02*
X1364Y5182D02*
X1364Y5381D01*
D02*
X971Y5182D02*
X971Y5381D01*
D02*
X822Y5440D02*
X823Y5145D01*
D02*
X1561Y5576D02*
X1561Y5775D01*
D02*
X2250Y5281D02*
X2250Y5381D01*
D02*
X2053Y5281D02*
X2053Y5381D01*
D02*
X1463Y5281D02*
X1463Y5381D01*
D02*
X1266Y5281D02*
X1266Y5381D01*
D02*
X2742Y5231D02*
X2742Y5381D01*
D02*
X2349Y5231D02*
X2349Y5381D01*
D02*
X1955Y5231D02*
X1955Y5381D01*
D02*
X1561Y5231D02*
X1561Y5381D01*
D02*
X2742Y5625D02*
X2742Y5775D01*
D02*
X2545Y5625D02*
X2545Y5775D01*
D02*
X2349Y5625D02*
X2349Y5775D01*
D02*
X1364Y5625D02*
X1364Y5775D01*
D02*
X1167Y5625D02*
X1167Y5775D01*
D02*
X971Y5625D02*
X971Y5775D01*
D02*
X774Y5625D02*
X774Y5775D01*
D02*
X2152Y5576D02*
X2152Y5775D01*
D02*
X1955Y5576D02*
X1955Y5775D01*
D02*
X1758Y5576D02*
X1758Y5775D01*
D02*
X1108Y765D02*
X950Y644D01*
D02*
X2505Y765D02*
X1108Y765D01*
D02*
X2567Y704D02*
X2505Y765D01*
D02*
X1147Y124D02*
X950Y266D01*
D02*
X2368Y126D02*
X1147Y124D01*
D02*
X2568Y363D02*
X2368Y126D01*
D02*
X2939Y5625D02*
X2939Y5775D01*
D02*
X813Y4212D02*
X813Y4294D01*
D02*
X2004Y4212D02*
X2004Y4294D01*
D02*
X2201Y4212D02*
X2201Y4294D01*
D02*
X2398Y4212D02*
X2398Y4294D01*
D02*
X2595Y4212D02*
X2595Y4294D01*
D02*
X2791Y4212D02*
X2791Y4294D01*
D02*
X2988Y4212D02*
X2988Y4294D01*
D02*
X1610Y4212D02*
X1610Y4294D01*
D02*
X1404Y4212D02*
X1404Y4294D01*
D02*
X1207Y4212D02*
X1207Y4294D01*
D02*
X1010Y4212D02*
X1010Y4294D01*
D02*
X2404Y4518D02*
X2441Y4589D01*
D02*
X2207Y4518D02*
X2244Y4589D01*
D02*
X2010Y4518D02*
X2047Y4589D01*
D02*
X1813Y4518D02*
X1851Y4589D01*
D02*
X1616Y4518D02*
X1654Y4589D01*
D02*
X1410Y4517D02*
X1456Y4589D01*
D02*
X1214Y4517D02*
X1259Y4589D01*
D02*
X1017Y4517D02*
X1062Y4589D01*
D02*
X820Y4517D02*
X865Y4589D01*
D02*
X1807Y4212D02*
X1807Y4294D01*
D02*
X1925Y4633D02*
X1950Y4690D01*
D02*
X1925Y4496D02*
X1925Y4633D01*
D02*
X1996Y4416D02*
X1925Y4496D01*
D02*
X1727Y4633D02*
X1753Y4690D01*
D02*
X1727Y4486D02*
X1727Y4633D01*
D02*
X1798Y4415D02*
X1727Y4486D01*
D02*
X1532Y4633D02*
X1556Y4690D01*
D02*
X1532Y4496D02*
X1532Y4633D01*
D02*
X1602Y4416D02*
X1532Y4496D01*
D02*
X1335Y4485D02*
X1335Y4633D01*
D02*
X1335Y4633D02*
X1359Y4690D01*
D02*
X1395Y4416D02*
X1335Y4485D01*
D02*
X744Y4486D02*
X744Y4624D01*
D02*
X942Y4633D02*
X966Y4690D01*
D02*
X942Y4486D02*
X942Y4633D01*
D02*
X1137Y4486D02*
X1137Y4633D01*
D02*
X1137Y4633D02*
X1162Y4690D01*
D02*
X1199Y4416D02*
X1137Y4486D01*
D02*
X1002Y4416D02*
X942Y4486D01*
D02*
X744Y4624D02*
X769Y4690D01*
D02*
X805Y4416D02*
X744Y4486D01*
D02*
X2994Y4518D02*
X3032Y4589D01*
D02*
X2797Y4518D02*
X2835Y4589D01*
D02*
X2600Y4518D02*
X2638Y4589D01*
D02*
X1565Y4714D02*
X1656Y4988D01*
D02*
X1368Y4714D02*
X1459Y4988D01*
D02*
X1171Y4714D02*
X1262Y4988D01*
D02*
X975Y4714D02*
X1065Y4988D01*
D02*
X778Y4714D02*
X868Y4988D01*
D02*
X2911Y4633D02*
X2934Y4690D01*
D02*
X2911Y4496D02*
X2911Y4633D01*
D02*
X2980Y4416D02*
X2911Y4496D01*
D02*
X2713Y4633D02*
X2737Y4690D01*
D02*
X2713Y4486D02*
X2713Y4633D01*
D02*
X2783Y4416D02*
X2713Y4486D01*
D02*
X2515Y4633D02*
X2540Y4690D01*
D02*
X2515Y4486D02*
X2515Y4633D01*
D02*
X2586Y4415D02*
X2515Y4486D01*
D02*
X2318Y4633D02*
X2343Y4690D01*
D02*
X2318Y4486D02*
X2318Y4633D01*
D02*
X2389Y4415D02*
X2318Y4486D01*
D02*
X2123Y4633D02*
X2147Y4690D01*
D02*
X2123Y4486D02*
X2123Y4633D01*
D02*
X2192Y4416D02*
X2123Y4486D01*
D02*
X695Y1462D02*
X695Y5708D01*
G54D20*
D02*
X3156Y1946D02*
X3147Y852D01*
D02*
X3058Y2021D02*
X3156Y1946D01*
D02*
X3157Y2132D02*
X3058Y2021D01*
D02*
X3058Y2021D02*
X2942Y2021D01*
D02*
X3156Y4505D02*
X3157Y2132D01*
D02*
X3047Y4592D02*
X3156Y4505D01*
G54D18*
D02*
X2943Y4714D02*
X3034Y4988D01*
D02*
X2746Y4714D02*
X2837Y4988D01*
D02*
X2549Y4714D02*
X2640Y4988D01*
D02*
X2352Y4714D02*
X2443Y4988D01*
D02*
X2156Y4714D02*
X2246Y4988D01*
D02*
X1959Y4714D02*
X2049Y4988D01*
D02*
X1762Y4714D02*
X1853Y4988D01*
D02*
X351Y920D02*
X351Y5166D01*
D02*
X400Y970D02*
X400Y5216D01*
D02*
X449Y1019D02*
X449Y5265D01*
D02*
X498Y1068D02*
X498Y5314D01*
D02*
X547Y1314D02*
X547Y5560D01*
D02*
X597Y1363D02*
X597Y5609D01*
D02*
X646Y1413D02*
X646Y5659D01*
D02*
X1305Y4042D02*
X1213Y4189D01*
D02*
X1305Y3802D02*
X1305Y4042D01*
D02*
X1108Y4042D02*
X1017Y4189D01*
D02*
X1108Y3802D02*
X1108Y4042D01*
D02*
X912Y4042D02*
X820Y4189D01*
D02*
X912Y3802D02*
X912Y4042D01*
D02*
X3085Y4042D02*
X2995Y4189D01*
D02*
X3087Y3802D02*
X3085Y4042D01*
D02*
X2889Y4042D02*
X2798Y4189D01*
D02*
X2890Y3802D02*
X2889Y4042D01*
D02*
X2692Y4042D02*
X2601Y4189D01*
D02*
X2693Y3802D02*
X2692Y4042D01*
D02*
X2496Y4042D02*
X2404Y4189D01*
D02*
X2496Y3802D02*
X2496Y4042D01*
D02*
X2288Y4042D02*
X2207Y4189D01*
D02*
X2289Y3802D02*
X2288Y4042D01*
D02*
X2092Y4042D02*
X2010Y4189D01*
D02*
X2093Y3802D02*
X2092Y4042D01*
D02*
X1895Y4042D02*
X1813Y4189D01*
D02*
X1896Y3802D02*
X1895Y4042D01*
D02*
X1698Y4042D02*
X1616Y4189D01*
D02*
X1699Y3802D02*
X1698Y4042D01*
D02*
X1502Y4042D02*
X1410Y4189D01*
D02*
X1502Y3802D02*
X1502Y4042D01*
D02*
X3087Y2948D02*
X3087Y3105D01*
D02*
X1108Y2948D02*
X1108Y3105D01*
D02*
X2890Y3105D02*
X2890Y2899D01*
D02*
X3461Y2556D02*
X3419Y2497D01*
D02*
X3461Y3749D02*
X3461Y2556D01*
D02*
X3657Y1060D02*
X3658Y2981D01*
D02*
X3419Y726D02*
X3657Y1060D01*
D02*
X2595Y3118D02*
X2499Y3479D01*
D02*
X2792Y3118D02*
X2791Y2948D01*
D02*
X2987Y3118D02*
X2988Y2997D01*
D02*
X2893Y3479D02*
X2987Y3118D01*
D02*
X2696Y3479D02*
X2792Y3118D01*
D02*
X2595Y2899D02*
X2595Y3118D01*
D02*
X1305Y2997D02*
X1305Y3105D01*
D02*
X3707Y922D02*
X3419Y529D01*
D02*
X3707Y2932D02*
X3707Y922D01*
D02*
X3313Y1700D02*
X3406Y1514D01*
D02*
X3313Y3355D02*
X3313Y1700D01*
D02*
X2093Y3130D02*
X2093Y3355D01*
D02*
X3264Y1562D02*
X3405Y1317D01*
D02*
X3264Y3237D02*
X3264Y1562D01*
D02*
X1896Y3130D02*
X1896Y3237D01*
D02*
X1699Y3130D02*
X1699Y3188D01*
D02*
X3215Y1425D02*
X3405Y1120D01*
D02*
X3215Y3188D02*
X3215Y1425D01*
D02*
X3608Y3040D02*
X3608Y1199D01*
D02*
X3608Y1199D02*
X3419Y923D01*
D02*
X3608Y3483D02*
X3608Y3056D01*
D02*
X3412Y3700D02*
X3412Y2697D01*
D02*
X3510Y2251D02*
X3418Y2104D01*
D02*
X3510Y3611D02*
X3510Y2251D01*
D02*
X2595Y3492D02*
X2595Y3611D01*
D02*
X2690Y3129D02*
X2595Y3492D01*
D02*
X2289Y3504D02*
X2289Y3611D01*
D02*
X3559Y2163D02*
X3418Y1908D01*
D02*
X3559Y3562D02*
X3559Y2163D01*
D02*
X2388Y3492D02*
X2388Y3562D01*
D02*
X2493Y3129D02*
X2388Y3492D01*
D02*
X3363Y1847D02*
X3408Y1712D01*
D02*
X3362Y3405D02*
X3363Y1847D01*
D02*
X2289Y3130D02*
X2289Y3405D01*
D02*
X1207Y2333D02*
X1207Y2413D01*
D02*
X1010Y2333D02*
X1010Y2413D01*
D02*
X813Y2333D02*
X813Y2413D01*
D02*
X2791Y2594D02*
X2791Y2711D01*
D02*
X2988Y2333D02*
X2988Y2413D01*
D02*
X2791Y2333D02*
X2791Y2413D01*
D02*
X2595Y2333D02*
X2595Y2413D01*
D02*
X2398Y2333D02*
X2398Y2413D01*
D02*
X2191Y2333D02*
X2191Y2413D01*
D02*
X1994Y2333D02*
X1994Y2413D01*
D02*
X1797Y2333D02*
X1797Y2413D01*
D02*
X1601Y2333D02*
X1601Y2413D01*
G54D21*
D02*
X1404Y2333D02*
X1404Y2413D01*
G54D18*
D02*
X2289Y2585D02*
X2289Y2807D01*
D02*
X2198Y2436D02*
X2289Y2585D01*
D02*
X2093Y2585D02*
X2093Y2807D01*
D02*
X2001Y2436D02*
X2093Y2585D01*
D02*
X1897Y2585D02*
X1896Y2807D01*
D02*
X1804Y2436D02*
X1897Y2585D01*
D02*
X1699Y2585D02*
X1699Y2807D01*
D02*
X1607Y2436D02*
X1699Y2585D01*
D02*
X1502Y2585D02*
X1502Y2807D01*
D02*
X1410Y2436D02*
X1502Y2585D01*
D02*
X1304Y2585D02*
X1305Y2807D01*
D02*
X1213Y2436D02*
X1304Y2585D01*
D02*
X1108Y2585D02*
X1108Y2807D01*
D02*
X1017Y2436D02*
X1108Y2585D01*
D02*
X912Y2585D02*
X912Y2807D01*
D02*
X820Y2436D02*
X912Y2585D01*
D02*
X2988Y2594D02*
X2988Y2711D01*
D02*
X3087Y2585D02*
X3087Y2807D01*
D02*
X2995Y2436D02*
X3087Y2585D01*
D02*
X2891Y2585D02*
X2890Y2807D01*
D02*
X2798Y2436D02*
X2891Y2585D01*
D02*
X2693Y2585D02*
X2693Y2807D01*
D02*
X2601Y2436D02*
X2693Y2585D01*
D02*
X2497Y2585D02*
X2496Y2807D01*
D02*
X2404Y2436D02*
X2497Y2585D01*
D02*
X1857Y499D02*
X1857Y646D01*
D02*
X1857Y392D02*
X1906Y450D01*
D02*
X2259Y449D02*
X2326Y510D01*
D02*
X1906Y450D02*
X2259Y449D01*
D02*
X1906Y450D02*
X1857Y499D01*
D02*
X1857Y646D02*
X1839Y685D01*
D02*
X1857Y243D02*
X1857Y392D01*
D02*
X1839Y205D02*
X1857Y243D01*
D02*
X1790Y403D02*
X1790Y487D01*
D02*
X1738Y341D02*
X1404Y341D01*
D02*
X1404Y341D02*
X1345Y384D01*
D02*
X1781Y382D02*
X1738Y341D01*
D02*
X1414Y637D02*
X1414Y558D01*
D02*
X1414Y558D02*
X1345Y504D01*
D02*
X1429Y684D02*
X1414Y637D01*
D02*
X1276Y646D02*
X1325Y688D01*
D02*
X1276Y441D02*
X1276Y646D01*
D02*
X1325Y399D02*
X1276Y441D01*
D02*
X1166Y341D02*
X948Y628D01*
D02*
X1325Y199D02*
X1166Y341D01*
D02*
X2240Y856D02*
X2240Y1003D01*
D02*
X2043Y856D02*
X2043Y1003D01*
D02*
X1453Y856D02*
X1453Y1003D01*
D02*
X1256Y856D02*
X1256Y1003D01*
D02*
X2732Y856D02*
X2732Y954D01*
D02*
X2339Y856D02*
X2339Y954D01*
D02*
X1945Y856D02*
X1945Y954D01*
D02*
X1551Y856D02*
X1551Y954D01*
D02*
X1158Y856D02*
X1158Y954D01*
D02*
X764Y856D02*
X764Y954D01*
D02*
X1207Y1189D02*
X1167Y1150D01*
D02*
X1010Y1189D02*
X970Y1150D01*
D02*
X814Y1189D02*
X773Y1150D01*
D02*
X1247Y1150D02*
X1207Y1189D01*
D02*
X1050Y1150D02*
X1010Y1189D01*
D02*
X853Y1150D02*
X814Y1189D01*
D02*
X2634Y856D02*
X2634Y1052D01*
D02*
X2437Y856D02*
X2437Y1052D01*
D02*
X1847Y856D02*
X1847Y1052D01*
D02*
X1650Y856D02*
X1650Y1052D01*
D02*
X1059Y856D02*
X1059Y1052D01*
D02*
X862Y856D02*
X862Y1052D01*
D02*
X2831Y856D02*
X2831Y1003D01*
D02*
X2979Y1189D02*
X2938Y1150D01*
D02*
X2781Y1189D02*
X2741Y1150D01*
D02*
X2585Y1189D02*
X2545Y1150D01*
D02*
X2387Y1189D02*
X2348Y1150D01*
D02*
X2192Y1189D02*
X2151Y1150D01*
D02*
X1994Y1189D02*
X1954Y1150D01*
D02*
X1796Y1189D02*
X1757Y1150D01*
D02*
X1601Y1189D02*
X1560Y1150D01*
D02*
X1403Y1189D02*
X1363Y1150D01*
D02*
X3019Y1150D02*
X2979Y1189D01*
D02*
X2822Y1150D02*
X2781Y1189D01*
D02*
X2625Y1150D02*
X2585Y1189D01*
D02*
X2428Y1150D02*
X2387Y1189D01*
D02*
X2231Y1150D02*
X2192Y1189D01*
D02*
X2034Y1150D02*
X1994Y1189D01*
D02*
X1837Y1150D02*
X1796Y1189D01*
D02*
X1641Y1150D02*
X1601Y1189D01*
D02*
X1444Y1150D02*
X1403Y1189D01*
D02*
X2536Y1240D02*
X2536Y1348D01*
D02*
X2339Y1240D02*
X2339Y1348D01*
D02*
X1354Y1240D02*
X1354Y1348D01*
D02*
X1158Y1240D02*
X1158Y1348D01*
D02*
X961Y1240D02*
X961Y1348D01*
D02*
X764Y1240D02*
X764Y1348D01*
D02*
X1650Y1240D02*
X1650Y1446D01*
D02*
X1453Y1240D02*
X1453Y1446D01*
D02*
X1256Y1240D02*
X1256Y1446D01*
D02*
X1059Y1240D02*
X1059Y1446D01*
D02*
X862Y1240D02*
X862Y1446D01*
D02*
X2831Y1240D02*
X2831Y1397D01*
D02*
X2634Y1240D02*
X2634Y1397D01*
D02*
X2437Y1240D02*
X2437Y1397D01*
D02*
X2732Y1240D02*
X2732Y1348D01*
D02*
X1994Y1484D02*
X1955Y1517D01*
D02*
X1796Y1484D02*
X1758Y1517D01*
D02*
X1601Y1484D02*
X1561Y1518D01*
D02*
X1403Y1484D02*
X1364Y1517D01*
D02*
X1207Y1484D02*
X1167Y1518D01*
D02*
X1010Y1484D02*
X970Y1517D01*
D02*
X814Y1484D02*
X774Y1518D01*
D02*
X2034Y1517D02*
X1994Y1484D01*
D02*
X1837Y1518D02*
X1796Y1484D01*
D02*
X1640Y1517D02*
X1601Y1484D01*
D02*
X1443Y1518D02*
X1403Y1484D01*
D02*
X1246Y1517D02*
X1207Y1484D01*
D02*
X1050Y1518D02*
X1010Y1484D01*
D02*
X853Y1517D02*
X814Y1484D01*
D02*
X2240Y1240D02*
X2240Y1446D01*
D02*
X1847Y1240D02*
X1847Y1446D01*
D02*
X1601Y1189D02*
X1601Y1484D01*
D02*
X1403Y1189D02*
X1403Y1484D01*
D02*
X1207Y1189D02*
X1207Y1484D01*
D02*
X1010Y1189D02*
X1010Y1484D01*
D02*
X814Y1189D02*
X814Y1484D01*
D02*
X2979Y1484D02*
X2939Y1517D01*
D02*
X2781Y1484D02*
X2742Y1517D01*
D02*
X2585Y1484D02*
X2545Y1518D01*
D02*
X2387Y1484D02*
X2348Y1517D01*
D02*
X2192Y1484D02*
X2152Y1518D01*
D02*
X3018Y1517D02*
X2979Y1484D01*
D02*
X2821Y1518D02*
X2781Y1484D01*
D02*
X2624Y1517D02*
X2585Y1484D01*
D02*
X2427Y1518D02*
X2387Y1484D01*
D02*
X2231Y1517D02*
X2192Y1484D01*
D02*
X961Y1538D02*
X961Y1609D01*
D02*
X764Y1538D02*
X764Y1609D01*
D02*
X2979Y1189D02*
X2979Y1484D01*
D02*
X2781Y1189D02*
X2781Y1484D01*
D02*
X2585Y1189D02*
X2585Y1484D01*
D02*
X2387Y1189D02*
X2387Y1484D01*
D02*
X2192Y1189D02*
X2192Y1484D01*
D02*
X1994Y1189D02*
X1994Y1484D01*
D02*
X1796Y1189D02*
X1796Y1484D01*
D02*
X2929Y1538D02*
X2929Y1609D01*
D02*
X2732Y1538D02*
X2732Y1609D01*
D02*
X2536Y1538D02*
X2536Y1609D01*
D02*
X2339Y1538D02*
X2339Y1609D01*
D02*
X2142Y1538D02*
X2142Y1609D01*
D02*
X1945Y1538D02*
X1945Y1609D01*
D02*
X1748Y1538D02*
X1748Y1609D01*
D02*
X1551Y1538D02*
X1551Y1609D01*
D02*
X1354Y1538D02*
X1354Y1609D01*
D02*
X1158Y1538D02*
X1158Y1609D01*
D02*
X2630Y1907D02*
X2539Y1633D01*
D02*
X2433Y1907D02*
X2343Y1633D01*
D02*
X2236Y1907D02*
X2146Y1633D01*
D02*
X2040Y1907D02*
X1949Y1633D01*
D02*
X1843Y1907D02*
X1752Y1633D01*
D02*
X1646Y1907D02*
X1555Y1633D01*
D02*
X1449Y1907D02*
X1358Y1633D01*
D02*
X1252Y1907D02*
X1162Y1633D01*
D02*
X1055Y1907D02*
X965Y1633D01*
D02*
X858Y1907D02*
X768Y1633D01*
D02*
X1754Y2032D02*
X1792Y2109D01*
D02*
X1557Y2032D02*
X1595Y2109D01*
D02*
X1360Y2032D02*
X1398Y2109D01*
D02*
X1163Y2032D02*
X1201Y2109D01*
D02*
X966Y2032D02*
X1004Y2109D01*
D02*
X769Y2032D02*
X808Y2109D01*
D02*
X734Y451D02*
X797Y399D01*
D02*
X734Y647D02*
X734Y451D01*
D02*
X912Y804D02*
X734Y647D01*
D02*
X912Y1571D02*
X912Y804D01*
D02*
X871Y1612D02*
X912Y1571D01*
D02*
X3024Y1907D02*
X2933Y1633D01*
D02*
X2827Y1907D02*
X2736Y1633D01*
D02*
X2043Y1240D02*
X2043Y1446D01*
D02*
X1482Y2162D02*
X1414Y2213D01*
D02*
X1482Y1985D02*
X1482Y2162D01*
D02*
X1458Y1931D02*
X1482Y1985D01*
D02*
X1286Y2162D02*
X1217Y2213D01*
D02*
X1286Y1985D02*
X1286Y2162D01*
D02*
X1261Y1931D02*
X1286Y1985D01*
D02*
X1089Y2162D02*
X1020Y2213D01*
D02*
X1089Y1985D02*
X1089Y2162D01*
D02*
X1064Y1931D02*
X1089Y1985D01*
D02*
X892Y1985D02*
X892Y2162D01*
D02*
X892Y2162D02*
X823Y2213D01*
D02*
X867Y1931D02*
X892Y1985D01*
D02*
X2936Y2032D02*
X2982Y2109D01*
D02*
X2739Y2032D02*
X2785Y2109D01*
D02*
X2542Y2032D02*
X2588Y2109D01*
D02*
X2345Y2032D02*
X2391Y2109D01*
D02*
X2147Y2032D02*
X2185Y2109D01*
D02*
X1951Y2032D02*
X1989Y2109D01*
D02*
X2861Y1985D02*
X2861Y2153D01*
D02*
X2861Y2153D02*
X2800Y2211D01*
D02*
X2836Y1931D02*
X2861Y1985D01*
D02*
X2664Y2153D02*
X2604Y2211D01*
D02*
X2664Y1985D02*
X2664Y2153D01*
D02*
X2639Y1931D02*
X2664Y1985D01*
D02*
X2467Y2162D02*
X2407Y2212D01*
D02*
X2467Y1985D02*
X2467Y2162D01*
D02*
X2442Y1931D02*
X2467Y1985D01*
D02*
X2271Y2162D02*
X2201Y2213D01*
D02*
X2271Y1985D02*
X2271Y2162D01*
D02*
X2245Y1931D02*
X2271Y1985D01*
D02*
X2072Y2162D02*
X2004Y2213D01*
D02*
X2072Y1985D02*
X2072Y2162D01*
D02*
X2048Y1931D02*
X2072Y1985D01*
D02*
X1876Y2162D02*
X1807Y2213D01*
D02*
X1876Y1985D02*
X1876Y2162D01*
D02*
X1852Y1931D02*
X1876Y1985D01*
D02*
X1679Y2162D02*
X1611Y2213D01*
D02*
X1679Y1985D02*
X1679Y2162D01*
D02*
X1655Y1931D02*
X1679Y1985D01*
G54D22*
X947Y8609D02*
X955Y8609D01*
X946Y8608D02*
X957Y8608D01*
X945Y8607D02*
X958Y8607D01*
X944Y8606D02*
X958Y8606D01*
X282Y8605D02*
X320Y8605D01*
X357Y8605D02*
X359Y8605D01*
X427Y8605D02*
X429Y8605D01*
X568Y8605D02*
X617Y8605D01*
X944Y8605D02*
X958Y8605D01*
X1386Y8605D02*
X1409Y8605D01*
X1444Y8605D02*
X1461Y8605D01*
X1655Y8605D02*
X1658Y8605D01*
X280Y8604D02*
X322Y8604D01*
X355Y8604D02*
X361Y8604D01*
X425Y8604D02*
X431Y8604D01*
X568Y8604D02*
X617Y8604D01*
X944Y8604D02*
X958Y8604D01*
X1383Y8604D02*
X1410Y8604D01*
X1442Y8604D02*
X1463Y8604D01*
X1654Y8604D02*
X1660Y8604D01*
X280Y8603D02*
X324Y8603D01*
X354Y8603D02*
X362Y8603D01*
X424Y8603D02*
X432Y8603D01*
X568Y8603D02*
X617Y8603D01*
X944Y8603D02*
X958Y8603D01*
X1381Y8603D02*
X1411Y8603D01*
X1441Y8603D02*
X1463Y8603D01*
X1653Y8603D02*
X1660Y8603D01*
X279Y8602D02*
X325Y8602D01*
X354Y8602D02*
X362Y8602D01*
X424Y8602D02*
X432Y8602D01*
X568Y8602D02*
X617Y8602D01*
X944Y8602D02*
X958Y8602D01*
X1379Y8602D02*
X1412Y8602D01*
X1441Y8602D02*
X1464Y8602D01*
X1653Y8602D02*
X1661Y8602D01*
X279Y8601D02*
X326Y8601D01*
X354Y8601D02*
X362Y8601D01*
X423Y8601D02*
X432Y8601D01*
X568Y8601D02*
X617Y8601D01*
X944Y8601D02*
X958Y8601D01*
X1088Y8601D02*
X1089Y8601D01*
X1378Y8601D02*
X1412Y8601D01*
X1440Y8601D02*
X1464Y8601D01*
X1652Y8601D02*
X1661Y8601D01*
X279Y8600D02*
X326Y8600D01*
X353Y8600D02*
X363Y8600D01*
X423Y8600D02*
X432Y8600D01*
X568Y8600D02*
X617Y8600D01*
X944Y8600D02*
X958Y8600D01*
X1086Y8600D02*
X1091Y8600D01*
X1377Y8600D02*
X1412Y8600D01*
X1440Y8600D02*
X1464Y8600D01*
X1652Y8600D02*
X1661Y8600D01*
X279Y8599D02*
X327Y8599D01*
X353Y8599D02*
X363Y8599D01*
X423Y8599D02*
X432Y8599D01*
X568Y8599D02*
X617Y8599D01*
X944Y8599D02*
X958Y8599D01*
X1085Y8599D02*
X1092Y8599D01*
X1377Y8599D02*
X1412Y8599D01*
X1440Y8599D02*
X1464Y8599D01*
X1652Y8599D02*
X1661Y8599D01*
X279Y8598D02*
X327Y8598D01*
X353Y8598D02*
X363Y8598D01*
X423Y8598D02*
X432Y8598D01*
X568Y8598D02*
X617Y8598D01*
X945Y8598D02*
X958Y8598D01*
X1084Y8598D02*
X1092Y8598D01*
X1376Y8598D02*
X1411Y8598D01*
X1441Y8598D02*
X1464Y8598D01*
X1652Y8598D02*
X1661Y8598D01*
X280Y8597D02*
X327Y8597D01*
X353Y8597D02*
X363Y8597D01*
X423Y8597D02*
X432Y8597D01*
X568Y8597D02*
X617Y8597D01*
X945Y8597D02*
X957Y8597D01*
X1084Y8597D02*
X1093Y8597D01*
X1375Y8597D02*
X1410Y8597D01*
X1442Y8597D02*
X1464Y8597D01*
X1652Y8597D02*
X1661Y8597D01*
X281Y8596D02*
X327Y8596D01*
X353Y8596D02*
X363Y8596D01*
X386Y8596D02*
X390Y8596D01*
X423Y8596D02*
X432Y8596D01*
X568Y8596D02*
X617Y8596D01*
X947Y8596D02*
X956Y8596D01*
X1084Y8596D02*
X1093Y8596D01*
X1375Y8596D02*
X1409Y8596D01*
X1443Y8596D02*
X1464Y8596D01*
X1652Y8596D02*
X1661Y8596D01*
X318Y8595D02*
X328Y8595D01*
X353Y8595D02*
X363Y8595D01*
X384Y8595D02*
X391Y8595D01*
X423Y8595D02*
X432Y8595D01*
X568Y8595D02*
X577Y8595D01*
X588Y8595D02*
X597Y8595D01*
X607Y8595D02*
X617Y8595D01*
X1084Y8595D02*
X1093Y8595D01*
X1374Y8595D02*
X1386Y8595D01*
X1455Y8595D02*
X1464Y8595D01*
X1652Y8595D02*
X1661Y8595D01*
X318Y8594D02*
X328Y8594D01*
X353Y8594D02*
X363Y8594D01*
X384Y8594D02*
X392Y8594D01*
X423Y8594D02*
X432Y8594D01*
X568Y8594D02*
X577Y8594D01*
X588Y8594D02*
X597Y8594D01*
X608Y8594D02*
X617Y8594D01*
X1084Y8594D02*
X1093Y8594D01*
X1374Y8594D02*
X1385Y8594D01*
X1455Y8594D02*
X1464Y8594D01*
X1652Y8594D02*
X1661Y8594D01*
X318Y8593D02*
X328Y8593D01*
X353Y8593D02*
X363Y8593D01*
X383Y8593D02*
X392Y8593D01*
X423Y8593D02*
X432Y8593D01*
X568Y8593D02*
X577Y8593D01*
X588Y8593D02*
X597Y8593D01*
X608Y8593D02*
X617Y8593D01*
X1084Y8593D02*
X1093Y8593D01*
X1374Y8593D02*
X1384Y8593D01*
X1455Y8593D02*
X1464Y8593D01*
X1652Y8593D02*
X1661Y8593D01*
X318Y8592D02*
X328Y8592D01*
X353Y8592D02*
X363Y8592D01*
X383Y8592D02*
X392Y8592D01*
X423Y8592D02*
X432Y8592D01*
X568Y8592D02*
X577Y8592D01*
X588Y8592D02*
X597Y8592D01*
X608Y8592D02*
X617Y8592D01*
X1084Y8592D02*
X1093Y8592D01*
X1373Y8592D02*
X1383Y8592D01*
X1455Y8592D02*
X1464Y8592D01*
X1652Y8592D02*
X1661Y8592D01*
X318Y8591D02*
X328Y8591D01*
X353Y8591D02*
X363Y8591D01*
X383Y8591D02*
X392Y8591D01*
X423Y8591D02*
X432Y8591D01*
X568Y8591D02*
X577Y8591D01*
X588Y8591D02*
X597Y8591D01*
X608Y8591D02*
X617Y8591D01*
X1084Y8591D02*
X1093Y8591D01*
X1373Y8591D02*
X1383Y8591D01*
X1455Y8591D02*
X1464Y8591D01*
X1652Y8591D02*
X1661Y8591D01*
X318Y8590D02*
X328Y8590D01*
X353Y8590D02*
X363Y8590D01*
X383Y8590D02*
X392Y8590D01*
X423Y8590D02*
X432Y8590D01*
X568Y8590D02*
X577Y8590D01*
X588Y8590D02*
X597Y8590D01*
X608Y8590D02*
X616Y8590D01*
X1084Y8590D02*
X1093Y8590D01*
X1372Y8590D02*
X1382Y8590D01*
X1455Y8590D02*
X1464Y8590D01*
X1652Y8590D02*
X1661Y8590D01*
X318Y8589D02*
X328Y8589D01*
X353Y8589D02*
X363Y8589D01*
X383Y8589D02*
X392Y8589D01*
X423Y8589D02*
X432Y8589D01*
X569Y8589D02*
X576Y8589D01*
X588Y8589D02*
X597Y8589D01*
X609Y8589D02*
X616Y8589D01*
X1084Y8589D02*
X1093Y8589D01*
X1372Y8589D02*
X1382Y8589D01*
X1455Y8589D02*
X1464Y8589D01*
X1652Y8589D02*
X1661Y8589D01*
X318Y8588D02*
X328Y8588D01*
X353Y8588D02*
X363Y8588D01*
X383Y8588D02*
X392Y8588D01*
X423Y8588D02*
X432Y8588D01*
X570Y8588D02*
X575Y8588D01*
X588Y8588D02*
X597Y8588D01*
X609Y8588D02*
X615Y8588D01*
X1084Y8588D02*
X1093Y8588D01*
X1371Y8588D02*
X1381Y8588D01*
X1455Y8588D02*
X1464Y8588D01*
X1652Y8588D02*
X1661Y8588D01*
X318Y8587D02*
X328Y8587D01*
X353Y8587D02*
X363Y8587D01*
X383Y8587D02*
X392Y8587D01*
X423Y8587D02*
X432Y8587D01*
X572Y8587D02*
X573Y8587D01*
X588Y8587D02*
X597Y8587D01*
X611Y8587D02*
X613Y8587D01*
X1084Y8587D02*
X1093Y8587D01*
X1371Y8587D02*
X1381Y8587D01*
X1455Y8587D02*
X1464Y8587D01*
X1652Y8587D02*
X1661Y8587D01*
X318Y8586D02*
X328Y8586D01*
X353Y8586D02*
X363Y8586D01*
X383Y8586D02*
X392Y8586D01*
X423Y8586D02*
X432Y8586D01*
X588Y8586D02*
X597Y8586D01*
X1084Y8586D02*
X1093Y8586D01*
X1370Y8586D02*
X1380Y8586D01*
X1455Y8586D02*
X1464Y8586D01*
X1652Y8586D02*
X1661Y8586D01*
X318Y8585D02*
X328Y8585D01*
X353Y8585D02*
X363Y8585D01*
X383Y8585D02*
X392Y8585D01*
X423Y8585D02*
X432Y8585D01*
X588Y8585D02*
X597Y8585D01*
X1084Y8585D02*
X1093Y8585D01*
X1370Y8585D02*
X1380Y8585D01*
X1455Y8585D02*
X1464Y8585D01*
X1652Y8585D02*
X1661Y8585D01*
X318Y8584D02*
X328Y8584D01*
X353Y8584D02*
X363Y8584D01*
X383Y8584D02*
X392Y8584D01*
X423Y8584D02*
X432Y8584D01*
X449Y8584D02*
X458Y8584D01*
X588Y8584D02*
X597Y8584D01*
X644Y8584D02*
X645Y8584D01*
X664Y8584D02*
X676Y8584D01*
X726Y8584D02*
X747Y8584D01*
X789Y8584D02*
X790Y8584D01*
X810Y8584D02*
X819Y8584D01*
X869Y8584D02*
X893Y8584D01*
X938Y8584D02*
X954Y8584D01*
X1014Y8584D02*
X1038Y8584D01*
X1078Y8584D02*
X1113Y8584D01*
X1163Y8584D02*
X1179Y8584D01*
X1223Y8584D02*
X1223Y8584D01*
X1242Y8584D02*
X1254Y8584D01*
X1369Y8584D02*
X1379Y8584D01*
X1455Y8584D02*
X1464Y8584D01*
X1524Y8584D02*
X1540Y8584D01*
X1602Y8584D02*
X1625Y8584D01*
X1652Y8584D02*
X1661Y8584D01*
X1691Y8584D02*
X1692Y8584D01*
X318Y8583D02*
X328Y8583D01*
X353Y8583D02*
X363Y8583D01*
X383Y8583D02*
X392Y8583D01*
X423Y8583D02*
X432Y8583D01*
X445Y8583D02*
X462Y8583D01*
X588Y8583D02*
X597Y8583D01*
X642Y8583D02*
X647Y8583D01*
X662Y8583D02*
X680Y8583D01*
X724Y8583D02*
X751Y8583D01*
X787Y8583D02*
X792Y8583D01*
X807Y8583D02*
X823Y8583D01*
X866Y8583D02*
X897Y8583D01*
X936Y8583D02*
X956Y8583D01*
X1010Y8583D02*
X1042Y8583D01*
X1076Y8583D02*
X1116Y8583D01*
X1159Y8583D02*
X1182Y8583D01*
X1220Y8583D02*
X1226Y8583D01*
X1240Y8583D02*
X1258Y8583D01*
X1369Y8583D02*
X1379Y8583D01*
X1455Y8583D02*
X1464Y8583D01*
X1520Y8583D02*
X1543Y8583D01*
X1598Y8583D02*
X1627Y8583D01*
X1652Y8583D02*
X1661Y8583D01*
X1689Y8583D02*
X1694Y8583D01*
X318Y8582D02*
X328Y8582D01*
X353Y8582D02*
X363Y8582D01*
X383Y8582D02*
X392Y8582D01*
X423Y8582D02*
X432Y8582D01*
X443Y8582D02*
X464Y8582D01*
X588Y8582D02*
X597Y8582D01*
X641Y8582D02*
X648Y8582D01*
X661Y8582D02*
X682Y8582D01*
X723Y8582D02*
X753Y8582D01*
X786Y8582D02*
X793Y8582D01*
X805Y8582D02*
X825Y8582D01*
X864Y8582D02*
X899Y8582D01*
X935Y8582D02*
X957Y8582D01*
X1008Y8582D02*
X1044Y8582D01*
X1075Y8582D02*
X1117Y8582D01*
X1157Y8582D02*
X1184Y8582D01*
X1219Y8582D02*
X1227Y8582D01*
X1239Y8582D02*
X1260Y8582D01*
X1368Y8582D02*
X1378Y8582D01*
X1455Y8582D02*
X1464Y8582D01*
X1518Y8582D02*
X1545Y8582D01*
X1596Y8582D02*
X1628Y8582D01*
X1652Y8582D02*
X1661Y8582D01*
X1688Y8582D02*
X1695Y8582D01*
X318Y8581D02*
X328Y8581D01*
X353Y8581D02*
X363Y8581D01*
X383Y8581D02*
X392Y8581D01*
X423Y8581D02*
X432Y8581D01*
X442Y8581D02*
X465Y8581D01*
X588Y8581D02*
X597Y8581D01*
X641Y8581D02*
X649Y8581D01*
X659Y8581D02*
X683Y8581D01*
X723Y8581D02*
X754Y8581D01*
X785Y8581D02*
X793Y8581D01*
X803Y8581D02*
X826Y8581D01*
X863Y8581D02*
X901Y8581D01*
X935Y8581D02*
X958Y8581D01*
X1007Y8581D02*
X1045Y8581D01*
X1074Y8581D02*
X1117Y8581D01*
X1156Y8581D02*
X1185Y8581D01*
X1219Y8581D02*
X1227Y8581D01*
X1238Y8581D02*
X1261Y8581D01*
X1368Y8581D02*
X1378Y8581D01*
X1455Y8581D02*
X1464Y8581D01*
X1517Y8581D02*
X1547Y8581D01*
X1594Y8581D02*
X1628Y8581D01*
X1652Y8581D02*
X1661Y8581D01*
X1686Y8581D02*
X1696Y8581D01*
X318Y8580D02*
X328Y8580D01*
X353Y8580D02*
X363Y8580D01*
X383Y8580D02*
X392Y8580D01*
X423Y8580D02*
X432Y8580D01*
X440Y8580D02*
X466Y8580D01*
X588Y8580D02*
X597Y8580D01*
X640Y8580D02*
X649Y8580D01*
X658Y8580D02*
X684Y8580D01*
X723Y8580D02*
X755Y8580D01*
X785Y8580D02*
X794Y8580D01*
X802Y8580D02*
X828Y8580D01*
X862Y8580D02*
X902Y8580D01*
X934Y8580D02*
X958Y8580D01*
X1006Y8580D02*
X1046Y8580D01*
X1074Y8580D02*
X1117Y8580D01*
X1154Y8580D02*
X1187Y8580D01*
X1219Y8580D02*
X1227Y8580D01*
X1237Y8580D02*
X1262Y8580D01*
X1367Y8580D02*
X1377Y8580D01*
X1455Y8580D02*
X1464Y8580D01*
X1516Y8580D02*
X1548Y8580D01*
X1593Y8580D02*
X1629Y8580D01*
X1652Y8580D02*
X1661Y8580D01*
X1685Y8580D02*
X1696Y8580D01*
X318Y8579D02*
X328Y8579D01*
X353Y8579D02*
X363Y8579D01*
X383Y8579D02*
X392Y8579D01*
X423Y8579D02*
X432Y8579D01*
X439Y8579D02*
X467Y8579D01*
X588Y8579D02*
X597Y8579D01*
X640Y8579D02*
X649Y8579D01*
X657Y8579D02*
X685Y8579D01*
X722Y8579D02*
X756Y8579D01*
X785Y8579D02*
X794Y8579D01*
X800Y8579D02*
X828Y8579D01*
X861Y8579D02*
X903Y8579D01*
X934Y8579D02*
X958Y8579D01*
X1005Y8579D02*
X1047Y8579D01*
X1074Y8579D02*
X1118Y8579D01*
X1153Y8579D02*
X1188Y8579D01*
X1218Y8579D02*
X1228Y8579D01*
X1235Y8579D02*
X1263Y8579D01*
X1367Y8579D02*
X1377Y8579D01*
X1455Y8579D02*
X1464Y8579D01*
X1515Y8579D02*
X1549Y8579D01*
X1591Y8579D02*
X1629Y8579D01*
X1652Y8579D02*
X1661Y8579D01*
X1684Y8579D02*
X1696Y8579D01*
X318Y8578D02*
X328Y8578D01*
X353Y8578D02*
X363Y8578D01*
X383Y8578D02*
X392Y8578D01*
X423Y8578D02*
X432Y8578D01*
X437Y8578D02*
X468Y8578D01*
X588Y8578D02*
X597Y8578D01*
X640Y8578D02*
X649Y8578D01*
X656Y8578D02*
X686Y8578D01*
X723Y8578D02*
X757Y8578D01*
X785Y8578D02*
X794Y8578D01*
X798Y8578D02*
X829Y8578D01*
X860Y8578D02*
X904Y8578D01*
X934Y8578D02*
X958Y8578D01*
X1005Y8578D02*
X1048Y8578D01*
X1074Y8578D02*
X1117Y8578D01*
X1152Y8578D02*
X1189Y8578D01*
X1218Y8578D02*
X1228Y8578D01*
X1234Y8578D02*
X1264Y8578D01*
X1366Y8578D02*
X1376Y8578D01*
X1455Y8578D02*
X1464Y8578D01*
X1513Y8578D02*
X1551Y8578D01*
X1590Y8578D02*
X1628Y8578D01*
X1652Y8578D02*
X1661Y8578D01*
X1683Y8578D02*
X1696Y8578D01*
X318Y8577D02*
X328Y8577D01*
X353Y8577D02*
X363Y8577D01*
X383Y8577D02*
X392Y8577D01*
X423Y8577D02*
X432Y8577D01*
X435Y8577D02*
X469Y8577D01*
X588Y8577D02*
X597Y8577D01*
X640Y8577D02*
X649Y8577D01*
X655Y8577D02*
X687Y8577D01*
X723Y8577D02*
X758Y8577D01*
X785Y8577D02*
X794Y8577D01*
X797Y8577D02*
X830Y8577D01*
X859Y8577D02*
X904Y8577D01*
X935Y8577D02*
X958Y8577D01*
X1004Y8577D02*
X1049Y8577D01*
X1074Y8577D02*
X1117Y8577D01*
X1151Y8577D02*
X1190Y8577D01*
X1218Y8577D02*
X1228Y8577D01*
X1233Y8577D02*
X1265Y8577D01*
X1366Y8577D02*
X1376Y8577D01*
X1455Y8577D02*
X1464Y8577D01*
X1512Y8577D02*
X1552Y8577D01*
X1589Y8577D02*
X1628Y8577D01*
X1652Y8577D02*
X1661Y8577D01*
X1682Y8577D02*
X1695Y8577D01*
X318Y8576D02*
X328Y8576D01*
X353Y8576D02*
X363Y8576D01*
X383Y8576D02*
X392Y8576D01*
X423Y8576D02*
X469Y8576D01*
X588Y8576D02*
X597Y8576D01*
X640Y8576D02*
X649Y8576D01*
X654Y8576D02*
X687Y8576D01*
X723Y8576D02*
X758Y8576D01*
X785Y8576D02*
X831Y8576D01*
X859Y8576D02*
X905Y8576D01*
X935Y8576D02*
X958Y8576D01*
X1004Y8576D02*
X1049Y8576D01*
X1075Y8576D02*
X1116Y8576D01*
X1150Y8576D02*
X1191Y8576D01*
X1218Y8576D02*
X1228Y8576D01*
X1232Y8576D02*
X1266Y8576D01*
X1365Y8576D02*
X1375Y8576D01*
X1455Y8576D02*
X1464Y8576D01*
X1511Y8576D02*
X1553Y8576D01*
X1588Y8576D02*
X1628Y8576D01*
X1652Y8576D02*
X1661Y8576D01*
X1680Y8576D02*
X1695Y8576D01*
X318Y8575D02*
X328Y8575D01*
X353Y8575D02*
X363Y8575D01*
X383Y8575D02*
X392Y8575D01*
X423Y8575D02*
X470Y8575D01*
X588Y8575D02*
X597Y8575D01*
X640Y8575D02*
X649Y8575D01*
X652Y8575D02*
X688Y8575D01*
X725Y8575D02*
X759Y8575D01*
X785Y8575D02*
X831Y8575D01*
X859Y8575D02*
X905Y8575D01*
X937Y8575D02*
X958Y8575D01*
X1003Y8575D02*
X1049Y8575D01*
X1076Y8575D02*
X1115Y8575D01*
X1149Y8575D02*
X1192Y8575D01*
X1218Y8575D02*
X1228Y8575D01*
X1231Y8575D02*
X1266Y8575D01*
X1365Y8575D02*
X1375Y8575D01*
X1455Y8575D02*
X1464Y8575D01*
X1511Y8575D02*
X1553Y8575D01*
X1587Y8575D02*
X1626Y8575D01*
X1652Y8575D02*
X1661Y8575D01*
X1679Y8575D02*
X1694Y8575D01*
X318Y8574D02*
X328Y8574D01*
X353Y8574D02*
X363Y8574D01*
X383Y8574D02*
X392Y8574D01*
X423Y8574D02*
X449Y8574D01*
X457Y8574D02*
X470Y8574D01*
X588Y8574D02*
X597Y8574D01*
X640Y8574D02*
X649Y8574D01*
X651Y8574D02*
X666Y8574D01*
X675Y8574D02*
X688Y8574D01*
X747Y8574D02*
X759Y8574D01*
X785Y8574D02*
X810Y8574D01*
X819Y8574D02*
X831Y8574D01*
X858Y8574D02*
X870Y8574D01*
X893Y8574D02*
X905Y8574D01*
X949Y8574D02*
X958Y8574D01*
X1003Y8574D02*
X1014Y8574D01*
X1038Y8574D02*
X1049Y8574D01*
X1083Y8574D02*
X1093Y8574D01*
X1149Y8574D02*
X1163Y8574D01*
X1178Y8574D02*
X1193Y8574D01*
X1218Y8574D02*
X1228Y8574D01*
X1230Y8574D02*
X1244Y8574D01*
X1254Y8574D02*
X1266Y8574D01*
X1364Y8574D02*
X1374Y8574D01*
X1455Y8574D02*
X1464Y8574D01*
X1510Y8574D02*
X1524Y8574D01*
X1539Y8574D02*
X1554Y8574D01*
X1586Y8574D02*
X1602Y8574D01*
X1652Y8574D02*
X1661Y8574D01*
X1678Y8574D02*
X1693Y8574D01*
X318Y8573D02*
X328Y8573D01*
X353Y8573D02*
X363Y8573D01*
X383Y8573D02*
X392Y8573D01*
X423Y8573D02*
X447Y8573D01*
X460Y8573D02*
X470Y8573D01*
X588Y8573D02*
X597Y8573D01*
X640Y8573D02*
X665Y8573D01*
X678Y8573D02*
X688Y8573D01*
X749Y8573D02*
X759Y8573D01*
X785Y8573D02*
X808Y8573D01*
X821Y8573D02*
X832Y8573D01*
X858Y8573D02*
X868Y8573D01*
X895Y8573D02*
X904Y8573D01*
X949Y8573D02*
X958Y8573D01*
X1003Y8573D02*
X1012Y8573D01*
X1040Y8573D02*
X1049Y8573D01*
X1084Y8573D02*
X1093Y8573D01*
X1148Y8573D02*
X1161Y8573D01*
X1181Y8573D02*
X1193Y8573D01*
X1218Y8573D02*
X1243Y8573D01*
X1256Y8573D02*
X1267Y8573D01*
X1364Y8573D02*
X1374Y8573D01*
X1455Y8573D02*
X1464Y8573D01*
X1509Y8573D02*
X1522Y8573D01*
X1542Y8573D02*
X1555Y8573D01*
X1585Y8573D02*
X1599Y8573D01*
X1652Y8573D02*
X1661Y8573D01*
X1677Y8573D02*
X1691Y8573D01*
X318Y8572D02*
X328Y8572D01*
X353Y8572D02*
X363Y8572D01*
X383Y8572D02*
X392Y8572D01*
X423Y8572D02*
X445Y8572D01*
X461Y8572D02*
X471Y8572D01*
X588Y8572D02*
X597Y8572D01*
X640Y8572D02*
X663Y8572D01*
X679Y8572D02*
X689Y8572D01*
X750Y8572D02*
X760Y8572D01*
X785Y8572D02*
X807Y8572D01*
X822Y8572D02*
X832Y8572D01*
X858Y8572D02*
X867Y8572D01*
X896Y8572D02*
X904Y8572D01*
X949Y8572D02*
X958Y8572D01*
X1003Y8572D02*
X1012Y8572D01*
X1041Y8572D02*
X1048Y8572D01*
X1084Y8572D02*
X1093Y8572D01*
X1148Y8572D02*
X1159Y8572D01*
X1182Y8572D02*
X1194Y8572D01*
X1218Y8572D02*
X1242Y8572D01*
X1257Y8572D02*
X1267Y8572D01*
X1364Y8572D02*
X1373Y8572D01*
X1455Y8572D02*
X1464Y8572D01*
X1509Y8572D02*
X1521Y8572D01*
X1543Y8572D02*
X1555Y8572D01*
X1584Y8572D02*
X1598Y8572D01*
X1652Y8572D02*
X1661Y8572D01*
X1676Y8572D02*
X1690Y8572D01*
X286Y8571D02*
X327Y8571D01*
X353Y8571D02*
X363Y8571D01*
X383Y8571D02*
X392Y8571D01*
X423Y8571D02*
X444Y8571D01*
X461Y8571D02*
X471Y8571D01*
X588Y8571D02*
X597Y8571D01*
X640Y8571D02*
X662Y8571D01*
X679Y8571D02*
X689Y8571D01*
X750Y8571D02*
X760Y8571D01*
X785Y8571D02*
X805Y8571D01*
X823Y8571D02*
X832Y8571D01*
X858Y8571D02*
X867Y8571D01*
X898Y8571D02*
X903Y8571D01*
X949Y8571D02*
X958Y8571D01*
X1003Y8571D02*
X1012Y8571D01*
X1042Y8571D02*
X1047Y8571D01*
X1084Y8571D02*
X1093Y8571D01*
X1147Y8571D02*
X1158Y8571D01*
X1183Y8571D02*
X1194Y8571D01*
X1218Y8571D02*
X1241Y8571D01*
X1258Y8571D02*
X1267Y8571D01*
X1364Y8571D02*
X1373Y8571D01*
X1455Y8571D02*
X1464Y8571D01*
X1509Y8571D02*
X1520Y8571D01*
X1545Y8571D02*
X1556Y8571D01*
X1583Y8571D02*
X1597Y8571D01*
X1652Y8571D02*
X1661Y8571D01*
X1675Y8571D02*
X1689Y8571D01*
X284Y8570D02*
X327Y8570D01*
X353Y8570D02*
X363Y8570D01*
X383Y8570D02*
X392Y8570D01*
X423Y8570D02*
X442Y8570D01*
X462Y8570D02*
X471Y8570D01*
X588Y8570D02*
X597Y8570D01*
X640Y8570D02*
X661Y8570D01*
X680Y8570D02*
X689Y8570D01*
X751Y8570D02*
X760Y8570D01*
X785Y8570D02*
X804Y8570D01*
X823Y8570D02*
X832Y8570D01*
X858Y8570D02*
X867Y8570D01*
X900Y8570D02*
X901Y8570D01*
X949Y8570D02*
X958Y8570D01*
X1003Y8570D02*
X1012Y8570D01*
X1044Y8570D02*
X1045Y8570D01*
X1084Y8570D02*
X1093Y8570D01*
X1147Y8570D02*
X1157Y8570D01*
X1184Y8570D02*
X1194Y8570D01*
X1218Y8570D02*
X1239Y8570D01*
X1258Y8570D02*
X1267Y8570D01*
X1363Y8570D02*
X1373Y8570D01*
X1455Y8570D02*
X1464Y8570D01*
X1508Y8570D02*
X1519Y8570D01*
X1546Y8570D02*
X1556Y8570D01*
X1582Y8570D02*
X1596Y8570D01*
X1652Y8570D02*
X1661Y8570D01*
X1673Y8570D02*
X1688Y8570D01*
X282Y8569D02*
X327Y8569D01*
X353Y8569D02*
X363Y8569D01*
X383Y8569D02*
X392Y8569D01*
X423Y8569D02*
X441Y8569D01*
X462Y8569D02*
X471Y8569D01*
X588Y8569D02*
X597Y8569D01*
X640Y8569D02*
X660Y8569D01*
X680Y8569D02*
X689Y8569D01*
X751Y8569D02*
X760Y8569D01*
X785Y8569D02*
X802Y8569D01*
X823Y8569D02*
X832Y8569D01*
X859Y8569D02*
X869Y8569D01*
X949Y8569D02*
X958Y8569D01*
X1003Y8569D02*
X1013Y8569D01*
X1084Y8569D02*
X1093Y8569D01*
X1147Y8569D02*
X1156Y8569D01*
X1185Y8569D02*
X1195Y8569D01*
X1218Y8569D02*
X1238Y8569D01*
X1258Y8569D02*
X1267Y8569D01*
X1363Y8569D02*
X1372Y8569D01*
X1455Y8569D02*
X1464Y8569D01*
X1508Y8569D02*
X1518Y8569D01*
X1546Y8569D02*
X1556Y8569D01*
X1582Y8569D02*
X1595Y8569D01*
X1652Y8569D02*
X1661Y8569D01*
X1672Y8569D02*
X1687Y8569D01*
X281Y8568D02*
X327Y8568D01*
X353Y8568D02*
X363Y8568D01*
X383Y8568D02*
X392Y8568D01*
X423Y8568D02*
X439Y8568D01*
X462Y8568D02*
X471Y8568D01*
X588Y8568D02*
X597Y8568D01*
X640Y8568D02*
X659Y8568D01*
X680Y8568D02*
X689Y8568D01*
X751Y8568D02*
X760Y8568D01*
X785Y8568D02*
X801Y8568D01*
X823Y8568D02*
X832Y8568D01*
X859Y8568D02*
X871Y8568D01*
X949Y8568D02*
X958Y8568D01*
X1003Y8568D02*
X1015Y8568D01*
X1084Y8568D02*
X1093Y8568D01*
X1146Y8568D02*
X1156Y8568D01*
X1185Y8568D02*
X1195Y8568D01*
X1218Y8568D02*
X1237Y8568D01*
X1258Y8568D02*
X1267Y8568D01*
X1363Y8568D02*
X1372Y8568D01*
X1455Y8568D02*
X1464Y8568D01*
X1508Y8568D02*
X1517Y8568D01*
X1547Y8568D02*
X1556Y8568D01*
X1581Y8568D02*
X1594Y8568D01*
X1652Y8568D02*
X1661Y8568D01*
X1671Y8568D02*
X1686Y8568D01*
X281Y8567D02*
X326Y8567D01*
X353Y8567D02*
X363Y8567D01*
X383Y8567D02*
X392Y8567D01*
X423Y8567D02*
X438Y8567D01*
X462Y8567D02*
X471Y8567D01*
X588Y8567D02*
X597Y8567D01*
X640Y8567D02*
X658Y8567D01*
X680Y8567D02*
X689Y8567D01*
X751Y8567D02*
X760Y8567D01*
X785Y8567D02*
X799Y8567D01*
X823Y8567D02*
X832Y8567D01*
X859Y8567D02*
X873Y8567D01*
X949Y8567D02*
X958Y8567D01*
X1004Y8567D02*
X1018Y8567D01*
X1084Y8567D02*
X1093Y8567D01*
X1146Y8567D02*
X1155Y8567D01*
X1186Y8567D02*
X1195Y8567D01*
X1218Y8567D02*
X1236Y8567D01*
X1258Y8567D02*
X1267Y8567D01*
X1363Y8567D02*
X1372Y8567D01*
X1455Y8567D02*
X1464Y8567D01*
X1508Y8567D02*
X1517Y8567D01*
X1547Y8567D02*
X1556Y8567D01*
X1581Y8567D02*
X1592Y8567D01*
X1652Y8567D02*
X1661Y8567D01*
X1670Y8567D02*
X1684Y8567D01*
X280Y8566D02*
X326Y8566D01*
X353Y8566D02*
X363Y8566D01*
X383Y8566D02*
X392Y8566D01*
X423Y8566D02*
X436Y8566D01*
X462Y8566D02*
X471Y8566D01*
X588Y8566D02*
X597Y8566D01*
X640Y8566D02*
X656Y8566D01*
X680Y8566D02*
X689Y8566D01*
X751Y8566D02*
X760Y8566D01*
X785Y8566D02*
X798Y8566D01*
X823Y8566D02*
X832Y8566D01*
X859Y8566D02*
X875Y8566D01*
X949Y8566D02*
X958Y8566D01*
X1004Y8566D02*
X1020Y8566D01*
X1084Y8566D02*
X1093Y8566D01*
X1146Y8566D02*
X1155Y8566D01*
X1186Y8566D02*
X1195Y8566D01*
X1218Y8566D02*
X1235Y8566D01*
X1258Y8566D02*
X1267Y8566D01*
X1363Y8566D02*
X1372Y8566D01*
X1455Y8566D02*
X1464Y8566D01*
X1508Y8566D02*
X1517Y8566D01*
X1547Y8566D02*
X1556Y8566D01*
X1581Y8566D02*
X1591Y8566D01*
X1652Y8566D02*
X1661Y8566D01*
X1669Y8566D02*
X1683Y8566D01*
X279Y8565D02*
X325Y8565D01*
X353Y8565D02*
X363Y8565D01*
X383Y8565D02*
X392Y8565D01*
X423Y8565D02*
X435Y8565D01*
X462Y8565D02*
X471Y8565D01*
X588Y8565D02*
X597Y8565D01*
X640Y8565D02*
X655Y8565D01*
X680Y8565D02*
X689Y8565D01*
X751Y8565D02*
X760Y8565D01*
X785Y8565D02*
X796Y8565D01*
X823Y8565D02*
X832Y8565D01*
X860Y8565D02*
X878Y8565D01*
X949Y8565D02*
X958Y8565D01*
X1005Y8565D02*
X1022Y8565D01*
X1084Y8565D02*
X1093Y8565D01*
X1146Y8565D02*
X1155Y8565D01*
X1186Y8565D02*
X1195Y8565D01*
X1218Y8565D02*
X1234Y8565D01*
X1258Y8565D02*
X1267Y8565D01*
X1363Y8565D02*
X1372Y8565D01*
X1455Y8565D02*
X1464Y8565D01*
X1508Y8565D02*
X1517Y8565D01*
X1547Y8565D02*
X1556Y8565D01*
X1580Y8565D02*
X1590Y8565D01*
X1652Y8565D02*
X1661Y8565D01*
X1668Y8565D02*
X1682Y8565D01*
X279Y8564D02*
X324Y8564D01*
X353Y8564D02*
X363Y8564D01*
X383Y8564D02*
X392Y8564D01*
X423Y8564D02*
X433Y8564D01*
X462Y8564D02*
X471Y8564D01*
X588Y8564D02*
X597Y8564D01*
X640Y8564D02*
X654Y8564D01*
X681Y8564D02*
X688Y8564D01*
X751Y8564D02*
X760Y8564D01*
X785Y8564D02*
X794Y8564D01*
X823Y8564D02*
X832Y8564D01*
X861Y8564D02*
X880Y8564D01*
X949Y8564D02*
X958Y8564D01*
X1005Y8564D02*
X1024Y8564D01*
X1084Y8564D02*
X1093Y8564D01*
X1146Y8564D02*
X1155Y8564D01*
X1186Y8564D02*
X1195Y8564D01*
X1218Y8564D02*
X1232Y8564D01*
X1259Y8564D02*
X1267Y8564D01*
X1363Y8564D02*
X1372Y8564D01*
X1455Y8564D02*
X1464Y8564D01*
X1508Y8564D02*
X1517Y8564D01*
X1547Y8564D02*
X1556Y8564D01*
X1580Y8564D02*
X1589Y8564D01*
X1652Y8564D02*
X1661Y8564D01*
X1666Y8564D02*
X1681Y8564D01*
X279Y8563D02*
X323Y8563D01*
X353Y8563D02*
X393Y8563D01*
X423Y8563D02*
X432Y8563D01*
X462Y8563D02*
X471Y8563D01*
X588Y8563D02*
X597Y8563D01*
X640Y8563D02*
X653Y8563D01*
X681Y8563D02*
X688Y8563D01*
X728Y8563D02*
X745Y8563D01*
X751Y8563D02*
X760Y8563D01*
X785Y8563D02*
X794Y8563D01*
X823Y8563D02*
X832Y8563D01*
X861Y8563D02*
X882Y8563D01*
X949Y8563D02*
X958Y8563D01*
X1006Y8563D02*
X1027Y8563D01*
X1084Y8563D02*
X1093Y8563D01*
X1146Y8563D02*
X1155Y8563D01*
X1186Y8563D02*
X1195Y8563D01*
X1218Y8563D02*
X1231Y8563D01*
X1260Y8563D02*
X1266Y8563D01*
X1363Y8563D02*
X1373Y8563D01*
X1455Y8563D02*
X1464Y8563D01*
X1508Y8563D02*
X1517Y8563D01*
X1547Y8563D02*
X1556Y8563D01*
X1580Y8563D02*
X1589Y8563D01*
X1652Y8563D02*
X1661Y8563D01*
X1665Y8563D02*
X1680Y8563D01*
X279Y8562D02*
X321Y8562D01*
X353Y8562D02*
X395Y8562D01*
X423Y8562D02*
X432Y8562D01*
X462Y8562D02*
X471Y8562D01*
X588Y8562D02*
X597Y8562D01*
X640Y8562D02*
X652Y8562D01*
X683Y8562D02*
X686Y8562D01*
X722Y8562D02*
X760Y8562D01*
X785Y8562D02*
X794Y8562D01*
X823Y8562D02*
X832Y8562D01*
X862Y8562D02*
X885Y8562D01*
X949Y8562D02*
X958Y8562D01*
X1007Y8562D02*
X1029Y8562D01*
X1084Y8562D02*
X1093Y8562D01*
X1146Y8562D02*
X1155Y8562D01*
X1186Y8562D02*
X1195Y8562D01*
X1218Y8562D02*
X1230Y8562D01*
X1261Y8562D02*
X1264Y8562D01*
X1363Y8562D02*
X1373Y8562D01*
X1455Y8562D02*
X1464Y8562D01*
X1508Y8562D02*
X1517Y8562D01*
X1547Y8562D02*
X1556Y8562D01*
X1580Y8562D02*
X1589Y8562D01*
X1652Y8562D02*
X1661Y8562D01*
X1664Y8562D02*
X1679Y8562D01*
X279Y8561D02*
X288Y8561D01*
X353Y8561D02*
X396Y8561D01*
X423Y8561D02*
X432Y8561D01*
X462Y8561D02*
X471Y8561D01*
X588Y8561D02*
X597Y8561D01*
X640Y8561D02*
X651Y8561D01*
X720Y8561D02*
X760Y8561D01*
X785Y8561D02*
X794Y8561D01*
X823Y8561D02*
X833Y8561D01*
X863Y8561D02*
X887Y8561D01*
X949Y8561D02*
X958Y8561D01*
X1008Y8561D02*
X1031Y8561D01*
X1084Y8561D02*
X1093Y8561D01*
X1146Y8561D02*
X1155Y8561D01*
X1186Y8561D02*
X1195Y8561D01*
X1218Y8561D02*
X1229Y8561D01*
X1364Y8561D02*
X1373Y8561D01*
X1455Y8561D02*
X1464Y8561D01*
X1508Y8561D02*
X1517Y8561D01*
X1547Y8561D02*
X1556Y8561D01*
X1580Y8561D02*
X1589Y8561D01*
X1652Y8561D02*
X1677Y8561D01*
X279Y8560D02*
X288Y8560D01*
X353Y8560D02*
X397Y8560D01*
X423Y8560D02*
X432Y8560D01*
X462Y8560D02*
X471Y8560D01*
X588Y8560D02*
X597Y8560D01*
X640Y8560D02*
X650Y8560D01*
X719Y8560D02*
X760Y8560D01*
X785Y8560D02*
X794Y8560D01*
X823Y8560D02*
X833Y8560D01*
X865Y8560D02*
X889Y8560D01*
X949Y8560D02*
X958Y8560D01*
X1010Y8560D02*
X1034Y8560D01*
X1084Y8560D02*
X1093Y8560D01*
X1146Y8560D02*
X1155Y8560D01*
X1186Y8560D02*
X1195Y8560D01*
X1218Y8560D02*
X1228Y8560D01*
X1364Y8560D02*
X1374Y8560D01*
X1455Y8560D02*
X1464Y8560D01*
X1508Y8560D02*
X1517Y8560D01*
X1547Y8560D02*
X1556Y8560D01*
X1580Y8560D02*
X1589Y8560D01*
X1652Y8560D02*
X1676Y8560D01*
X279Y8559D02*
X288Y8559D01*
X353Y8559D02*
X397Y8559D01*
X423Y8559D02*
X432Y8559D01*
X462Y8559D02*
X471Y8559D01*
X588Y8559D02*
X597Y8559D01*
X640Y8559D02*
X649Y8559D01*
X717Y8559D02*
X760Y8559D01*
X785Y8559D02*
X794Y8559D01*
X823Y8559D02*
X833Y8559D01*
X867Y8559D02*
X891Y8559D01*
X949Y8559D02*
X958Y8559D01*
X1012Y8559D02*
X1036Y8559D01*
X1084Y8559D02*
X1093Y8559D01*
X1146Y8559D02*
X1155Y8559D01*
X1186Y8559D02*
X1195Y8559D01*
X1218Y8559D02*
X1228Y8559D01*
X1364Y8559D02*
X1374Y8559D01*
X1455Y8559D02*
X1464Y8559D01*
X1508Y8559D02*
X1517Y8559D01*
X1547Y8559D02*
X1556Y8559D01*
X1580Y8559D02*
X1589Y8559D01*
X1652Y8559D02*
X1675Y8559D01*
X279Y8558D02*
X288Y8558D01*
X353Y8558D02*
X397Y8558D01*
X423Y8558D02*
X432Y8558D01*
X462Y8558D02*
X471Y8558D01*
X588Y8558D02*
X597Y8558D01*
X640Y8558D02*
X649Y8558D01*
X716Y8558D02*
X760Y8558D01*
X785Y8558D02*
X794Y8558D01*
X824Y8558D02*
X833Y8558D01*
X869Y8558D02*
X894Y8558D01*
X949Y8558D02*
X958Y8558D01*
X1014Y8558D02*
X1038Y8558D01*
X1084Y8558D02*
X1093Y8558D01*
X1146Y8558D02*
X1155Y8558D01*
X1186Y8558D02*
X1195Y8558D01*
X1218Y8558D02*
X1228Y8558D01*
X1365Y8558D02*
X1375Y8558D01*
X1455Y8558D02*
X1464Y8558D01*
X1508Y8558D02*
X1517Y8558D01*
X1547Y8558D02*
X1556Y8558D01*
X1580Y8558D02*
X1589Y8558D01*
X1652Y8558D02*
X1674Y8558D01*
X279Y8557D02*
X288Y8557D01*
X353Y8557D02*
X397Y8557D01*
X423Y8557D02*
X432Y8557D01*
X462Y8557D02*
X471Y8557D01*
X588Y8557D02*
X597Y8557D01*
X640Y8557D02*
X649Y8557D01*
X716Y8557D02*
X760Y8557D01*
X785Y8557D02*
X794Y8557D01*
X824Y8557D02*
X833Y8557D01*
X872Y8557D02*
X896Y8557D01*
X949Y8557D02*
X958Y8557D01*
X1016Y8557D02*
X1041Y8557D01*
X1084Y8557D02*
X1093Y8557D01*
X1146Y8557D02*
X1155Y8557D01*
X1186Y8557D02*
X1195Y8557D01*
X1218Y8557D02*
X1228Y8557D01*
X1365Y8557D02*
X1375Y8557D01*
X1455Y8557D02*
X1464Y8557D01*
X1508Y8557D02*
X1517Y8557D01*
X1547Y8557D02*
X1556Y8557D01*
X1580Y8557D02*
X1589Y8557D01*
X1652Y8557D02*
X1675Y8557D01*
X279Y8556D02*
X288Y8556D01*
X353Y8556D02*
X397Y8556D01*
X423Y8556D02*
X432Y8556D01*
X462Y8556D02*
X471Y8556D01*
X588Y8556D02*
X597Y8556D01*
X640Y8556D02*
X649Y8556D01*
X715Y8556D02*
X760Y8556D01*
X785Y8556D02*
X794Y8556D01*
X824Y8556D02*
X833Y8556D01*
X874Y8556D02*
X898Y8556D01*
X949Y8556D02*
X958Y8556D01*
X1019Y8556D02*
X1043Y8556D01*
X1084Y8556D02*
X1093Y8556D01*
X1146Y8556D02*
X1155Y8556D01*
X1186Y8556D02*
X1195Y8556D01*
X1218Y8556D02*
X1228Y8556D01*
X1365Y8556D02*
X1376Y8556D01*
X1455Y8556D02*
X1464Y8556D01*
X1508Y8556D02*
X1517Y8556D01*
X1547Y8556D02*
X1556Y8556D01*
X1580Y8556D02*
X1589Y8556D01*
X1652Y8556D02*
X1676Y8556D01*
X279Y8555D02*
X288Y8555D01*
X353Y8555D02*
X396Y8555D01*
X423Y8555D02*
X432Y8555D01*
X462Y8555D02*
X471Y8555D01*
X588Y8555D02*
X597Y8555D01*
X640Y8555D02*
X649Y8555D01*
X714Y8555D02*
X760Y8555D01*
X785Y8555D02*
X794Y8555D01*
X824Y8555D02*
X833Y8555D01*
X876Y8555D02*
X899Y8555D01*
X949Y8555D02*
X958Y8555D01*
X1021Y8555D02*
X1044Y8555D01*
X1084Y8555D02*
X1093Y8555D01*
X1146Y8555D02*
X1155Y8555D01*
X1186Y8555D02*
X1195Y8555D01*
X1218Y8555D02*
X1228Y8555D01*
X1366Y8555D02*
X1376Y8555D01*
X1455Y8555D02*
X1464Y8555D01*
X1508Y8555D02*
X1517Y8555D01*
X1547Y8555D02*
X1556Y8555D01*
X1580Y8555D02*
X1589Y8555D01*
X1652Y8555D02*
X1677Y8555D01*
X279Y8554D02*
X288Y8554D01*
X353Y8554D02*
X395Y8554D01*
X423Y8554D02*
X432Y8554D01*
X462Y8554D02*
X471Y8554D01*
X588Y8554D02*
X597Y8554D01*
X640Y8554D02*
X649Y8554D01*
X714Y8554D02*
X760Y8554D01*
X785Y8554D02*
X794Y8554D01*
X824Y8554D02*
X833Y8554D01*
X879Y8554D02*
X901Y8554D01*
X949Y8554D02*
X958Y8554D01*
X1023Y8554D02*
X1045Y8554D01*
X1084Y8554D02*
X1093Y8554D01*
X1146Y8554D02*
X1155Y8554D01*
X1186Y8554D02*
X1195Y8554D01*
X1218Y8554D02*
X1228Y8554D01*
X1366Y8554D02*
X1377Y8554D01*
X1455Y8554D02*
X1464Y8554D01*
X1508Y8554D02*
X1517Y8554D01*
X1547Y8554D02*
X1556Y8554D01*
X1580Y8554D02*
X1589Y8554D01*
X1652Y8554D02*
X1678Y8554D01*
X279Y8553D02*
X288Y8553D01*
X354Y8553D02*
X393Y8553D01*
X423Y8553D02*
X432Y8553D01*
X462Y8553D02*
X471Y8553D01*
X588Y8553D02*
X597Y8553D01*
X640Y8553D02*
X649Y8553D01*
X713Y8553D02*
X761Y8553D01*
X785Y8553D02*
X794Y8553D01*
X824Y8553D02*
X833Y8553D01*
X881Y8553D02*
X902Y8553D01*
X949Y8553D02*
X958Y8553D01*
X1026Y8553D02*
X1046Y8553D01*
X1084Y8553D02*
X1093Y8553D01*
X1146Y8553D02*
X1155Y8553D01*
X1186Y8553D02*
X1195Y8553D01*
X1218Y8553D02*
X1228Y8553D01*
X1367Y8553D02*
X1377Y8553D01*
X1455Y8553D02*
X1464Y8553D01*
X1508Y8553D02*
X1517Y8553D01*
X1547Y8553D02*
X1556Y8553D01*
X1580Y8553D02*
X1589Y8553D01*
X1652Y8553D02*
X1680Y8553D01*
X279Y8552D02*
X288Y8552D01*
X383Y8552D02*
X392Y8552D01*
X423Y8552D02*
X432Y8552D01*
X462Y8552D02*
X471Y8552D01*
X588Y8552D02*
X597Y8552D01*
X640Y8552D02*
X649Y8552D01*
X713Y8552D02*
X724Y8552D01*
X749Y8552D02*
X761Y8552D01*
X785Y8552D02*
X794Y8552D01*
X824Y8552D02*
X833Y8552D01*
X883Y8552D02*
X902Y8552D01*
X949Y8552D02*
X958Y8552D01*
X1028Y8552D02*
X1047Y8552D01*
X1084Y8552D02*
X1093Y8552D01*
X1146Y8552D02*
X1155Y8552D01*
X1186Y8552D02*
X1195Y8552D01*
X1218Y8552D02*
X1228Y8552D01*
X1367Y8552D02*
X1378Y8552D01*
X1455Y8552D02*
X1464Y8552D01*
X1508Y8552D02*
X1517Y8552D01*
X1547Y8552D02*
X1556Y8552D01*
X1580Y8552D02*
X1589Y8552D01*
X1652Y8552D02*
X1681Y8552D01*
X279Y8551D02*
X288Y8551D01*
X383Y8551D02*
X392Y8551D01*
X423Y8551D02*
X432Y8551D01*
X462Y8551D02*
X471Y8551D01*
X588Y8551D02*
X597Y8551D01*
X640Y8551D02*
X649Y8551D01*
X713Y8551D02*
X723Y8551D01*
X750Y8551D02*
X761Y8551D01*
X785Y8551D02*
X794Y8551D01*
X824Y8551D02*
X833Y8551D01*
X886Y8551D02*
X903Y8551D01*
X949Y8551D02*
X958Y8551D01*
X1030Y8551D02*
X1048Y8551D01*
X1084Y8551D02*
X1093Y8551D01*
X1146Y8551D02*
X1155Y8551D01*
X1186Y8551D02*
X1195Y8551D01*
X1218Y8551D02*
X1228Y8551D01*
X1368Y8551D02*
X1378Y8551D01*
X1455Y8551D02*
X1464Y8551D01*
X1508Y8551D02*
X1517Y8551D01*
X1547Y8551D02*
X1556Y8551D01*
X1580Y8551D02*
X1589Y8551D01*
X1652Y8551D02*
X1682Y8551D01*
X279Y8550D02*
X288Y8550D01*
X383Y8550D02*
X392Y8550D01*
X423Y8550D02*
X432Y8550D01*
X462Y8550D02*
X471Y8550D01*
X588Y8550D02*
X597Y8550D01*
X640Y8550D02*
X649Y8550D01*
X713Y8550D02*
X722Y8550D01*
X751Y8550D02*
X761Y8550D01*
X785Y8550D02*
X794Y8550D01*
X824Y8550D02*
X833Y8550D01*
X888Y8550D02*
X904Y8550D01*
X949Y8550D02*
X958Y8550D01*
X1033Y8550D02*
X1048Y8550D01*
X1084Y8550D02*
X1093Y8550D01*
X1146Y8550D02*
X1155Y8550D01*
X1186Y8550D02*
X1195Y8550D01*
X1218Y8550D02*
X1228Y8550D01*
X1368Y8550D02*
X1379Y8550D01*
X1455Y8550D02*
X1464Y8550D01*
X1508Y8550D02*
X1517Y8550D01*
X1547Y8550D02*
X1556Y8550D01*
X1580Y8550D02*
X1589Y8550D01*
X1652Y8550D02*
X1665Y8550D01*
X1669Y8550D02*
X1683Y8550D01*
X279Y8549D02*
X288Y8549D01*
X383Y8549D02*
X392Y8549D01*
X423Y8549D02*
X432Y8549D01*
X462Y8549D02*
X471Y8549D01*
X588Y8549D02*
X597Y8549D01*
X640Y8549D02*
X649Y8549D01*
X713Y8549D02*
X722Y8549D01*
X751Y8549D02*
X761Y8549D01*
X785Y8549D02*
X794Y8549D01*
X824Y8549D02*
X833Y8549D01*
X890Y8549D02*
X904Y8549D01*
X949Y8549D02*
X958Y8549D01*
X1035Y8549D02*
X1049Y8549D01*
X1084Y8549D02*
X1093Y8549D01*
X1146Y8549D02*
X1155Y8549D01*
X1186Y8549D02*
X1195Y8549D01*
X1218Y8549D02*
X1228Y8549D01*
X1369Y8549D02*
X1379Y8549D01*
X1455Y8549D02*
X1464Y8549D01*
X1508Y8549D02*
X1517Y8549D01*
X1547Y8549D02*
X1556Y8549D01*
X1580Y8549D02*
X1589Y8549D01*
X1652Y8549D02*
X1663Y8549D01*
X1670Y8549D02*
X1684Y8549D01*
X279Y8548D02*
X288Y8548D01*
X383Y8548D02*
X392Y8548D01*
X423Y8548D02*
X432Y8548D01*
X462Y8548D02*
X471Y8548D01*
X588Y8548D02*
X597Y8548D01*
X640Y8548D02*
X649Y8548D01*
X712Y8548D02*
X722Y8548D01*
X752Y8548D02*
X761Y8548D01*
X785Y8548D02*
X794Y8548D01*
X824Y8548D02*
X833Y8548D01*
X893Y8548D02*
X905Y8548D01*
X949Y8548D02*
X958Y8548D01*
X1037Y8548D02*
X1049Y8548D01*
X1084Y8548D02*
X1093Y8548D01*
X1146Y8548D02*
X1155Y8548D01*
X1186Y8548D02*
X1195Y8548D01*
X1218Y8548D02*
X1228Y8548D01*
X1369Y8548D02*
X1380Y8548D01*
X1455Y8548D02*
X1464Y8548D01*
X1508Y8548D02*
X1517Y8548D01*
X1547Y8548D02*
X1556Y8548D01*
X1580Y8548D02*
X1589Y8548D01*
X1652Y8548D02*
X1662Y8548D01*
X1671Y8548D02*
X1685Y8548D01*
X279Y8547D02*
X288Y8547D01*
X383Y8547D02*
X392Y8547D01*
X423Y8547D02*
X432Y8547D01*
X462Y8547D02*
X472Y8547D01*
X588Y8547D02*
X597Y8547D01*
X640Y8547D02*
X649Y8547D01*
X712Y8547D02*
X722Y8547D01*
X752Y8547D02*
X761Y8547D01*
X785Y8547D02*
X794Y8547D01*
X824Y8547D02*
X833Y8547D01*
X894Y8547D02*
X905Y8547D01*
X949Y8547D02*
X958Y8547D01*
X1039Y8547D02*
X1050Y8547D01*
X1084Y8547D02*
X1093Y8547D01*
X1146Y8547D02*
X1155Y8547D01*
X1186Y8547D02*
X1195Y8547D01*
X1218Y8547D02*
X1228Y8547D01*
X1370Y8547D02*
X1380Y8547D01*
X1455Y8547D02*
X1464Y8547D01*
X1508Y8547D02*
X1517Y8547D01*
X1547Y8547D02*
X1556Y8547D01*
X1580Y8547D02*
X1590Y8547D01*
X1652Y8547D02*
X1661Y8547D01*
X1672Y8547D02*
X1687Y8547D01*
X279Y8546D02*
X288Y8546D01*
X383Y8546D02*
X392Y8546D01*
X423Y8546D02*
X432Y8546D01*
X462Y8546D02*
X472Y8546D01*
X588Y8546D02*
X597Y8546D01*
X640Y8546D02*
X649Y8546D01*
X712Y8546D02*
X722Y8546D01*
X752Y8546D02*
X761Y8546D01*
X785Y8546D02*
X794Y8546D01*
X824Y8546D02*
X833Y8546D01*
X895Y8546D02*
X905Y8546D01*
X949Y8546D02*
X958Y8546D01*
X1040Y8546D02*
X1050Y8546D01*
X1084Y8546D02*
X1093Y8546D01*
X1146Y8546D02*
X1155Y8546D01*
X1186Y8546D02*
X1195Y8546D01*
X1218Y8546D02*
X1228Y8546D01*
X1370Y8546D02*
X1381Y8546D01*
X1455Y8546D02*
X1464Y8546D01*
X1508Y8546D02*
X1517Y8546D01*
X1547Y8546D02*
X1556Y8546D01*
X1580Y8546D02*
X1591Y8546D01*
X1652Y8546D02*
X1661Y8546D01*
X1673Y8546D02*
X1688Y8546D01*
X279Y8545D02*
X288Y8545D01*
X383Y8545D02*
X392Y8545D01*
X423Y8545D02*
X432Y8545D01*
X463Y8545D02*
X472Y8545D01*
X588Y8545D02*
X597Y8545D01*
X640Y8545D02*
X649Y8545D01*
X712Y8545D02*
X722Y8545D01*
X752Y8545D02*
X761Y8545D01*
X785Y8545D02*
X794Y8545D01*
X824Y8545D02*
X833Y8545D01*
X896Y8545D02*
X905Y8545D01*
X949Y8545D02*
X958Y8545D01*
X1041Y8545D02*
X1050Y8545D01*
X1084Y8545D02*
X1093Y8545D01*
X1116Y8545D02*
X1120Y8545D01*
X1146Y8545D02*
X1155Y8545D01*
X1186Y8545D02*
X1195Y8545D01*
X1218Y8545D02*
X1228Y8545D01*
X1371Y8545D02*
X1381Y8545D01*
X1455Y8545D02*
X1464Y8545D01*
X1508Y8545D02*
X1517Y8545D01*
X1547Y8545D02*
X1556Y8545D01*
X1581Y8545D02*
X1592Y8545D01*
X1652Y8545D02*
X1661Y8545D01*
X1674Y8545D02*
X1689Y8545D01*
X279Y8544D02*
X288Y8544D01*
X383Y8544D02*
X392Y8544D01*
X423Y8544D02*
X432Y8544D01*
X463Y8544D02*
X472Y8544D01*
X588Y8544D02*
X597Y8544D01*
X640Y8544D02*
X649Y8544D01*
X712Y8544D02*
X722Y8544D01*
X751Y8544D02*
X761Y8544D01*
X785Y8544D02*
X794Y8544D01*
X824Y8544D02*
X833Y8544D01*
X896Y8544D02*
X906Y8544D01*
X949Y8544D02*
X958Y8544D01*
X1041Y8544D02*
X1050Y8544D01*
X1084Y8544D02*
X1093Y8544D01*
X1115Y8544D02*
X1122Y8544D01*
X1146Y8544D02*
X1156Y8544D01*
X1186Y8544D02*
X1195Y8544D01*
X1218Y8544D02*
X1228Y8544D01*
X1371Y8544D02*
X1382Y8544D01*
X1455Y8544D02*
X1464Y8544D01*
X1508Y8544D02*
X1517Y8544D01*
X1547Y8544D02*
X1556Y8544D01*
X1581Y8544D02*
X1593Y8544D01*
X1652Y8544D02*
X1661Y8544D01*
X1676Y8544D02*
X1690Y8544D01*
X279Y8543D02*
X288Y8543D01*
X383Y8543D02*
X392Y8543D01*
X423Y8543D02*
X432Y8543D01*
X463Y8543D02*
X472Y8543D01*
X588Y8543D02*
X597Y8543D01*
X640Y8543D02*
X649Y8543D01*
X712Y8543D02*
X722Y8543D01*
X750Y8543D02*
X761Y8543D01*
X785Y8543D02*
X794Y8543D01*
X824Y8543D02*
X833Y8543D01*
X896Y8543D02*
X906Y8543D01*
X949Y8543D02*
X958Y8543D01*
X1041Y8543D02*
X1050Y8543D01*
X1084Y8543D02*
X1093Y8543D01*
X1114Y8543D02*
X1122Y8543D01*
X1146Y8543D02*
X1156Y8543D01*
X1185Y8543D02*
X1195Y8543D01*
X1218Y8543D02*
X1228Y8543D01*
X1372Y8543D02*
X1382Y8543D01*
X1455Y8543D02*
X1464Y8543D01*
X1508Y8543D02*
X1517Y8543D01*
X1547Y8543D02*
X1556Y8543D01*
X1581Y8543D02*
X1594Y8543D01*
X1652Y8543D02*
X1661Y8543D01*
X1677Y8543D02*
X1691Y8543D01*
X279Y8542D02*
X288Y8542D01*
X383Y8542D02*
X392Y8542D01*
X423Y8542D02*
X432Y8542D01*
X463Y8542D02*
X472Y8542D01*
X588Y8542D02*
X597Y8542D01*
X640Y8542D02*
X649Y8542D01*
X712Y8542D02*
X722Y8542D01*
X748Y8542D02*
X761Y8542D01*
X785Y8542D02*
X794Y8542D01*
X824Y8542D02*
X833Y8542D01*
X896Y8542D02*
X906Y8542D01*
X949Y8542D02*
X958Y8542D01*
X1041Y8542D02*
X1050Y8542D01*
X1084Y8542D02*
X1093Y8542D01*
X1114Y8542D02*
X1122Y8542D01*
X1147Y8542D02*
X1157Y8542D01*
X1184Y8542D02*
X1195Y8542D01*
X1218Y8542D02*
X1228Y8542D01*
X1372Y8542D02*
X1383Y8542D01*
X1455Y8542D02*
X1464Y8542D01*
X1508Y8542D02*
X1518Y8542D01*
X1546Y8542D02*
X1556Y8542D01*
X1582Y8542D02*
X1595Y8542D01*
X1652Y8542D02*
X1661Y8542D01*
X1678Y8542D02*
X1692Y8542D01*
X279Y8541D02*
X288Y8541D01*
X383Y8541D02*
X392Y8541D01*
X423Y8541D02*
X432Y8541D01*
X463Y8541D02*
X472Y8541D01*
X588Y8541D02*
X597Y8541D01*
X640Y8541D02*
X649Y8541D01*
X713Y8541D02*
X722Y8541D01*
X747Y8541D02*
X761Y8541D01*
X785Y8541D02*
X794Y8541D01*
X824Y8541D02*
X833Y8541D01*
X860Y8541D02*
X863Y8541D01*
X896Y8541D02*
X905Y8541D01*
X949Y8541D02*
X958Y8541D01*
X1004Y8541D02*
X1008Y8541D01*
X1041Y8541D02*
X1050Y8541D01*
X1084Y8541D02*
X1093Y8541D01*
X1113Y8541D02*
X1123Y8541D01*
X1147Y8541D02*
X1158Y8541D01*
X1183Y8541D02*
X1194Y8541D01*
X1218Y8541D02*
X1228Y8541D01*
X1373Y8541D02*
X1383Y8541D01*
X1455Y8541D02*
X1464Y8541D01*
X1508Y8541D02*
X1519Y8541D01*
X1545Y8541D02*
X1556Y8541D01*
X1583Y8541D02*
X1597Y8541D01*
X1652Y8541D02*
X1661Y8541D01*
X1679Y8541D02*
X1694Y8541D01*
X279Y8540D02*
X288Y8540D01*
X383Y8540D02*
X392Y8540D01*
X423Y8540D02*
X432Y8540D01*
X463Y8540D02*
X472Y8540D01*
X588Y8540D02*
X597Y8540D01*
X640Y8540D02*
X649Y8540D01*
X713Y8540D02*
X722Y8540D01*
X745Y8540D02*
X761Y8540D01*
X785Y8540D02*
X794Y8540D01*
X824Y8540D02*
X833Y8540D01*
X858Y8540D02*
X865Y8540D01*
X896Y8540D02*
X905Y8540D01*
X949Y8540D02*
X958Y8540D01*
X1003Y8540D02*
X1010Y8540D01*
X1040Y8540D02*
X1050Y8540D01*
X1084Y8540D02*
X1094Y8540D01*
X1113Y8540D02*
X1123Y8540D01*
X1147Y8540D02*
X1159Y8540D01*
X1182Y8540D02*
X1194Y8540D01*
X1218Y8540D02*
X1228Y8540D01*
X1373Y8540D02*
X1384Y8540D01*
X1455Y8540D02*
X1464Y8540D01*
X1509Y8540D02*
X1520Y8540D01*
X1544Y8540D02*
X1555Y8540D01*
X1584Y8540D02*
X1598Y8540D01*
X1652Y8540D02*
X1661Y8540D01*
X1680Y8540D02*
X1695Y8540D01*
X279Y8539D02*
X288Y8539D01*
X383Y8539D02*
X392Y8539D01*
X423Y8539D02*
X432Y8539D01*
X463Y8539D02*
X472Y8539D01*
X588Y8539D02*
X597Y8539D01*
X640Y8539D02*
X649Y8539D01*
X713Y8539D02*
X723Y8539D01*
X743Y8539D02*
X761Y8539D01*
X785Y8539D02*
X794Y8539D01*
X824Y8539D02*
X833Y8539D01*
X858Y8539D02*
X867Y8539D01*
X895Y8539D02*
X905Y8539D01*
X949Y8539D02*
X958Y8539D01*
X1002Y8539D02*
X1011Y8539D01*
X1039Y8539D02*
X1050Y8539D01*
X1084Y8539D02*
X1094Y8539D01*
X1112Y8539D02*
X1122Y8539D01*
X1148Y8539D02*
X1160Y8539D01*
X1181Y8539D02*
X1193Y8539D01*
X1218Y8539D02*
X1228Y8539D01*
X1374Y8539D02*
X1385Y8539D01*
X1455Y8539D02*
X1464Y8539D01*
X1509Y8539D02*
X1522Y8539D01*
X1542Y8539D02*
X1555Y8539D01*
X1585Y8539D02*
X1599Y8539D01*
X1652Y8539D02*
X1661Y8539D01*
X1681Y8539D02*
X1696Y8539D01*
X279Y8538D02*
X288Y8538D01*
X383Y8538D02*
X392Y8538D01*
X423Y8538D02*
X432Y8538D01*
X463Y8538D02*
X472Y8538D01*
X588Y8538D02*
X597Y8538D01*
X640Y8538D02*
X649Y8538D01*
X713Y8538D02*
X724Y8538D01*
X742Y8538D02*
X761Y8538D01*
X785Y8538D02*
X794Y8538D01*
X824Y8538D02*
X833Y8538D01*
X857Y8538D02*
X869Y8538D01*
X894Y8538D02*
X905Y8538D01*
X949Y8538D02*
X958Y8538D01*
X1002Y8538D02*
X1013Y8538D01*
X1038Y8538D02*
X1049Y8538D01*
X1084Y8538D02*
X1096Y8538D01*
X1111Y8538D02*
X1122Y8538D01*
X1148Y8538D02*
X1162Y8538D01*
X1180Y8538D02*
X1193Y8538D01*
X1218Y8538D02*
X1228Y8538D01*
X1374Y8538D02*
X1386Y8538D01*
X1455Y8538D02*
X1464Y8538D01*
X1510Y8538D02*
X1523Y8538D01*
X1541Y8538D02*
X1554Y8538D01*
X1586Y8538D02*
X1600Y8538D01*
X1652Y8538D02*
X1661Y8538D01*
X1683Y8538D02*
X1697Y8538D01*
X279Y8537D02*
X324Y8537D01*
X383Y8537D02*
X392Y8537D01*
X423Y8537D02*
X432Y8537D01*
X463Y8537D02*
X472Y8537D01*
X588Y8537D02*
X597Y8537D01*
X640Y8537D02*
X649Y8537D01*
X713Y8537D02*
X761Y8537D01*
X785Y8537D02*
X794Y8537D01*
X824Y8537D02*
X833Y8537D01*
X857Y8537D02*
X905Y8537D01*
X937Y8537D02*
X970Y8537D01*
X1002Y8537D02*
X1049Y8537D01*
X1085Y8537D02*
X1122Y8537D01*
X1149Y8537D02*
X1192Y8537D01*
X1218Y8537D02*
X1228Y8537D01*
X1375Y8537D02*
X1409Y8537D01*
X1443Y8537D02*
X1476Y8537D01*
X1510Y8537D02*
X1554Y8537D01*
X1587Y8537D02*
X1626Y8537D01*
X1652Y8537D02*
X1661Y8537D01*
X1684Y8537D02*
X1698Y8537D01*
X279Y8536D02*
X326Y8536D01*
X383Y8536D02*
X392Y8536D01*
X423Y8536D02*
X432Y8536D01*
X463Y8536D02*
X472Y8536D01*
X588Y8536D02*
X597Y8536D01*
X640Y8536D02*
X649Y8536D01*
X714Y8536D02*
X761Y8536D01*
X785Y8536D02*
X794Y8536D01*
X824Y8536D02*
X833Y8536D01*
X857Y8536D02*
X904Y8536D01*
X936Y8536D02*
X972Y8536D01*
X1002Y8536D02*
X1049Y8536D01*
X1085Y8536D02*
X1121Y8536D01*
X1149Y8536D02*
X1191Y8536D01*
X1218Y8536D02*
X1228Y8536D01*
X1376Y8536D02*
X1410Y8536D01*
X1442Y8536D02*
X1478Y8536D01*
X1511Y8536D02*
X1553Y8536D01*
X1588Y8536D02*
X1627Y8536D01*
X1652Y8536D02*
X1661Y8536D01*
X1685Y8536D02*
X1699Y8536D01*
X279Y8535D02*
X327Y8535D01*
X383Y8535D02*
X392Y8535D01*
X423Y8535D02*
X432Y8535D01*
X463Y8535D02*
X472Y8535D01*
X588Y8535D02*
X597Y8535D01*
X640Y8535D02*
X649Y8535D01*
X714Y8535D02*
X761Y8535D01*
X785Y8535D02*
X794Y8535D01*
X824Y8535D02*
X833Y8535D01*
X857Y8535D02*
X904Y8535D01*
X935Y8535D02*
X972Y8535D01*
X1002Y8535D02*
X1048Y8535D01*
X1086Y8535D02*
X1121Y8535D01*
X1150Y8535D02*
X1190Y8535D01*
X1218Y8535D02*
X1228Y8535D01*
X1376Y8535D02*
X1411Y8535D01*
X1441Y8535D02*
X1478Y8535D01*
X1512Y8535D02*
X1552Y8535D01*
X1589Y8535D02*
X1628Y8535D01*
X1652Y8535D02*
X1661Y8535D01*
X1686Y8535D02*
X1700Y8535D01*
X279Y8534D02*
X327Y8534D01*
X383Y8534D02*
X392Y8534D01*
X423Y8534D02*
X432Y8534D01*
X463Y8534D02*
X472Y8534D01*
X588Y8534D02*
X597Y8534D01*
X640Y8534D02*
X649Y8534D01*
X715Y8534D02*
X761Y8534D01*
X785Y8534D02*
X794Y8534D01*
X824Y8534D02*
X833Y8534D01*
X858Y8534D02*
X903Y8534D01*
X935Y8534D02*
X973Y8534D01*
X1002Y8534D02*
X1048Y8534D01*
X1086Y8534D02*
X1120Y8534D01*
X1151Y8534D02*
X1189Y8534D01*
X1218Y8534D02*
X1228Y8534D01*
X1377Y8534D02*
X1412Y8534D01*
X1441Y8534D02*
X1479Y8534D01*
X1513Y8534D02*
X1551Y8534D01*
X1590Y8534D02*
X1628Y8534D01*
X1652Y8534D02*
X1661Y8534D01*
X1687Y8534D02*
X1701Y8534D01*
X279Y8533D02*
X327Y8533D01*
X383Y8533D02*
X392Y8533D01*
X423Y8533D02*
X432Y8533D01*
X463Y8533D02*
X472Y8533D01*
X588Y8533D02*
X597Y8533D01*
X640Y8533D02*
X649Y8533D01*
X716Y8533D02*
X761Y8533D01*
X785Y8533D02*
X794Y8533D01*
X824Y8533D02*
X833Y8533D01*
X859Y8533D02*
X902Y8533D01*
X934Y8533D02*
X973Y8533D01*
X1003Y8533D02*
X1047Y8533D01*
X1087Y8533D02*
X1119Y8533D01*
X1153Y8533D02*
X1188Y8533D01*
X1218Y8533D02*
X1228Y8533D01*
X1377Y8533D02*
X1412Y8533D01*
X1440Y8533D02*
X1479Y8533D01*
X1514Y8533D02*
X1550Y8533D01*
X1591Y8533D02*
X1629Y8533D01*
X1652Y8533D02*
X1661Y8533D01*
X1688Y8533D02*
X1701Y8533D01*
X279Y8532D02*
X327Y8532D01*
X383Y8532D02*
X392Y8532D01*
X423Y8532D02*
X432Y8532D01*
X463Y8532D02*
X472Y8532D01*
X588Y8532D02*
X597Y8532D01*
X640Y8532D02*
X649Y8532D01*
X717Y8532D02*
X750Y8532D01*
X752Y8532D02*
X761Y8532D01*
X785Y8532D02*
X794Y8532D01*
X824Y8532D02*
X833Y8532D01*
X860Y8532D02*
X901Y8532D01*
X934Y8532D02*
X973Y8532D01*
X1004Y8532D02*
X1046Y8532D01*
X1088Y8532D02*
X1118Y8532D01*
X1154Y8532D02*
X1187Y8532D01*
X1219Y8532D02*
X1227Y8532D01*
X1378Y8532D02*
X1412Y8532D01*
X1440Y8532D02*
X1479Y8532D01*
X1515Y8532D02*
X1549Y8532D01*
X1593Y8532D02*
X1629Y8532D01*
X1652Y8532D02*
X1661Y8532D01*
X1690Y8532D02*
X1701Y8532D01*
X279Y8531D02*
X327Y8531D01*
X383Y8531D02*
X392Y8531D01*
X424Y8531D02*
X432Y8531D01*
X463Y8531D02*
X472Y8531D01*
X588Y8531D02*
X596Y8531D01*
X640Y8531D02*
X649Y8531D01*
X718Y8531D02*
X749Y8531D01*
X752Y8531D02*
X761Y8531D01*
X785Y8531D02*
X794Y8531D01*
X825Y8531D02*
X833Y8531D01*
X861Y8531D02*
X900Y8531D01*
X934Y8531D02*
X973Y8531D01*
X1006Y8531D02*
X1045Y8531D01*
X1089Y8531D02*
X1117Y8531D01*
X1155Y8531D02*
X1186Y8531D01*
X1219Y8531D02*
X1227Y8531D01*
X1379Y8531D02*
X1412Y8531D01*
X1440Y8531D02*
X1479Y8531D01*
X1516Y8531D02*
X1547Y8531D01*
X1594Y8531D02*
X1628Y8531D01*
X1652Y8531D02*
X1661Y8531D01*
X1691Y8531D02*
X1701Y8531D01*
X279Y8530D02*
X327Y8530D01*
X384Y8530D02*
X392Y8530D01*
X424Y8530D02*
X432Y8530D01*
X464Y8530D02*
X471Y8530D01*
X588Y8530D02*
X596Y8530D01*
X641Y8530D02*
X649Y8530D01*
X719Y8530D02*
X747Y8530D01*
X753Y8530D02*
X761Y8530D01*
X785Y8530D02*
X793Y8530D01*
X825Y8530D02*
X833Y8530D01*
X863Y8530D02*
X899Y8530D01*
X935Y8530D02*
X972Y8530D01*
X1007Y8530D02*
X1043Y8530D01*
X1090Y8530D02*
X1116Y8530D01*
X1156Y8530D02*
X1185Y8530D01*
X1219Y8530D02*
X1227Y8530D01*
X1381Y8530D02*
X1411Y8530D01*
X1441Y8530D02*
X1478Y8530D01*
X1518Y8530D02*
X1546Y8530D01*
X1595Y8530D02*
X1628Y8530D01*
X1653Y8530D02*
X1661Y8530D01*
X1692Y8530D02*
X1700Y8530D01*
X279Y8529D02*
X326Y8529D01*
X385Y8529D02*
X391Y8529D01*
X425Y8529D02*
X431Y8529D01*
X464Y8529D02*
X471Y8529D01*
X589Y8529D02*
X595Y8529D01*
X642Y8529D02*
X648Y8529D01*
X721Y8529D02*
X745Y8529D01*
X754Y8529D02*
X760Y8529D01*
X786Y8529D02*
X792Y8529D01*
X826Y8529D02*
X832Y8529D01*
X865Y8529D02*
X897Y8529D01*
X936Y8529D02*
X972Y8529D01*
X1009Y8529D02*
X1042Y8529D01*
X1092Y8529D02*
X1114Y8529D01*
X1158Y8529D02*
X1183Y8529D01*
X1220Y8529D02*
X1226Y8529D01*
X1382Y8529D02*
X1410Y8529D01*
X1442Y8529D02*
X1478Y8529D01*
X1520Y8529D02*
X1544Y8529D01*
X1597Y8529D02*
X1627Y8529D01*
X1654Y8529D02*
X1660Y8529D01*
X1693Y8529D02*
X1700Y8529D01*
X279Y8528D02*
X325Y8528D01*
X386Y8528D02*
X390Y8528D01*
X426Y8528D02*
X430Y8528D01*
X466Y8528D02*
X469Y8528D01*
X590Y8528D02*
X594Y8528D01*
X643Y8528D02*
X646Y8528D01*
X723Y8528D02*
X744Y8528D01*
X755Y8528D02*
X758Y8528D01*
X787Y8528D02*
X791Y8528D01*
X827Y8528D02*
X831Y8528D01*
X868Y8528D02*
X894Y8528D01*
X937Y8528D02*
X970Y8528D01*
X1012Y8528D02*
X1039Y8528D01*
X1095Y8528D02*
X1112Y8528D01*
X1161Y8528D02*
X1180Y8528D01*
X1221Y8528D02*
X1225Y8528D01*
X1385Y8528D02*
X1409Y8528D01*
X1443Y8528D02*
X1476Y8528D01*
X1522Y8528D02*
X1542Y8528D01*
X1599Y8528D02*
X1626Y8528D01*
X1655Y8528D02*
X1658Y8528D01*
X1695Y8528D02*
X1698Y8528D01*
D02*
G04 End of Copper1*
M02*