G04 MADE WITH FRITZING*
G04 WWW.FRITZING.ORG*
G04 DOUBLE SIDED*
G04 HOLES PLATED*
G04 CONTOUR ON CENTER OF CONTOUR VECTOR*
%ASAXBY*%
%FSLAX23Y23*%
%MOIN*%
%OFA0B0*%
%SFA1.0B1.0*%
%ADD10C,0.005000*%
%ADD10C,0.008*%
%LNCONTOUR*%
G90*
G70*
G54D10*
G54D10*
X0Y8662D02*
X0Y8661D01*
X0Y7816D01*
X1Y7815D01*
X2Y7814D01*
X3Y7813D01*
X4Y7812D01*
X5Y7811D01*
X6Y7810D01*
X7Y7809D01*
X8Y7808D01*
X9Y7807D01*
X10Y7806D01*
X11Y7805D01*
X12Y7804D01*
X13Y7803D01*
X14Y7802D01*
X15Y7801D01*
X16Y7800D01*
X17Y7799D01*
X18Y7798D01*
X19Y7797D01*
X20Y7796D01*
X21Y7795D01*
X22Y7794D01*
X23Y7793D01*
X24Y7792D01*
X25Y7791D01*
X26Y7790D01*
X27Y7789D01*
X28Y7788D01*
X29Y7787D01*
X30Y7786D01*
X31Y7785D01*
X32Y7784D01*
X33Y7783D01*
X34Y7782D01*
X35Y7781D01*
X36Y7780D01*
X37Y7779D01*
X38Y7778D01*
X39Y7777D01*
X40Y7776D01*
X41Y7775D01*
X42Y7774D01*
X43Y7773D01*
X44Y7772D01*
X45Y7771D01*
X46Y7770D01*
X47Y7769D01*
X48Y7768D01*
X49Y7767D01*
X50Y7766D01*
X51Y7765D01*
X52Y7764D01*
X53Y7763D01*
X54Y7762D01*
X55Y7761D01*
X56Y7760D01*
X57Y7759D01*
X58Y7758D01*
X59Y7757D01*
X60Y7756D01*
X61Y7755D01*
X62Y7754D01*
X63Y7753D01*
X64Y7752D01*
X65Y7751D01*
X66Y7750D01*
X67Y7749D01*
X68Y7748D01*
X69Y7747D01*
X70Y7746D01*
X71Y7745D01*
X72Y7744D01*
X73Y7743D01*
X74Y7742D01*
X75Y7741D01*
X76Y7740D01*
X77Y7739D01*
X78Y7738D01*
X79Y7737D01*
X80Y7736D01*
X81Y7735D01*
X82Y7734D01*
X83Y7733D01*
X84Y7732D01*
X85Y7731D01*
X86Y7730D01*
X87Y7729D01*
X88Y7728D01*
X89Y7727D01*
X90Y7726D01*
X91Y7725D01*
X92Y7724D01*
X93Y7723D01*
X94Y7722D01*
X95Y7721D01*
X96Y7720D01*
X97Y7719D01*
X98Y7718D01*
X99Y7717D01*
X100Y7716D01*
X101Y7715D01*
X102Y7714D01*
X103Y7713D01*
X104Y7712D01*
X105Y7711D01*
X106Y7710D01*
X107Y7709D01*
X108Y7708D01*
X109Y7707D01*
X110Y7706D01*
X111Y7705D01*
X112Y7704D01*
X113Y7703D01*
X114Y7702D01*
X115Y7701D01*
X116Y7700D01*
X117Y7699D01*
X118Y7698D01*
X119Y7697D01*
X120Y7696D01*
X121Y7695D01*
X122Y7694D01*
X123Y7693D01*
X124Y7692D01*
X125Y7691D01*
X126Y7690D01*
X127Y7689D01*
X128Y7688D01*
X129Y7687D01*
X130Y7686D01*
X131Y7685D01*
X132Y7684D01*
X133Y7683D01*
X134Y7682D01*
X135Y7681D01*
X136Y7680D01*
X137Y7679D01*
X138Y7678D01*
X139Y7677D01*
X140Y7676D01*
X141Y7675D01*
X142Y7674D01*
X143Y7673D01*
X143Y7672D01*
X144Y7671D01*
X145Y7670D01*
X146Y7669D01*
X147Y7668D01*
X148Y7667D01*
X149Y7666D01*
X150Y7665D01*
X151Y7664D01*
X152Y7663D01*
X153Y7662D01*
X154Y7661D01*
X155Y7660D01*
X156Y7659D01*
X157Y7658D01*
X158Y7657D01*
X159Y7656D01*
X160Y7655D01*
X161Y7654D01*
X162Y7653D01*
X163Y7652D01*
X164Y7651D01*
X165Y7650D01*
X166Y7649D01*
X167Y7648D01*
X168Y7647D01*
X169Y7646D01*
X170Y7645D01*
X171Y7644D01*
X172Y7643D01*
X173Y7642D01*
X174Y7641D01*
X175Y7640D01*
X176Y7639D01*
X177Y7638D01*
X178Y7637D01*
X179Y7636D01*
X180Y7635D01*
X181Y7634D01*
X182Y7633D01*
X183Y7632D01*
X184Y7631D01*
X185Y7630D01*
X186Y7629D01*
X187Y7628D01*
X188Y7627D01*
X189Y7626D01*
X190Y7625D01*
X191Y7624D01*
X192Y7623D01*
X193Y7622D01*
X194Y7621D01*
X195Y7620D01*
X196Y7619D01*
X197Y7618D01*
X198Y7617D01*
X199Y7616D01*
X200Y7615D01*
X201Y7614D01*
X202Y7613D01*
X203Y7612D01*
X204Y7611D01*
X205Y7610D01*
X206Y7609D01*
X207Y7608D01*
X208Y7607D01*
X209Y7606D01*
X210Y7605D01*
X211Y7604D01*
X212Y7603D01*
X213Y7602D01*
X214Y7601D01*
X215Y7600D01*
X216Y7599D01*
X216Y7597D01*
X217Y7596D01*
X217Y7588D01*
X216Y7587D01*
X216Y7585D01*
X217Y7584D01*
X217Y6496D01*
X216Y6495D01*
X215Y6494D01*
X214Y6493D01*
X213Y6492D01*
X212Y6491D01*
X211Y6490D01*
X210Y6489D01*
X209Y6488D01*
X208Y6487D01*
X207Y6486D01*
X206Y6485D01*
X205Y6484D01*
X204Y6483D01*
X203Y6482D01*
X202Y6481D01*
X201Y6480D01*
X200Y6479D01*
X199Y6478D01*
X198Y6477D01*
X197Y6476D01*
X196Y6475D01*
X195Y6474D01*
X194Y6473D01*
X193Y6472D01*
X192Y6471D01*
X191Y6470D01*
X190Y6469D01*
X189Y6468D01*
X188Y6467D01*
X187Y6466D01*
X186Y6465D01*
X185Y6464D01*
X184Y6463D01*
X183Y6462D01*
X182Y6461D01*
X181Y6460D01*
X180Y6459D01*
X179Y6458D01*
X178Y6457D01*
X177Y6456D01*
X176Y6455D01*
X175Y6454D01*
X174Y6453D01*
X173Y6452D01*
X172Y6451D01*
X171Y6450D01*
X170Y6449D01*
X169Y6448D01*
X168Y6447D01*
X167Y6446D01*
X166Y6445D01*
X165Y6444D01*
X164Y6443D01*
X163Y6442D01*
X162Y6441D01*
X161Y6440D01*
X160Y6439D01*
X159Y6438D01*
X158Y6437D01*
X157Y6436D01*
X156Y6435D01*
X155Y6434D01*
X154Y6433D01*
X153Y6432D01*
X152Y6431D01*
X151Y6430D01*
X150Y6429D01*
X149Y6428D01*
X148Y6427D01*
X147Y6426D01*
X146Y6425D01*
X145Y6424D01*
X144Y6423D01*
X143Y6422D01*
X142Y6421D01*
X141Y6420D01*
X140Y6419D01*
X139Y6418D01*
X138Y6417D01*
X137Y6416D01*
X136Y6415D01*
X135Y6414D01*
X134Y6413D01*
X133Y6412D01*
X132Y6411D01*
X131Y6410D01*
X130Y6409D01*
X129Y6408D01*
X128Y6407D01*
X127Y6406D01*
X126Y6405D01*
X125Y6404D01*
X124Y6403D01*
X123Y6402D01*
X122Y6401D01*
X121Y6400D01*
X120Y6399D01*
X119Y6398D01*
X118Y6397D01*
X117Y6396D01*
X116Y6395D01*
X115Y6394D01*
X114Y6393D01*
X113Y6392D01*
X112Y6391D01*
X111Y6390D01*
X110Y6389D01*
X109Y6388D01*
X108Y6387D01*
X107Y6386D01*
X106Y6385D01*
X105Y6384D01*
X104Y6383D01*
X103Y6382D01*
X102Y6381D01*
X101Y6380D01*
X100Y6379D01*
X99Y6378D01*
X98Y6377D01*
X97Y6376D01*
X96Y6375D01*
X95Y6374D01*
X94Y6373D01*
X93Y6372D01*
X92Y6371D01*
X91Y6370D01*
X90Y6369D01*
X89Y6368D01*
X88Y6367D01*
X87Y6366D01*
X86Y6365D01*
X85Y6364D01*
X84Y6363D01*
X83Y6362D01*
X82Y6361D01*
X82Y6360D01*
X81Y6359D01*
X80Y6358D01*
X79Y6357D01*
X78Y6356D01*
X77Y6355D01*
X76Y6354D01*
X75Y6353D01*
X74Y6352D01*
X73Y6351D01*
X72Y6350D01*
X71Y6349D01*
X70Y6348D01*
X69Y6347D01*
X68Y6346D01*
X67Y6345D01*
X66Y6344D01*
X65Y6343D01*
X64Y6342D01*
X63Y6341D01*
X62Y6340D01*
X61Y6339D01*
X60Y6338D01*
X59Y6337D01*
X58Y6336D01*
X57Y6335D01*
X56Y6334D01*
X55Y6333D01*
X54Y6332D01*
X53Y6331D01*
X52Y6330D01*
X51Y6329D01*
X50Y6328D01*
X49Y6327D01*
X48Y6326D01*
X47Y6325D01*
X46Y6324D01*
X45Y6323D01*
X44Y6322D01*
X43Y6321D01*
X42Y6320D01*
X41Y6319D01*
X40Y6318D01*
X39Y6317D01*
X38Y6316D01*
X37Y6315D01*
X36Y6314D01*
X35Y6313D01*
X34Y6312D01*
X33Y6311D01*
X32Y6310D01*
X31Y6309D01*
X30Y6308D01*
X29Y6307D01*
X28Y6306D01*
X27Y6305D01*
X26Y6304D01*
X25Y6303D01*
X24Y6302D01*
X23Y6301D01*
X22Y6300D01*
X21Y6299D01*
X20Y6298D01*
X19Y6297D01*
X18Y6296D01*
X17Y6295D01*
X16Y6294D01*
X15Y6293D01*
X14Y6292D01*
X13Y6291D01*
X12Y6290D01*
X11Y6289D01*
X10Y6288D01*
X9Y6287D01*
X8Y6286D01*
X7Y6285D01*
X6Y6284D01*
X5Y6283D01*
X4Y6282D01*
X3Y6281D01*
X2Y6280D01*
X1Y6279D01*
X0Y6278D01*
X0Y5353D01*
X1Y5398D01*
X1Y5441D01*
X2Y5442D01*
X2Y5447D01*
X3Y5448D01*
X4Y5447D01*
X5Y5446D01*
X6Y5445D01*
X7Y5444D01*
X8Y5443D01*
X9Y5442D01*
X10Y5441D01*
X11Y5440D01*
X12Y5439D01*
X13Y5438D01*
X14Y5437D01*
X15Y5436D01*
X16Y5435D01*
X17Y5434D01*
X18Y5433D01*
X19Y5432D01*
X20Y5431D01*
X21Y5430D01*
X22Y5429D01*
X23Y5428D01*
X24Y5427D01*
X25Y5426D01*
X26Y5425D01*
X27Y5424D01*
X28Y5423D01*
X29Y5422D01*
X30Y5421D01*
X31Y5420D01*
X32Y5419D01*
X33Y5418D01*
X34Y5417D01*
X35Y5416D01*
X36Y5415D01*
X37Y5414D01*
X38Y5413D01*
X39Y5412D01*
X40Y5411D01*
X41Y5410D01*
X42Y5409D01*
X43Y5408D01*
X44Y5407D01*
X45Y5406D01*
X46Y5405D01*
X47Y5404D01*
X48Y5403D01*
X49Y5402D01*
X50Y5401D01*
X51Y5400D01*
X52Y5399D01*
X53Y5398D01*
X54Y5397D01*
X55Y5396D01*
X56Y5395D01*
X56Y5394D01*
X57Y5393D01*
X58Y5392D01*
X59Y5391D01*
X60Y5390D01*
X61Y5389D01*
X62Y5388D01*
X63Y5387D01*
X64Y5386D01*
X65Y5385D01*
X66Y5384D01*
X67Y5383D01*
X68Y5382D01*
X69Y5381D01*
X70Y5380D01*
X71Y5379D01*
X72Y5378D01*
X73Y5377D01*
X74Y5376D01*
X75Y5375D01*
X76Y5374D01*
X77Y5373D01*
X78Y5372D01*
X79Y5371D01*
X80Y5370D01*
X81Y5369D01*
X82Y5368D01*
X83Y5367D01*
X84Y5366D01*
X85Y5365D01*
X86Y5364D01*
X87Y5363D01*
X88Y5362D01*
X89Y5361D01*
X90Y5360D01*
X91Y5359D01*
X92Y5358D01*
X93Y5357D01*
X94Y5356D01*
X95Y5355D01*
X96Y5354D01*
X97Y5353D01*
X98Y5352D01*
X99Y5351D01*
X100Y5350D01*
X101Y5349D01*
X102Y5348D01*
X103Y5347D01*
X104Y5346D01*
X105Y5345D01*
X106Y5344D01*
X107Y5343D01*
X108Y5342D01*
X109Y5341D01*
X110Y5340D01*
X111Y5339D01*
X111Y5338D01*
X112Y5337D01*
X113Y5336D01*
X114Y5335D01*
X115Y5334D01*
X116Y5333D01*
X117Y5332D01*
X118Y5331D01*
X119Y5330D01*
X120Y5329D01*
X121Y5328D01*
X122Y5327D01*
X123Y5326D01*
X124Y5325D01*
X125Y5324D01*
X126Y5323D01*
X127Y5322D01*
X128Y5321D01*
X129Y5320D01*
X130Y5319D01*
X131Y5318D01*
X132Y5317D01*
X133Y5316D01*
X134Y5315D01*
X135Y5314D01*
X136Y5313D01*
X137Y5312D01*
X138Y5311D01*
X139Y5310D01*
X140Y5309D01*
X141Y5308D01*
X142Y5307D01*
X143Y5306D01*
X144Y5305D01*
X145Y5304D01*
X146Y5303D01*
X147Y5302D01*
X148Y5301D01*
X149Y5300D01*
X150Y5299D01*
X151Y5298D01*
X152Y5297D01*
X153Y5296D01*
X154Y5295D01*
X155Y5294D01*
X156Y5293D01*
X157Y5292D01*
X158Y5291D01*
X159Y5290D01*
X160Y5289D01*
X161Y5288D01*
X162Y5287D01*
X163Y5286D01*
X164Y5285D01*
X165Y5284D01*
X166Y5283D01*
X166Y5282D01*
X167Y5281D01*
X168Y5280D01*
X169Y5279D01*
X170Y5278D01*
X171Y5277D01*
X172Y5276D01*
X173Y5275D01*
X174Y5274D01*
X175Y5273D01*
X176Y5272D01*
X177Y5271D01*
X178Y5270D01*
X179Y5269D01*
X180Y5268D01*
X181Y5267D01*
X182Y5266D01*
X183Y5265D01*
X184Y5264D01*
X185Y5263D01*
X186Y5262D01*
X187Y5261D01*
X188Y5260D01*
X189Y5259D01*
X190Y5258D01*
X191Y5257D01*
X192Y5256D01*
X193Y5255D01*
X194Y5254D01*
X195Y5253D01*
X196Y5252D01*
X197Y5251D01*
X198Y5250D01*
X199Y5249D01*
X200Y5248D01*
X201Y5247D01*
X202Y5246D01*
X203Y5245D01*
X204Y5244D01*
X205Y5243D01*
X206Y5242D01*
X207Y5241D01*
X208Y5240D01*
X209Y5239D01*
X210Y5239D01*
X211Y5239D01*
X212Y5238D01*
X213Y5238D01*
X214Y5237D01*
X215Y5236D01*
X216Y5235D01*
X216Y5234D01*
X217Y5233D01*
X217Y1888D01*
X216Y1887D01*
X216Y1886D01*
X215Y1885D01*
X214Y1884D01*
X213Y1883D01*
X212Y1882D01*
X211Y1881D01*
X210Y1880D01*
X209Y1879D01*
X208Y1878D01*
X207Y1877D01*
X206Y1876D01*
X205Y1875D01*
X204Y1874D01*
X203Y1873D01*
X202Y1872D01*
X201Y1871D01*
X200Y1870D01*
X199Y1869D01*
X198Y1868D01*
X197Y1867D01*
X196Y1866D01*
X195Y1865D01*
X195Y1864D01*
X194Y1863D01*
X193Y1862D01*
X192Y1861D01*
X191Y1860D01*
X190Y1859D01*
X189Y1858D01*
X188Y1857D01*
X187Y1856D01*
X186Y1855D01*
X185Y1854D01*
X184Y1853D01*
X183Y1852D01*
X182Y1851D01*
X181Y1850D01*
X180Y1849D01*
X179Y1848D01*
X178Y1847D01*
X177Y1846D01*
X176Y1845D01*
X175Y1844D01*
X174Y1843D01*
X173Y1842D01*
X172Y1841D01*
X172Y1840D01*
X171Y1839D01*
X170Y1838D01*
X169Y1837D01*
X168Y1836D01*
X167Y1835D01*
X166Y1834D01*
X165Y1833D01*
X164Y1832D01*
X163Y1831D01*
X162Y1830D01*
X161Y1829D01*
X160Y1828D01*
X159Y1827D01*
X158Y1826D01*
X157Y1825D01*
X156Y1824D01*
X155Y1823D01*
X154Y1822D01*
X153Y1821D01*
X152Y1820D01*
X151Y1819D01*
X150Y1818D01*
X149Y1817D01*
X149Y1816D01*
X148Y1815D01*
X147Y1814D01*
X146Y1813D01*
X145Y1812D01*
X144Y1811D01*
X143Y1810D01*
X142Y1809D01*
X141Y1808D01*
X140Y1807D01*
X139Y1806D01*
X138Y1805D01*
X137Y1804D01*
X136Y1803D01*
X135Y1802D01*
X134Y1801D01*
X133Y1800D01*
X132Y1799D01*
X131Y1798D01*
X130Y1797D01*
X129Y1796D01*
X128Y1795D01*
X127Y1794D01*
X126Y1793D01*
X126Y1792D01*
X125Y1791D01*
X124Y1790D01*
X123Y1789D01*
X122Y1788D01*
X121Y1787D01*
X120Y1786D01*
X119Y1785D01*
X118Y1784D01*
X117Y1783D01*
X116Y1782D01*
X115Y1781D01*
X114Y1780D01*
X113Y1779D01*
X112Y1778D01*
X111Y1777D01*
X110Y1776D01*
X109Y1775D01*
X108Y1774D01*
X107Y1773D01*
X106Y1772D01*
X105Y1771D01*
X104Y1770D01*
X104Y1769D01*
X103Y1768D01*
X102Y1767D01*
X101Y1766D01*
X100Y1765D01*
X99Y1764D01*
X98Y1763D01*
X97Y1762D01*
X96Y1761D01*
X95Y1760D01*
X94Y1759D01*
X93Y1758D01*
X92Y1757D01*
X91Y1756D01*
X90Y1755D01*
X89Y1754D01*
X88Y1753D01*
X87Y1752D01*
X86Y1751D01*
X85Y1750D01*
X84Y1749D01*
X83Y1748D01*
X82Y1747D01*
X81Y1746D01*
X81Y1745D01*
X80Y1744D01*
X79Y1743D01*
X78Y1742D01*
X77Y1741D01*
X76Y1740D01*
X75Y1739D01*
X74Y1738D01*
X73Y1737D01*
X72Y1736D01*
X71Y1735D01*
X70Y1734D01*
X69Y1733D01*
X68Y1732D01*
X67Y1731D01*
X66Y1730D01*
X65Y1729D01*
X64Y1728D01*
X63Y1727D01*
X62Y1726D01*
X61Y1725D01*
X60Y1724D01*
X59Y1723D01*
X58Y1722D01*
X58Y1721D01*
X57Y1720D01*
X56Y1719D01*
X55Y1718D01*
X54Y1717D01*
X53Y1716D01*
X52Y1715D01*
X51Y1714D01*
X50Y1713D01*
X49Y1712D01*
X48Y1711D01*
X47Y1710D01*
X46Y1709D01*
X45Y1708D01*
X44Y1707D01*
X43Y1706D01*
X42Y1705D01*
X41Y1704D01*
X40Y1703D01*
X39Y1702D01*
X38Y1701D01*
X37Y1700D01*
X36Y1699D01*
X36Y1698D01*
X35Y1697D01*
X34Y1696D01*
X33Y1695D01*
X32Y1694D01*
X31Y1693D01*
X30Y1692D01*
X29Y1691D01*
X28Y1690D01*
X27Y1689D01*
X26Y1688D01*
X25Y1687D01*
X24Y1686D01*
X23Y1685D01*
X22Y1684D01*
X21Y1683D01*
X20Y1682D01*
X19Y1681D01*
X18Y1680D01*
X17Y1679D01*
X16Y1678D01*
X15Y1677D01*
X14Y1676D01*
X13Y1675D01*
X13Y1674D01*
X12Y1673D01*
X11Y1672D01*
X10Y1671D01*
X9Y1670D01*
X8Y1669D01*
X7Y1668D01*
X6Y1667D01*
X5Y1666D01*
X4Y1665D01*
X3Y1664D01*
X2Y1663D01*
X1Y1662D01*
X0Y1661D01*
X0Y2D01*
X1Y2D01*
X2Y2D01*
X3Y2D01*
X4Y2D01*
X5Y2D01*
X6Y2D01*
X7Y2D01*
X8Y2D01*
X9Y2D01*
X10Y2D01*
X11Y2D01*
X12Y2D01*
X13Y2D01*
X14Y2D01*
X15Y2D01*
X16Y2D01*
X17Y2D01*
X18Y2D01*
X19Y2D01*
X20Y2D01*
X21Y2D01*
X22Y2D01*
X23Y2D01*
X24Y2D01*
X25Y2D01*
X26Y2D01*
X27Y2D01*
X28Y2D01*
X29Y2D01*
X30Y2D01*
X31Y2D01*
X32Y2D01*
X33Y2D01*
X34Y2D01*
X35Y2D01*
X36Y2D01*
X37Y2D01*
X38Y2D01*
X39Y2D01*
X40Y2D01*
X41Y2D01*
X42Y2D01*
X43Y2D01*
X44Y2D01*
X45Y2D01*
X46Y2D01*
X47Y2D01*
X48Y2D01*
X49Y2D01*
X50Y2D01*
X51Y2D01*
X52Y2D01*
X53Y2D01*
X54Y2D01*
X55Y2D01*
X56Y2D01*
X57Y2D01*
X58Y2D01*
X59Y2D01*
X60Y2D01*
X61Y2D01*
X62Y2D01*
X63Y2D01*
X64Y2D01*
X65Y2D01*
X66Y2D01*
X67Y2D01*
X68Y2D01*
X69Y2D01*
X70Y2D01*
X71Y2D01*
X72Y2D01*
X73Y2D01*
X74Y2D01*
X75Y2D01*
X76Y2D01*
X77Y2D01*
X78Y2D01*
X79Y2D01*
X80Y2D01*
X81Y2D01*
X82Y2D01*
X83Y2D01*
X84Y2D01*
X85Y2D01*
X86Y2D01*
X87Y2D01*
X88Y2D01*
X89Y2D01*
X90Y2D01*
X91Y2D01*
X92Y2D01*
X93Y2D01*
X94Y2D01*
X95Y2D01*
X96Y2D01*
X97Y2D01*
X98Y2D01*
X99Y2D01*
X100Y2D01*
X101Y2D01*
X102Y2D01*
X103Y2D01*
X104Y2D01*
X105Y2D01*
X106Y2D01*
X107Y2D01*
X108Y2D01*
X109Y2D01*
X110Y2D01*
X111Y2D01*
X112Y2D01*
X113Y2D01*
X114Y2D01*
X115Y2D01*
X116Y2D01*
X117Y2D01*
X118Y2D01*
X119Y2D01*
X120Y2D01*
X121Y2D01*
X122Y2D01*
X123Y2D01*
X124Y2D01*
X125Y2D01*
X126Y2D01*
X127Y2D01*
X128Y2D01*
X129Y2D01*
X130Y2D01*
X131Y2D01*
X132Y2D01*
X133Y2D01*
X134Y2D01*
X135Y2D01*
X136Y2D01*
X137Y2D01*
X138Y2D01*
X139Y2D01*
X140Y2D01*
X141Y2D01*
X142Y2D01*
X143Y2D01*
X144Y2D01*
X145Y2D01*
X146Y2D01*
X147Y2D01*
X148Y2D01*
X149Y2D01*
X150Y2D01*
X151Y2D01*
X152Y2D01*
X153Y2D01*
X154Y2D01*
X155Y2D01*
X156Y2D01*
X157Y2D01*
X158Y2D01*
X159Y2D01*
X160Y2D01*
X161Y2D01*
X162Y2D01*
X163Y2D01*
X164Y2D01*
X165Y2D01*
X166Y2D01*
X167Y2D01*
X168Y2D01*
X169Y2D01*
X170Y2D01*
X171Y2D01*
X172Y2D01*
X173Y2D01*
X174Y2D01*
X175Y2D01*
X176Y2D01*
X177Y2D01*
X178Y2D01*
X179Y2D01*
X180Y2D01*
X181Y2D01*
X182Y2D01*
X183Y2D01*
X184Y2D01*
X185Y2D01*
X186Y2D01*
X187Y2D01*
X188Y2D01*
X189Y2D01*
X190Y2D01*
X191Y2D01*
X192Y2D01*
X193Y2D01*
X194Y2D01*
X195Y2D01*
X196Y2D01*
X197Y2D01*
X198Y2D01*
X199Y2D01*
X200Y2D01*
X201Y2D01*
X202Y2D01*
X203Y2D01*
X204Y2D01*
X205Y2D01*
X206Y2D01*
X207Y2D01*
X208Y2D01*
X209Y2D01*
X210Y2D01*
X211Y2D01*
X212Y2D01*
X213Y1D01*
X213Y0D01*
X214Y0D01*
X215Y0D01*
X216Y0D01*
X217Y1D01*
X218Y2D01*
X219Y2D01*
X220Y3D01*
X221Y3D01*
X222Y2D01*
X223Y2D01*
X224Y2D01*
X225Y2D01*
X226Y2D01*
X227Y2D01*
X228Y2D01*
X229Y2D01*
X230Y2D01*
X231Y2D01*
X232Y2D01*
X233Y2D01*
X234Y2D01*
X235Y2D01*
X236Y2D01*
X237Y2D01*
X238Y2D01*
X239Y2D01*
X240Y2D01*
X241Y2D01*
X242Y2D01*
X243Y2D01*
X244Y2D01*
X245Y2D01*
X246Y2D01*
X247Y2D01*
X248Y2D01*
X249Y2D01*
X250Y2D01*
X251Y2D01*
X252Y2D01*
X253Y2D01*
X254Y2D01*
X255Y2D01*
X256Y2D01*
X257Y2D01*
X258Y2D01*
X259Y2D01*
X260Y2D01*
X261Y2D01*
X262Y2D01*
X263Y2D01*
X264Y2D01*
X265Y2D01*
X266Y2D01*
X267Y2D01*
X268Y2D01*
X269Y2D01*
X270Y2D01*
X271Y2D01*
X272Y2D01*
X273Y2D01*
X274Y2D01*
X275Y2D01*
X276Y2D01*
X277Y2D01*
X278Y2D01*
X279Y2D01*
X280Y2D01*
X281Y2D01*
X282Y2D01*
X283Y2D01*
X284Y2D01*
X285Y2D01*
X286Y2D01*
X287Y2D01*
X288Y2D01*
X289Y2D01*
X290Y2D01*
X291Y2D01*
X292Y2D01*
X293Y2D01*
X294Y2D01*
X295Y2D01*
X296Y2D01*
X297Y2D01*
X298Y2D01*
X299Y2D01*
X300Y2D01*
X301Y2D01*
X302Y2D01*
X303Y2D01*
X304Y2D01*
X305Y2D01*
X306Y2D01*
X307Y2D01*
X308Y2D01*
X309Y2D01*
X310Y2D01*
X311Y2D01*
X312Y2D01*
X313Y2D01*
X314Y2D01*
X315Y2D01*
X316Y2D01*
X317Y2D01*
X318Y2D01*
X319Y2D01*
X320Y2D01*
X321Y2D01*
X322Y2D01*
X323Y2D01*
X324Y2D01*
X325Y2D01*
X326Y2D01*
X327Y2D01*
X328Y2D01*
X329Y2D01*
X330Y2D01*
X331Y2D01*
X332Y2D01*
X333Y2D01*
X334Y2D01*
X335Y2D01*
X336Y2D01*
X337Y2D01*
X338Y2D01*
X339Y2D01*
X340Y2D01*
X341Y2D01*
X342Y2D01*
X343Y2D01*
X344Y2D01*
X345Y2D01*
X346Y2D01*
X347Y2D01*
X348Y2D01*
X349Y2D01*
X350Y2D01*
X351Y2D01*
X352Y2D01*
X353Y2D01*
X354Y2D01*
X355Y2D01*
X356Y2D01*
X357Y2D01*
X358Y2D01*
X359Y2D01*
X360Y2D01*
X361Y2D01*
X362Y2D01*
X363Y2D01*
X364Y2D01*
X365Y2D01*
X366Y2D01*
X367Y2D01*
X368Y2D01*
X369Y2D01*
X370Y2D01*
X371Y2D01*
X372Y2D01*
X373Y2D01*
X374Y2D01*
X375Y2D01*
X376Y2D01*
X377Y2D01*
X378Y2D01*
X379Y2D01*
X380Y2D01*
X381Y2D01*
X382Y2D01*
X383Y2D01*
X384Y2D01*
X385Y2D01*
X386Y2D01*
X387Y2D01*
X388Y2D01*
X389Y2D01*
X390Y2D01*
X391Y2D01*
X392Y2D01*
X393Y2D01*
X394Y2D01*
X395Y2D01*
X396Y2D01*
X397Y2D01*
X398Y2D01*
X399Y2D01*
X400Y2D01*
X401Y2D01*
X402Y2D01*
X403Y2D01*
X404Y2D01*
X405Y2D01*
X406Y2D01*
X407Y2D01*
X408Y2D01*
X409Y2D01*
X410Y2D01*
X411Y2D01*
X412Y2D01*
X413Y2D01*
X414Y2D01*
X415Y2D01*
X416Y2D01*
X417Y2D01*
X418Y2D01*
X419Y2D01*
X420Y2D01*
X421Y2D01*
X422Y2D01*
X423Y2D01*
X424Y2D01*
X425Y2D01*
X426Y2D01*
X427Y2D01*
X428Y2D01*
X429Y2D01*
X430Y2D01*
X431Y2D01*
X432Y2D01*
X433Y2D01*
X434Y2D01*
X435Y2D01*
X436Y2D01*
X437Y2D01*
X438Y2D01*
X439Y2D01*
X440Y2D01*
X441Y2D01*
X442Y2D01*
X443Y2D01*
X444Y2D01*
X445Y2D01*
X446Y2D01*
X447Y2D01*
X448Y2D01*
X449Y2D01*
X450Y2D01*
X451Y2D01*
X452Y2D01*
X453Y2D01*
X454Y2D01*
X455Y2D01*
X456Y2D01*
X457Y2D01*
X458Y2D01*
X459Y2D01*
X460Y2D01*
X461Y2D01*
X462Y2D01*
X463Y2D01*
X464Y2D01*
X465Y2D01*
X466Y2D01*
X467Y2D01*
X468Y2D01*
X469Y2D01*
X470Y2D01*
X471Y2D01*
X472Y2D01*
X473Y2D01*
X474Y2D01*
X475Y2D01*
X476Y2D01*
X477Y2D01*
X478Y2D01*
X479Y2D01*
X480Y2D01*
X481Y2D01*
X482Y2D01*
X483Y2D01*
X484Y2D01*
X485Y2D01*
X486Y2D01*
X487Y2D01*
X488Y2D01*
X489Y2D01*
X490Y2D01*
X491Y2D01*
X492Y2D01*
X493Y2D01*
X494Y2D01*
X495Y2D01*
X496Y2D01*
X497Y2D01*
X498Y2D01*
X499Y2D01*
X500Y2D01*
X501Y2D01*
X502Y2D01*
X503Y2D01*
X504Y2D01*
X505Y2D01*
X506Y2D01*
X507Y2D01*
X508Y2D01*
X509Y2D01*
X510Y2D01*
X511Y2D01*
X512Y2D01*
X513Y2D01*
X514Y2D01*
X515Y2D01*
X516Y2D01*
X517Y2D01*
X518Y2D01*
X519Y2D01*
X520Y2D01*
X521Y2D01*
X522Y2D01*
X523Y2D01*
X524Y2D01*
X525Y2D01*
X526Y2D01*
X527Y2D01*
X528Y2D01*
X529Y2D01*
X530Y2D01*
X531Y2D01*
X532Y2D01*
X533Y2D01*
X534Y2D01*
X535Y2D01*
X536Y2D01*
X537Y2D01*
X538Y2D01*
X539Y2D01*
X540Y2D01*
X541Y2D01*
X542Y2D01*
X543Y2D01*
X544Y2D01*
X545Y2D01*
X546Y2D01*
X547Y2D01*
X548Y2D01*
X549Y2D01*
X550Y2D01*
X551Y2D01*
X552Y2D01*
X553Y2D01*
X554Y2D01*
X555Y2D01*
X556Y2D01*
X557Y2D01*
X558Y2D01*
X559Y2D01*
X560Y2D01*
X561Y2D01*
X562Y2D01*
X563Y2D01*
X564Y2D01*
X565Y2D01*
X566Y2D01*
X567Y2D01*
X568Y2D01*
X569Y2D01*
X570Y2D01*
X571Y2D01*
X572Y2D01*
X573Y2D01*
X574Y2D01*
X575Y2D01*
X576Y2D01*
X577Y2D01*
X578Y2D01*
X579Y2D01*
X580Y2D01*
X581Y2D01*
X582Y2D01*
X583Y2D01*
X584Y2D01*
X585Y2D01*
X586Y2D01*
X587Y2D01*
X588Y2D01*
X589Y2D01*
X590Y2D01*
X591Y2D01*
X592Y2D01*
X593Y2D01*
X594Y2D01*
X595Y2D01*
X596Y2D01*
X597Y2D01*
X598Y2D01*
X599Y2D01*
X600Y2D01*
X601Y2D01*
X602Y2D01*
X603Y2D01*
X604Y2D01*
X605Y2D01*
X606Y2D01*
X607Y2D01*
X608Y2D01*
X609Y2D01*
X610Y2D01*
X611Y2D01*
X612Y2D01*
X613Y2D01*
X614Y2D01*
X615Y2D01*
X616Y2D01*
X617Y2D01*
X618Y2D01*
X619Y2D01*
X620Y2D01*
X621Y2D01*
X622Y2D01*
X623Y2D01*
X624Y2D01*
X625Y2D01*
X626Y2D01*
X627Y2D01*
X628Y2D01*
X629Y2D01*
X630Y2D01*
X631Y2D01*
X632Y2D01*
X633Y2D01*
X634Y2D01*
X635Y2D01*
X636Y2D01*
X637Y2D01*
X638Y2D01*
X639Y2D01*
X640Y2D01*
X641Y2D01*
X642Y2D01*
X643Y2D01*
X644Y2D01*
X645Y2D01*
X646Y2D01*
X647Y2D01*
X648Y2D01*
X649Y2D01*
X650Y2D01*
X651Y2D01*
X652Y2D01*
X653Y2D01*
X654Y2D01*
X655Y2D01*
X656Y2D01*
X657Y2D01*
X658Y2D01*
X659Y2D01*
X660Y2D01*
X661Y2D01*
X662Y2D01*
X663Y2D01*
X664Y2D01*
X665Y2D01*
X666Y2D01*
X667Y2D01*
X668Y2D01*
X669Y2D01*
X670Y2D01*
X671Y2D01*
X672Y2D01*
X673Y2D01*
X674Y2D01*
X675Y2D01*
X676Y2D01*
X677Y2D01*
X678Y2D01*
X679Y2D01*
X680Y2D01*
X681Y2D01*
X682Y2D01*
X683Y2D01*
X684Y2D01*
X685Y2D01*
X686Y2D01*
X687Y2D01*
X688Y2D01*
X689Y2D01*
X690Y2D01*
X691Y2D01*
X692Y2D01*
X693Y2D01*
X694Y2D01*
X695Y2D01*
X696Y2D01*
X697Y2D01*
X698Y2D01*
X699Y2D01*
X700Y2D01*
X701Y2D01*
X702Y2D01*
X703Y2D01*
X704Y2D01*
X705Y2D01*
X706Y2D01*
X707Y2D01*
X708Y2D01*
X709Y2D01*
X710Y2D01*
X711Y2D01*
X712Y2D01*
X713Y2D01*
X714Y2D01*
X715Y2D01*
X716Y2D01*
X717Y2D01*
X718Y2D01*
X719Y2D01*
X720Y2D01*
X721Y2D01*
X722Y2D01*
X723Y2D01*
X724Y2D01*
X725Y2D01*
X726Y2D01*
X727Y2D01*
X728Y2D01*
X729Y2D01*
X730Y2D01*
X731Y2D01*
X732Y2D01*
X733Y2D01*
X734Y2D01*
X735Y2D01*
X736Y2D01*
X737Y2D01*
X738Y2D01*
X739Y2D01*
X740Y2D01*
X741Y2D01*
X742Y2D01*
X743Y2D01*
X744Y2D01*
X745Y2D01*
X746Y2D01*
X747Y2D01*
X748Y2D01*
X749Y2D01*
X750Y2D01*
X751Y2D01*
X752Y2D01*
X753Y2D01*
X754Y2D01*
X755Y2D01*
X756Y2D01*
X757Y2D01*
X758Y2D01*
X759Y2D01*
X760Y2D01*
X761Y2D01*
X762Y2D01*
X763Y2D01*
X764Y2D01*
X765Y2D01*
X766Y2D01*
X767Y2D01*
X768Y2D01*
X769Y2D01*
X770Y2D01*
X771Y2D01*
X772Y2D01*
X773Y2D01*
X774Y2D01*
X775Y2D01*
X776Y2D01*
X777Y2D01*
X778Y2D01*
X779Y2D01*
X780Y2D01*
X781Y2D01*
X782Y2D01*
X783Y2D01*
X784Y2D01*
X785Y2D01*
X786Y2D01*
X787Y2D01*
X788Y2D01*
X789Y2D01*
X790Y2D01*
X791Y2D01*
X792Y2D01*
X793Y2D01*
X794Y2D01*
X795Y2D01*
X796Y2D01*
X797Y2D01*
X798Y2D01*
X799Y2D01*
X800Y2D01*
X801Y2D01*
X802Y2D01*
X803Y2D01*
X804Y2D01*
X805Y2D01*
X806Y2D01*
X807Y2D01*
X808Y2D01*
X809Y2D01*
X810Y2D01*
X811Y2D01*
X812Y2D01*
X813Y2D01*
X814Y2D01*
X815Y2D01*
X816Y2D01*
X817Y2D01*
X818Y2D01*
X819Y2D01*
X820Y2D01*
X821Y2D01*
X822Y2D01*
X823Y2D01*
X824Y2D01*
X825Y2D01*
X826Y2D01*
X827Y2D01*
X828Y2D01*
X829Y2D01*
X830Y2D01*
X831Y2D01*
X832Y2D01*
X833Y2D01*
X834Y2D01*
X835Y2D01*
X836Y2D01*
X837Y2D01*
X838Y2D01*
X839Y2D01*
X840Y2D01*
X841Y2D01*
X842Y2D01*
X843Y2D01*
X844Y2D01*
X845Y2D01*
X846Y2D01*
X847Y2D01*
X848Y2D01*
X849Y2D01*
X850Y2D01*
X851Y2D01*
X852Y2D01*
X853Y2D01*
X854Y2D01*
X855Y2D01*
X856Y2D01*
X857Y2D01*
X858Y2D01*
X859Y2D01*
X860Y2D01*
X861Y2D01*
X862Y2D01*
X863Y2D01*
X864Y2D01*
X865Y2D01*
X866Y2D01*
X867Y2D01*
X868Y2D01*
X869Y2D01*
X870Y2D01*
X871Y2D01*
X872Y2D01*
X873Y2D01*
X874Y2D01*
X875Y2D01*
X876Y2D01*
X877Y2D01*
X878Y2D01*
X879Y2D01*
X880Y2D01*
X881Y2D01*
X882Y2D01*
X883Y2D01*
X884Y2D01*
X885Y2D01*
X886Y2D01*
X887Y2D01*
X888Y2D01*
X889Y2D01*
X890Y2D01*
X891Y2D01*
X892Y2D01*
X893Y2D01*
X894Y2D01*
X895Y2D01*
X896Y2D01*
X897Y2D01*
X898Y2D01*
X899Y2D01*
X900Y2D01*
X901Y2D01*
X902Y2D01*
X903Y2D01*
X904Y2D01*
X905Y2D01*
X906Y2D01*
X907Y2D01*
X908Y2D01*
X909Y2D01*
X910Y2D01*
X911Y2D01*
X912Y2D01*
X913Y2D01*
X914Y2D01*
X915Y2D01*
X916Y2D01*
X917Y2D01*
X918Y2D01*
X919Y2D01*
X920Y2D01*
X921Y2D01*
X922Y2D01*
X923Y2D01*
X924Y2D01*
X925Y2D01*
X926Y2D01*
X927Y2D01*
X928Y2D01*
X929Y2D01*
X930Y2D01*
X931Y2D01*
X932Y2D01*
X933Y2D01*
X934Y2D01*
X935Y2D01*
X936Y2D01*
X937Y2D01*
X938Y2D01*
X939Y2D01*
X940Y2D01*
X941Y2D01*
X942Y2D01*
X943Y2D01*
X944Y2D01*
X945Y2D01*
X946Y2D01*
X947Y2D01*
X948Y2D01*
X949Y2D01*
X950Y2D01*
X951Y2D01*
X952Y2D01*
X953Y2D01*
X954Y2D01*
X955Y2D01*
X956Y2D01*
X957Y2D01*
X958Y2D01*
X959Y2D01*
X960Y2D01*
X961Y2D01*
X962Y2D01*
X963Y2D01*
X964Y2D01*
X965Y2D01*
X966Y2D01*
X967Y2D01*
X968Y2D01*
X969Y2D01*
X970Y2D01*
X971Y2D01*
X972Y2D01*
X973Y2D01*
X974Y2D01*
X975Y2D01*
X976Y2D01*
X977Y2D01*
X978Y2D01*
X979Y2D01*
X980Y2D01*
X981Y2D01*
X982Y2D01*
X983Y2D01*
X984Y2D01*
X985Y2D01*
X986Y2D01*
X987Y2D01*
X988Y2D01*
X989Y2D01*
X990Y2D01*
X991Y2D01*
X992Y2D01*
X993Y2D01*
X994Y2D01*
X995Y2D01*
X996Y2D01*
X997Y2D01*
X998Y2D01*
X999Y2D01*
X1000Y2D01*
X1001Y2D01*
X1002Y2D01*
X1003Y2D01*
X1004Y2D01*
X1005Y2D01*
X1006Y2D01*
X1007Y2D01*
X1008Y2D01*
X1009Y2D01*
X1010Y2D01*
X1011Y2D01*
X1012Y2D01*
X1013Y2D01*
X1014Y2D01*
X1015Y2D01*
X1016Y2D01*
X1017Y2D01*
X1018Y2D01*
X1019Y2D01*
X1020Y2D01*
X1021Y2D01*
X1022Y2D01*
X1023Y2D01*
X1024Y2D01*
X1025Y2D01*
X1026Y2D01*
X1027Y2D01*
X1028Y2D01*
X1029Y2D01*
X1030Y2D01*
X1031Y2D01*
X1032Y2D01*
X1033Y2D01*
X1034Y2D01*
X1035Y2D01*
X1036Y2D01*
X1037Y2D01*
X1038Y2D01*
X1039Y2D01*
X1040Y2D01*
X1041Y2D01*
X1042Y2D01*
X1043Y2D01*
X1044Y2D01*
X1045Y2D01*
X1046Y2D01*
X1047Y2D01*
X1048Y2D01*
X1049Y2D01*
X1050Y2D01*
X1051Y2D01*
X1052Y2D01*
X1053Y2D01*
X1054Y2D01*
X1055Y2D01*
X1056Y2D01*
X1057Y2D01*
X1058Y2D01*
X1059Y2D01*
X1060Y2D01*
X1061Y2D01*
X1062Y2D01*
X1063Y2D01*
X1064Y2D01*
X1065Y2D01*
X1066Y2D01*
X1067Y2D01*
X1068Y2D01*
X1069Y2D01*
X1070Y2D01*
X1071Y2D01*
X1072Y2D01*
X1073Y2D01*
X1074Y2D01*
X1075Y2D01*
X1076Y2D01*
X1077Y2D01*
X1078Y2D01*
X1079Y2D01*
X1080Y2D01*
X1081Y2D01*
X1082Y2D01*
X1083Y2D01*
X1084Y2D01*
X1085Y2D01*
X1086Y2D01*
X1087Y2D01*
X1088Y2D01*
X1089Y2D01*
X1090Y2D01*
X1091Y2D01*
X1092Y2D01*
X1093Y2D01*
X1094Y2D01*
X1095Y2D01*
X1096Y2D01*
X1097Y2D01*
X1098Y2D01*
X1099Y2D01*
X1100Y2D01*
X1101Y2D01*
X1102Y2D01*
X1103Y2D01*
X1104Y2D01*
X1105Y2D01*
X1106Y2D01*
X1107Y2D01*
X1108Y2D01*
X1109Y2D01*
X1110Y2D01*
X1111Y2D01*
X1112Y2D01*
X1113Y2D01*
X1114Y2D01*
X1115Y2D01*
X1116Y2D01*
X1117Y2D01*
X1118Y2D01*
X1119Y2D01*
X1120Y2D01*
X1121Y2D01*
X1122Y2D01*
X1123Y2D01*
X1124Y2D01*
X1125Y2D01*
X1126Y2D01*
X1127Y2D01*
X1128Y2D01*
X1129Y2D01*
X1130Y2D01*
X1131Y2D01*
X1132Y2D01*
X1133Y2D01*
X1134Y2D01*
X1135Y2D01*
X1136Y2D01*
X1137Y2D01*
X1138Y2D01*
X1139Y2D01*
X1140Y2D01*
X1141Y2D01*
X1142Y2D01*
X1143Y2D01*
X1144Y2D01*
X1145Y2D01*
X1146Y2D01*
X1147Y2D01*
X1148Y2D01*
X1149Y2D01*
X1150Y2D01*
X1151Y2D01*
X1152Y2D01*
X1153Y2D01*
X1154Y2D01*
X1155Y2D01*
X1156Y2D01*
X1157Y2D01*
X1158Y2D01*
X1159Y2D01*
X1160Y2D01*
X1161Y2D01*
X1162Y2D01*
X1163Y2D01*
X1164Y2D01*
X1165Y2D01*
X1166Y2D01*
X1167Y2D01*
X1168Y2D01*
X1169Y2D01*
X1170Y2D01*
X1171Y2D01*
X1172Y2D01*
X1173Y2D01*
X1174Y2D01*
X1175Y2D01*
X1176Y2D01*
X1177Y2D01*
X1178Y2D01*
X1179Y2D01*
X1180Y2D01*
X1181Y2D01*
X1182Y2D01*
X1183Y2D01*
X1184Y2D01*
X1185Y2D01*
X1186Y2D01*
X1187Y2D01*
X1188Y2D01*
X1189Y2D01*
X1190Y2D01*
X1191Y2D01*
X1192Y2D01*
X1193Y2D01*
X1194Y2D01*
X1195Y2D01*
X1196Y2D01*
X1197Y2D01*
X1198Y2D01*
X1199Y2D01*
X1200Y2D01*
X1201Y2D01*
X1202Y2D01*
X1203Y2D01*
X1204Y2D01*
X1205Y2D01*
X1206Y2D01*
X1207Y2D01*
X1208Y2D01*
X1209Y2D01*
X1210Y2D01*
X1211Y2D01*
X1212Y2D01*
X1213Y2D01*
X1214Y2D01*
X1215Y2D01*
X1216Y2D01*
X1217Y2D01*
X1218Y2D01*
X1219Y2D01*
X1220Y2D01*
X1221Y2D01*
X1222Y2D01*
X1223Y2D01*
X1224Y2D01*
X1225Y2D01*
X1226Y2D01*
X1227Y2D01*
X1228Y2D01*
X1229Y2D01*
X1230Y2D01*
X1231Y2D01*
X1232Y2D01*
X1233Y2D01*
X1234Y2D01*
X1235Y2D01*
X1236Y2D01*
X1237Y2D01*
X1238Y2D01*
X1239Y2D01*
X1240Y2D01*
X1241Y2D01*
X1242Y2D01*
X1243Y2D01*
X1244Y2D01*
X1245Y2D01*
X1246Y2D01*
X1247Y2D01*
X1248Y2D01*
X1249Y2D01*
X1250Y2D01*
X1251Y2D01*
X1252Y2D01*
X1253Y2D01*
X1254Y2D01*
X1255Y2D01*
X1256Y2D01*
X1257Y2D01*
X1258Y2D01*
X1259Y2D01*
X1260Y2D01*
X1261Y2D01*
X1262Y2D01*
X1263Y2D01*
X1264Y2D01*
X1265Y2D01*
X1266Y2D01*
X1267Y2D01*
X1268Y2D01*
X1269Y2D01*
X1270Y2D01*
X1271Y2D01*
X1272Y2D01*
X1273Y2D01*
X1274Y2D01*
X1275Y2D01*
X1276Y2D01*
X1277Y2D01*
X1278Y2D01*
X1279Y2D01*
X1280Y2D01*
X1281Y2D01*
X1282Y2D01*
X1283Y2D01*
X1284Y2D01*
X1285Y2D01*
X1286Y2D01*
X1287Y2D01*
X1288Y2D01*
X1289Y2D01*
X1290Y2D01*
X1291Y2D01*
X1292Y2D01*
X1293Y2D01*
X1294Y2D01*
X1295Y2D01*
X1296Y2D01*
X1297Y2D01*
X1298Y2D01*
X1299Y2D01*
X1300Y2D01*
X1301Y2D01*
X1302Y2D01*
X1303Y2D01*
X1304Y2D01*
X1305Y2D01*
X1306Y2D01*
X1307Y2D01*
X1308Y2D01*
X1309Y2D01*
X1310Y2D01*
X1311Y2D01*
X1312Y2D01*
X1313Y2D01*
X1314Y2D01*
X1315Y2D01*
X1316Y2D01*
X1317Y2D01*
X1318Y2D01*
X1319Y2D01*
X1320Y2D01*
X1321Y2D01*
X1322Y2D01*
X1323Y2D01*
X1324Y2D01*
X1325Y2D01*
X1326Y2D01*
X1327Y2D01*
X1328Y2D01*
X1329Y2D01*
X1330Y2D01*
X1331Y2D01*
X1332Y2D01*
X1333Y2D01*
X1334Y2D01*
X1335Y2D01*
X1336Y2D01*
X1337Y2D01*
X1338Y2D01*
X1339Y2D01*
X1340Y2D01*
X1341Y2D01*
X1342Y2D01*
X1343Y2D01*
X1344Y2D01*
X1345Y2D01*
X1346Y2D01*
X1347Y2D01*
X1348Y2D01*
X1349Y2D01*
X1350Y2D01*
X1351Y2D01*
X1352Y2D01*
X1353Y2D01*
X1354Y2D01*
X1355Y2D01*
X1356Y2D01*
X1357Y2D01*
X1358Y2D01*
X1359Y2D01*
X1360Y2D01*
X1361Y2D01*
X1362Y2D01*
X1363Y2D01*
X1364Y2D01*
X1365Y2D01*
X1366Y2D01*
X1367Y2D01*
X1368Y2D01*
X1369Y2D01*
X1370Y2D01*
X1371Y2D01*
X1372Y2D01*
X1373Y2D01*
X1374Y2D01*
X1375Y2D01*
X1376Y2D01*
X1377Y2D01*
X1378Y2D01*
X1379Y2D01*
X1380Y2D01*
X1381Y2D01*
X1382Y2D01*
X1383Y2D01*
X1384Y2D01*
X1385Y2D01*
X1386Y2D01*
X1387Y2D01*
X1388Y2D01*
X1389Y2D01*
X1390Y2D01*
X1391Y2D01*
X1392Y2D01*
X1393Y2D01*
X1394Y2D01*
X1395Y2D01*
X1396Y2D01*
X1397Y2D01*
X1398Y2D01*
X1399Y2D01*
X1400Y2D01*
X1401Y2D01*
X1402Y2D01*
X1403Y2D01*
X1404Y2D01*
X1405Y2D01*
X1406Y2D01*
X1407Y2D01*
X1408Y2D01*
X1409Y2D01*
X1410Y2D01*
X1411Y2D01*
X1412Y2D01*
X1413Y2D01*
X1414Y2D01*
X1415Y2D01*
X1416Y2D01*
X1417Y2D01*
X1418Y2D01*
X1419Y2D01*
X1420Y2D01*
X1421Y2D01*
X1422Y2D01*
X1423Y2D01*
X1424Y2D01*
X1425Y2D01*
X1426Y2D01*
X1427Y2D01*
X1428Y2D01*
X1429Y2D01*
X1430Y2D01*
X1431Y2D01*
X1432Y2D01*
X1433Y2D01*
X1434Y2D01*
X1435Y2D01*
X1436Y2D01*
X1437Y2D01*
X1438Y2D01*
X1439Y2D01*
X1440Y2D01*
X1441Y2D01*
X1442Y2D01*
X1443Y2D01*
X1444Y2D01*
X1445Y2D01*
X1446Y2D01*
X1447Y2D01*
X1448Y2D01*
X1449Y2D01*
X1450Y2D01*
X1451Y2D01*
X1452Y2D01*
X1453Y2D01*
X1454Y2D01*
X1455Y2D01*
X1456Y2D01*
X1457Y2D01*
X1458Y2D01*
X1459Y2D01*
X1460Y2D01*
X1461Y2D01*
X1462Y2D01*
X1463Y2D01*
X1464Y2D01*
X1465Y2D01*
X1466Y2D01*
X1467Y2D01*
X1468Y2D01*
X1469Y2D01*
X1470Y2D01*
X1471Y2D01*
X1472Y2D01*
X1473Y2D01*
X1474Y2D01*
X1475Y2D01*
X1476Y2D01*
X1477Y2D01*
X1478Y2D01*
X1479Y2D01*
X1480Y2D01*
X1481Y2D01*
X1482Y2D01*
X1483Y2D01*
X1484Y2D01*
X1485Y2D01*
X1486Y2D01*
X1487Y2D01*
X1488Y2D01*
X1489Y2D01*
X1490Y2D01*
X1491Y2D01*
X1492Y2D01*
X1493Y2D01*
X1494Y2D01*
X1495Y2D01*
X1496Y2D01*
X1497Y2D01*
X1498Y2D01*
X1499Y2D01*
X1500Y2D01*
X1501Y2D01*
X1502Y2D01*
X1503Y2D01*
X1504Y2D01*
X1505Y2D01*
X1506Y2D01*
X1507Y2D01*
X1508Y2D01*
X1509Y2D01*
X1510Y2D01*
X1511Y2D01*
X1512Y2D01*
X1513Y2D01*
X1514Y2D01*
X1515Y2D01*
X1516Y2D01*
X1517Y2D01*
X1518Y2D01*
X1519Y2D01*
X1520Y2D01*
X1521Y2D01*
X1522Y2D01*
X1523Y2D01*
X1524Y2D01*
X1525Y2D01*
X1526Y2D01*
X1527Y2D01*
X1528Y2D01*
X1529Y2D01*
X1530Y2D01*
X1531Y2D01*
X1532Y2D01*
X1533Y2D01*
X1534Y2D01*
X1535Y2D01*
X1536Y2D01*
X1537Y2D01*
X1538Y2D01*
X1539Y2D01*
X1540Y2D01*
X1541Y2D01*
X1542Y2D01*
X1543Y2D01*
X1544Y2D01*
X1545Y2D01*
X1546Y2D01*
X1547Y2D01*
X1548Y2D01*
X1549Y2D01*
X1550Y2D01*
X1551Y2D01*
X1552Y2D01*
X1553Y2D01*
X1554Y2D01*
X1555Y2D01*
X1556Y2D01*
X1557Y2D01*
X1558Y2D01*
X1559Y2D01*
X1560Y2D01*
X1561Y2D01*
X1562Y2D01*
X1563Y2D01*
X1564Y2D01*
X1565Y2D01*
X1566Y2D01*
X1567Y2D01*
X1568Y2D01*
X1569Y2D01*
X1570Y2D01*
X1571Y2D01*
X1572Y2D01*
X1573Y2D01*
X1574Y2D01*
X1575Y2D01*
X1576Y2D01*
X1577Y2D01*
X1578Y2D01*
X1579Y2D01*
X1580Y2D01*
X1581Y2D01*
X1582Y2D01*
X1583Y2D01*
X1584Y2D01*
X1585Y2D01*
X1586Y2D01*
X1587Y2D01*
X1588Y2D01*
X1589Y2D01*
X1590Y2D01*
X1591Y2D01*
X1592Y2D01*
X1593Y2D01*
X1594Y2D01*
X1595Y2D01*
X1596Y2D01*
X1597Y2D01*
X1598Y2D01*
X1599Y2D01*
X1600Y2D01*
X1601Y2D01*
X1602Y2D01*
X1603Y2D01*
X1604Y2D01*
X1605Y2D01*
X1606Y2D01*
X1607Y2D01*
X1608Y2D01*
X1609Y2D01*
X1610Y2D01*
X1611Y2D01*
X1612Y2D01*
X1613Y2D01*
X1614Y2D01*
X1615Y2D01*
X1616Y2D01*
X1617Y2D01*
X1618Y2D01*
X1619Y2D01*
X1620Y2D01*
X1621Y2D01*
X1622Y2D01*
X1623Y2D01*
X1624Y2D01*
X1625Y2D01*
X1626Y2D01*
X1627Y2D01*
X1628Y2D01*
X1629Y2D01*
X1630Y2D01*
X1631Y2D01*
X1632Y2D01*
X1633Y2D01*
X1634Y2D01*
X1635Y2D01*
X1636Y2D01*
X1637Y2D01*
X1638Y2D01*
X1639Y2D01*
X1640Y2D01*
X1641Y2D01*
X1642Y2D01*
X1643Y2D01*
X1644Y2D01*
X1645Y2D01*
X1646Y2D01*
X1647Y2D01*
X1648Y2D01*
X1649Y2D01*
X1650Y2D01*
X1651Y2D01*
X1652Y2D01*
X1653Y2D01*
X1654Y2D01*
X1655Y2D01*
X1656Y2D01*
X1657Y2D01*
X1658Y2D01*
X1659Y2D01*
X1660Y2D01*
X1661Y2D01*
X1662Y2D01*
X1663Y2D01*
X1664Y2D01*
X1665Y2D01*
X1666Y2D01*
X1667Y2D01*
X1668Y2D01*
X1669Y2D01*
X1670Y2D01*
X1671Y2D01*
X1672Y2D01*
X1673Y2D01*
X1674Y2D01*
X1675Y2D01*
X1676Y2D01*
X1677Y2D01*
X1678Y2D01*
X1679Y2D01*
X1680Y2D01*
X1681Y2D01*
X1682Y2D01*
X1683Y2D01*
X1684Y2D01*
X1685Y2D01*
X1686Y2D01*
X1687Y2D01*
X1688Y2D01*
X1689Y2D01*
X1690Y2D01*
X1691Y2D01*
X1692Y2D01*
X1693Y2D01*
X1694Y2D01*
X1695Y2D01*
X1696Y2D01*
X1697Y2D01*
X1698Y2D01*
X1699Y2D01*
X1700Y2D01*
X1701Y2D01*
X1702Y2D01*
X1703Y2D01*
X1704Y2D01*
X1705Y2D01*
X1706Y2D01*
X1707Y2D01*
X1708Y2D01*
X1709Y2D01*
X1710Y2D01*
X1711Y2D01*
X1712Y2D01*
X1713Y2D01*
X1714Y2D01*
X1715Y2D01*
X1716Y2D01*
X1717Y2D01*
X1718Y2D01*
X1719Y2D01*
X1720Y2D01*
X1721Y2D01*
X1722Y2D01*
X1723Y2D01*
X1724Y2D01*
X1725Y2D01*
X1726Y2D01*
X1727Y2D01*
X1728Y2D01*
X1729Y2D01*
X1730Y2D01*
X1731Y2D01*
X1732Y2D01*
X1733Y2D01*
X1734Y2D01*
X1735Y2D01*
X1736Y2D01*
X1737Y2D01*
X1738Y2D01*
X1739Y2D01*
X1740Y2D01*
X1741Y2D01*
X1742Y2D01*
X1743Y2D01*
X1744Y2D01*
X1745Y2D01*
X1746Y2D01*
X1747Y2D01*
X1748Y2D01*
X1749Y2D01*
X1750Y2D01*
X1751Y2D01*
X1752Y2D01*
X1753Y2D01*
X1754Y2D01*
X1755Y2D01*
X1756Y2D01*
X1757Y2D01*
X1758Y2D01*
X1759Y2D01*
X1760Y2D01*
X1761Y2D01*
X1762Y2D01*
X1763Y2D01*
X1764Y2D01*
X1765Y2D01*
X1766Y2D01*
X1767Y2D01*
X1768Y2D01*
X1769Y2D01*
X1770Y2D01*
X1771Y2D01*
X1772Y2D01*
X1773Y2D01*
X1774Y2D01*
X1775Y2D01*
X1776Y2D01*
X1777Y2D01*
X1778Y2D01*
X1779Y2D01*
X1780Y2D01*
X1781Y2D01*
X1782Y2D01*
X1783Y2D01*
X1784Y2D01*
X1785Y2D01*
X1786Y2D01*
X1787Y2D01*
X1788Y2D01*
X1789Y2D01*
X1790Y2D01*
X1791Y2D01*
X1792Y2D01*
X1793Y2D01*
X1794Y2D01*
X1795Y2D01*
X1796Y2D01*
X1797Y2D01*
X1798Y2D01*
X1799Y2D01*
X1800Y2D01*
X1801Y2D01*
X1802Y2D01*
X1803Y2D01*
X1804Y2D01*
X1805Y2D01*
X1806Y2D01*
X1807Y2D01*
X1808Y2D01*
X1809Y2D01*
X1810Y2D01*
X1811Y2D01*
X1812Y2D01*
X1813Y2D01*
X1814Y2D01*
X1815Y2D01*
X1816Y2D01*
X1817Y2D01*
X1818Y2D01*
X1819Y2D01*
X1820Y2D01*
X1821Y2D01*
X1822Y2D01*
X1823Y2D01*
X1824Y2D01*
X1825Y2D01*
X1826Y2D01*
X1827Y2D01*
X1828Y2D01*
X1829Y2D01*
X1830Y2D01*
X1831Y2D01*
X1832Y2D01*
X1833Y2D01*
X1834Y2D01*
X1835Y2D01*
X1836Y2D01*
X1837Y2D01*
X1838Y2D01*
X1839Y2D01*
X1840Y2D01*
X1841Y2D01*
X1842Y2D01*
X1843Y2D01*
X1844Y2D01*
X1845Y2D01*
X1846Y2D01*
X1847Y2D01*
X1848Y2D01*
X1849Y2D01*
X1850Y2D01*
X1851Y2D01*
X1852Y2D01*
X1853Y2D01*
X1854Y2D01*
X1855Y2D01*
X1856Y2D01*
X1857Y2D01*
X1858Y2D01*
X1859Y2D01*
X1860Y2D01*
X1861Y2D01*
X1862Y2D01*
X1863Y2D01*
X1864Y2D01*
X1865Y2D01*
X1866Y2D01*
X1867Y2D01*
X1868Y2D01*
X1869Y2D01*
X1870Y2D01*
X1871Y2D01*
X1872Y2D01*
X1873Y2D01*
X1874Y2D01*
X1875Y2D01*
X1876Y2D01*
X1877Y2D01*
X1878Y2D01*
X1879Y2D01*
X1880Y2D01*
X1881Y2D01*
X1882Y2D01*
X1883Y2D01*
X1884Y2D01*
X1885Y2D01*
X1886Y2D01*
X1887Y2D01*
X1888Y2D01*
X1889Y2D01*
X1890Y2D01*
X1891Y2D01*
X1892Y2D01*
X1893Y2D01*
X1894Y2D01*
X1895Y2D01*
X1896Y2D01*
X1897Y2D01*
X1898Y2D01*
X1899Y2D01*
X1900Y2D01*
X1901Y2D01*
X1902Y2D01*
X1903Y2D01*
X1904Y2D01*
X1905Y2D01*
X1906Y2D01*
X1907Y2D01*
X1908Y2D01*
X1909Y2D01*
X1910Y2D01*
X1911Y2D01*
X1912Y2D01*
X1913Y2D01*
X1914Y2D01*
X1915Y2D01*
X1916Y2D01*
X1917Y2D01*
X1918Y2D01*
X1919Y2D01*
X1920Y2D01*
X1921Y2D01*
X1922Y2D01*
X1923Y2D01*
X1924Y2D01*
X1925Y2D01*
X1926Y2D01*
X1927Y2D01*
X1928Y2D01*
X1929Y2D01*
X1930Y2D01*
X1931Y2D01*
X1932Y2D01*
X1933Y2D01*
X1934Y2D01*
X1935Y2D01*
X1936Y2D01*
X1937Y2D01*
X1938Y2D01*
X1939Y2D01*
X1940Y2D01*
X1941Y2D01*
X1942Y2D01*
X1943Y2D01*
X1944Y2D01*
X1945Y2D01*
X1946Y2D01*
X1947Y2D01*
X1948Y2D01*
X1949Y2D01*
X1950Y2D01*
X1951Y2D01*
X1952Y2D01*
X1953Y2D01*
X1954Y2D01*
X1955Y2D01*
X1956Y2D01*
X1957Y2D01*
X1958Y2D01*
X1959Y2D01*
X1960Y2D01*
X1961Y2D01*
X1962Y2D01*
X1963Y2D01*
X1964Y2D01*
X1965Y2D01*
X1966Y2D01*
X1967Y2D01*
X1968Y2D01*
X1969Y2D01*
X1970Y2D01*
X1971Y2D01*
X1972Y2D01*
X1973Y2D01*
X1974Y2D01*
X1975Y2D01*
X1976Y2D01*
X1977Y2D01*
X1978Y2D01*
X1979Y2D01*
X1980Y2D01*
X1981Y2D01*
X1982Y2D01*
X1983Y2D01*
X1984Y2D01*
X1985Y2D01*
X1986Y2D01*
X1987Y2D01*
X1988Y2D01*
X1989Y2D01*
X1990Y2D01*
X1991Y2D01*
X1992Y2D01*
X1993Y2D01*
X1994Y2D01*
X1995Y2D01*
X1996Y2D01*
X1997Y2D01*
X1998Y2D01*
X1999Y2D01*
X2000Y2D01*
X2001Y2D01*
X2002Y2D01*
X2003Y2D01*
X2004Y2D01*
X2005Y2D01*
X2006Y2D01*
X2007Y2D01*
X2008Y2D01*
X2009Y2D01*
X2010Y2D01*
X2011Y2D01*
X2012Y2D01*
X2013Y2D01*
X2014Y2D01*
X2015Y2D01*
X2016Y2D01*
X2017Y2D01*
X2018Y2D01*
X2019Y2D01*
X2020Y2D01*
X2021Y2D01*
X2022Y2D01*
X2023Y2D01*
X2024Y2D01*
X2025Y2D01*
X2026Y2D01*
X2027Y2D01*
X2028Y2D01*
X2029Y2D01*
X2030Y2D01*
X2031Y2D01*
X2032Y2D01*
X2033Y2D01*
X2034Y2D01*
X2035Y2D01*
X2036Y2D01*
X2037Y2D01*
X2038Y2D01*
X2039Y2D01*
X2040Y2D01*
X2041Y2D01*
X2042Y2D01*
X2043Y2D01*
X2044Y2D01*
X2045Y2D01*
X2046Y2D01*
X2047Y2D01*
X2048Y2D01*
X2049Y2D01*
X2050Y2D01*
X2051Y2D01*
X2052Y2D01*
X2053Y2D01*
X2054Y2D01*
X2055Y2D01*
X2056Y2D01*
X2057Y2D01*
X2058Y2D01*
X2059Y2D01*
X2060Y2D01*
X2061Y2D01*
X2062Y2D01*
X2063Y2D01*
X2064Y2D01*
X2065Y2D01*
X2066Y2D01*
X2067Y2D01*
X2068Y2D01*
X2069Y2D01*
X2070Y2D01*
X2071Y2D01*
X2072Y2D01*
X2073Y2D01*
X2074Y2D01*
X2075Y2D01*
X2076Y2D01*
X2077Y2D01*
X2078Y2D01*
X2079Y2D01*
X2080Y2D01*
X2081Y2D01*
X2082Y2D01*
X2083Y2D01*
X2084Y2D01*
X2085Y2D01*
X2086Y2D01*
X2087Y2D01*
X2088Y2D01*
X2089Y2D01*
X2090Y2D01*
X2091Y2D01*
X2092Y2D01*
X2093Y2D01*
X2094Y2D01*
X2095Y2D01*
X2096Y2D01*
X2097Y2D01*
X2098Y2D01*
X2099Y2D01*
X2100Y2D01*
X2101Y2D01*
X2102Y2D01*
X2103Y2D01*
X2104Y2D01*
X2105Y2D01*
X2106Y2D01*
X2107Y2D01*
X2108Y2D01*
X2109Y2D01*
X2110Y2D01*
X2111Y2D01*
X2112Y2D01*
X2113Y2D01*
X2114Y2D01*
X2115Y2D01*
X2116Y2D01*
X2117Y2D01*
X2118Y2D01*
X2119Y2D01*
X2120Y2D01*
X2121Y2D01*
X2122Y2D01*
X2123Y2D01*
X2124Y2D01*
X2125Y2D01*
X2126Y2D01*
X2127Y2D01*
X2128Y2D01*
X2129Y2D01*
X2130Y2D01*
X2131Y2D01*
X2132Y2D01*
X2133Y2D01*
X2134Y2D01*
X2135Y2D01*
X2136Y2D01*
X2137Y2D01*
X2138Y2D01*
X2139Y2D01*
X2140Y2D01*
X2141Y2D01*
X2142Y2D01*
X2143Y2D01*
X2144Y2D01*
X2145Y2D01*
X2146Y2D01*
X2147Y2D01*
X2148Y2D01*
X2149Y2D01*
X2150Y2D01*
X2151Y2D01*
X2152Y2D01*
X2153Y2D01*
X2154Y2D01*
X2155Y2D01*
X2156Y2D01*
X2157Y2D01*
X2158Y2D01*
X2159Y2D01*
X2160Y2D01*
X2161Y2D01*
X2162Y2D01*
X2163Y2D01*
X2164Y2D01*
X2165Y2D01*
X2166Y2D01*
X2167Y2D01*
X2168Y2D01*
X2169Y2D01*
X2170Y2D01*
X2171Y2D01*
X2172Y2D01*
X2173Y2D01*
X2174Y2D01*
X2175Y2D01*
X2176Y2D01*
X2177Y2D01*
X2178Y2D01*
X2179Y2D01*
X2180Y2D01*
X2181Y2D01*
X2182Y2D01*
X2183Y2D01*
X2184Y2D01*
X2185Y2D01*
X2186Y2D01*
X2187Y2D01*
X2188Y2D01*
X2189Y2D01*
X2190Y2D01*
X2191Y2D01*
X2192Y2D01*
X2193Y2D01*
X2194Y2D01*
X2195Y2D01*
X2196Y2D01*
X2197Y2D01*
X2198Y2D01*
X2199Y2D01*
X2200Y2D01*
X2201Y2D01*
X2202Y2D01*
X2203Y2D01*
X2204Y2D01*
X2205Y2D01*
X2206Y2D01*
X2207Y2D01*
X2208Y2D01*
X2209Y2D01*
X2210Y2D01*
X2211Y2D01*
X2212Y2D01*
X2213Y2D01*
X2214Y2D01*
X2215Y2D01*
X2216Y2D01*
X2217Y2D01*
X2218Y2D01*
X2219Y2D01*
X2220Y2D01*
X2221Y2D01*
X2222Y2D01*
X2223Y2D01*
X2224Y2D01*
X2225Y2D01*
X2226Y2D01*
X2227Y2D01*
X2228Y2D01*
X2229Y2D01*
X2230Y2D01*
X2231Y2D01*
X2232Y2D01*
X2233Y2D01*
X2234Y2D01*
X2235Y2D01*
X2236Y2D01*
X2237Y2D01*
X2238Y2D01*
X2239Y2D01*
X2240Y2D01*
X2241Y2D01*
X2242Y2D01*
X2243Y2D01*
X2244Y2D01*
X2245Y2D01*
X2246Y2D01*
X2247Y2D01*
X2248Y2D01*
X2249Y2D01*
X2250Y2D01*
X2251Y2D01*
X2252Y2D01*
X2253Y2D01*
X2254Y2D01*
X2255Y2D01*
X2256Y2D01*
X2257Y2D01*
X2258Y2D01*
X2259Y2D01*
X2260Y2D01*
X2261Y2D01*
X2262Y2D01*
X2263Y2D01*
X2264Y2D01*
X2265Y2D01*
X2266Y2D01*
X2267Y2D01*
X2268Y2D01*
X2269Y2D01*
X2270Y2D01*
X2271Y2D01*
X2272Y2D01*
X2273Y2D01*
X2274Y2D01*
X2275Y2D01*
X2276Y2D01*
X2277Y2D01*
X2278Y2D01*
X2279Y2D01*
X2280Y2D01*
X2281Y2D01*
X2282Y2D01*
X2283Y2D01*
X2284Y2D01*
X2285Y2D01*
X2286Y2D01*
X2287Y2D01*
X2288Y2D01*
X2289Y2D01*
X2290Y2D01*
X2291Y2D01*
X2292Y2D01*
X2293Y2D01*
X2294Y2D01*
X2295Y2D01*
X2296Y2D01*
X2297Y2D01*
X2298Y2D01*
X2299Y2D01*
X2300Y2D01*
X2301Y2D01*
X2302Y2D01*
X2303Y2D01*
X2304Y2D01*
X2305Y2D01*
X2306Y2D01*
X2307Y2D01*
X2308Y2D01*
X2309Y2D01*
X2310Y2D01*
X2311Y2D01*
X2312Y2D01*
X2313Y2D01*
X2314Y2D01*
X2315Y2D01*
X2316Y2D01*
X2317Y2D01*
X2318Y2D01*
X2319Y2D01*
X2320Y2D01*
X2321Y2D01*
X2322Y2D01*
X2323Y2D01*
X2324Y2D01*
X2325Y2D01*
X2326Y2D01*
X2327Y2D01*
X2328Y2D01*
X2329Y2D01*
X2330Y2D01*
X2331Y2D01*
X2332Y2D01*
X2333Y2D01*
X2334Y2D01*
X2335Y2D01*
X2336Y2D01*
X2337Y2D01*
X2338Y2D01*
X2339Y2D01*
X2340Y2D01*
X2341Y2D01*
X2342Y2D01*
X2343Y2D01*
X2344Y2D01*
X2345Y2D01*
X2346Y2D01*
X2347Y2D01*
X2348Y2D01*
X2349Y2D01*
X2350Y2D01*
X2351Y2D01*
X2352Y2D01*
X2353Y2D01*
X2354Y2D01*
X2355Y2D01*
X2356Y2D01*
X2357Y2D01*
X2358Y2D01*
X2359Y2D01*
X2360Y2D01*
X2361Y2D01*
X2362Y2D01*
X2363Y2D01*
X2364Y2D01*
X2365Y2D01*
X2366Y2D01*
X2367Y2D01*
X2368Y2D01*
X2369Y2D01*
X2370Y2D01*
X2371Y2D01*
X2372Y2D01*
X2373Y2D01*
X2374Y2D01*
X2375Y2D01*
X2376Y2D01*
X2377Y2D01*
X2378Y2D01*
X2379Y2D01*
X2380Y2D01*
X2381Y2D01*
X2382Y2D01*
X2383Y2D01*
X2384Y2D01*
X2385Y2D01*
X2386Y2D01*
X2387Y2D01*
X2388Y2D01*
X2389Y2D01*
X2390Y2D01*
X2391Y2D01*
X2392Y2D01*
X2393Y2D01*
X2394Y2D01*
X2395Y2D01*
X2396Y2D01*
X2397Y2D01*
X2398Y2D01*
X2399Y2D01*
X2400Y2D01*
X2401Y2D01*
X2402Y2D01*
X2403Y2D01*
X2404Y2D01*
X2405Y2D01*
X2406Y2D01*
X2407Y2D01*
X2408Y2D01*
X2409Y2D01*
X2410Y2D01*
X2411Y2D01*
X2412Y2D01*
X2413Y2D01*
X2414Y2D01*
X2415Y2D01*
X2416Y2D01*
X2417Y2D01*
X2418Y2D01*
X2419Y2D01*
X2420Y2D01*
X2421Y2D01*
X2422Y2D01*
X2423Y2D01*
X2424Y2D01*
X2425Y2D01*
X2426Y2D01*
X2427Y2D01*
X2428Y2D01*
X2429Y2D01*
X2430Y2D01*
X2431Y2D01*
X2432Y2D01*
X2433Y2D01*
X2434Y2D01*
X2435Y2D01*
X2436Y2D01*
X2437Y2D01*
X2438Y2D01*
X2439Y2D01*
X2440Y2D01*
X2441Y2D01*
X2442Y2D01*
X2443Y2D01*
X2444Y2D01*
X2445Y2D01*
X2446Y2D01*
X2447Y2D01*
X2448Y2D01*
X2449Y2D01*
X2450Y2D01*
X2451Y2D01*
X2452Y2D01*
X2453Y2D01*
X2454Y2D01*
X2455Y2D01*
X2456Y2D01*
X2457Y2D01*
X2458Y2D01*
X2459Y2D01*
X2460Y2D01*
X2461Y2D01*
X2462Y2D01*
X2463Y2D01*
X2464Y2D01*
X2465Y2D01*
X2466Y2D01*
X2467Y2D01*
X2468Y2D01*
X2469Y2D01*
X2470Y2D01*
X2471Y2D01*
X2472Y2D01*
X2473Y2D01*
X2474Y2D01*
X2475Y2D01*
X2476Y2D01*
X2477Y2D01*
X2478Y2D01*
X2479Y2D01*
X2480Y2D01*
X2481Y2D01*
X2482Y2D01*
X2483Y2D01*
X2484Y2D01*
X2485Y2D01*
X2486Y2D01*
X2487Y2D01*
X2488Y2D01*
X2489Y2D01*
X2490Y2D01*
X2491Y2D01*
X2492Y2D01*
X2493Y2D01*
X2494Y2D01*
X2495Y2D01*
X2496Y2D01*
X2497Y2D01*
X2498Y2D01*
X2499Y2D01*
X2500Y2D01*
X2501Y2D01*
X2502Y2D01*
X2503Y2D01*
X2504Y2D01*
X2505Y2D01*
X2506Y2D01*
X2507Y2D01*
X2508Y2D01*
X2509Y2D01*
X2510Y2D01*
X2511Y2D01*
X2512Y2D01*
X2513Y2D01*
X2514Y2D01*
X2515Y2D01*
X2516Y2D01*
X2517Y2D01*
X2518Y2D01*
X2519Y2D01*
X2520Y2D01*
X2521Y2D01*
X2522Y2D01*
X2523Y2D01*
X2524Y2D01*
X2525Y2D01*
X2526Y2D01*
X2527Y2D01*
X2528Y2D01*
X2529Y2D01*
X2530Y2D01*
X2531Y2D01*
X2532Y2D01*
X2533Y2D01*
X2534Y2D01*
X2535Y2D01*
X2536Y2D01*
X2537Y2D01*
X2538Y2D01*
X2539Y2D01*
X2540Y2D01*
X2541Y2D01*
X2542Y2D01*
X2543Y2D01*
X2544Y2D01*
X2545Y2D01*
X2546Y2D01*
X2547Y2D01*
X2548Y2D01*
X2549Y2D01*
X2550Y2D01*
X2551Y2D01*
X2552Y2D01*
X2553Y2D01*
X2554Y2D01*
X2555Y2D01*
X2556Y2D01*
X2557Y2D01*
X2558Y2D01*
X2559Y2D01*
X2560Y2D01*
X2561Y2D01*
X2562Y2D01*
X2563Y2D01*
X2564Y2D01*
X2565Y2D01*
X2566Y2D01*
X2567Y2D01*
X2568Y2D01*
X2569Y2D01*
X2570Y2D01*
X2571Y2D01*
X2572Y2D01*
X2573Y2D01*
X2574Y2D01*
X2575Y2D01*
X2576Y2D01*
X2577Y2D01*
X2578Y2D01*
X2579Y2D01*
X2580Y2D01*
X2581Y2D01*
X2582Y2D01*
X2583Y2D01*
X2584Y2D01*
X2585Y2D01*
X2586Y2D01*
X2587Y2D01*
X2588Y2D01*
X2589Y2D01*
X2590Y2D01*
X2591Y2D01*
X2592Y2D01*
X2593Y2D01*
X2594Y2D01*
X2595Y2D01*
X2596Y2D01*
X2597Y2D01*
X2598Y2D01*
X2599Y2D01*
X2600Y2D01*
X2601Y2D01*
X2602Y2D01*
X2603Y2D01*
X2604Y2D01*
X2605Y2D01*
X2606Y2D01*
X2607Y2D01*
X2608Y2D01*
X2609Y2D01*
X2610Y2D01*
X2611Y2D01*
X2612Y2D01*
X2613Y2D01*
X2614Y2D01*
X2615Y2D01*
X2616Y2D01*
X2617Y2D01*
X2618Y2D01*
X2619Y2D01*
X2620Y2D01*
X2621Y2D01*
X2622Y2D01*
X2623Y2D01*
X2624Y2D01*
X2625Y2D01*
X2626Y2D01*
X2627Y2D01*
X2628Y2D01*
X2629Y2D01*
X2630Y2D01*
X2631Y2D01*
X2632Y2D01*
X2633Y2D01*
X2634Y2D01*
X2635Y2D01*
X2636Y2D01*
X2637Y2D01*
X2638Y2D01*
X2639Y2D01*
X2640Y2D01*
X2641Y2D01*
X2642Y2D01*
X2643Y2D01*
X2644Y2D01*
X2645Y2D01*
X2646Y2D01*
X2647Y2D01*
X2648Y2D01*
X2649Y2D01*
X2650Y2D01*
X2651Y2D01*
X2652Y2D01*
X2653Y2D01*
X2654Y2D01*
X2655Y2D01*
X2656Y2D01*
X2657Y2D01*
X2658Y2D01*
X2659Y2D01*
X2660Y2D01*
X2661Y2D01*
X2662Y2D01*
X2663Y2D01*
X2664Y2D01*
X2665Y2D01*
X2666Y2D01*
X2667Y2D01*
X2668Y2D01*
X2669Y2D01*
X2670Y2D01*
X2671Y2D01*
X2672Y2D01*
X2673Y2D01*
X2674Y2D01*
X2675Y2D01*
X2676Y2D01*
X2677Y2D01*
X2678Y2D01*
X2679Y2D01*
X2680Y2D01*
X2681Y2D01*
X2682Y2D01*
X2683Y2D01*
X2684Y2D01*
X2685Y2D01*
X2686Y2D01*
X2687Y2D01*
X2688Y2D01*
X2689Y2D01*
X2690Y2D01*
X2691Y2D01*
X2692Y2D01*
X2693Y2D01*
X2694Y2D01*
X2695Y2D01*
X2696Y2D01*
X2697Y2D01*
X2698Y2D01*
X2699Y2D01*
X2700Y2D01*
X2701Y2D01*
X2702Y2D01*
X2703Y2D01*
X2704Y2D01*
X2705Y2D01*
X2706Y2D01*
X2707Y2D01*
X2708Y2D01*
X2709Y2D01*
X2710Y2D01*
X2711Y2D01*
X2712Y2D01*
X2713Y2D01*
X2714Y2D01*
X2715Y2D01*
X2716Y2D01*
X2717Y2D01*
X2718Y2D01*
X2719Y2D01*
X2720Y2D01*
X2721Y2D01*
X2722Y2D01*
X2723Y2D01*
X2724Y2D01*
X2725Y2D01*
X2726Y2D01*
X2727Y2D01*
X2728Y2D01*
X2729Y2D01*
X2730Y2D01*
X2731Y2D01*
X2732Y2D01*
X2733Y2D01*
X2734Y2D01*
X2735Y2D01*
X2736Y2D01*
X2737Y2D01*
X2738Y2D01*
X2739Y2D01*
X2740Y2D01*
X2741Y2D01*
X2742Y2D01*
X2743Y2D01*
X2744Y2D01*
X2745Y2D01*
X2746Y2D01*
X2747Y2D01*
X2748Y2D01*
X2749Y2D01*
X2750Y2D01*
X2751Y2D01*
X2752Y2D01*
X2753Y2D01*
X2754Y2D01*
X2755Y2D01*
X2756Y2D01*
X2757Y2D01*
X2758Y2D01*
X2759Y2D01*
X2760Y2D01*
X2761Y2D01*
X2762Y2D01*
X2763Y2D01*
X2764Y2D01*
X2765Y2D01*
X2766Y2D01*
X2767Y2D01*
X2768Y2D01*
X2769Y2D01*
X2770Y2D01*
X2771Y2D01*
X2772Y2D01*
X2773Y2D01*
X2774Y2D01*
X2775Y2D01*
X2776Y2D01*
X2777Y2D01*
X2778Y2D01*
X2779Y2D01*
X2780Y2D01*
X2781Y2D01*
X2782Y2D01*
X2783Y2D01*
X2784Y2D01*
X2785Y2D01*
X2786Y2D01*
X2787Y2D01*
X2788Y2D01*
X2789Y2D01*
X2790Y2D01*
X2791Y2D01*
X2792Y2D01*
X2793Y2D01*
X2794Y2D01*
X2795Y2D01*
X2796Y2D01*
X2797Y2D01*
X2798Y2D01*
X2799Y2D01*
X2800Y2D01*
X2801Y2D01*
X2802Y2D01*
X2803Y2D01*
X2804Y2D01*
X2805Y2D01*
X2806Y2D01*
X2807Y2D01*
X2808Y2D01*
X2809Y2D01*
X2810Y2D01*
X2811Y2D01*
X2812Y2D01*
X2813Y2D01*
X2814Y2D01*
X2815Y2D01*
X2816Y2D01*
X2817Y2D01*
X2818Y2D01*
X2819Y2D01*
X2820Y2D01*
X2821Y2D01*
X2822Y2D01*
X2823Y2D01*
X2824Y2D01*
X2825Y2D01*
X2826Y2D01*
X2827Y2D01*
X2828Y2D01*
X2829Y2D01*
X2830Y2D01*
X2831Y2D01*
X2832Y2D01*
X2833Y2D01*
X2834Y2D01*
X2835Y2D01*
X2836Y2D01*
X2837Y2D01*
X2838Y2D01*
X2839Y2D01*
X2840Y2D01*
X2841Y2D01*
X2842Y2D01*
X2843Y2D01*
X2844Y2D01*
X2845Y2D01*
X2846Y2D01*
X2847Y2D01*
X2848Y2D01*
X2849Y2D01*
X2850Y2D01*
X2851Y2D01*
X2852Y2D01*
X2853Y2D01*
X2854Y2D01*
X2855Y2D01*
X2856Y2D01*
X2857Y2D01*
X2858Y2D01*
X2859Y2D01*
X2860Y2D01*
X2861Y2D01*
X2862Y2D01*
X2863Y2D01*
X2864Y2D01*
X2865Y2D01*
X2866Y2D01*
X2867Y2D01*
X2868Y2D01*
X2869Y2D01*
X2870Y2D01*
X2871Y2D01*
X2872Y2D01*
X2873Y2D01*
X2874Y2D01*
X2875Y2D01*
X2876Y2D01*
X2877Y2D01*
X2878Y2D01*
X2879Y2D01*
X2880Y2D01*
X2881Y2D01*
X2882Y2D01*
X2883Y2D01*
X2884Y2D01*
X2885Y2D01*
X2886Y2D01*
X2887Y2D01*
X2888Y2D01*
X2889Y2D01*
X2890Y2D01*
X2891Y2D01*
X2892Y2D01*
X2893Y2D01*
X2894Y2D01*
X2895Y2D01*
X2896Y2D01*
X2897Y2D01*
X2898Y2D01*
X2899Y2D01*
X2900Y2D01*
X2901Y2D01*
X2902Y2D01*
X2903Y2D01*
X2904Y2D01*
X2905Y2D01*
X2906Y2D01*
X2907Y2D01*
X2908Y2D01*
X2909Y2D01*
X2910Y2D01*
X2911Y2D01*
X2912Y2D01*
X2913Y2D01*
X2914Y2D01*
X2915Y2D01*
X2916Y2D01*
X2917Y2D01*
X2918Y2D01*
X2919Y2D01*
X2920Y2D01*
X2921Y2D01*
X2922Y2D01*
X2923Y2D01*
X2924Y2D01*
X2925Y2D01*
X2926Y2D01*
X2927Y2D01*
X2928Y2D01*
X2929Y2D01*
X2930Y2D01*
X2931Y2D01*
X2932Y2D01*
X2933Y2D01*
X2934Y2D01*
X2935Y2D01*
X2936Y2D01*
X2937Y2D01*
X2938Y2D01*
X2939Y2D01*
X2940Y2D01*
X2941Y2D01*
X2942Y2D01*
X2943Y2D01*
X2944Y2D01*
X2945Y2D01*
X2946Y2D01*
X2947Y2D01*
X2948Y2D01*
X2949Y2D01*
X2950Y2D01*
X2951Y2D01*
X2952Y2D01*
X2953Y2D01*
X2954Y2D01*
X2955Y2D01*
X2956Y2D01*
X2957Y2D01*
X2958Y2D01*
X2959Y2D01*
X2960Y2D01*
X2961Y2D01*
X2962Y2D01*
X2963Y2D01*
X2964Y2D01*
X2965Y2D01*
X2966Y2D01*
X2967Y2D01*
X2968Y2D01*
X2969Y2D01*
X2970Y2D01*
X2971Y2D01*
X2972Y2D01*
X2973Y2D01*
X2974Y2D01*
X2975Y2D01*
X2976Y2D01*
X2977Y2D01*
X2978Y2D01*
X2979Y2D01*
X2980Y2D01*
X2981Y2D01*
X2982Y2D01*
X2983Y2D01*
X2984Y2D01*
X2985Y2D01*
X2986Y2D01*
X2987Y2D01*
X2988Y2D01*
X2989Y2D01*
X2990Y2D01*
X2991Y2D01*
X2992Y2D01*
X2993Y2D01*
X2994Y2D01*
X2995Y2D01*
X2996Y2D01*
X2997Y2D01*
X2998Y2D01*
X2999Y2D01*
X3000Y2D01*
X3001Y2D01*
X3002Y2D01*
X3003Y2D01*
X3004Y2D01*
X3005Y2D01*
X3006Y2D01*
X3007Y2D01*
X3008Y2D01*
X3009Y2D01*
X3010Y2D01*
X3011Y2D01*
X3012Y2D01*
X3013Y2D01*
X3014Y2D01*
X3015Y2D01*
X3016Y2D01*
X3017Y2D01*
X3018Y2D01*
X3019Y2D01*
X3020Y2D01*
X3021Y2D01*
X3022Y2D01*
X3023Y2D01*
X3024Y2D01*
X3025Y2D01*
X3026Y2D01*
X3027Y2D01*
X3028Y2D01*
X3029Y2D01*
X3030Y2D01*
X3031Y2D01*
X3032Y2D01*
X3033Y2D01*
X3034Y2D01*
X3035Y2D01*
X3036Y2D01*
X3037Y2D01*
X3038Y2D01*
X3039Y2D01*
X3040Y2D01*
X3041Y2D01*
X3042Y2D01*
X3043Y2D01*
X3044Y2D01*
X3045Y2D01*
X3046Y2D01*
X3047Y2D01*
X3048Y2D01*
X3049Y2D01*
X3050Y2D01*
X3051Y2D01*
X3052Y2D01*
X3053Y2D01*
X3054Y2D01*
X3055Y2D01*
X3056Y2D01*
X3057Y2D01*
X3058Y2D01*
X3059Y2D01*
X3060Y2D01*
X3061Y2D01*
X3062Y2D01*
X3063Y2D01*
X3064Y2D01*
X3065Y2D01*
X3066Y2D01*
X3067Y2D01*
X3068Y2D01*
X3069Y2D01*
X3070Y2D01*
X3071Y2D01*
X3072Y2D01*
X3073Y2D01*
X3074Y2D01*
X3075Y2D01*
X3076Y2D01*
X3077Y2D01*
X3078Y2D01*
X3079Y2D01*
X3080Y2D01*
X3081Y2D01*
X3082Y2D01*
X3083Y2D01*
X3084Y2D01*
X3085Y2D01*
X3086Y2D01*
X3087Y2D01*
X3088Y2D01*
X3089Y2D01*
X3090Y2D01*
X3091Y2D01*
X3092Y2D01*
X3093Y2D01*
X3094Y2D01*
X3095Y2D01*
X3096Y2D01*
X3097Y2D01*
X3098Y2D01*
X3099Y2D01*
X3100Y2D01*
X3101Y2D01*
X3102Y2D01*
X3103Y2D01*
X3104Y2D01*
X3105Y2D01*
X3106Y2D01*
X3107Y2D01*
X3108Y2D01*
X3109Y2D01*
X3110Y2D01*
X3111Y2D01*
X3112Y2D01*
X3113Y2D01*
X3114Y2D01*
X3115Y2D01*
X3116Y2D01*
X3117Y2D01*
X3118Y2D01*
X3119Y2D01*
X3120Y2D01*
X3121Y2D01*
X3122Y2D01*
X3123Y2D01*
X3124Y2D01*
X3125Y2D01*
X3126Y2D01*
X3127Y2D01*
X3128Y2D01*
X3129Y2D01*
X3130Y2D01*
X3131Y2D01*
X3132Y2D01*
X3133Y2D01*
X3134Y2D01*
X3135Y2D01*
X3136Y2D01*
X3137Y2D01*
X3138Y2D01*
X3139Y2D01*
X3140Y2D01*
X3141Y2D01*
X3142Y2D01*
X3143Y2D01*
X3144Y2D01*
X3145Y2D01*
X3146Y2D01*
X3147Y2D01*
X3148Y2D01*
X3149Y2D01*
X3150Y2D01*
X3151Y2D01*
X3152Y2D01*
X3153Y2D01*
X3154Y2D01*
X3155Y2D01*
X3156Y2D01*
X3157Y2D01*
X3158Y2D01*
X3159Y2D01*
X3160Y2D01*
X3161Y2D01*
X3162Y2D01*
X3163Y2D01*
X3164Y2D01*
X3165Y2D01*
X3166Y2D01*
X3167Y2D01*
X3168Y2D01*
X3169Y2D01*
X3170Y2D01*
X3171Y2D01*
X3172Y2D01*
X3173Y2D01*
X3174Y2D01*
X3175Y2D01*
X3176Y2D01*
X3177Y2D01*
X3178Y2D01*
X3179Y2D01*
X3180Y2D01*
X3181Y2D01*
X3182Y2D01*
X3183Y2D01*
X3184Y2D01*
X3185Y2D01*
X3186Y2D01*
X3187Y2D01*
X3188Y2D01*
X3189Y2D01*
X3190Y2D01*
X3191Y2D01*
X3192Y2D01*
X3193Y2D01*
X3194Y2D01*
X3195Y2D01*
X3196Y2D01*
X3197Y2D01*
X3198Y2D01*
X3199Y2D01*
X3200Y2D01*
X3201Y2D01*
X3202Y2D01*
X3203Y2D01*
X3204Y2D01*
X3205Y2D01*
X3206Y2D01*
X3207Y2D01*
X3208Y2D01*
X3209Y2D01*
X3210Y2D01*
X3211Y2D01*
X3212Y2D01*
X3213Y2D01*
X3214Y2D01*
X3215Y2D01*
X3216Y2D01*
X3217Y2D01*
X3218Y2D01*
X3219Y2D01*
X3220Y2D01*
X3221Y2D01*
X3222Y2D01*
X3223Y2D01*
X3224Y2D01*
X3225Y2D01*
X3226Y2D01*
X3227Y2D01*
X3228Y2D01*
X3229Y2D01*
X3230Y2D01*
X3231Y2D01*
X3232Y2D01*
X3233Y2D01*
X3234Y2D01*
X3235Y2D01*
X3236Y2D01*
X3237Y2D01*
X3238Y2D01*
X3239Y2D01*
X3240Y2D01*
X3241Y2D01*
X3242Y2D01*
X3243Y2D01*
X3244Y2D01*
X3245Y2D01*
X3246Y2D01*
X3247Y2D01*
X3248Y2D01*
X3249Y2D01*
X3250Y2D01*
X3251Y2D01*
X3252Y2D01*
X3253Y2D01*
X3254Y2D01*
X3255Y2D01*
X3256Y2D01*
X3257Y2D01*
X3258Y2D01*
X3259Y2D01*
X3260Y2D01*
X3261Y2D01*
X3262Y2D01*
X3263Y2D01*
X3264Y2D01*
X3265Y2D01*
X3266Y2D01*
X3267Y2D01*
X3268Y2D01*
X3269Y2D01*
X3270Y2D01*
X3271Y2D01*
X3272Y2D01*
X3273Y2D01*
X3274Y2D01*
X3275Y2D01*
X3276Y2D01*
X3277Y2D01*
X3278Y2D01*
X3279Y2D01*
X3280Y2D01*
X3281Y2D01*
X3282Y2D01*
X3283Y2D01*
X3284Y2D01*
X3285Y2D01*
X3286Y2D01*
X3287Y2D01*
X3288Y2D01*
X3289Y2D01*
X3290Y2D01*
X3291Y2D01*
X3292Y2D01*
X3293Y2D01*
X3294Y2D01*
X3295Y2D01*
X3296Y2D01*
X3297Y2D01*
X3298Y2D01*
X3299Y2D01*
X3300Y2D01*
X3301Y2D01*
X3302Y2D01*
X3303Y2D01*
X3304Y2D01*
X3305Y2D01*
X3306Y2D01*
X3307Y2D01*
X3308Y2D01*
X3309Y2D01*
X3310Y2D01*
X3311Y2D01*
X3312Y2D01*
X3313Y2D01*
X3314Y2D01*
X3315Y2D01*
X3316Y2D01*
X3317Y2D01*
X3318Y2D01*
X3319Y2D01*
X3320Y2D01*
X3321Y2D01*
X3322Y2D01*
X3323Y2D01*
X3324Y2D01*
X3325Y2D01*
X3326Y2D01*
X3327Y2D01*
X3328Y2D01*
X3329Y2D01*
X3330Y2D01*
X3331Y2D01*
X3332Y2D01*
X3333Y2D01*
X3334Y2D01*
X3335Y2D01*
X3336Y2D01*
X3337Y2D01*
X3338Y2D01*
X3339Y2D01*
X3340Y2D01*
X3341Y2D01*
X3342Y2D01*
X3343Y2D01*
X3344Y2D01*
X3345Y2D01*
X3346Y2D01*
X3347Y2D01*
X3348Y2D01*
X3349Y2D01*
X3350Y2D01*
X3351Y2D01*
X3352Y2D01*
X3353Y2D01*
X3354Y2D01*
X3355Y2D01*
X3356Y2D01*
X3357Y2D01*
X3358Y2D01*
X3359Y2D01*
X3360Y2D01*
X3361Y2D01*
X3362Y2D01*
X3363Y2D01*
X3364Y2D01*
X3365Y2D01*
X3366Y2D01*
X3367Y2D01*
X3368Y2D01*
X3369Y2D01*
X3370Y2D01*
X3371Y2D01*
X3372Y2D01*
X3373Y2D01*
X3374Y2D01*
X3375Y2D01*
X3376Y2D01*
X3377Y2D01*
X3378Y2D01*
X3379Y2D01*
X3380Y2D01*
X3381Y2D01*
X3382Y2D01*
X3383Y2D01*
X3384Y2D01*
X3385Y2D01*
X3386Y2D01*
X3387Y2D01*
X3388Y2D01*
X3389Y2D01*
X3390Y2D01*
X3391Y2D01*
X3392Y2D01*
X3393Y2D01*
X3394Y2D01*
X3395Y2D01*
X3396Y2D01*
X3397Y2D01*
X3398Y2D01*
X3399Y2D01*
X3400Y2D01*
X3401Y2D01*
X3402Y2D01*
X3403Y2D01*
X3404Y2D01*
X3405Y2D01*
X3406Y2D01*
X3407Y2D01*
X3408Y2D01*
X3409Y2D01*
X3410Y2D01*
X3411Y2D01*
X3412Y2D01*
X3413Y2D01*
X3414Y2D01*
X3415Y2D01*
X3416Y2D01*
X3417Y2D01*
X3418Y2D01*
X3419Y2D01*
X3420Y2D01*
X3421Y2D01*
X3422Y2D01*
X3423Y2D01*
X3424Y2D01*
X3425Y2D01*
X3426Y2D01*
X3427Y2D01*
X3428Y2D01*
X3429Y2D01*
X3430Y2D01*
X3431Y2D01*
X3432Y2D01*
X3433Y2D01*
X3434Y2D01*
X3435Y2D01*
X3436Y2D01*
X3437Y2D01*
X3438Y2D01*
X3439Y2D01*
X3440Y2D01*
X3441Y2D01*
X3442Y2D01*
X3443Y2D01*
X3444Y2D01*
X3445Y2D01*
X3446Y2D01*
X3447Y2D01*
X3448Y2D01*
X3449Y2D01*
X3450Y2D01*
X3451Y2D01*
X3452Y2D01*
X3453Y2D01*
X3454Y2D01*
X3455Y2D01*
X3456Y2D01*
X3457Y2D01*
X3458Y2D01*
X3459Y2D01*
X3460Y2D01*
X3461Y2D01*
X3462Y2D01*
X3463Y2D01*
X3464Y2D01*
X3465Y2D01*
X3466Y2D01*
X3467Y2D01*
X3468Y2D01*
X3469Y2D01*
X3470Y2D01*
X3471Y2D01*
X3472Y2D01*
X3473Y2D01*
X3474Y2D01*
X3475Y2D01*
X3476Y2D01*
X3477Y2D01*
X3478Y2D01*
X3479Y2D01*
X3480Y2D01*
X3481Y2D01*
X3482Y2D01*
X3483Y2D01*
X3484Y2D01*
X3485Y2D01*
X3486Y2D01*
X3487Y2D01*
X3488Y2D01*
X3489Y2D01*
X3490Y2D01*
X3491Y2D01*
X3492Y2D01*
X3493Y2D01*
X3494Y2D01*
X3495Y2D01*
X3496Y2D01*
X3497Y2D01*
X3498Y2D01*
X3499Y2D01*
X3500Y2D01*
X3501Y2D01*
X3502Y2D01*
X3503Y2D01*
X3504Y2D01*
X3505Y2D01*
X3506Y2D01*
X3507Y2D01*
X3508Y2D01*
X3509Y2D01*
X3510Y2D01*
X3511Y2D01*
X3512Y2D01*
X3513Y2D01*
X3514Y2D01*
X3515Y2D01*
X3516Y2D01*
X3517Y2D01*
X3518Y2D01*
X3519Y2D01*
X3520Y2D01*
X3521Y2D01*
X3522Y2D01*
X3523Y2D01*
X3524Y2D01*
X3525Y2D01*
X3526Y2D01*
X3527Y2D01*
X3528Y2D01*
X3529Y2D01*
X3530Y2D01*
X3531Y2D01*
X3532Y2D01*
X3533Y2D01*
X3534Y2D01*
X3535Y2D01*
X3536Y2D01*
X3537Y2D01*
X3538Y2D01*
X3539Y2D01*
X3540Y2D01*
X3541Y2D01*
X3542Y2D01*
X3543Y2D01*
X3544Y2D01*
X3545Y2D01*
X3546Y2D01*
X3547Y2D01*
X3548Y2D01*
X3549Y2D01*
X3550Y2D01*
X3551Y2D01*
X3552Y2D01*
X3553Y2D01*
X3554Y2D01*
X3555Y2D01*
X3556Y2D01*
X3557Y2D01*
X3558Y2D01*
X3559Y2D01*
X3560Y2D01*
X3561Y2D01*
X3562Y2D01*
X3563Y2D01*
X3564Y2D01*
X3565Y2D01*
X3566Y2D01*
X3567Y2D01*
X3568Y2D01*
X3569Y2D01*
X3570Y2D01*
X3571Y2D01*
X3572Y2D01*
X3573Y2D01*
X3574Y2D01*
X3575Y2D01*
X3576Y2D01*
X3577Y2D01*
X3578Y2D01*
X3579Y2D01*
X3580Y2D01*
X3581Y2D01*
X3582Y2D01*
X3583Y2D01*
X3584Y2D01*
X3585Y2D01*
X3586Y2D01*
X3587Y2D01*
X3588Y2D01*
X3589Y2D01*
X3590Y2D01*
X3591Y2D01*
X3592Y2D01*
X3593Y2D01*
X3594Y2D01*
X3595Y2D01*
X3596Y2D01*
X3597Y2D01*
X3598Y2D01*
X3599Y2D01*
X3600Y2D01*
X3601Y2D01*
X3602Y2D01*
X3603Y2D01*
X3604Y2D01*
X3605Y2D01*
X3606Y2D01*
X3607Y2D01*
X3608Y2D01*
X3609Y2D01*
X3610Y2D01*
X3611Y2D01*
X3612Y2D01*
X3613Y2D01*
X3614Y2D01*
X3615Y2D01*
X3616Y2D01*
X3617Y2D01*
X3618Y2D01*
X3619Y2D01*
X3620Y2D01*
X3621Y2D01*
X3622Y2D01*
X3623Y2D01*
X3624Y2D01*
X3625Y2D01*
X3626Y2D01*
X3627Y2D01*
X3628Y2D01*
X3629Y2D01*
X3630Y2D01*
X3631Y2D01*
X3632Y2D01*
X3633Y2D01*
X3634Y2D01*
X3635Y2D01*
X3636Y2D01*
X3637Y2D01*
X3638Y2D01*
X3639Y2D01*
X3640Y2D01*
X3641Y2D01*
X3642Y2D01*
X3643Y2D01*
X3644Y2D01*
X3645Y2D01*
X3646Y2D01*
X3647Y2D01*
X3648Y2D01*
X3649Y2D01*
X3650Y2D01*
X3651Y2D01*
X3652Y2D01*
X3653Y2D01*
X3654Y2D01*
X3655Y2D01*
X3656Y2D01*
X3657Y2D01*
X3658Y2D01*
X3659Y2D01*
X3660Y2D01*
X3661Y2D01*
X3662Y2D01*
X3663Y2D01*
X3664Y2D01*
X3665Y2D01*
X3666Y2D01*
X3667Y2D01*
X3668Y2D01*
X3669Y2D01*
X3670Y2D01*
X3671Y2D01*
X3672Y2D01*
X3673Y2D01*
X3674Y2D01*
X3675Y2D01*
X3676Y2D01*
X3677Y2D01*
X3678Y2D01*
X3679Y2D01*
X3680Y2D01*
X3681Y2D01*
X3682Y2D01*
X3683Y2D01*
X3684Y2D01*
X3685Y2D01*
X3686Y2D01*
X3687Y2D01*
X3688Y2D01*
X3689Y2D01*
X3690Y2D01*
X3691Y2D01*
X3692Y2D01*
X3693Y2D01*
X3694Y2D01*
X3695Y2D01*
X3696Y2D01*
X3697Y2D01*
X3698Y2D01*
X3699Y2D01*
X3700Y2D01*
X3701Y2D01*
X3702Y2D01*
X3703Y2D01*
X3704Y2D01*
X3705Y2D01*
X3706Y2D01*
X3707Y2D01*
X3708Y2D01*
X3709Y2D01*
X3710Y2D01*
X3711Y2D01*
X3712Y2D01*
X3713Y2D01*
X3714Y2D01*
X3715Y2D01*
X3716Y2D01*
X3717Y2D01*
X3718Y2D01*
X3719Y2D01*
X3720Y2D01*
X3721Y2D01*
X3722Y2D01*
X3723Y2D01*
X3724Y2D01*
X3725Y2D01*
X3726Y2D01*
X3727Y2D01*
X3728Y2D01*
X3729Y2D01*
X3730Y2D01*
X3731Y2D01*
X3732Y2D01*
X3733Y2D01*
X3734Y2D01*
X3735Y2D01*
X3736Y2D01*
X3737Y2D01*
X3738Y2D01*
X3739Y2D01*
X3740Y2D01*
X3741Y2D01*
X3742Y2D01*
X3743Y2D01*
X3744Y2D01*
X3745Y2D01*
X3746Y2D01*
X3747Y2D01*
X3748Y2D01*
X3749Y2D01*
X3750Y2D01*
X3751Y2D01*
X3752Y2D01*
X3753Y2D01*
X3754Y2D01*
X3755Y2D01*
X3756Y2D01*
X3757Y2D01*
X3758Y2D01*
X3759Y2D01*
X3760Y2D01*
X3761Y2D01*
X3762Y2D01*
X3763Y2D01*
X3764Y2D01*
X3765Y2D01*
X3766Y2D01*
X3767Y2D01*
X3768Y2D01*
X3769Y2D01*
X3770Y2D01*
X3771Y2D01*
X3772Y2D01*
X3773Y2D01*
X3774Y2D01*
X3775Y2D01*
X3776Y2D01*
X3777Y2D01*
X3778Y2D01*
X3779Y2D01*
X3780Y2D01*
X3781Y2D01*
X3782Y2D01*
X3783Y2D01*
X3784Y2D01*
X3785Y2D01*
X3786Y2D01*
X3787Y2D01*
X3788Y2D01*
X3789Y2D01*
X3790Y2D01*
X3791Y2D01*
X3792Y2D01*
X3793Y2D01*
X3794Y2D01*
X3795Y2D01*
X3796Y2D01*
X3797Y2D01*
X3798Y2D01*
X3799Y2D01*
X3800Y2D01*
X3801Y2D01*
X3802Y2D01*
X3803Y2D01*
X3804Y2D01*
X3805Y2D01*
X3806Y2D01*
X3807Y2D01*
X3808Y2D01*
X3809Y2D01*
X3810Y2D01*
X3811Y2D01*
X3812Y2D01*
X3813Y2D01*
X3814Y2D01*
X3815Y2D01*
X3816Y2D01*
X3817Y2D01*
X3818Y2D01*
X3819Y2D01*
X3820Y2D01*
X3821Y2D01*
X3822Y2D01*
X3823Y2D01*
X3824Y2D01*
X3825Y2D01*
X3826Y2D01*
X3827Y2D01*
X3828Y2D01*
X3829Y2D01*
X3830Y2D01*
X3831Y2D01*
X3832Y2D01*
X3833Y2D01*
X3834Y2D01*
X3835Y2D01*
X3836Y2D01*
X3837Y2D01*
X3838Y2D01*
X3839Y2D01*
X3840Y2D01*
X3841Y2D01*
X3842Y2D01*
X3843Y2D01*
X3844Y2D01*
X3845Y2D01*
X3846Y2D01*
X3847Y2D01*
X3848Y2D01*
X3849Y2D01*
X3850Y2D01*
X3851Y2D01*
X3852Y2D01*
X3853Y2D01*
X3854Y2D01*
X3855Y2D01*
X3856Y2D01*
X3857Y2D01*
X3858Y2D01*
X3859Y2D01*
X3860Y2D01*
X3861Y2D01*
X3862Y2D01*
X3863Y2D01*
X3864Y2D01*
X3865Y2D01*
X3866Y2D01*
X3867Y2D01*
X3868Y2D01*
X3869Y2D01*
X3870Y2D01*
X3871Y2D01*
X3872Y2D01*
X3873Y2D01*
X3874Y2D01*
X3875Y2D01*
X3876Y2D01*
X3877Y2D01*
X3878Y2D01*
X3879Y2D01*
X3880Y2D01*
X3881Y2D01*
X3882Y2D01*
X3883Y2D01*
X3884Y2D01*
X3885Y2D01*
X3886Y2D01*
X3887Y2D01*
X3888Y2D01*
X3889Y2D01*
X3890Y2D01*
X3891Y2D01*
X3892Y2D01*
X3893Y2D01*
X3894Y2D01*
X3895Y2D01*
X3896Y2D01*
X3897Y2D01*
X3898Y2D01*
X3899Y2D01*
X3900Y2D01*
X3901Y2D01*
X3902Y2D01*
X3903Y2D01*
X3904Y2D01*
X3905Y2D01*
X3906Y2D01*
X3907Y2D01*
X3908Y2D01*
X3909Y2D01*
X3910Y2D01*
X3911Y2D01*
X3912Y2D01*
X3913Y2D01*
X3914Y2D01*
X3915Y2D01*
X3916Y2D01*
X3917Y2D01*
X3918Y2D01*
X3919Y2D01*
X3920Y2D01*
X3921Y2D01*
X3922Y2D01*
X3923Y2D01*
X3924Y2D01*
X3925Y2D01*
X3926Y2D01*
X3927Y2D01*
X3928Y2D01*
X3929Y2D01*
X3930Y2D01*
X3931Y2D01*
X3932Y2D01*
X3933Y2D01*
X3934Y2D01*
X3935Y2D01*
X3936Y2D01*
X3937Y2D01*
X3938Y2D01*
X3939Y2D01*
X3940Y2D01*
X3941Y2D01*
X3942Y2D01*
X3943Y2D01*
X3944Y2D01*
X3945Y2D01*
X3946Y2D01*
X3947Y2D01*
X3948Y2D01*
X3949Y2D01*
X3950Y2D01*
X3951Y2D01*
X3952Y2D01*
X3953Y2D01*
X3954Y2D01*
X3955Y2D01*
X3956Y2D01*
X3957Y2D01*
X3958Y2D01*
X3959Y2D01*
X3960Y2D01*
X3961Y2D01*
X3962Y2D01*
X3963Y2D01*
X3964Y2D01*
X3965Y2D01*
X3966Y2D01*
X3967Y2D01*
X3968Y2D01*
X3969Y2D01*
X3970Y2D01*
X3971Y2D01*
X3972Y2D01*
X3973Y2D01*
X3974Y2D01*
X3975Y2D01*
X3976Y2D01*
X3977Y2D01*
X3978Y2D01*
X3979Y2D01*
X3980Y2D01*
X3981Y2D01*
X3982Y2D01*
X3983Y2D01*
X3984Y2D01*
X3985Y2D01*
X3986Y2D01*
X3987Y2D01*
X3988Y2D01*
X3989Y2D01*
X3990Y2D01*
X3991Y2D01*
X3992Y2D01*
X3993Y2D01*
X3994Y2D01*
X3995Y2D01*
X3996Y2D01*
X3997Y2D01*
X3998Y2D01*
X3999Y2D01*
X4000Y2D01*
X4001Y2D01*
X4002Y2D01*
X4003Y2D01*
X4004Y2D01*
X4005Y2D01*
X4006Y2D01*
X4007Y2D01*
X4008Y2D01*
X4009Y2D01*
X4010Y2D01*
X4011Y2D01*
X4012Y2D01*
X4013Y2D01*
X4014Y2D01*
X4015Y2D01*
X4016Y2D01*
X4017Y2D01*
X4018Y2D01*
X4019Y2D01*
X4020Y2D01*
X4021Y2D01*
X4022Y2D01*
X4023Y2D01*
X4024Y2D01*
X4025Y2D01*
X4026Y2D01*
X4027Y2D01*
X4028Y2D01*
X4029Y2D01*
X4030Y2D01*
X4031Y2D01*
X4032Y2D01*
X4033Y2D01*
X4034Y2D01*
X4035Y2D01*
X4036Y2D01*
X4037Y2D01*
X4038Y2D01*
X4039Y2D01*
X4040Y2D01*
X4041Y2D01*
X4042Y2D01*
X4043Y2D01*
X4044Y2D01*
X4045Y2D01*
X4046Y2D01*
X4047Y2D01*
X4048Y2D01*
X4049Y2D01*
X4050Y2D01*
X4051Y2D01*
X4052Y2D01*
X4053Y2D01*
X4054Y2D01*
X4055Y2D01*
X4056Y2D01*
X4057Y2D01*
X4058Y2D01*
X4059Y2D01*
X4060Y2D01*
X4061Y2D01*
X4062Y2D01*
X4063Y2D01*
X4064Y2D01*
X4065Y2D01*
X4066Y2D01*
X4067Y2D01*
X4068Y2D01*
X4069Y2D01*
X4070Y2D01*
X4071Y2D01*
X4072Y2D01*
X4073Y2D01*
X4074Y2D01*
X4075Y2D01*
X4076Y2D01*
X4077Y2D01*
X4078Y2D01*
X4079Y2D01*
X4080Y2D01*
X4081Y2D01*
X4082Y2D01*
X4083Y2D01*
X4084Y2D01*
X4085Y2D01*
X4086Y2D01*
X4087Y2D01*
X4088Y2D01*
X4089Y2D01*
X4090Y2D01*
X4091Y2D01*
X4092Y2D01*
X4093Y2D01*
X4094Y2D01*
X4095Y2D01*
X4096Y2D01*
X4097Y2D01*
X4098Y2D01*
X4099Y2D01*
X4100Y2D01*
X4101Y2D01*
X4102Y2D01*
X4103Y2D01*
X4104Y2D01*
X4105Y2D01*
X4106Y2D01*
X4107Y2D01*
X4108Y2D01*
X4109Y2D01*
X4110Y2D01*
X4111Y2D01*
X4112Y2D01*
X4113Y2D01*
X4114Y2D01*
X4115Y2D01*
X4116Y2D01*
X4117Y2D01*
X4118Y2D01*
X4119Y2D01*
X4120Y2D01*
X4121Y2D01*
X4122Y2D01*
X4123Y2D01*
X4124Y2D01*
X4125Y2D01*
X4126Y2D01*
X4127Y2D01*
X4128Y2D01*
X4129Y2D01*
X4130Y2D01*
X4131Y2D01*
X4132Y2D01*
X4133Y2D01*
X4134Y2D01*
X4135Y2D01*
X4136Y2D01*
X4137Y2D01*
X4138Y2D01*
X4139Y2D01*
X4140Y2D01*
X4141Y2D01*
X4142Y2D01*
X4143Y2D01*
X4144Y2D01*
X4145Y2D01*
X4146Y2D01*
X4147Y2D01*
X4148Y2D01*
X4149Y2D01*
X4150Y2D01*
X4151Y2D01*
X4152Y2D01*
X4153Y2D01*
X4154Y2D01*
X4155Y2D01*
X4156Y2D01*
X4157Y2D01*
X4158Y2D01*
X4159Y2D01*
X4160Y2D01*
X4161Y2D01*
X4162Y2D01*
X4163Y2D01*
X4164Y2D01*
X4165Y2D01*
X4166Y2D01*
X4167Y2D01*
X4168Y2D01*
X4169Y2D01*
X4170Y2D01*
X4171Y2D01*
X4172Y2D01*
X4173Y2D01*
X4174Y2D01*
X4175Y2D01*
X4176Y2D01*
X4177Y2D01*
X4178Y2D01*
X4179Y2D01*
X4180Y2D01*
X4181Y2D01*
X4182Y2D01*
X4183Y2D01*
X4184Y2D01*
X4185Y2D01*
X4186Y2D01*
X4187Y2D01*
X4188Y2D01*
X4189Y2D01*
X4190Y2D01*
X4191Y2D01*
X4192Y2D01*
X4193Y2D01*
X4194Y2D01*
X4195Y2D01*
X4196Y2D01*
X4197Y2D01*
X4198Y2D01*
X4199Y2D01*
X4200Y2D01*
X4201Y2D01*
X4202Y2D01*
X4203Y2D01*
X4204Y2D01*
X4205Y2D01*
X4206Y2D01*
X4207Y2D01*
X4208Y2D01*
X4209Y2D01*
X4210Y2D01*
X4211Y2D01*
X4212Y2D01*
X4213Y2D01*
X4214Y2D01*
X4215Y2D01*
X4216Y2D01*
X4217Y2D01*
X4218Y2D01*
X4219Y2D01*
X4220Y2D01*
X4221Y2D01*
X4222Y2D01*
X4223Y2D01*
X4224Y2D01*
X4225Y2D01*
X4226Y2D01*
X4227Y2D01*
X4228Y2D01*
X4229Y2D01*
X4230Y2D01*
X4231Y2D01*
X4232Y2D01*
X4233Y2D01*
X4234Y2D01*
X4235Y2D01*
X4236Y2D01*
X4237Y2D01*
X4238Y2D01*
X4239Y2D01*
X4240Y2D01*
X4241Y2D01*
X4242Y2D01*
X4243Y2D01*
X4244Y2D01*
X4245Y2D01*
X4246Y2D01*
X4247Y2D01*
X4248Y2D01*
X4249Y2D01*
X4250Y2D01*
X4251Y2D01*
X4252Y2D01*
X4253Y2D01*
X4254Y2D01*
X4255Y2D01*
X4256Y2D01*
X4257Y2D01*
X4258Y2D01*
X4259Y2D01*
X4260Y2D01*
X4261Y2D01*
X4262Y2D01*
X4263Y2D01*
X4264Y2D01*
X4265Y2D01*
X4266Y2D01*
X4267Y2D01*
X4268Y2D01*
X4269Y2D01*
X4270Y2D01*
X4271Y2D01*
X4272Y2D01*
X4273Y2D01*
X4274Y2D01*
X4275Y2D01*
X4276Y2D01*
X4277Y2D01*
X4278Y2D01*
X4279Y2D01*
X4280Y2D01*
X4281Y2D01*
X4282Y2D01*
X4283Y2D01*
X4284Y2D01*
X4285Y2D01*
X4286Y2D01*
X4287Y2D01*
X4288Y2D01*
X4289Y2D01*
X4290Y2D01*
X4291Y2D01*
X4292Y2D01*
X4293Y2D01*
X4294Y2D01*
X4295Y2D01*
X4296Y2D01*
X4297Y2D01*
X4298Y2D01*
X4299Y2D01*
X4300Y2D01*
X4301Y2D01*
X4302Y2D01*
X4303Y2D01*
X4304Y2D01*
X4305Y2D01*
X4306Y2D01*
X4307Y2D01*
X4308Y2D01*
X4309Y2D01*
X4310Y2D01*
X4311Y2D01*
X4312Y2D01*
X4313Y2D01*
X4314Y2D01*
X4315Y2D01*
X4316Y2D01*
X4317Y2D01*
X4318Y2D01*
X4319Y2D01*
X4320Y2D01*
X4321Y2D01*
X4322Y2D01*
X4323Y2D01*
X4324Y2D01*
X4325Y2D01*
X4326Y2D01*
X4327Y2D01*
X4328Y2D01*
X4329Y2D01*
X4330Y2D01*
X4331Y2D01*
X4332Y2D01*
X4333Y2D01*
X4334Y2D01*
X4335Y2D01*
X4336Y2D01*
X4337Y2D01*
X4338Y2D01*
X4339Y2D01*
X4340Y2D01*
X4341Y2D01*
X4342Y2D01*
X4343Y2D01*
X4344Y2D01*
X4345Y2D01*
X4346Y2D01*
X4347Y2D01*
X4348Y2D01*
X4349Y2D01*
X4349Y2837D01*
X4348Y2838D01*
X4348Y2840D01*
X4347Y2841D01*
X4347Y2843D01*
X4346Y2844D01*
X4346Y2847D01*
X4345Y2848D01*
X4345Y2850D01*
X4344Y2851D01*
X4344Y2853D01*
X4343Y2854D01*
X4343Y2857D01*
X4342Y2858D01*
X4342Y2860D01*
X4341Y2861D01*
X4341Y2863D01*
X4340Y2864D01*
X4340Y2866D01*
X4339Y2867D01*
X4339Y2870D01*
X4338Y2871D01*
X4338Y2873D01*
X4337Y2874D01*
X4337Y2876D01*
X4336Y2877D01*
X4336Y2879D01*
X4335Y2880D01*
X4335Y2883D01*
X4334Y2884D01*
X4334Y2886D01*
X4333Y2887D01*
X4333Y2889D01*
X4332Y2890D01*
X4332Y2893D01*
X4331Y2894D01*
X4331Y2896D01*
X4330Y2897D01*
X4330Y2899D01*
X4329Y2900D01*
X4329Y2902D01*
X4328Y2903D01*
X4328Y2906D01*
X4327Y2907D01*
X4327Y2909D01*
X4326Y2910D01*
X4326Y2912D01*
X4325Y2913D01*
X4325Y2915D01*
X4324Y2916D01*
X4324Y2919D01*
X4323Y2920D01*
X4323Y2922D01*
X4322Y2923D01*
X4322Y2925D01*
X4321Y2926D01*
X4321Y2929D01*
X4320Y2930D01*
X4320Y2932D01*
X4319Y2933D01*
X4319Y2935D01*
X4318Y2936D01*
X4318Y2938D01*
X4317Y2939D01*
X4317Y2942D01*
X4316Y2943D01*
X4316Y2945D01*
X4315Y2946D01*
X4315Y2948D01*
X4314Y2949D01*
X4314Y2951D01*
X4313Y2952D01*
X4313Y2955D01*
X4312Y2956D01*
X4312Y2958D01*
X4311Y2959D01*
X4311Y2961D01*
X4310Y2962D01*
X4310Y2965D01*
X4309Y2966D01*
X4309Y2968D01*
X4308Y2969D01*
X4308Y2971D01*
X4307Y2972D01*
X4307Y2974D01*
X4306Y2975D01*
X4306Y2978D01*
X4305Y2979D01*
X4305Y2981D01*
X4304Y2982D01*
X4304Y2984D01*
X4303Y2985D01*
X4303Y2987D01*
X4302Y2988D01*
X4302Y2991D01*
X4301Y2992D01*
X4301Y2994D01*
X4300Y2995D01*
X4300Y2997D01*
X4299Y2998D01*
X4299Y3001D01*
X4298Y3002D01*
X4298Y3004D01*
X4297Y3005D01*
X4297Y3007D01*
X4296Y3008D01*
X4296Y3010D01*
X4295Y3011D01*
X4295Y3014D01*
X4294Y3015D01*
X4294Y3017D01*
X4293Y3018D01*
X4293Y3020D01*
X4292Y3021D01*
X4292Y3023D01*
X4291Y3024D01*
X4291Y3027D01*
X4290Y3028D01*
X4290Y3030D01*
X4289Y3031D01*
X4289Y3033D01*
X4288Y3034D01*
X4288Y3037D01*
X4287Y3038D01*
X4287Y3040D01*
X4286Y3041D01*
X4286Y3043D01*
X4285Y3044D01*
X4285Y3046D01*
X4284Y3047D01*
X4284Y3050D01*
X4283Y3051D01*
X4283Y3053D01*
X4282Y3054D01*
X4282Y3056D01*
X4281Y3057D01*
X4281Y3059D01*
X4280Y3060D01*
X4280Y3063D01*
X4279Y3064D01*
X4279Y3066D01*
X4278Y3067D01*
X4278Y3069D01*
X4277Y3070D01*
X4277Y3073D01*
X4276Y3074D01*
X4276Y3076D01*
X4275Y3077D01*
X4275Y3079D01*
X4274Y3080D01*
X4274Y3082D01*
X4273Y3083D01*
X4273Y3086D01*
X4272Y3087D01*
X4272Y3089D01*
X4271Y3090D01*
X4271Y3092D01*
X4270Y3093D01*
X4270Y3095D01*
X4269Y3096D01*
X4269Y3099D01*
X4268Y3100D01*
X4268Y3102D01*
X4267Y3103D01*
X4267Y3105D01*
X4266Y3106D01*
X4266Y3109D01*
X4265Y3110D01*
X4265Y3112D01*
X4264Y3113D01*
X4264Y3115D01*
X4263Y3116D01*
X4263Y3118D01*
X4262Y3119D01*
X4262Y3122D01*
X4261Y3123D01*
X4261Y3125D01*
X4260Y3126D01*
X4260Y3128D01*
X4259Y3129D01*
X4259Y3131D01*
X4258Y3132D01*
X4258Y3135D01*
X4257Y3136D01*
X4257Y3138D01*
X4256Y3139D01*
X4256Y3141D01*
X4255Y3142D01*
X4255Y3145D01*
X4254Y3146D01*
X4254Y3148D01*
X4253Y3149D01*
X4253Y3151D01*
X4252Y3152D01*
X4252Y3154D01*
X4251Y3155D01*
X4251Y3158D01*
X4250Y3159D01*
X4250Y3161D01*
X4249Y3162D01*
X4249Y3164D01*
X4248Y3165D01*
X4248Y3167D01*
X4247Y3168D01*
X4247Y3171D01*
X4246Y3172D01*
X4246Y3174D01*
X4245Y3175D01*
X4245Y3177D01*
X4244Y3178D01*
X4244Y3181D01*
X4243Y3182D01*
X4243Y3184D01*
X4242Y3185D01*
X4242Y3187D01*
X4241Y3188D01*
X4241Y3190D01*
X4240Y3191D01*
X4240Y3194D01*
X4239Y3195D01*
X4239Y3197D01*
X4238Y3198D01*
X4238Y3200D01*
X4237Y3201D01*
X4237Y3203D01*
X4236Y3204D01*
X4236Y3207D01*
X4235Y3208D01*
X4235Y3210D01*
X4234Y3211D01*
X4234Y3213D01*
X4233Y3214D01*
X4233Y3217D01*
X4232Y3218D01*
X4232Y3220D01*
X4231Y3221D01*
X4231Y3223D01*
X4230Y3224D01*
X4230Y3226D01*
X4229Y3227D01*
X4229Y3230D01*
X4228Y3231D01*
X4228Y3233D01*
X4227Y3234D01*
X4227Y3236D01*
X4226Y3237D01*
X4226Y3239D01*
X4225Y3240D01*
X4225Y3243D01*
X4224Y3244D01*
X4224Y3246D01*
X4223Y3247D01*
X4223Y3249D01*
X4222Y3250D01*
X4222Y3253D01*
X4221Y3254D01*
X4221Y3256D01*
X4220Y3257D01*
X4220Y3259D01*
X4219Y3260D01*
X4219Y3262D01*
X4218Y3263D01*
X4218Y3266D01*
X4217Y3267D01*
X4217Y3269D01*
X4216Y3270D01*
X4216Y3272D01*
X4215Y3273D01*
X4215Y3275D01*
X4214Y3276D01*
X4214Y3279D01*
X4213Y3280D01*
X4213Y3282D01*
X4212Y3283D01*
X4212Y3285D01*
X4211Y3286D01*
X4211Y3289D01*
X4210Y3290D01*
X4210Y3292D01*
X4209Y3293D01*
X4209Y3295D01*
X4208Y3296D01*
X4208Y3298D01*
X4207Y3299D01*
X4207Y3302D01*
X4206Y3303D01*
X4206Y3305D01*
X4205Y3306D01*
X4205Y3308D01*
X4204Y3309D01*
X4204Y3311D01*
X4203Y3312D01*
X4203Y3315D01*
X4202Y3316D01*
X4202Y3318D01*
X4201Y3319D01*
X4201Y3321D01*
X4200Y3322D01*
X4200Y3325D01*
X4199Y3326D01*
X4199Y3328D01*
X4198Y3329D01*
X4198Y3331D01*
X4197Y3332D01*
X4197Y3334D01*
X4196Y3335D01*
X4196Y3338D01*
X4195Y3339D01*
X4195Y3341D01*
X4194Y3342D01*
X4194Y3344D01*
X4193Y3345D01*
X4193Y3347D01*
X4192Y3348D01*
X4192Y3351D01*
X4191Y3352D01*
X4191Y3354D01*
X4190Y3355D01*
X4190Y3357D01*
X4189Y3358D01*
X4189Y3361D01*
X4188Y3362D01*
X4188Y3364D01*
X4187Y3365D01*
X4187Y3367D01*
X4186Y3368D01*
X4186Y3370D01*
X4185Y3371D01*
X4185Y3374D01*
X4184Y3375D01*
X4184Y3377D01*
X4183Y3378D01*
X4183Y3380D01*
X4182Y3381D01*
X4182Y3384D01*
X4181Y3385D01*
X4181Y3387D01*
X4180Y3388D01*
X4180Y3390D01*
X4179Y3391D01*
X4179Y3393D01*
X4178Y3394D01*
X4178Y3397D01*
X4177Y3398D01*
X4177Y3400D01*
X4176Y3401D01*
X4176Y3403D01*
X4175Y3404D01*
X4175Y3406D01*
X4174Y3407D01*
X4174Y3410D01*
X4173Y3411D01*
X4173Y3413D01*
X4172Y3414D01*
X4172Y3416D01*
X4171Y3417D01*
X4171Y3420D01*
X4170Y3421D01*
X4170Y3423D01*
X4169Y3424D01*
X4169Y3426D01*
X4168Y3427D01*
X4168Y3429D01*
X4167Y3430D01*
X4167Y3433D01*
X4166Y3434D01*
X4166Y3436D01*
X4165Y3437D01*
X4165Y3439D01*
X4164Y3440D01*
X4164Y3442D01*
X4163Y3443D01*
X4163Y3446D01*
X4162Y3447D01*
X4162Y3449D01*
X4161Y3450D01*
X4161Y3452D01*
X4160Y3453D01*
X4160Y3456D01*
X4159Y3457D01*
X4159Y3459D01*
X4158Y3460D01*
X4158Y3462D01*
X4157Y3463D01*
X4157Y3465D01*
X4156Y3466D01*
X4156Y3469D01*
X4155Y3470D01*
X4155Y3472D01*
X4154Y3473D01*
X4154Y3475D01*
X4153Y3476D01*
X4153Y3478D01*
X4152Y3479D01*
X4152Y3482D01*
X4151Y3483D01*
X4151Y3485D01*
X4150Y3486D01*
X4150Y3488D01*
X4149Y3489D01*
X4149Y3492D01*
X4148Y3493D01*
X4148Y3495D01*
X4147Y3496D01*
X4147Y3498D01*
X4146Y3499D01*
X4146Y3501D01*
X4145Y3502D01*
X4145Y3505D01*
X4144Y3506D01*
X4144Y3508D01*
X4143Y3509D01*
X4143Y3511D01*
X4142Y3512D01*
X4142Y3514D01*
X4141Y3515D01*
X4141Y3518D01*
X4140Y3519D01*
X4140Y3521D01*
X4139Y3522D01*
X4139Y3524D01*
X4138Y3525D01*
X4138Y3528D01*
X4137Y3529D01*
X4137Y3531D01*
X4136Y3532D01*
X4136Y3534D01*
X4135Y3535D01*
X4135Y3537D01*
X4134Y3538D01*
X4134Y3541D01*
X4133Y3542D01*
X4133Y3544D01*
X4132Y3545D01*
X4132Y3547D01*
X4131Y3548D01*
X4131Y3550D01*
X4130Y3551D01*
X4130Y3554D01*
X4129Y3555D01*
X4129Y3557D01*
X4128Y3558D01*
X4128Y3560D01*
X4127Y3561D01*
X4127Y3564D01*
X4126Y3565D01*
X4126Y3567D01*
X4125Y3568D01*
X4125Y3570D01*
X4124Y3571D01*
X4124Y3573D01*
X4123Y3574D01*
X4123Y3577D01*
X4122Y3578D01*
X4122Y3580D01*
X4121Y3581D01*
X4121Y3583D01*
X4120Y3584D01*
X4120Y3586D01*
X4119Y3587D01*
X4119Y3590D01*
X4118Y3591D01*
X4118Y3593D01*
X4117Y3594D01*
X4117Y3596D01*
X4116Y3597D01*
X4116Y3600D01*
X4115Y3601D01*
X4115Y3603D01*
X4114Y3604D01*
X4114Y3606D01*
X4113Y3607D01*
X4113Y3609D01*
X4112Y3610D01*
X4112Y3613D01*
X4111Y3614D01*
X4111Y3616D01*
X4110Y3617D01*
X4110Y3619D01*
X4109Y3620D01*
X4109Y3622D01*
X4108Y3623D01*
X4108Y3626D01*
X4107Y3627D01*
X4107Y3629D01*
X4106Y3630D01*
X4106Y3632D01*
X4105Y3633D01*
X4105Y3636D01*
X4104Y3637D01*
X4104Y3639D01*
X4103Y3640D01*
X4103Y3642D01*
X4102Y3643D01*
X4102Y3645D01*
X4101Y3646D01*
X4101Y3649D01*
X4100Y3650D01*
X4100Y3652D01*
X4099Y3653D01*
X4099Y3655D01*
X4098Y3656D01*
X4098Y3658D01*
X4097Y3659D01*
X4097Y3662D01*
X4096Y3663D01*
X4096Y3665D01*
X4095Y3666D01*
X4095Y3668D01*
X4094Y3669D01*
X4094Y3672D01*
X4093Y3673D01*
X4093Y3675D01*
X4092Y3676D01*
X4092Y3678D01*
X4091Y3679D01*
X4091Y3681D01*
X4090Y3682D01*
X4090Y3685D01*
X4089Y3686D01*
X4089Y3688D01*
X4088Y3689D01*
X4088Y3691D01*
X4087Y3692D01*
X4087Y3694D01*
X4086Y3695D01*
X4086Y3698D01*
X4085Y3699D01*
X4085Y3701D01*
X4084Y3702D01*
X4084Y3704D01*
X4083Y3705D01*
X4083Y3708D01*
X4082Y3709D01*
X4082Y3711D01*
X4081Y3712D01*
X4081Y3714D01*
X4080Y3715D01*
X4080Y3717D01*
X4079Y3718D01*
X4079Y3721D01*
X4078Y3722D01*
X4078Y3724D01*
X4077Y3725D01*
X4077Y3727D01*
X4076Y3728D01*
X4076Y3730D01*
X4075Y3731D01*
X4075Y3734D01*
X4074Y3735D01*
X4074Y3737D01*
X4073Y3738D01*
X4073Y3740D01*
X4072Y3741D01*
X4072Y3744D01*
X4071Y3745D01*
X4071Y3747D01*
X4070Y3748D01*
X4070Y3750D01*
X4069Y3751D01*
X4069Y3753D01*
X4068Y3754D01*
X4068Y3757D01*
X4067Y3758D01*
X4067Y3760D01*
X4066Y3761D01*
X4066Y3763D01*
X4065Y3764D01*
X4065Y3766D01*
X4064Y3767D01*
X4064Y3770D01*
X4063Y3771D01*
X4063Y3773D01*
X4062Y3774D01*
X4062Y3776D01*
X4061Y3777D01*
X4061Y3780D01*
X4060Y3781D01*
X4060Y3783D01*
X4059Y3784D01*
X4059Y3786D01*
X4058Y3787D01*
X4058Y3789D01*
X4057Y3790D01*
X4057Y3793D01*
X4056Y3794D01*
X4056Y3796D01*
X4055Y3797D01*
X4055Y3799D01*
X4054Y3800D01*
X4054Y3803D01*
X4053Y3804D01*
X4053Y3806D01*
X4052Y3807D01*
X4052Y3809D01*
X4051Y3810D01*
X4051Y3812D01*
X4050Y3813D01*
X4050Y3816D01*
X4049Y3817D01*
X4049Y3819D01*
X4048Y3820D01*
X4048Y3822D01*
X4047Y3823D01*
X4047Y3825D01*
X4046Y3826D01*
X4046Y3829D01*
X4045Y3830D01*
X4045Y3832D01*
X4044Y3833D01*
X4044Y3835D01*
X4043Y3836D01*
X4043Y3839D01*
X4042Y3840D01*
X4042Y3842D01*
X4041Y3843D01*
X4041Y3845D01*
X4040Y3846D01*
X4040Y3848D01*
X4039Y3849D01*
X4039Y3852D01*
X4038Y3853D01*
X4038Y3855D01*
X4037Y3856D01*
X4037Y3858D01*
X4036Y3859D01*
X4036Y3861D01*
X4035Y3862D01*
X4035Y3865D01*
X4034Y3866D01*
X4034Y3868D01*
X4033Y3869D01*
X4033Y3871D01*
X4032Y3872D01*
X4032Y3875D01*
X4031Y3876D01*
X4031Y3878D01*
X4030Y3879D01*
X4030Y3881D01*
X4029Y3882D01*
X4029Y3884D01*
X4028Y3885D01*
X4028Y3888D01*
X4027Y3889D01*
X4027Y3891D01*
X4026Y3892D01*
X4026Y3894D01*
X4025Y3895D01*
X4025Y3897D01*
X4024Y3898D01*
X4024Y3901D01*
X4023Y3902D01*
X4023Y3904D01*
X4022Y3905D01*
X4022Y3907D01*
X4021Y3908D01*
X4021Y3911D01*
X4020Y3912D01*
X4020Y3914D01*
X4019Y3915D01*
X4019Y3917D01*
X4018Y3918D01*
X4018Y3920D01*
X4017Y3921D01*
X4017Y3924D01*
X4016Y3925D01*
X4016Y3927D01*
X4015Y3928D01*
X4015Y3930D01*
X4014Y3931D01*
X4014Y3933D01*
X4013Y3934D01*
X4013Y3937D01*
X4012Y3938D01*
X4012Y3940D01*
X4011Y3941D01*
X4011Y3943D01*
X4010Y3944D01*
X4010Y3947D01*
X4009Y3948D01*
X4009Y3950D01*
X4008Y3951D01*
X4008Y3953D01*
X4007Y3954D01*
X4007Y3956D01*
X4006Y3957D01*
X4006Y3960D01*
X4005Y3961D01*
X4005Y3963D01*
X4004Y3964D01*
X4004Y3966D01*
X4003Y3967D01*
X4003Y3970D01*
X4002Y3971D01*
X4002Y3973D01*
X4001Y3974D01*
X4001Y3976D01*
X4000Y3977D01*
X4000Y3979D01*
X3999Y3980D01*
X3999Y3983D01*
X3998Y3984D01*
X3998Y3986D01*
X3997Y3987D01*
X3997Y3989D01*
X3996Y3990D01*
X3996Y3992D01*
X3995Y3993D01*
X3995Y3996D01*
X3994Y3997D01*
X3994Y3999D01*
X3993Y4000D01*
X3993Y4002D01*
X3992Y4003D01*
X3992Y4006D01*
X3991Y4007D01*
X3991Y4009D01*
X3990Y4010D01*
X3990Y4012D01*
X3989Y4013D01*
X3989Y4015D01*
X3988Y4016D01*
X3988Y4019D01*
X3987Y4020D01*
X3987Y4022D01*
X3986Y4023D01*
X3986Y4025D01*
X3985Y4026D01*
X3985Y4028D01*
X3984Y4029D01*
X3984Y4032D01*
X3983Y4033D01*
X3983Y4035D01*
X3982Y4036D01*
X3982Y4038D01*
X3981Y4039D01*
X3981Y4042D01*
X3980Y4043D01*
X3980Y4045D01*
X3979Y4046D01*
X3979Y4048D01*
X3978Y4049D01*
X3978Y4051D01*
X3977Y4052D01*
X3977Y4055D01*
X3976Y4056D01*
X3976Y4058D01*
X3975Y4059D01*
X3975Y4061D01*
X3974Y4062D01*
X3974Y4064D01*
X3973Y4065D01*
X3973Y4068D01*
X3972Y4069D01*
X3972Y4071D01*
X3971Y4072D01*
X3971Y4074D01*
X3970Y4075D01*
X3970Y4078D01*
X3969Y4079D01*
X3969Y4081D01*
X3968Y4082D01*
X3968Y4084D01*
X3967Y4085D01*
X3967Y4087D01*
X3966Y4088D01*
X3966Y4091D01*
X3965Y4092D01*
X3965Y4094D01*
X3964Y4095D01*
X3964Y4097D01*
X3963Y4098D01*
X3963Y4101D01*
X3962Y4102D01*
X3962Y4104D01*
X3961Y4105D01*
X3961Y4107D01*
X3960Y4108D01*
X3960Y4110D01*
X3959Y4111D01*
X3959Y4114D01*
X3958Y4115D01*
X3958Y4117D01*
X3957Y4118D01*
X3957Y4120D01*
X3956Y4121D01*
X3956Y4123D01*
X3955Y4124D01*
X3955Y4127D01*
X3954Y4128D01*
X3954Y4130D01*
X3953Y4131D01*
X3953Y4133D01*
X3952Y4134D01*
X3952Y4137D01*
X3951Y4138D01*
X3951Y4140D01*
X3950Y4141D01*
X3950Y4143D01*
X3949Y4144D01*
X3949Y4146D01*
X3948Y4147D01*
X3948Y4150D01*
X3947Y4151D01*
X3947Y4153D01*
X3946Y4154D01*
X3946Y4156D01*
X3945Y4157D01*
X3945Y4159D01*
X3944Y4160D01*
X3944Y4163D01*
X3943Y4164D01*
X3943Y4166D01*
X3942Y4167D01*
X3942Y4169D01*
X3941Y4170D01*
X3941Y4173D01*
X3940Y4174D01*
X3940Y4176D01*
X3939Y4177D01*
X3939Y4179D01*
X3938Y4180D01*
X3938Y4182D01*
X3937Y4183D01*
X3937Y4186D01*
X3936Y4187D01*
X3936Y4189D01*
X3935Y4190D01*
X3935Y4192D01*
X3934Y4193D01*
X3934Y4195D01*
X3933Y4196D01*
X3933Y4199D01*
X3932Y4200D01*
X3932Y4202D01*
X3931Y4203D01*
X3931Y4205D01*
X3930Y4206D01*
X3930Y4209D01*
X3929Y4210D01*
X3929Y4212D01*
X3928Y4213D01*
X3928Y4215D01*
X3927Y4216D01*
X3927Y4218D01*
X3926Y4219D01*
X3926Y4222D01*
X3925Y4223D01*
X3925Y4225D01*
X3924Y4226D01*
X3924Y4228D01*
X3923Y4229D01*
X3923Y4231D01*
X3922Y4232D01*
X3922Y4235D01*
X3921Y4236D01*
X3921Y4238D01*
X3920Y4239D01*
X3920Y4241D01*
X3919Y4242D01*
X3919Y4245D01*
X3918Y4246D01*
X3918Y4248D01*
X3917Y4249D01*
X3917Y4251D01*
X3916Y4252D01*
X3916Y4254D01*
X3915Y4255D01*
X3915Y4258D01*
X3914Y4259D01*
X3914Y4261D01*
X3913Y4262D01*
X3913Y4264D01*
X3912Y4265D01*
X3912Y4268D01*
X3911Y4269D01*
X3911Y4271D01*
X3910Y4272D01*
X3910Y4274D01*
X3909Y4275D01*
X3909Y4277D01*
X3908Y4278D01*
X3908Y4281D01*
X3907Y4282D01*
X3907Y4284D01*
X3906Y4285D01*
X3906Y4287D01*
X3905Y4288D01*
X3905Y4290D01*
X3904Y4291D01*
X3904Y4294D01*
X3903Y4295D01*
X3903Y4297D01*
X3902Y4298D01*
X3902Y4300D01*
X3901Y4301D01*
X3901Y4304D01*
X3900Y4305D01*
X3900Y4307D01*
X3899Y4308D01*
X3899Y4310D01*
X3898Y4311D01*
X3898Y4313D01*
X3897Y4314D01*
X3897Y4317D01*
X3896Y4318D01*
X3896Y4320D01*
X3895Y4321D01*
X3895Y4323D01*
X3894Y4324D01*
X3894Y4326D01*
X3893Y4327D01*
X3893Y4330D01*
X3892Y4331D01*
X3892Y4333D01*
X3891Y4334D01*
X3891Y4336D01*
X3890Y4337D01*
X3890Y4340D01*
X3889Y4341D01*
X3889Y4343D01*
X3888Y4344D01*
X3888Y4346D01*
X3887Y4347D01*
X3887Y4349D01*
X3886Y4350D01*
X3886Y4353D01*
X3885Y4354D01*
X3885Y4356D01*
X3884Y4357D01*
X3884Y4359D01*
X3883Y4360D01*
X3883Y4362D01*
X3882Y4363D01*
X3882Y4366D01*
X3881Y4367D01*
X3881Y4369D01*
X3880Y4370D01*
X3880Y4372D01*
X3879Y4373D01*
X3879Y4376D01*
X3878Y4377D01*
X3878Y4379D01*
X3877Y4380D01*
X3877Y4382D01*
X3876Y4383D01*
X3876Y4385D01*
X3875Y4386D01*
X3875Y4389D01*
X3874Y4390D01*
X3874Y4392D01*
X3873Y4393D01*
X3873Y4395D01*
X3872Y4396D01*
X3872Y4398D01*
X3871Y4399D01*
X3871Y4402D01*
X3870Y4403D01*
X3870Y4405D01*
X3869Y4406D01*
X3869Y4408D01*
X3868Y4409D01*
X3868Y4412D01*
X3867Y4413D01*
X3867Y4415D01*
X3866Y4416D01*
X3866Y4418D01*
X3865Y4419D01*
X3865Y4421D01*
X3864Y4422D01*
X3864Y4425D01*
X3863Y4426D01*
X3863Y4428D01*
X3862Y4429D01*
X3862Y4431D01*
X3861Y4432D01*
X3861Y4435D01*
X3860Y4436D01*
X3860Y4438D01*
X3859Y4439D01*
X3859Y4441D01*
X3858Y4442D01*
X3858Y4444D01*
X3857Y4445D01*
X3857Y4448D01*
X3856Y4449D01*
X3856Y4451D01*
X3855Y4452D01*
X3855Y4454D01*
X3854Y4455D01*
X3854Y4457D01*
X3853Y4458D01*
X3853Y4461D01*
X3852Y4462D01*
X3852Y4464D01*
X3851Y4465D01*
X3851Y4467D01*
X3850Y4468D01*
X3850Y4471D01*
X3849Y4472D01*
X3849Y4474D01*
X3848Y4475D01*
X3848Y4477D01*
X3847Y4478D01*
X3847Y4480D01*
X3846Y4481D01*
X3846Y4484D01*
X3845Y4485D01*
X3845Y4487D01*
X3844Y4488D01*
X3844Y4490D01*
X3843Y4491D01*
X3843Y4493D01*
X3842Y4494D01*
X3842Y4497D01*
X3841Y4498D01*
X3841Y4500D01*
X3840Y4501D01*
X3840Y4503D01*
X3839Y4504D01*
X3839Y4507D01*
X3838Y4508D01*
X3838Y4510D01*
X3837Y4511D01*
X3837Y4513D01*
X3836Y4514D01*
X3836Y4516D01*
X3835Y4517D01*
X3835Y4520D01*
X3834Y4521D01*
X3834Y4523D01*
X3833Y4524D01*
X3833Y4526D01*
X3832Y4527D01*
X3832Y4529D01*
X3831Y4530D01*
X3831Y4533D01*
X3830Y4534D01*
X3830Y4536D01*
X3829Y4537D01*
X3829Y4539D01*
X3828Y4540D01*
X3828Y4543D01*
X3827Y4544D01*
X3827Y4546D01*
X3826Y4547D01*
X3826Y4549D01*
X3825Y4550D01*
X3825Y4552D01*
X3824Y4553D01*
X3824Y4556D01*
X3823Y4557D01*
X3823Y4559D01*
X3822Y4560D01*
X3822Y4562D01*
X3821Y4563D01*
X3821Y4565D01*
X3820Y4566D01*
X3820Y4569D01*
X3819Y4570D01*
X3819Y4572D01*
X3818Y4573D01*
X3818Y4575D01*
X3817Y4576D01*
X3817Y4579D01*
X3816Y4580D01*
X3816Y4582D01*
X3815Y4583D01*
X3815Y4585D01*
X3814Y4586D01*
X3814Y4588D01*
X3813Y4589D01*
X3813Y4592D01*
X3812Y4593D01*
X3812Y4595D01*
X3811Y4596D01*
X3811Y4598D01*
X3810Y4599D01*
X3810Y4602D01*
X3809Y4603D01*
X3809Y4605D01*
X3808Y4606D01*
X3808Y4608D01*
X3807Y4609D01*
X3807Y4611D01*
X3806Y4612D01*
X3806Y4615D01*
X3805Y4616D01*
X3805Y4618D01*
X3804Y4619D01*
X3804Y4621D01*
X3803Y4622D01*
X3803Y4624D01*
X3802Y4625D01*
X3802Y4628D01*
X3801Y4629D01*
X3801Y4631D01*
X3800Y4632D01*
X3800Y4634D01*
X3799Y4635D01*
X3799Y4638D01*
X3798Y4639D01*
X3798Y4641D01*
X3797Y4642D01*
X3797Y4644D01*
X3796Y4645D01*
X3796Y4647D01*
X3795Y4648D01*
X3795Y4651D01*
X3794Y4652D01*
X3794Y4654D01*
X3793Y4655D01*
X3793Y4657D01*
X3792Y4658D01*
X3792Y4660D01*
X3791Y4661D01*
X3791Y4664D01*
X3790Y4665D01*
X3790Y4667D01*
X3789Y4668D01*
X3789Y4670D01*
X3788Y4671D01*
X3788Y4674D01*
X3787Y4675D01*
X3787Y4677D01*
X3786Y4678D01*
X3786Y4680D01*
X3785Y4681D01*
X3785Y4683D01*
X3784Y4684D01*
X3784Y4687D01*
X3783Y4688D01*
X3783Y4690D01*
X3782Y4691D01*
X3782Y4693D01*
X3781Y4694D01*
X3781Y4696D01*
X3780Y4697D01*
X3780Y4700D01*
X3779Y4701D01*
X3779Y4703D01*
X3778Y4704D01*
X3778Y4706D01*
X3777Y4707D01*
X3777Y4710D01*
X3776Y4711D01*
X3776Y4713D01*
X3775Y4714D01*
X3775Y4716D01*
X3774Y4717D01*
X3774Y4719D01*
X3773Y4720D01*
X3773Y4723D01*
X3772Y4724D01*
X3772Y4726D01*
X3771Y4727D01*
X3771Y4729D01*
X3770Y4730D01*
X3770Y4733D01*
X3769Y4734D01*
X3769Y4736D01*
X3768Y4737D01*
X3768Y4739D01*
X3767Y4740D01*
X3767Y4742D01*
X3766Y4743D01*
X3766Y4746D01*
X3765Y4747D01*
X3765Y4749D01*
X3764Y4750D01*
X3764Y4752D01*
X3763Y4753D01*
X3763Y4755D01*
X3762Y4756D01*
X3762Y4759D01*
X3761Y4760D01*
X3761Y4762D01*
X3760Y4763D01*
X3760Y4765D01*
X3759Y4766D01*
X3759Y4769D01*
X3758Y4770D01*
X3758Y4772D01*
X3757Y4773D01*
X3757Y4775D01*
X3756Y4776D01*
X3756Y4778D01*
X3755Y4779D01*
X3755Y4782D01*
X3754Y4783D01*
X3754Y4785D01*
X3753Y4786D01*
X3753Y4788D01*
X3752Y4789D01*
X3752Y4791D01*
X3751Y4792D01*
X3751Y4795D01*
X3750Y4796D01*
X3750Y4798D01*
X3749Y4799D01*
X3749Y4801D01*
X3748Y4802D01*
X3748Y4805D01*
X3747Y4806D01*
X3747Y4808D01*
X3746Y4809D01*
X3746Y4811D01*
X3745Y4812D01*
X3745Y4814D01*
X3744Y4815D01*
X3744Y4818D01*
X3743Y4819D01*
X3743Y4821D01*
X3742Y4822D01*
X3742Y4824D01*
X3741Y4825D01*
X3741Y4827D01*
X3740Y4828D01*
X3740Y4831D01*
X3739Y4832D01*
X3739Y4834D01*
X3738Y4835D01*
X3738Y4837D01*
X3737Y4838D01*
X3737Y4841D01*
X3736Y4842D01*
X3736Y4844D01*
X3735Y4845D01*
X3735Y4847D01*
X3734Y4848D01*
X3734Y4850D01*
X3733Y4851D01*
X3733Y4854D01*
X3732Y4855D01*
X3732Y4857D01*
X3731Y4858D01*
X3731Y4860D01*
X3730Y4861D01*
X3730Y4863D01*
X3729Y4864D01*
X3729Y4867D01*
X3728Y4868D01*
X3728Y4870D01*
X3727Y4871D01*
X3727Y4873D01*
X3726Y4874D01*
X3726Y4877D01*
X3725Y4878D01*
X3725Y4880D01*
X3724Y4881D01*
X3724Y4883D01*
X3723Y4884D01*
X3723Y4886D01*
X3722Y4887D01*
X3722Y4890D01*
X3721Y4891D01*
X3721Y4893D01*
X3720Y4894D01*
X3720Y4896D01*
X3719Y4897D01*
X3719Y4900D01*
X3718Y4901D01*
X3718Y4903D01*
X3717Y4904D01*
X3717Y4906D01*
X3716Y4907D01*
X3716Y4909D01*
X3715Y4910D01*
X3715Y4913D01*
X3714Y4914D01*
X3714Y4916D01*
X3713Y4917D01*
X3713Y4919D01*
X3712Y4920D01*
X3712Y4922D01*
X3711Y4923D01*
X3711Y4926D01*
X3710Y4927D01*
X3710Y4929D01*
X3709Y4930D01*
X3709Y4932D01*
X3708Y4933D01*
X3708Y4936D01*
X3707Y4937D01*
X3707Y4939D01*
X3706Y4940D01*
X3706Y4942D01*
X3705Y4943D01*
X3705Y4945D01*
X3704Y4946D01*
X3704Y4949D01*
X3703Y4950D01*
X3703Y4952D01*
X3702Y4953D01*
X3702Y4955D01*
X3701Y4956D01*
X3701Y4958D01*
X3700Y4959D01*
X3700Y4962D01*
X3699Y4963D01*
X3699Y4965D01*
X3698Y4966D01*
X3698Y4968D01*
X3697Y4969D01*
X3697Y4972D01*
X3696Y4973D01*
X3696Y4975D01*
X3695Y4976D01*
X3695Y4978D01*
X3694Y4979D01*
X3694Y4981D01*
X3693Y4982D01*
X3693Y4985D01*
X3692Y4986D01*
X3692Y4988D01*
X3691Y4989D01*
X3691Y4991D01*
X3690Y4992D01*
X3690Y4994D01*
X3689Y4995D01*
X3689Y4998D01*
X3688Y4999D01*
X3688Y5001D01*
X3687Y5002D01*
X3687Y5004D01*
X3686Y5005D01*
X3686Y5008D01*
X3685Y5009D01*
X3685Y5011D01*
X3684Y5012D01*
X3684Y5014D01*
X3683Y5015D01*
X3683Y5017D01*
X3682Y5018D01*
X3682Y5021D01*
X3681Y5022D01*
X3681Y5024D01*
X3680Y5025D01*
X3680Y5027D01*
X3679Y5028D01*
X3679Y5030D01*
X3678Y5031D01*
X3678Y5034D01*
X3677Y5035D01*
X3677Y5037D01*
X3676Y5038D01*
X3676Y5040D01*
X3675Y5041D01*
X3675Y5044D01*
X3674Y5045D01*
X3674Y5047D01*
X3673Y5048D01*
X3673Y5050D01*
X3672Y5051D01*
X3672Y5053D01*
X3671Y5054D01*
X3671Y5057D01*
X3670Y5058D01*
X3670Y5060D01*
X3669Y5061D01*
X3669Y5063D01*
X3668Y5064D01*
X3668Y5067D01*
X3667Y5068D01*
X3667Y5070D01*
X3666Y5071D01*
X3666Y5073D01*
X3665Y5074D01*
X3665Y5076D01*
X3664Y5077D01*
X3664Y5080D01*
X3663Y5081D01*
X3663Y5083D01*
X3662Y5084D01*
X3662Y5086D01*
X3661Y5087D01*
X3661Y5089D01*
X3660Y5090D01*
X3660Y5093D01*
X3659Y5094D01*
X3659Y5096D01*
X3658Y5097D01*
X3658Y5099D01*
X3657Y5100D01*
X3657Y5103D01*
X3656Y5104D01*
X3656Y5106D01*
X3655Y5107D01*
X3655Y5109D01*
X3654Y5110D01*
X3654Y5112D01*
X3653Y5113D01*
X3653Y5116D01*
X3652Y5117D01*
X3652Y5119D01*
X3651Y5120D01*
X3651Y5122D01*
X3650Y5123D01*
X3650Y5125D01*
X3649Y5126D01*
X3649Y5129D01*
X3648Y5130D01*
X3648Y5132D01*
X3647Y5133D01*
X3647Y5135D01*
X3646Y5136D01*
X3646Y5139D01*
X3645Y5140D01*
X3645Y5142D01*
X3644Y5143D01*
X3644Y5145D01*
X3643Y5146D01*
X3643Y5148D01*
X3642Y5149D01*
X3642Y5152D01*
X3641Y5153D01*
X3641Y5155D01*
X3640Y5156D01*
X3640Y5158D01*
X3639Y5159D01*
X3639Y5161D01*
X3638Y5162D01*
X3638Y5165D01*
X3637Y5166D01*
X3637Y5168D01*
X3636Y5169D01*
X3636Y5171D01*
X3635Y5172D01*
X3635Y5175D01*
X3634Y5176D01*
X3634Y5178D01*
X3633Y5179D01*
X3633Y5181D01*
X3632Y5182D01*
X3632Y5184D01*
X3631Y5185D01*
X3631Y5188D01*
X3630Y5189D01*
X3630Y5191D01*
X3629Y5192D01*
X3629Y5194D01*
X3628Y5195D01*
X3628Y5197D01*
X3627Y5198D01*
X3627Y5201D01*
X3626Y5202D01*
X3626Y5204D01*
X3625Y5205D01*
X3625Y5207D01*
X3624Y5208D01*
X3624Y5211D01*
X3623Y5212D01*
X3623Y5214D01*
X3622Y5215D01*
X3622Y5217D01*
X3621Y5218D01*
X3621Y5220D01*
X3620Y5221D01*
X3620Y5224D01*
X3619Y5225D01*
X3619Y5227D01*
X3618Y5228D01*
X3618Y5230D01*
X3617Y5231D01*
X3617Y5234D01*
X3616Y5235D01*
X3616Y5237D01*
X3615Y5238D01*
X3615Y5240D01*
X3614Y5241D01*
X3614Y5243D01*
X3613Y5244D01*
X3613Y5247D01*
X3612Y5248D01*
X3612Y5250D01*
X3611Y5251D01*
X3611Y5253D01*
X3610Y5254D01*
X3610Y5256D01*
X3609Y5257D01*
X3609Y5260D01*
X3608Y5261D01*
X3608Y5263D01*
X3607Y5264D01*
X3607Y5266D01*
X3606Y5267D01*
X3606Y5270D01*
X3605Y5271D01*
X3605Y5273D01*
X3604Y5274D01*
X3604Y5276D01*
X3603Y5277D01*
X3603Y5279D01*
X3602Y5280D01*
X3602Y5283D01*
X3601Y5284D01*
X3601Y5286D01*
X3600Y5287D01*
X3600Y5289D01*
X3599Y5290D01*
X3599Y5292D01*
X3598Y5293D01*
X3598Y5296D01*
X3597Y5297D01*
X3597Y5299D01*
X3596Y5300D01*
X3596Y5302D01*
X3595Y5303D01*
X3595Y5306D01*
X3594Y5307D01*
X3594Y5309D01*
X3593Y5310D01*
X3593Y5312D01*
X3592Y5313D01*
X3592Y5315D01*
X3591Y5316D01*
X3591Y5319D01*
X3590Y5320D01*
X3590Y5322D01*
X3589Y5323D01*
X3589Y5325D01*
X3588Y5326D01*
X3588Y5328D01*
X3587Y5329D01*
X3587Y5332D01*
X3586Y5333D01*
X3586Y5335D01*
X3585Y5336D01*
X3585Y5338D01*
X3584Y5339D01*
X3584Y5342D01*
X3583Y5343D01*
X3583Y5345D01*
X3582Y5346D01*
X3582Y5348D01*
X3581Y5349D01*
X3581Y5351D01*
X3580Y5352D01*
X3580Y5355D01*
X3579Y5356D01*
X3579Y5358D01*
X3578Y5359D01*
X3578Y5361D01*
X3577Y5362D01*
X3577Y5365D01*
X3576Y5366D01*
X3576Y5368D01*
X3575Y5369D01*
X3575Y5371D01*
X3574Y5372D01*
X3574Y5374D01*
X3573Y5375D01*
X3573Y5378D01*
X3572Y5379D01*
X3572Y5381D01*
X3571Y5382D01*
X3571Y5384D01*
X3570Y5385D01*
X3570Y5387D01*
X3569Y5388D01*
X3569Y5391D01*
X3568Y5392D01*
X3568Y5394D01*
X3567Y5395D01*
X3567Y5397D01*
X3566Y5398D01*
X3566Y5401D01*
X3565Y5402D01*
X3565Y5404D01*
X3564Y5405D01*
X3564Y5407D01*
X3563Y5408D01*
X3563Y5410D01*
X3562Y5411D01*
X3562Y5414D01*
X3561Y5415D01*
X3561Y5417D01*
X3560Y5418D01*
X3560Y5420D01*
X3559Y5421D01*
X3559Y5423D01*
X3558Y5424D01*
X3558Y5427D01*
X3557Y5428D01*
X3557Y5430D01*
X3556Y5431D01*
X3556Y5433D01*
X3555Y5434D01*
X3555Y5437D01*
X3554Y5438D01*
X3554Y5440D01*
X3553Y5441D01*
X3553Y5443D01*
X3552Y5444D01*
X3552Y5446D01*
X3551Y5447D01*
X3551Y5450D01*
X3550Y5451D01*
X3550Y5453D01*
X3549Y5454D01*
X3549Y5456D01*
X3548Y5457D01*
X3548Y5459D01*
X3547Y5460D01*
X3547Y5463D01*
X3546Y5464D01*
X3546Y5466D01*
X3545Y5467D01*
X3545Y5469D01*
X3544Y5470D01*
X3544Y5473D01*
X3543Y5474D01*
X3543Y5476D01*
X3542Y5477D01*
X3542Y5479D01*
X3541Y5480D01*
X3541Y5482D01*
X3540Y5483D01*
X3540Y5486D01*
X3539Y5487D01*
X3539Y5489D01*
X3538Y5490D01*
X3538Y5492D01*
X3537Y5493D01*
X3537Y5495D01*
X3536Y5496D01*
X3536Y5499D01*
X3535Y5500D01*
X3535Y5502D01*
X3534Y5503D01*
X3534Y5505D01*
X3533Y5506D01*
X3533Y5509D01*
X3532Y5510D01*
X3532Y5512D01*
X3531Y5513D01*
X3531Y5515D01*
X3530Y5516D01*
X3530Y5518D01*
X3529Y5519D01*
X3529Y5522D01*
X3528Y5523D01*
X3528Y5525D01*
X3527Y5526D01*
X3527Y5528D01*
X3526Y5529D01*
X3526Y5532D01*
X3525Y5533D01*
X3525Y5535D01*
X3524Y5536D01*
X3524Y5538D01*
X3523Y5539D01*
X3523Y5541D01*
X3522Y5542D01*
X3522Y5545D01*
X3521Y5546D01*
X3521Y5548D01*
X3520Y5549D01*
X3520Y5551D01*
X3519Y5552D01*
X3519Y5554D01*
X3518Y5555D01*
X3518Y5558D01*
X3517Y5559D01*
X3517Y5561D01*
X3516Y5562D01*
X3516Y5564D01*
X3515Y5565D01*
X3515Y5568D01*
X3514Y5569D01*
X3514Y5571D01*
X3513Y5572D01*
X3513Y5574D01*
X3512Y5575D01*
X3512Y5577D01*
X3511Y5578D01*
X3511Y5581D01*
X3510Y5582D01*
X3510Y5584D01*
X3509Y5585D01*
X3509Y5587D01*
X3508Y5588D01*
X3508Y5590D01*
X3507Y5591D01*
X3507Y5594D01*
X3506Y5595D01*
X3506Y5597D01*
X3505Y5598D01*
X3505Y5600D01*
X3504Y5601D01*
X3504Y5604D01*
X3503Y5605D01*
X3503Y5607D01*
X3502Y5608D01*
X3502Y5610D01*
X3501Y5611D01*
X3501Y5613D01*
X3500Y5614D01*
X3500Y5617D01*
X3499Y5618D01*
X3499Y5620D01*
X3498Y5621D01*
X3498Y5623D01*
X3497Y5624D01*
X3497Y5626D01*
X3496Y5627D01*
X3496Y5630D01*
X3495Y5631D01*
X3495Y5633D01*
X3494Y5634D01*
X3494Y5636D01*
X3493Y5637D01*
X3493Y5640D01*
X3492Y5641D01*
X3492Y5643D01*
X3491Y5644D01*
X3491Y5646D01*
X3490Y5647D01*
X3490Y5649D01*
X3489Y5650D01*
X3489Y5653D01*
X3488Y5654D01*
X3488Y5656D01*
X3487Y5657D01*
X3487Y5659D01*
X3486Y5660D01*
X3486Y5662D01*
X3485Y5663D01*
X3485Y5666D01*
X3484Y5667D01*
X3484Y5669D01*
X3483Y5670D01*
X3483Y5672D01*
X3482Y5673D01*
X3482Y5676D01*
X3481Y5677D01*
X3481Y5679D01*
X3480Y5680D01*
X3480Y5682D01*
X3479Y5683D01*
X3479Y5685D01*
X3478Y5686D01*
X3478Y5689D01*
X3477Y5690D01*
X3477Y5692D01*
X3476Y5693D01*
X3476Y5695D01*
X3475Y5696D01*
X3475Y5699D01*
X3474Y5700D01*
X3474Y5702D01*
X3473Y5703D01*
X3473Y5705D01*
X3472Y5706D01*
X3472Y5708D01*
X3471Y5709D01*
X3471Y5712D01*
X3470Y5713D01*
X3470Y5715D01*
X3469Y5716D01*
X3469Y5718D01*
X3468Y5719D01*
X3468Y5721D01*
X3467Y5722D01*
X3467Y5725D01*
X3466Y5726D01*
X3466Y5728D01*
X3465Y5729D01*
X3465Y5731D01*
X3464Y5732D01*
X3464Y5735D01*
X3463Y5736D01*
X3463Y5738D01*
X3462Y5739D01*
X3462Y5741D01*
X3461Y5742D01*
X3461Y5744D01*
X3460Y5745D01*
X3460Y5748D01*
X3459Y5749D01*
X3459Y5751D01*
X3458Y5752D01*
X3458Y5754D01*
X3457Y5755D01*
X3457Y5757D01*
X3456Y5758D01*
X3456Y5761D01*
X3455Y5762D01*
X3455Y5764D01*
X3454Y5765D01*
X3454Y5767D01*
X3453Y5768D01*
X3453Y5771D01*
X3452Y5772D01*
X3452Y5774D01*
X3451Y5775D01*
X3451Y5777D01*
X3450Y5778D01*
X3450Y5780D01*
X3449Y5781D01*
X3449Y5784D01*
X3448Y5785D01*
X3448Y5787D01*
X3447Y5788D01*
X3447Y5790D01*
X3446Y5791D01*
X3446Y5793D01*
X3445Y5794D01*
X3445Y5797D01*
X3444Y5798D01*
X3444Y5800D01*
X3443Y5801D01*
X3443Y5803D01*
X3442Y5804D01*
X3442Y5807D01*
X3441Y5808D01*
X3441Y5810D01*
X3440Y5811D01*
X3440Y5813D01*
X3439Y5814D01*
X3439Y5816D01*
X3438Y5817D01*
X3438Y5820D01*
X3437Y5821D01*
X3437Y5823D01*
X3436Y5824D01*
X3436Y5826D01*
X3435Y5827D01*
X3435Y5829D01*
X3434Y5830D01*
X3434Y5833D01*
X3433Y5834D01*
X3433Y5836D01*
X3432Y5837D01*
X3432Y5839D01*
X3431Y5840D01*
X3431Y5843D01*
X3430Y5844D01*
X3430Y5846D01*
X3429Y5847D01*
X3429Y5849D01*
X3428Y5850D01*
X3428Y5852D01*
X3427Y5853D01*
X3427Y5856D01*
X3426Y5857D01*
X3426Y5859D01*
X3425Y5860D01*
X3425Y5862D01*
X3424Y5863D01*
X3424Y5866D01*
X3423Y5867D01*
X3423Y5869D01*
X3422Y5870D01*
X3422Y5872D01*
X3421Y5873D01*
X3421Y5875D01*
X3420Y5876D01*
X3420Y5879D01*
X3419Y5880D01*
X3419Y5882D01*
X3418Y5883D01*
X3418Y5885D01*
X3417Y5886D01*
X3417Y5888D01*
X3416Y5889D01*
X3416Y5892D01*
X3415Y5893D01*
X3415Y5895D01*
X3414Y5896D01*
X3414Y5898D01*
X3413Y5899D01*
X3413Y5902D01*
X3412Y5903D01*
X3412Y5905D01*
X3411Y5906D01*
X3411Y5908D01*
X3410Y5909D01*
X3410Y5911D01*
X3409Y5912D01*
X3409Y5915D01*
X3408Y5916D01*
X3408Y5918D01*
X3407Y5919D01*
X3407Y5921D01*
X3406Y5922D01*
X3406Y5924D01*
X3405Y5925D01*
X3405Y5928D01*
X3404Y5929D01*
X3404Y5931D01*
X3403Y5932D01*
X3403Y5934D01*
X3402Y5935D01*
X3402Y5938D01*
X3401Y5939D01*
X3401Y5941D01*
X3400Y5942D01*
X3400Y5944D01*
X3399Y5945D01*
X3399Y5947D01*
X3398Y5948D01*
X3398Y5951D01*
X3397Y5952D01*
X3397Y5954D01*
X3396Y5955D01*
X3396Y5957D01*
X3395Y5958D01*
X3395Y5960D01*
X3394Y5961D01*
X3394Y5964D01*
X3393Y5965D01*
X3393Y5967D01*
X3392Y5968D01*
X3392Y5970D01*
X3391Y5971D01*
X3391Y5974D01*
X3390Y5975D01*
X3390Y5977D01*
X3389Y5978D01*
X3389Y5980D01*
X3388Y5981D01*
X3388Y5983D01*
X3387Y5984D01*
X3387Y5987D01*
X3386Y5988D01*
X3386Y5990D01*
X3385Y5991D01*
X3385Y5993D01*
X3384Y5994D01*
X3384Y5997D01*
X3383Y5998D01*
X3383Y6000D01*
X3382Y6001D01*
X3382Y6003D01*
X3381Y6004D01*
X3381Y6006D01*
X3380Y6007D01*
X3380Y6010D01*
X3379Y6011D01*
X3379Y6013D01*
X3378Y6014D01*
X3378Y6016D01*
X3377Y6017D01*
X3377Y6019D01*
X3376Y6020D01*
X3376Y6023D01*
X3375Y6024D01*
X3375Y6026D01*
X3374Y6027D01*
X3374Y6029D01*
X3373Y6030D01*
X3373Y6033D01*
X3372Y6034D01*
X3372Y6036D01*
X3371Y6037D01*
X3371Y6039D01*
X3370Y6040D01*
X3370Y6042D01*
X3369Y6043D01*
X3369Y6046D01*
X3368Y6047D01*
X3368Y6049D01*
X3367Y6050D01*
X3367Y6052D01*
X3366Y6053D01*
X3366Y6055D01*
X3365Y6056D01*
X3365Y6059D01*
X3364Y6060D01*
X3364Y6062D01*
X3363Y6063D01*
X3363Y6065D01*
X3362Y6066D01*
X3362Y6069D01*
X3361Y6070D01*
X3361Y6072D01*
X3360Y6073D01*
X3360Y6075D01*
X3359Y6076D01*
X3359Y6078D01*
X3358Y6079D01*
X3358Y6082D01*
X3357Y6083D01*
X3357Y6085D01*
X3356Y6086D01*
X3356Y6088D01*
X3355Y6089D01*
X3355Y6091D01*
X3354Y6092D01*
X3354Y6095D01*
X3353Y6096D01*
X3353Y6098D01*
X3352Y6099D01*
X3352Y6101D01*
X3351Y6102D01*
X3351Y6105D01*
X3350Y6106D01*
X3350Y6108D01*
X3349Y6109D01*
X3349Y6111D01*
X3348Y6112D01*
X3348Y6114D01*
X3347Y6115D01*
X3347Y6118D01*
X3346Y6119D01*
X3346Y6121D01*
X3345Y6122D01*
X3345Y6124D01*
X3344Y6125D01*
X3344Y6127D01*
X3343Y6128D01*
X3343Y6131D01*
X3342Y6132D01*
X3342Y6134D01*
X3341Y6135D01*
X3341Y6137D01*
X3340Y6138D01*
X3340Y6141D01*
X3339Y6142D01*
X3339Y6144D01*
X3338Y6145D01*
X3338Y6147D01*
X3337Y6148D01*
X3337Y6150D01*
X3336Y6151D01*
X3336Y6154D01*
X3335Y6155D01*
X3335Y6157D01*
X3334Y6158D01*
X3334Y6160D01*
X3333Y6161D01*
X3333Y6164D01*
X3332Y6165D01*
X3332Y6167D01*
X3331Y6168D01*
X3331Y6170D01*
X3330Y6171D01*
X3330Y6173D01*
X3329Y6174D01*
X3329Y6177D01*
X3328Y6178D01*
X3328Y6180D01*
X3327Y6181D01*
X3327Y6183D01*
X3326Y6184D01*
X3326Y6186D01*
X3325Y6187D01*
X3325Y6190D01*
X3324Y6191D01*
X3324Y6193D01*
X3323Y6194D01*
X3323Y6196D01*
X3322Y6197D01*
X3322Y6200D01*
X3321Y6201D01*
X3321Y6203D01*
X3320Y6204D01*
X3320Y6206D01*
X3319Y6207D01*
X3319Y6209D01*
X3318Y6210D01*
X3318Y6213D01*
X3317Y6214D01*
X3317Y6216D01*
X3316Y6217D01*
X3316Y6219D01*
X3315Y6220D01*
X3315Y6222D01*
X3314Y6223D01*
X3314Y6226D01*
X3313Y6227D01*
X3313Y6229D01*
X3312Y6230D01*
X3312Y6232D01*
X3311Y6233D01*
X3311Y6236D01*
X3310Y6237D01*
X3310Y6239D01*
X3309Y6240D01*
X3309Y6242D01*
X3308Y6243D01*
X3308Y6245D01*
X3307Y6246D01*
X3307Y6249D01*
X3306Y6250D01*
X3306Y6252D01*
X3305Y6253D01*
X3305Y6255D01*
X3304Y6256D01*
X3304Y6258D01*
X3303Y6259D01*
X3303Y6262D01*
X3302Y6263D01*
X3302Y6265D01*
X3301Y6266D01*
X3301Y6268D01*
X3300Y6269D01*
X3300Y6272D01*
X3299Y6273D01*
X3299Y6275D01*
X3298Y6276D01*
X3298Y6278D01*
X3297Y6279D01*
X3297Y6281D01*
X3296Y6282D01*
X3296Y6285D01*
X3295Y6286D01*
X3295Y6288D01*
X3294Y6289D01*
X3294Y6291D01*
X3293Y6292D01*
X3293Y6294D01*
X3292Y6295D01*
X3292Y6298D01*
X3291Y6299D01*
X3291Y6301D01*
X3290Y6302D01*
X3290Y6304D01*
X3289Y6305D01*
X3289Y6308D01*
X3288Y6309D01*
X3288Y6311D01*
X3287Y6312D01*
X3287Y6314D01*
X3286Y6315D01*
X3286Y6317D01*
X3285Y6318D01*
X3285Y6321D01*
X3284Y6322D01*
X3284Y6324D01*
X3283Y6325D01*
X3283Y6327D01*
X3282Y6328D01*
X3282Y6331D01*
X3281Y6332D01*
X3281Y6334D01*
X3280Y6335D01*
X3280Y6337D01*
X3279Y6338D01*
X3279Y6340D01*
X3278Y6341D01*
X3278Y6344D01*
X3277Y6345D01*
X3277Y6347D01*
X3276Y6348D01*
X3276Y6350D01*
X3275Y6351D01*
X3275Y6353D01*
X3274Y6354D01*
X3274Y6357D01*
X3273Y6358D01*
X3273Y6360D01*
X3272Y6361D01*
X3272Y6363D01*
X3271Y6364D01*
X3271Y6367D01*
X3270Y6368D01*
X3270Y6370D01*
X3269Y6371D01*
X3269Y6373D01*
X3268Y6374D01*
X3268Y6376D01*
X3267Y6377D01*
X3267Y6380D01*
X3266Y6381D01*
X3266Y6383D01*
X3265Y6384D01*
X3265Y6386D01*
X3264Y6387D01*
X3264Y6389D01*
X3263Y6390D01*
X3263Y6393D01*
X3262Y6394D01*
X3262Y6396D01*
X3261Y6397D01*
X3261Y6399D01*
X3260Y6400D01*
X3260Y6403D01*
X3259Y6404D01*
X3259Y6406D01*
X3258Y6407D01*
X3258Y6409D01*
X3257Y6410D01*
X3257Y6412D01*
X3256Y6413D01*
X3256Y6416D01*
X3255Y6417D01*
X3255Y6419D01*
X3254Y6420D01*
X3254Y6422D01*
X3253Y6423D01*
X3253Y6425D01*
X3252Y6426D01*
X3252Y6429D01*
X3251Y6430D01*
X3251Y6432D01*
X3250Y6433D01*
X3250Y6435D01*
X3249Y6436D01*
X3249Y6439D01*
X3248Y6440D01*
X3248Y6442D01*
X3247Y6443D01*
X3247Y6445D01*
X3246Y6446D01*
X3246Y6448D01*
X3245Y6449D01*
X3245Y6452D01*
X3244Y6453D01*
X3244Y6455D01*
X3243Y6456D01*
X3243Y6458D01*
X3242Y6459D01*
X3242Y6461D01*
X3241Y6462D01*
X3241Y6465D01*
X3240Y6466D01*
X3240Y6468D01*
X3239Y6469D01*
X3239Y6471D01*
X3238Y6472D01*
X3238Y6475D01*
X3237Y6476D01*
X3237Y6478D01*
X3236Y6479D01*
X3236Y6481D01*
X3235Y6482D01*
X3235Y6484D01*
X3234Y6485D01*
X3234Y6488D01*
X3233Y6489D01*
X3233Y6491D01*
X3232Y6492D01*
X3232Y6494D01*
X3231Y6495D01*
X3231Y6498D01*
X3230Y6499D01*
X3230Y6501D01*
X3229Y6502D01*
X3229Y6504D01*
X3228Y6505D01*
X3228Y6507D01*
X3227Y6508D01*
X3227Y6511D01*
X3226Y6512D01*
X3226Y6514D01*
X3225Y6515D01*
X3225Y6517D01*
X3224Y6518D01*
X3224Y6520D01*
X3223Y6521D01*
X3223Y6524D01*
X3222Y6525D01*
X3222Y6527D01*
X3221Y6528D01*
X3221Y6530D01*
X3220Y6531D01*
X3220Y6534D01*
X3219Y6535D01*
X3219Y6537D01*
X3218Y6538D01*
X3218Y6540D01*
X3217Y6541D01*
X3217Y6543D01*
X3216Y6544D01*
X3216Y6547D01*
X3215Y6548D01*
X3215Y6550D01*
X3214Y6551D01*
X3214Y6553D01*
X3213Y6554D01*
X3213Y6556D01*
X3212Y6557D01*
X3212Y6560D01*
X3211Y6561D01*
X3211Y6563D01*
X3210Y6564D01*
X3210Y6566D01*
X3209Y6567D01*
X3209Y6570D01*
X3208Y6571D01*
X3208Y6573D01*
X3207Y6574D01*
X3207Y6576D01*
X3206Y6577D01*
X3206Y6579D01*
X3205Y6580D01*
X3205Y6583D01*
X3204Y6584D01*
X3204Y6586D01*
X3203Y6587D01*
X3203Y6589D01*
X3202Y6590D01*
X3202Y6592D01*
X3201Y6593D01*
X3201Y6596D01*
X3200Y6597D01*
X3200Y6599D01*
X3199Y6600D01*
X3199Y6602D01*
X3198Y6603D01*
X3198Y6606D01*
X3197Y6607D01*
X3197Y6609D01*
X3196Y6610D01*
X3196Y6612D01*
X3195Y6613D01*
X3195Y6615D01*
X3194Y6616D01*
X3194Y6619D01*
X3193Y6620D01*
X3193Y6622D01*
X3192Y6623D01*
X3192Y6625D01*
X3191Y6626D01*
X3191Y6629D01*
X3190Y6630D01*
X3190Y6632D01*
X3189Y6633D01*
X3189Y6635D01*
X3188Y6636D01*
X3188Y6638D01*
X3187Y6639D01*
X3187Y6642D01*
X3186Y6643D01*
X3186Y6645D01*
X3185Y6646D01*
X3185Y6648D01*
X3184Y6649D01*
X3184Y6651D01*
X3183Y6652D01*
X3183Y6655D01*
X3182Y6656D01*
X3182Y6658D01*
X3181Y6659D01*
X3181Y6661D01*
X3180Y6662D01*
X3180Y6665D01*
X3179Y6666D01*
X3179Y6668D01*
X3178Y6669D01*
X3178Y6671D01*
X3177Y6672D01*
X3177Y6674D01*
X3176Y6675D01*
X3176Y6678D01*
X3175Y6679D01*
X3175Y6681D01*
X3174Y6682D01*
X3174Y6684D01*
X3173Y6685D01*
X3173Y6687D01*
X3172Y6688D01*
X3172Y6691D01*
X3171Y6692D01*
X3171Y6694D01*
X3170Y6695D01*
X3170Y6697D01*
X3169Y6698D01*
X3169Y6701D01*
X3168Y6702D01*
X3168Y6704D01*
X3167Y6705D01*
X3167Y6707D01*
X3166Y6708D01*
X3166Y6710D01*
X3165Y6711D01*
X3165Y6714D01*
X3164Y6715D01*
X3164Y6717D01*
X3163Y6718D01*
X3163Y6720D01*
X3162Y6721D01*
X3162Y6723D01*
X3161Y6724D01*
X3161Y6727D01*
X3160Y6728D01*
X3160Y6730D01*
X3159Y6731D01*
X3159Y6733D01*
X3158Y6734D01*
X3158Y6737D01*
X3157Y6738D01*
X3157Y6740D01*
X3156Y6741D01*
X3156Y6743D01*
X3155Y6744D01*
X3155Y6746D01*
X3154Y6747D01*
X3154Y6750D01*
X3153Y6751D01*
X3153Y6753D01*
X3152Y6754D01*
X3152Y6756D01*
X3151Y6757D01*
X3151Y6759D01*
X3150Y6760D01*
X3150Y6763D01*
X3149Y6764D01*
X3149Y6766D01*
X3148Y6767D01*
X3148Y6769D01*
X3147Y6770D01*
X3147Y6773D01*
X3146Y6774D01*
X3146Y6776D01*
X3145Y6777D01*
X3145Y6779D01*
X3144Y6780D01*
X3144Y6782D01*
X3143Y6783D01*
X3143Y6786D01*
X3142Y6787D01*
X3142Y6789D01*
X3141Y6790D01*
X3141Y6792D01*
X3140Y6793D01*
X3140Y6796D01*
X3139Y6797D01*
X3139Y6799D01*
X3138Y6800D01*
X3138Y6802D01*
X3137Y6803D01*
X3137Y6805D01*
X3136Y6806D01*
X3136Y6809D01*
X3135Y6810D01*
X3135Y6812D01*
X3134Y6813D01*
X3134Y6815D01*
X3133Y6816D01*
X3133Y6818D01*
X3132Y6819D01*
X3132Y6822D01*
X3131Y6823D01*
X3131Y6825D01*
X3130Y6826D01*
X3130Y6828D01*
X3129Y6829D01*
X3129Y6832D01*
X3128Y6833D01*
X3128Y6835D01*
X3127Y6836D01*
X3127Y6838D01*
X3126Y6839D01*
X3126Y6841D01*
X3125Y6842D01*
X3125Y6845D01*
X3124Y6846D01*
X3124Y6848D01*
X3123Y6849D01*
X3123Y6851D01*
X3122Y6852D01*
X3122Y6854D01*
X3121Y6855D01*
X3121Y6858D01*
X3120Y6859D01*
X3120Y6861D01*
X3119Y6862D01*
X3119Y6864D01*
X3118Y6865D01*
X3118Y6868D01*
X3117Y6869D01*
X3117Y6871D01*
X3116Y6872D01*
X3116Y6874D01*
X3115Y6875D01*
X3115Y6877D01*
X3114Y6878D01*
X3114Y6881D01*
X3113Y6882D01*
X3113Y6884D01*
X3112Y6885D01*
X3112Y6887D01*
X3111Y6888D01*
X3111Y6890D01*
X3110Y6891D01*
X3110Y6894D01*
X3109Y6895D01*
X3109Y6897D01*
X3108Y6898D01*
X3108Y6900D01*
X3107Y6901D01*
X3107Y6904D01*
X3106Y6905D01*
X3106Y6907D01*
X3105Y6908D01*
X3105Y6910D01*
X3104Y6911D01*
X3104Y6913D01*
X3103Y6914D01*
X3103Y6917D01*
X3102Y6918D01*
X3102Y6920D01*
X3101Y6921D01*
X3101Y6923D01*
X3100Y6924D01*
X3100Y6926D01*
X3099Y6927D01*
X3099Y6930D01*
X3098Y6931D01*
X3098Y6933D01*
X3097Y6934D01*
X3097Y6936D01*
X3096Y6937D01*
X3096Y6940D01*
X3095Y6941D01*
X3095Y6943D01*
X3094Y6944D01*
X3094Y6946D01*
X3093Y6947D01*
X3093Y6949D01*
X3092Y6950D01*
X3092Y6953D01*
X3091Y6954D01*
X3091Y6956D01*
X3090Y6957D01*
X3090Y6959D01*
X3089Y6960D01*
X3089Y6963D01*
X3088Y6964D01*
X3088Y6966D01*
X3087Y6967D01*
X3087Y6969D01*
X3086Y6970D01*
X3086Y6972D01*
X3085Y6973D01*
X3085Y6976D01*
X3084Y6977D01*
X3084Y6979D01*
X3083Y6980D01*
X3083Y6982D01*
X3082Y6983D01*
X3082Y6985D01*
X3081Y6986D01*
X3081Y6989D01*
X3080Y6990D01*
X3080Y6992D01*
X3079Y6993D01*
X3079Y6995D01*
X3078Y6996D01*
X3078Y6999D01*
X3077Y7000D01*
X3077Y7002D01*
X3076Y7003D01*
X3076Y7005D01*
X3075Y7006D01*
X3075Y7008D01*
X3074Y7009D01*
X3074Y7012D01*
X3073Y7013D01*
X3073Y7015D01*
X3072Y7016D01*
X3072Y7018D01*
X3071Y7019D01*
X3071Y7021D01*
X3070Y7022D01*
X3070Y7025D01*
X3069Y7026D01*
X3069Y7028D01*
X3068Y7029D01*
X3068Y7031D01*
X3067Y7032D01*
X3067Y7035D01*
X3066Y7036D01*
X3066Y7038D01*
X3065Y7039D01*
X3065Y7041D01*
X3064Y7042D01*
X3064Y7044D01*
X3063Y7045D01*
X3063Y7048D01*
X3062Y7049D01*
X3062Y7051D01*
X3061Y7052D01*
X3061Y7054D01*
X3060Y7055D01*
X3060Y7057D01*
X3059Y7058D01*
X3059Y7061D01*
X3058Y7062D01*
X3058Y7064D01*
X3057Y7065D01*
X3057Y7067D01*
X3056Y7068D01*
X3056Y7071D01*
X3055Y7072D01*
X3055Y7074D01*
X3054Y7075D01*
X3054Y7077D01*
X3053Y7078D01*
X3053Y7080D01*
X3052Y7081D01*
X3052Y7084D01*
X3051Y7085D01*
X3051Y7087D01*
X3050Y7088D01*
X3050Y7090D01*
X3049Y7091D01*
X3049Y7094D01*
X3048Y7095D01*
X3048Y7097D01*
X3047Y7098D01*
X3047Y7100D01*
X3046Y7101D01*
X3046Y7103D01*
X3045Y7104D01*
X3045Y7107D01*
X3044Y7108D01*
X3044Y7110D01*
X3043Y7111D01*
X3043Y7113D01*
X3042Y7114D01*
X3042Y7116D01*
X3041Y7117D01*
X3041Y7120D01*
X3040Y7121D01*
X3040Y7123D01*
X3039Y7124D01*
X3039Y7126D01*
X3038Y7127D01*
X3038Y7130D01*
X3037Y7131D01*
X3037Y7133D01*
X3036Y7134D01*
X3036Y7136D01*
X3035Y7137D01*
X3035Y7139D01*
X3034Y7140D01*
X3034Y7143D01*
X3033Y7144D01*
X3033Y7146D01*
X3032Y7147D01*
X3032Y7149D01*
X3031Y7150D01*
X3031Y7152D01*
X3030Y7153D01*
X3030Y7156D01*
X3029Y7157D01*
X3029Y7159D01*
X3028Y7160D01*
X3028Y7162D01*
X3027Y7163D01*
X3027Y7166D01*
X3026Y7167D01*
X3026Y7169D01*
X3025Y7170D01*
X3025Y7172D01*
X3024Y7173D01*
X3024Y7175D01*
X3023Y7176D01*
X3023Y7179D01*
X3022Y7180D01*
X3022Y7182D01*
X3021Y7183D01*
X3021Y7185D01*
X3020Y7186D01*
X3020Y7188D01*
X3019Y7189D01*
X3019Y7192D01*
X3018Y7193D01*
X3018Y7195D01*
X3017Y7196D01*
X3017Y7198D01*
X3016Y7199D01*
X3016Y7202D01*
X3015Y7203D01*
X3015Y7205D01*
X3014Y7206D01*
X3014Y7208D01*
X3013Y7209D01*
X3013Y7211D01*
X3012Y7212D01*
X3012Y7215D01*
X3011Y7216D01*
X3011Y7218D01*
X3010Y7219D01*
X3010Y7221D01*
X3009Y7222D01*
X3009Y7224D01*
X3008Y7225D01*
X3008Y7228D01*
X3007Y7229D01*
X3007Y7231D01*
X3006Y7232D01*
X3006Y7234D01*
X3005Y7235D01*
X3005Y7238D01*
X3004Y7239D01*
X3004Y7241D01*
X3003Y7242D01*
X3003Y7244D01*
X3002Y7245D01*
X3002Y7247D01*
X3001Y7248D01*
X3001Y7251D01*
X3000Y7252D01*
X3000Y7254D01*
X2999Y7255D01*
X2999Y7257D01*
X2998Y7258D01*
X2998Y7261D01*
X2997Y7262D01*
X2997Y7264D01*
X2996Y7265D01*
X2996Y7267D01*
X2995Y7268D01*
X2995Y7270D01*
X2994Y7271D01*
X2994Y7274D01*
X2993Y7275D01*
X2993Y7277D01*
X2992Y7278D01*
X2992Y7280D01*
X2991Y7281D01*
X2991Y7283D01*
X2990Y7284D01*
X2990Y7287D01*
X2989Y7288D01*
X2989Y7290D01*
X2988Y7291D01*
X2988Y7293D01*
X2987Y7294D01*
X2987Y7297D01*
X2986Y7298D01*
X2986Y7300D01*
X2985Y7301D01*
X2985Y7303D01*
X2984Y7304D01*
X2984Y7306D01*
X2983Y7307D01*
X2983Y7310D01*
X2982Y7311D01*
X2982Y7313D01*
X2981Y7314D01*
X2981Y7316D01*
X2980Y7317D01*
X2980Y7319D01*
X2979Y7320D01*
X2979Y7323D01*
X2978Y7324D01*
X2978Y7326D01*
X2977Y7327D01*
X2977Y7329D01*
X2976Y7330D01*
X2976Y7333D01*
X2975Y7334D01*
X2975Y7336D01*
X2974Y7337D01*
X2974Y7339D01*
X2973Y7340D01*
X2973Y7342D01*
X2972Y7343D01*
X2972Y7346D01*
X2971Y7347D01*
X2971Y7349D01*
X2970Y7350D01*
X2970Y7352D01*
X2969Y7353D01*
X2969Y7355D01*
X2968Y7356D01*
X2968Y7359D01*
X2967Y7360D01*
X2967Y7362D01*
X2966Y7363D01*
X2966Y7365D01*
X2965Y7366D01*
X2965Y7369D01*
X2964Y7370D01*
X2964Y7372D01*
X2963Y7373D01*
X2963Y7375D01*
X2962Y7376D01*
X2962Y7378D01*
X2961Y7379D01*
X2961Y7382D01*
X2960Y7383D01*
X2960Y7385D01*
X2959Y7386D01*
X2959Y7388D01*
X2958Y7389D01*
X2958Y7391D01*
X2957Y7392D01*
X2957Y7395D01*
X2956Y7396D01*
X2956Y7398D01*
X2955Y7399D01*
X2955Y7401D01*
X2954Y7402D01*
X2954Y7405D01*
X2953Y7406D01*
X2953Y7408D01*
X2952Y7409D01*
X2952Y7411D01*
X2951Y7412D01*
X2951Y7414D01*
X2950Y7415D01*
X2950Y7418D01*
X2949Y7419D01*
X2949Y7421D01*
X2948Y7422D01*
X2948Y7424D01*
X2947Y7425D01*
X2947Y7428D01*
X2946Y7429D01*
X2946Y7431D01*
X2945Y7432D01*
X2945Y7434D01*
X2944Y7435D01*
X2944Y7437D01*
X2943Y7438D01*
X2943Y7441D01*
X2942Y7442D01*
X2942Y7444D01*
X2941Y7445D01*
X2941Y7447D01*
X2940Y7448D01*
X2940Y7450D01*
X2939Y7451D01*
X2939Y7454D01*
X2938Y7455D01*
X2938Y7457D01*
X2937Y7458D01*
X2937Y7460D01*
X2936Y7461D01*
X2936Y7464D01*
X2935Y7465D01*
X2935Y7467D01*
X2934Y7468D01*
X2934Y7470D01*
X2933Y7471D01*
X2933Y7473D01*
X2932Y7474D01*
X2932Y7480D01*
X2931Y7481D01*
X2930Y7481D01*
X2929Y7481D01*
X2928Y7481D01*
X2927Y7481D01*
X2926Y7481D01*
X2925Y7481D01*
X2924Y7481D01*
X2923Y7481D01*
X2922Y7481D01*
X2921Y7481D01*
X2920Y7481D01*
X2919Y7481D01*
X2918Y7481D01*
X2917Y7481D01*
X2916Y7481D01*
X2915Y7481D01*
X2914Y7481D01*
X2913Y7481D01*
X2912Y7481D01*
X2911Y7481D01*
X2910Y7481D01*
X2909Y7481D01*
X2908Y7481D01*
X2907Y7481D01*
X2906Y7481D01*
X2905Y7481D01*
X2904Y7481D01*
X2903Y7481D01*
X2902Y7481D01*
X2901Y7481D01*
X2900Y7481D01*
X2899Y7481D01*
X2898Y7481D01*
X2897Y7481D01*
X2896Y7481D01*
X2895Y7481D01*
X2894Y7481D01*
X2893Y7481D01*
X2892Y7481D01*
X2891Y7481D01*
X2890Y7481D01*
X2889Y7481D01*
X2888Y7481D01*
X2887Y7481D01*
X2886Y7481D01*
X2885Y7481D01*
X2884Y7481D01*
X2883Y7481D01*
X2882Y7481D01*
X2881Y7481D01*
X2880Y7481D01*
X2879Y7481D01*
X2878Y7481D01*
X2877Y7481D01*
X2876Y7481D01*
X2875Y7481D01*
X2874Y7481D01*
X2873Y7481D01*
X2872Y7481D01*
X2871Y7481D01*
X2870Y7481D01*
X2869Y7481D01*
X2868Y7481D01*
X2867Y7481D01*
X2866Y7481D01*
X2865Y7481D01*
X2864Y7481D01*
X2863Y7481D01*
X2862Y7481D01*
X2861Y7481D01*
X2860Y7481D01*
X2859Y7481D01*
X2858Y7481D01*
X2857Y7481D01*
X2856Y7481D01*
X2855Y7481D01*
X2854Y7481D01*
X2853Y7481D01*
X2852Y7481D01*
X2851Y7481D01*
X2850Y7481D01*
X2849Y7481D01*
X2848Y7481D01*
X2847Y7481D01*
X2846Y7481D01*
X2845Y7481D01*
X2844Y7481D01*
X2843Y7481D01*
X2842Y7481D01*
X2841Y7481D01*
X2840Y7481D01*
X2839Y7481D01*
X2838Y7481D01*
X2837Y7481D01*
X2836Y7481D01*
X2835Y7481D01*
X2834Y7481D01*
X2833Y7481D01*
X2832Y7481D01*
X2831Y7481D01*
X2830Y7481D01*
X2829Y7481D01*
X2828Y7481D01*
X2827Y7481D01*
X2826Y7481D01*
X2825Y7481D01*
X2824Y7481D01*
X2823Y7481D01*
X2822Y7481D01*
X2821Y7481D01*
X2820Y7481D01*
X2819Y7481D01*
X2818Y7481D01*
X2817Y7481D01*
X2816Y7481D01*
X2815Y7481D01*
X2814Y7481D01*
X2813Y7481D01*
X2812Y7481D01*
X2811Y7481D01*
X2810Y7481D01*
X2809Y7481D01*
X2808Y7481D01*
X2807Y7481D01*
X2806Y7481D01*
X2805Y7481D01*
X2804Y7481D01*
X2803Y7481D01*
X2802Y7481D01*
X2801Y7481D01*
X2800Y7481D01*
X2799Y7481D01*
X2798Y7481D01*
X2797Y7481D01*
X2796Y7481D01*
X2795Y7481D01*
X2794Y7481D01*
X2793Y7481D01*
X2792Y7481D01*
X2791Y7481D01*
X2790Y7481D01*
X2789Y7481D01*
X2788Y7481D01*
X2787Y7481D01*
X2786Y7481D01*
X2785Y7481D01*
X2784Y7481D01*
X2783Y7481D01*
X2782Y7481D01*
X2781Y7481D01*
X2780Y7481D01*
X2779Y7481D01*
X2778Y7481D01*
X2777Y7481D01*
X2776Y7481D01*
X2775Y7481D01*
X2774Y7481D01*
X2773Y7481D01*
X2772Y7481D01*
X2771Y7481D01*
X2770Y7481D01*
X2769Y7481D01*
X2768Y7481D01*
X2767Y7481D01*
X2766Y7481D01*
X2765Y7481D01*
X2764Y7481D01*
X2763Y7481D01*
X2762Y7481D01*
X2761Y7481D01*
X2760Y7481D01*
X2759Y7481D01*
X2758Y7481D01*
X2757Y7481D01*
X2756Y7481D01*
X2755Y7481D01*
X2754Y7481D01*
X2753Y7481D01*
X2752Y7481D01*
X2751Y7481D01*
X2750Y7481D01*
X2749Y7481D01*
X2748Y7481D01*
X2747Y7481D01*
X2746Y7481D01*
X2745Y7481D01*
X2744Y7481D01*
X2743Y7481D01*
X2742Y7481D01*
X2741Y7481D01*
X2740Y7481D01*
X2739Y7481D01*
X2738Y7481D01*
X2737Y7481D01*
X2736Y7481D01*
X2735Y7481D01*
X2734Y7481D01*
X2733Y7481D01*
X2732Y7481D01*
X2731Y7481D01*
X2730Y7481D01*
X2729Y7481D01*
X2728Y7481D01*
X2727Y7481D01*
X2726Y7481D01*
X2725Y7481D01*
X2724Y7481D01*
X2723Y7481D01*
X2722Y7481D01*
X2721Y7481D01*
X2720Y7481D01*
X2719Y7481D01*
X2718Y7481D01*
X2717Y7481D01*
X2716Y7481D01*
X2715Y7481D01*
X2714Y7481D01*
X2713Y7481D01*
X2712Y7481D01*
X2711Y7481D01*
X2710Y7481D01*
X2709Y7481D01*
X2708Y7481D01*
X2707Y7481D01*
X2706Y7481D01*
X2705Y7481D01*
X2704Y7481D01*
X2703Y7481D01*
X2702Y7481D01*
X2701Y7481D01*
X2700Y7481D01*
X2699Y7481D01*
X2698Y7481D01*
X2697Y7481D01*
X2696Y7481D01*
X2695Y7481D01*
X2694Y7481D01*
X2693Y7481D01*
X2692Y7481D01*
X2691Y7481D01*
X2690Y7481D01*
X2689Y7481D01*
X2688Y7481D01*
X2687Y7481D01*
X2686Y7481D01*
X2685Y7481D01*
X2684Y7481D01*
X2683Y7481D01*
X2682Y7481D01*
X2681Y7481D01*
X2680Y7481D01*
X2679Y7481D01*
X2678Y7481D01*
X2677Y7481D01*
X2676Y7481D01*
X2675Y7481D01*
X2674Y7481D01*
X2673Y7481D01*
X2672Y7481D01*
X2671Y7481D01*
X2670Y7481D01*
X2669Y7481D01*
X2668Y7481D01*
X2667Y7481D01*
X2666Y7481D01*
X2665Y7481D01*
X2664Y7481D01*
X2663Y7481D01*
X2662Y7481D01*
X2661Y7481D01*
X2660Y7481D01*
X2659Y7481D01*
X2658Y7481D01*
X2657Y7481D01*
X2656Y7481D01*
X2655Y7481D01*
X2654Y7481D01*
X2653Y7481D01*
X2652Y7481D01*
X2651Y7481D01*
X2650Y7481D01*
X2649Y7481D01*
X2648Y7481D01*
X2647Y7481D01*
X2646Y7481D01*
X2645Y7481D01*
X2644Y7481D01*
X2643Y7481D01*
X2642Y7481D01*
X2641Y7481D01*
X2640Y7481D01*
X2639Y7481D01*
X2638Y7481D01*
X2637Y7481D01*
X2636Y7481D01*
X2635Y7481D01*
X2634Y7481D01*
X2633Y7481D01*
X2632Y7481D01*
X2631Y7481D01*
X2630Y7481D01*
X2629Y7481D01*
X2628Y7481D01*
X2627Y7481D01*
X2626Y7481D01*
X2625Y7481D01*
X2624Y7481D01*
X2623Y7481D01*
X2622Y7481D01*
X2621Y7481D01*
X2620Y7481D01*
X2619Y7481D01*
X2618Y7481D01*
X2617Y7481D01*
X2616Y7481D01*
X2615Y7481D01*
X2614Y7481D01*
X2613Y7481D01*
X2612Y7481D01*
X2611Y7481D01*
X2610Y7481D01*
X2609Y7481D01*
X2608Y7481D01*
X2607Y7481D01*
X2606Y7481D01*
X2605Y7481D01*
X2604Y7481D01*
X2603Y7481D01*
X2602Y7481D01*
X2601Y7481D01*
X2600Y7481D01*
X2599Y7481D01*
X2598Y7481D01*
X2597Y7481D01*
X2596Y7481D01*
X2595Y7481D01*
X2594Y7481D01*
X2593Y7481D01*
X2592Y7481D01*
X2591Y7481D01*
X2590Y7481D01*
X2589Y7481D01*
X2588Y7481D01*
X2587Y7481D01*
X2586Y7481D01*
X2585Y7481D01*
X2584Y7481D01*
X2583Y7481D01*
X2582Y7481D01*
X2581Y7481D01*
X2580Y7481D01*
X2579Y7481D01*
X2578Y7481D01*
X2577Y7481D01*
X2576Y7481D01*
X2575Y7481D01*
X2574Y7481D01*
X2573Y7481D01*
X2572Y7481D01*
X2571Y7481D01*
X2570Y7481D01*
X2569Y7481D01*
X2568Y7481D01*
X2567Y7481D01*
X2566Y7481D01*
X2565Y7481D01*
X2564Y7481D01*
X2563Y7481D01*
X2562Y7481D01*
X2561Y7481D01*
X2560Y7481D01*
X2559Y7481D01*
X2558Y7481D01*
X2557Y7481D01*
X2556Y7481D01*
X2555Y7481D01*
X2554Y7481D01*
X2553Y7481D01*
X2552Y7481D01*
X2551Y7481D01*
X2550Y7481D01*
X2549Y7481D01*
X2548Y7481D01*
X2547Y7481D01*
X2546Y7481D01*
X2545Y7481D01*
X2544Y7481D01*
X2543Y7481D01*
X2542Y7481D01*
X2541Y7481D01*
X2540Y7481D01*
X2539Y7481D01*
X2538Y7481D01*
X2537Y7481D01*
X2536Y7481D01*
X2535Y7481D01*
X2534Y7481D01*
X2533Y7481D01*
X2532Y7481D01*
X2531Y7481D01*
X2530Y7481D01*
X2529Y7481D01*
X2528Y7481D01*
X2527Y7481D01*
X2526Y7481D01*
X2525Y7481D01*
X2524Y7481D01*
X2523Y7481D01*
X2522Y7481D01*
X2521Y7481D01*
X2520Y7481D01*
X2519Y7481D01*
X2518Y7481D01*
X2517Y7481D01*
X2516Y7481D01*
X2515Y7481D01*
X2514Y7481D01*
X2513Y7481D01*
X2512Y7481D01*
X2511Y7481D01*
X2510Y7481D01*
X2509Y7481D01*
X2508Y7481D01*
X2507Y7481D01*
X2506Y7481D01*
X2505Y7481D01*
X2504Y7481D01*
X2503Y7481D01*
X2502Y7481D01*
X2501Y7481D01*
X2500Y7481D01*
X2499Y7481D01*
X2498Y7481D01*
X2497Y7481D01*
X2496Y7481D01*
X2495Y7481D01*
X2494Y7481D01*
X2493Y7481D01*
X2492Y7481D01*
X2491Y7481D01*
X2490Y7481D01*
X2489Y7481D01*
X2488Y7481D01*
X2487Y7481D01*
X2486Y7481D01*
X2485Y7481D01*
X2484Y7481D01*
X2483Y7481D01*
X2482Y7481D01*
X2481Y7481D01*
X2480Y7481D01*
X2479Y7481D01*
X2478Y7481D01*
X2477Y7481D01*
X2476Y7481D01*
X2475Y7481D01*
X2474Y7481D01*
X2473Y7481D01*
X2472Y7481D01*
X2471Y7481D01*
X2470Y7481D01*
X2469Y7481D01*
X2468Y7481D01*
X2467Y7481D01*
X2466Y7481D01*
X2465Y7481D01*
X2464Y7481D01*
X2463Y7481D01*
X2462Y7481D01*
X2461Y7481D01*
X2460Y7481D01*
X2459Y7481D01*
X2458Y7481D01*
X2457Y7481D01*
X2456Y7481D01*
X2455Y7481D01*
X2454Y7481D01*
X2453Y7481D01*
X2452Y7481D01*
X2451Y7481D01*
X2450Y7481D01*
X2449Y7481D01*
X2448Y7481D01*
X2447Y7481D01*
X2446Y7481D01*
X2445Y7481D01*
X2444Y7481D01*
X2443Y7481D01*
X2442Y7481D01*
X2441Y7481D01*
X2440Y7481D01*
X2439Y7481D01*
X2438Y7481D01*
X2437Y7481D01*
X2436Y7481D01*
X2435Y7481D01*
X2434Y7481D01*
X2433Y7481D01*
X2432Y7481D01*
X2431Y7481D01*
X2430Y7481D01*
X2429Y7481D01*
X2428Y7481D01*
X2427Y7481D01*
X2426Y7481D01*
X2425Y7481D01*
X2424Y7481D01*
X2423Y7481D01*
X2422Y7481D01*
X2421Y7481D01*
X2420Y7481D01*
X2419Y7481D01*
X2418Y7481D01*
X2417Y7481D01*
X2416Y7481D01*
X2415Y7481D01*
X2414Y7481D01*
X2413Y7481D01*
X2412Y7481D01*
X2411Y7481D01*
X2410Y7481D01*
X2409Y7481D01*
X2408Y7481D01*
X2407Y7481D01*
X2406Y7481D01*
X2405Y7481D01*
X2404Y7481D01*
X2403Y7481D01*
X2402Y7481D01*
X2401Y7481D01*
X2400Y7481D01*
X2399Y7481D01*
X2398Y7481D01*
X2397Y7481D01*
X2396Y7481D01*
X2395Y7481D01*
X2394Y7481D01*
X2393Y7481D01*
X2392Y7481D01*
X2391Y7481D01*
X2390Y7481D01*
X2389Y7481D01*
X2388Y7481D01*
X2387Y7481D01*
X2386Y7481D01*
X2385Y7481D01*
X2384Y7481D01*
X2383Y7481D01*
X2382Y7481D01*
X2381Y7481D01*
X2380Y7481D01*
X2379Y7481D01*
X2378Y7481D01*
X2377Y7481D01*
X2376Y7481D01*
X2375Y7481D01*
X2374Y7481D01*
X2373Y7481D01*
X2372Y7481D01*
X2371Y7481D01*
X2370Y7481D01*
X2369Y7481D01*
X2368Y7481D01*
X2367Y7481D01*
X2366Y7481D01*
X2365Y7481D01*
X2364Y7481D01*
X2363Y7481D01*
X2362Y7481D01*
X2361Y7481D01*
X2360Y7481D01*
X2359Y7481D01*
X2358Y7481D01*
X2357Y7481D01*
X2356Y7481D01*
X2355Y7481D01*
X2354Y7481D01*
X2353Y7481D01*
X2352Y7481D01*
X2351Y7481D01*
X2350Y7481D01*
X2349Y7481D01*
X2348Y7481D01*
X2347Y7481D01*
X2346Y7481D01*
X2345Y7481D01*
X2344Y7481D01*
X2343Y7481D01*
X2342Y7481D01*
X2341Y7481D01*
X2340Y7481D01*
X2339Y7481D01*
X2338Y7481D01*
X2337Y7481D01*
X2336Y7481D01*
X2335Y7481D01*
X2334Y7481D01*
X2333Y7481D01*
X2332Y7481D01*
X2331Y7481D01*
X2330Y7481D01*
X2329Y7481D01*
X2328Y7481D01*
X2327Y7481D01*
X2326Y7481D01*
X2325Y7481D01*
X2324Y7481D01*
X2323Y7481D01*
X2322Y7481D01*
X2321Y7481D01*
X2320Y7481D01*
X2319Y7481D01*
X2318Y7481D01*
X2317Y7481D01*
X2316Y7481D01*
X2315Y7481D01*
X2314Y7481D01*
X2313Y7481D01*
X2312Y7481D01*
X2311Y7481D01*
X2310Y7481D01*
X2309Y7481D01*
X2308Y7481D01*
X2307Y7481D01*
X2306Y7481D01*
X2305Y7481D01*
X2304Y7481D01*
X2303Y7481D01*
X2302Y7481D01*
X2301Y7481D01*
X2300Y7481D01*
X2299Y7481D01*
X2298Y7481D01*
X2297Y7481D01*
X2296Y7481D01*
X2295Y7481D01*
X2294Y7481D01*
X2293Y7481D01*
X2292Y7481D01*
X2291Y7481D01*
X2290Y7481D01*
X2289Y7481D01*
X2288Y7481D01*
X2287Y7481D01*
X2286Y7481D01*
X2285Y7481D01*
X2284Y7481D01*
X2283Y7481D01*
X2282Y7481D01*
X2281Y7481D01*
X2280Y7481D01*
X2279Y7481D01*
X2278Y7481D01*
X2277Y7481D01*
X2276Y7481D01*
X2275Y7481D01*
X2274Y7481D01*
X2273Y7481D01*
X2272Y7481D01*
X2271Y7481D01*
X2270Y7481D01*
X2269Y7481D01*
X2268Y7481D01*
X2267Y7481D01*
X2266Y7481D01*
X2265Y7481D01*
X2264Y7481D01*
X2263Y7481D01*
X2262Y7481D01*
X2261Y7481D01*
X2260Y7481D01*
X2259Y7481D01*
X2258Y7481D01*
X2257Y7481D01*
X2256Y7481D01*
X2255Y7481D01*
X2254Y7481D01*
X2253Y7481D01*
X2252Y7481D01*
X2251Y7481D01*
X2250Y7481D01*
X2249Y7481D01*
X2248Y7481D01*
X2247Y7481D01*
X2246Y7481D01*
X2245Y7481D01*
X2244Y7481D01*
X2243Y7481D01*
X2242Y7481D01*
X2241Y7481D01*
X2240Y7481D01*
X2239Y7481D01*
X2238Y7481D01*
X2237Y7481D01*
X2236Y7481D01*
X2235Y7481D01*
X2234Y7481D01*
X2233Y7481D01*
X2232Y7481D01*
X2231Y7481D01*
X2230Y7481D01*
X2229Y7481D01*
X2228Y7481D01*
X2227Y7481D01*
X2226Y7481D01*
X2225Y7481D01*
X2224Y7481D01*
X2223Y7481D01*
X2222Y7481D01*
X2221Y7481D01*
X2220Y7481D01*
X2219Y7481D01*
X2218Y7481D01*
X2217Y7481D01*
X2216Y7481D01*
X2215Y7481D01*
X2214Y7481D01*
X2213Y7481D01*
X2212Y7481D01*
X2211Y7481D01*
X2210Y7481D01*
X2209Y7481D01*
X2208Y7481D01*
X2207Y7481D01*
X2206Y7481D01*
X2205Y7481D01*
X2204Y7481D01*
X2203Y7481D01*
X2202Y7481D01*
X2201Y7481D01*
X2200Y7481D01*
X2199Y7481D01*
X2198Y7481D01*
X2197Y7481D01*
X2196Y7481D01*
X2195Y7481D01*
X2194Y7481D01*
X2193Y7481D01*
X2192Y7481D01*
X2191Y7481D01*
X2190Y7481D01*
X2189Y7481D01*
X2188Y7481D01*
X2187Y7481D01*
X2186Y7481D01*
X2185Y7481D01*
X2184Y7481D01*
X2183Y7481D01*
X2182Y7481D01*
X2181Y7481D01*
X2180Y7481D01*
X2179Y7481D01*
X2178Y7481D01*
X2177Y7481D01*
X2176Y7481D01*
X2175Y7481D01*
X2174Y7481D01*
X2173Y7481D01*
X2172Y7481D01*
X2171Y7481D01*
X2170Y7481D01*
X2169Y7481D01*
X2168Y7481D01*
X2167Y7481D01*
X2166Y7481D01*
X2165Y7481D01*
X2164Y7481D01*
X2163Y7481D01*
X2162Y7481D01*
X2161Y7481D01*
X2160Y7481D01*
X2159Y7481D01*
X2158Y7481D01*
X2157Y7481D01*
X2156Y7481D01*
X2155Y7481D01*
X2154Y7481D01*
X2153Y7481D01*
X2152Y7481D01*
X2151Y7481D01*
X2150Y7481D01*
X2149Y7481D01*
X2148Y7481D01*
X2147Y7481D01*
X2146Y7481D01*
X2145Y7481D01*
X2144Y7481D01*
X2143Y7481D01*
X2142Y7481D01*
X2141Y7481D01*
X2140Y7481D01*
X2139Y7481D01*
X2138Y7481D01*
X2137Y7481D01*
X2136Y7481D01*
X2135Y7481D01*
X2134Y7481D01*
X2133Y7481D01*
X2132Y7481D01*
X2131Y7481D01*
X2130Y7481D01*
X2129Y7481D01*
X2128Y7481D01*
X2127Y7481D01*
X2126Y7481D01*
X2125Y7481D01*
X2124Y7481D01*
X2123Y7481D01*
X2122Y7481D01*
X2121Y7481D01*
X2120Y7481D01*
X2119Y7481D01*
X2118Y7481D01*
X2117Y7481D01*
X2116Y7481D01*
X2115Y7481D01*
X2114Y7481D01*
X2113Y7481D01*
X2112Y7481D01*
X2111Y7481D01*
X2110Y7481D01*
X2109Y7481D01*
X2108Y7481D01*
X2107Y7481D01*
X2106Y7481D01*
X2105Y7481D01*
X2104Y7481D01*
X2103Y7481D01*
X2102Y7481D01*
X2101Y7481D01*
X2100Y7481D01*
X2099Y7481D01*
X2098Y7481D01*
X2097Y7481D01*
X2096Y7481D01*
X2095Y7481D01*
X2094Y7481D01*
X2093Y7481D01*
X2092Y7481D01*
X2091Y7481D01*
X2090Y7481D01*
X2089Y7481D01*
X2088Y7481D01*
X2087Y7481D01*
X2086Y7481D01*
X2085Y7481D01*
X2084Y7481D01*
X2083Y7481D01*
X2082Y7481D01*
X2081Y7481D01*
X2080Y7481D01*
X2079Y7481D01*
X2078Y7481D01*
X2077Y7481D01*
X2076Y7481D01*
X2075Y7481D01*
X2074Y7481D01*
X2073Y7481D01*
X2072Y7481D01*
X2071Y7481D01*
X2070Y7481D01*
X2069Y7481D01*
X2068Y7481D01*
X2067Y7481D01*
X2066Y7481D01*
X2065Y7481D01*
X2064Y7481D01*
X2063Y7481D01*
X2062Y7481D01*
X2061Y7481D01*
X2060Y7481D01*
X2059Y7481D01*
X2058Y7481D01*
X2057Y7481D01*
X2056Y7481D01*
X2055Y7481D01*
X2054Y7481D01*
X2053Y7481D01*
X2052Y7481D01*
X2051Y7481D01*
X2050Y7481D01*
X2049Y7481D01*
X2048Y7481D01*
X2047Y7481D01*
X2046Y7481D01*
X2045Y7481D01*
X2044Y7481D01*
X2043Y7481D01*
X2042Y7481D01*
X2041Y7481D01*
X2040Y7481D01*
X2039Y7481D01*
X2038Y7481D01*
X2037Y7481D01*
X2036Y7481D01*
X2035Y7481D01*
X2034Y7481D01*
X2033Y7481D01*
X2032Y7481D01*
X2031Y7481D01*
X2030Y7481D01*
X2029Y7481D01*
X2028Y7481D01*
X2027Y7481D01*
X2026Y7481D01*
X2025Y7481D01*
X2024Y7481D01*
X2023Y7481D01*
X2022Y7481D01*
X2021Y7481D01*
X2020Y7481D01*
X2019Y7481D01*
X2018Y7481D01*
X2017Y7481D01*
X2016Y7481D01*
X2015Y7481D01*
X2014Y7481D01*
X2013Y7481D01*
X2012Y7481D01*
X2011Y7481D01*
X2010Y7481D01*
X2009Y7481D01*
X2008Y7481D01*
X2007Y7481D01*
X2006Y7481D01*
X2005Y7481D01*
X2004Y7481D01*
X2003Y7481D01*
X2002Y7481D01*
X2001Y7481D01*
X2000Y7481D01*
X1999Y7481D01*
X1998Y7481D01*
X1997Y7481D01*
X1996Y7481D01*
X1995Y7481D01*
X1994Y7481D01*
X1993Y7481D01*
X1992Y7481D01*
X1991Y7481D01*
X1990Y7481D01*
X1989Y7481D01*
X1988Y7481D01*
X1987Y7481D01*
X1986Y7481D01*
X1985Y7481D01*
X1984Y7481D01*
X1983Y7481D01*
X1982Y7481D01*
X1981Y7481D01*
X1980Y7481D01*
X1979Y7481D01*
X1978Y7481D01*
X1977Y7481D01*
X1976Y7481D01*
X1975Y7481D01*
X1974Y7481D01*
X1973Y7481D01*
X1972Y7481D01*
X1971Y7481D01*
X1970Y7481D01*
X1969Y7481D01*
X1968Y7481D01*
X1967Y7481D01*
X1966Y7481D01*
X1965Y7481D01*
X1964Y7481D01*
X1963Y7481D01*
X1962Y7481D01*
X1961Y7481D01*
X1960Y7481D01*
X1959Y7481D01*
X1958Y7481D01*
X1957Y7481D01*
X1956Y7481D01*
X1955Y7481D01*
X1954Y7481D01*
X1953Y7481D01*
X1952Y7481D01*
X1951Y7481D01*
X1950Y7481D01*
X1949Y7481D01*
X1948Y7481D01*
X1947Y7481D01*
X1946Y7481D01*
X1945Y7481D01*
X1944Y7481D01*
X1943Y7481D01*
X1942Y7481D01*
X1941Y7481D01*
X1940Y7481D01*
X1939Y7481D01*
X1938Y7481D01*
X1937Y7481D01*
X1936Y7481D01*
X1935Y7481D01*
X1934Y7481D01*
X1933Y7481D01*
X1932Y7481D01*
X1931Y7481D01*
X1930Y7481D01*
X1929Y7481D01*
X1928Y7481D01*
X1927Y7481D01*
X1926Y7481D01*
X1925Y7481D01*
X1924Y7481D01*
X1923Y7481D01*
X1922Y7481D01*
X1921Y7481D01*
X1920Y7481D01*
X1919Y7481D01*
X1918Y7481D01*
X1917Y7481D01*
X1916Y7481D01*
X1915Y7481D01*
X1914Y7481D01*
X1913Y7481D01*
X1912Y7481D01*
X1911Y7481D01*
X1910Y7481D01*
X1909Y7481D01*
X1908Y7481D01*
X1907Y7481D01*
X1906Y7481D01*
X1905Y7481D01*
X1904Y7481D01*
X1903Y7481D01*
X1902Y7481D01*
X1901Y7481D01*
X1900Y7481D01*
X1899Y7481D01*
X1898Y7481D01*
X1897Y7481D01*
X1896Y7481D01*
X1895Y7481D01*
X1894Y7481D01*
X1893Y7481D01*
X1892Y7481D01*
X1891Y7481D01*
X1890Y7481D01*
X1889Y7481D01*
X1888Y7481D01*
X1887Y7481D01*
X1886Y7481D01*
X1885Y7481D01*
X1884Y7481D01*
X1883Y7481D01*
X1882Y7481D01*
X1881Y7481D01*
X1880Y7481D01*
X1879Y7481D01*
X1878Y7481D01*
X1877Y7481D01*
X1876Y7481D01*
X1875Y7481D01*
X1874Y7481D01*
X1873Y7481D01*
X1872Y7481D01*
X1871Y7481D01*
X1870Y7481D01*
X1869Y7481D01*
X1868Y7481D01*
X1867Y7481D01*
X1866Y7481D01*
X1865Y7481D01*
X1864Y7481D01*
X1863Y7481D01*
X1862Y7481D01*
X1861Y7481D01*
X1860Y7481D01*
X1859Y7481D01*
X1858Y7481D01*
X1857Y7481D01*
X1856Y7481D01*
X1855Y7481D01*
X1854Y7481D01*
X1853Y7481D01*
X1852Y7481D01*
X1851Y7481D01*
X1850Y7481D01*
X1849Y7481D01*
X1848Y7481D01*
X1847Y7481D01*
X1846Y7481D01*
X1845Y7481D01*
X1844Y7481D01*
X1843Y7481D01*
X1842Y7481D01*
X1841Y7481D01*
X1840Y7481D01*
X1839Y7481D01*
X1838Y7481D01*
X1837Y7481D01*
X1836Y7481D01*
X1835Y7481D01*
X1834Y7481D01*
X1833Y7481D01*
X1832Y7481D01*
X1831Y7481D01*
X1830Y7481D01*
X1829Y7481D01*
X1828Y7481D01*
X1827Y7481D01*
X1826Y7481D01*
X1825Y7481D01*
X1824Y7481D01*
X1823Y7481D01*
X1822Y7481D01*
X1821Y7481D01*
X1820Y7481D01*
X1819Y7481D01*
X1818Y7481D01*
X1817Y7481D01*
X1816Y7481D01*
X1815Y7481D01*
X1814Y7481D01*
X1813Y7481D01*
X1812Y7481D01*
X1811Y7481D01*
X1810Y7481D01*
X1809Y7481D01*
X1808Y7481D01*
X1807Y7481D01*
X1806Y7481D01*
X1805Y7481D01*
X1804Y7481D01*
X1803Y7481D01*
X1802Y7481D01*
X1801Y7481D01*
X1800Y7481D01*
X1799Y7481D01*
X1798Y7481D01*
X1797Y7481D01*
X1796Y7481D01*
X1795Y7481D01*
X1794Y7481D01*
X1793Y7481D01*
X1792Y7481D01*
X1791Y7481D01*
X1790Y7482D01*
X1790Y8662D01*
X1789Y8662D01*
X1788Y8662D01*
X1787Y8662D01*
X1786Y8662D01*
X1785Y8662D01*
X1784Y8662D01*
X1783Y8662D01*
X1782Y8662D01*
X1781Y8662D01*
X1780Y8662D01*
X1779Y8662D01*
X1778Y8662D01*
X1777Y8662D01*
X1776Y8662D01*
X1775Y8662D01*
X1774Y8662D01*
X1773Y8662D01*
X1772Y8662D01*
X1771Y8662D01*
X1770Y8662D01*
X1769Y8662D01*
X1768Y8662D01*
X1767Y8662D01*
X1766Y8662D01*
X1765Y8662D01*
X1764Y8662D01*
X1763Y8662D01*
X1762Y8662D01*
X1761Y8662D01*
X1760Y8662D01*
X1759Y8662D01*
X1758Y8662D01*
X1757Y8662D01*
X1756Y8662D01*
X1755Y8662D01*
X1754Y8662D01*
X1753Y8662D01*
X1752Y8662D01*
X1751Y8662D01*
X1750Y8662D01*
X1749Y8662D01*
X1748Y8662D01*
X1747Y8662D01*
X1746Y8662D01*
X1745Y8662D01*
X1744Y8662D01*
X1743Y8662D01*
X1742Y8662D01*
X1741Y8662D01*
X1740Y8662D01*
X1739Y8662D01*
X1738Y8662D01*
X1737Y8662D01*
X1736Y8662D01*
X1735Y8662D01*
X1734Y8662D01*
X1733Y8662D01*
X1732Y8662D01*
X1731Y8662D01*
X1730Y8662D01*
X1729Y8662D01*
X1728Y8662D01*
X1727Y8662D01*
X1726Y8662D01*
X1725Y8662D01*
X1724Y8662D01*
X1723Y8662D01*
X1722Y8662D01*
X1721Y8662D01*
X1720Y8662D01*
X1719Y8662D01*
X1718Y8662D01*
X1717Y8662D01*
X1716Y8662D01*
X1715Y8662D01*
X1714Y8662D01*
X1713Y8662D01*
X1712Y8662D01*
X1711Y8662D01*
X1710Y8662D01*
X1709Y8662D01*
X1708Y8662D01*
X1707Y8662D01*
X1706Y8662D01*
X1705Y8662D01*
X1704Y8662D01*
X1703Y8662D01*
X1702Y8662D01*
X1701Y8662D01*
X1700Y8662D01*
X1699Y8662D01*
X1698Y8662D01*
X1697Y8662D01*
X1696Y8662D01*
X1695Y8662D01*
X1694Y8662D01*
X1693Y8662D01*
X1692Y8662D01*
X1691Y8662D01*
X1690Y8662D01*
X1689Y8662D01*
X1688Y8662D01*
X1687Y8662D01*
X1686Y8662D01*
X1685Y8662D01*
X1684Y8662D01*
X1683Y8662D01*
X1682Y8662D01*
X1681Y8662D01*
X1680Y8662D01*
X1679Y8662D01*
X1678Y8662D01*
X1677Y8662D01*
X1676Y8662D01*
X1675Y8662D01*
X1674Y8662D01*
X1673Y8662D01*
X1672Y8662D01*
X1671Y8662D01*
X1670Y8662D01*
X1669Y8662D01*
X1668Y8662D01*
X1667Y8662D01*
X1666Y8662D01*
X1665Y8662D01*
X1664Y8662D01*
X1663Y8662D01*
X1662Y8662D01*
X1661Y8662D01*
X1660Y8662D01*
X1659Y8662D01*
X1658Y8662D01*
X1657Y8662D01*
X1656Y8662D01*
X1655Y8662D01*
X1654Y8662D01*
X1653Y8662D01*
X1652Y8662D01*
X1651Y8662D01*
X1650Y8662D01*
X1649Y8662D01*
X1648Y8662D01*
X1647Y8662D01*
X1646Y8662D01*
X1645Y8662D01*
X1644Y8662D01*
X1643Y8662D01*
X1642Y8662D01*
X1641Y8662D01*
X1640Y8662D01*
X1639Y8662D01*
X1638Y8662D01*
X1637Y8662D01*
X1636Y8662D01*
X1635Y8662D01*
X1634Y8662D01*
X1633Y8662D01*
X1632Y8662D01*
X1631Y8662D01*
X1630Y8662D01*
X1629Y8662D01*
X1628Y8662D01*
X1627Y8662D01*
X1626Y8662D01*
X1625Y8662D01*
X1624Y8662D01*
X1623Y8662D01*
X1622Y8662D01*
X1621Y8662D01*
X1620Y8662D01*
X1619Y8662D01*
X1618Y8662D01*
X1617Y8662D01*
X1616Y8662D01*
X1615Y8662D01*
X1614Y8662D01*
X1613Y8662D01*
X1612Y8662D01*
X1611Y8662D01*
X1610Y8662D01*
X1609Y8662D01*
X1608Y8662D01*
X1607Y8662D01*
X1606Y8662D01*
X1605Y8662D01*
X1604Y8662D01*
X1603Y8662D01*
X1602Y8662D01*
X1601Y8662D01*
X1600Y8662D01*
X1599Y8662D01*
X1598Y8662D01*
X1597Y8662D01*
X1596Y8662D01*
X1595Y8662D01*
X1594Y8662D01*
X1593Y8662D01*
X1592Y8662D01*
X1591Y8662D01*
X1590Y8662D01*
X1589Y8662D01*
X1588Y8662D01*
X1587Y8662D01*
X1586Y8662D01*
X1585Y8662D01*
X1584Y8662D01*
X1583Y8662D01*
X1582Y8662D01*
X1581Y8662D01*
X1580Y8662D01*
X1579Y8662D01*
X1578Y8662D01*
X1577Y8662D01*
X1576Y8662D01*
X1575Y8662D01*
X1574Y8662D01*
X1573Y8662D01*
X1572Y8662D01*
X1571Y8662D01*
X1570Y8662D01*
X1569Y8662D01*
X1568Y8662D01*
X1567Y8662D01*
X1566Y8662D01*
X1565Y8662D01*
X1564Y8662D01*
X1563Y8662D01*
X1562Y8662D01*
X1561Y8662D01*
X1560Y8662D01*
X1559Y8662D01*
X1558Y8662D01*
X1557Y8662D01*
X1556Y8662D01*
X1555Y8662D01*
X1554Y8662D01*
X1553Y8662D01*
X1552Y8662D01*
X1551Y8662D01*
X1550Y8662D01*
X1549Y8662D01*
X1548Y8662D01*
X1547Y8662D01*
X1546Y8662D01*
X1545Y8662D01*
X1544Y8662D01*
X1543Y8662D01*
X1542Y8662D01*
X1541Y8662D01*
X1540Y8662D01*
X1539Y8662D01*
X1538Y8662D01*
X1537Y8662D01*
X1536Y8662D01*
X1535Y8662D01*
X1534Y8662D01*
X1533Y8662D01*
X1532Y8662D01*
X1531Y8662D01*
X1530Y8662D01*
X1529Y8662D01*
X1528Y8662D01*
X1527Y8662D01*
X1526Y8662D01*
X1525Y8662D01*
X1524Y8662D01*
X1523Y8662D01*
X1522Y8662D01*
X1521Y8662D01*
X1520Y8662D01*
X1519Y8662D01*
X1518Y8662D01*
X1517Y8662D01*
X1516Y8662D01*
X1515Y8662D01*
X1514Y8662D01*
X1513Y8662D01*
X1512Y8662D01*
X1511Y8662D01*
X1510Y8662D01*
X1509Y8662D01*
X1508Y8662D01*
X1507Y8662D01*
X1506Y8662D01*
X1505Y8662D01*
X1504Y8662D01*
X1503Y8662D01*
X1502Y8662D01*
X1501Y8662D01*
X1500Y8662D01*
X1499Y8662D01*
X1498Y8662D01*
X1497Y8662D01*
X1496Y8662D01*
X1495Y8662D01*
X1494Y8662D01*
X1493Y8662D01*
X1492Y8662D01*
X1491Y8662D01*
X1490Y8662D01*
X1489Y8662D01*
X1488Y8662D01*
X1487Y8662D01*
X1486Y8662D01*
X1485Y8662D01*
X1484Y8662D01*
X1483Y8662D01*
X1482Y8662D01*
X1481Y8662D01*
X1480Y8662D01*
X1479Y8662D01*
X1478Y8662D01*
X1477Y8662D01*
X1476Y8662D01*
X1475Y8662D01*
X1474Y8662D01*
X1473Y8662D01*
X1472Y8662D01*
X1471Y8662D01*
X1470Y8662D01*
X1469Y8662D01*
X1468Y8662D01*
X1467Y8662D01*
X1466Y8662D01*
X1465Y8662D01*
X1464Y8662D01*
X1463Y8662D01*
X1462Y8662D01*
X1461Y8662D01*
X1460Y8662D01*
X1459Y8662D01*
X1458Y8662D01*
X1457Y8662D01*
X1456Y8662D01*
X1455Y8662D01*
X1454Y8662D01*
X1453Y8662D01*
X1452Y8662D01*
X1451Y8662D01*
X1450Y8662D01*
X1449Y8662D01*
X1448Y8662D01*
X1447Y8662D01*
X1446Y8662D01*
X1445Y8662D01*
X1444Y8662D01*
X1443Y8662D01*
X1442Y8662D01*
X1441Y8662D01*
X1440Y8662D01*
X1439Y8662D01*
X1438Y8662D01*
X1437Y8662D01*
X1436Y8662D01*
X1435Y8662D01*
X1434Y8662D01*
X1433Y8662D01*
X1432Y8662D01*
X1431Y8662D01*
X1430Y8662D01*
X1429Y8662D01*
X1428Y8662D01*
X1427Y8662D01*
X1426Y8662D01*
X1425Y8662D01*
X1424Y8662D01*
X1423Y8662D01*
X1422Y8662D01*
X1421Y8662D01*
X1420Y8662D01*
X1419Y8662D01*
X1418Y8662D01*
X1417Y8662D01*
X1416Y8662D01*
X1415Y8662D01*
X1414Y8662D01*
X1413Y8662D01*
X1412Y8662D01*
X1411Y8662D01*
X1410Y8662D01*
X1409Y8662D01*
X1408Y8662D01*
X1407Y8662D01*
X1406Y8662D01*
X1405Y8662D01*
X1404Y8662D01*
X1403Y8662D01*
X1402Y8662D01*
X1401Y8662D01*
X1400Y8662D01*
X1399Y8662D01*
X1398Y8662D01*
X1397Y8662D01*
X1396Y8662D01*
X1395Y8662D01*
X1394Y8662D01*
X1393Y8662D01*
X1392Y8662D01*
X1391Y8662D01*
X1390Y8662D01*
X1389Y8662D01*
X1388Y8662D01*
X1387Y8662D01*
X1386Y8662D01*
X1385Y8662D01*
X1384Y8662D01*
X1383Y8662D01*
X1382Y8662D01*
X1381Y8662D01*
X1380Y8662D01*
X1379Y8662D01*
X1378Y8662D01*
X1377Y8662D01*
X1376Y8662D01*
X1375Y8662D01*
X1374Y8662D01*
X1373Y8662D01*
X1372Y8662D01*
X1371Y8662D01*
X1370Y8662D01*
X1369Y8662D01*
X1368Y8662D01*
X1367Y8662D01*
X1366Y8662D01*
X1365Y8662D01*
X1364Y8662D01*
X1363Y8662D01*
X1362Y8662D01*
X1361Y8662D01*
X1360Y8662D01*
X1359Y8662D01*
X1358Y8662D01*
X1357Y8662D01*
X1356Y8662D01*
X1355Y8662D01*
X1354Y8662D01*
X1353Y8662D01*
X1352Y8662D01*
X1351Y8662D01*
X1350Y8662D01*
X1349Y8662D01*
X1348Y8662D01*
X1347Y8662D01*
X1346Y8662D01*
X1345Y8662D01*
X1344Y8662D01*
X1343Y8662D01*
X1342Y8662D01*
X1341Y8662D01*
X1340Y8662D01*
X1339Y8662D01*
X1338Y8662D01*
X1337Y8662D01*
X1336Y8662D01*
X1335Y8662D01*
X1334Y8662D01*
X1333Y8662D01*
X1332Y8662D01*
X1331Y8662D01*
X1330Y8662D01*
X1329Y8662D01*
X1328Y8662D01*
X1327Y8662D01*
X1326Y8662D01*
X1325Y8662D01*
X1324Y8662D01*
X1323Y8662D01*
X1322Y8662D01*
X1321Y8662D01*
X1320Y8662D01*
X1319Y8662D01*
X1318Y8662D01*
X1317Y8662D01*
X1316Y8662D01*
X1315Y8662D01*
X1314Y8662D01*
X1313Y8662D01*
X1312Y8662D01*
X1311Y8662D01*
X1310Y8662D01*
X1309Y8662D01*
X1308Y8662D01*
X1307Y8662D01*
X1306Y8662D01*
X1305Y8662D01*
X1304Y8662D01*
X1303Y8662D01*
X1302Y8662D01*
X1301Y8662D01*
X1300Y8662D01*
X1299Y8662D01*
X1298Y8662D01*
X1297Y8662D01*
X1296Y8662D01*
X1295Y8662D01*
X1294Y8662D01*
X1293Y8662D01*
X1292Y8662D01*
X1291Y8662D01*
X1290Y8662D01*
X1289Y8662D01*
X1288Y8662D01*
X1287Y8662D01*
X1286Y8662D01*
X1285Y8662D01*
X1284Y8662D01*
X1283Y8662D01*
X1282Y8662D01*
X1281Y8662D01*
X1280Y8662D01*
X1279Y8662D01*
X1278Y8662D01*
X1277Y8662D01*
X1276Y8662D01*
X1275Y8662D01*
X1274Y8662D01*
X1273Y8662D01*
X1272Y8662D01*
X1271Y8662D01*
X1270Y8662D01*
X1269Y8662D01*
X1268Y8662D01*
X1267Y8662D01*
X1266Y8662D01*
X1265Y8662D01*
X1264Y8662D01*
X1263Y8662D01*
X1262Y8662D01*
X1261Y8662D01*
X1260Y8662D01*
X1259Y8662D01*
X1258Y8662D01*
X1257Y8662D01*
X1256Y8662D01*
X1255Y8662D01*
X1254Y8662D01*
X1253Y8662D01*
X1252Y8662D01*
X1251Y8662D01*
X1250Y8662D01*
X1249Y8662D01*
X1248Y8662D01*
X1247Y8662D01*
X1246Y8662D01*
X1245Y8662D01*
X1244Y8662D01*
X1243Y8662D01*
X1242Y8662D01*
X1241Y8662D01*
X1240Y8662D01*
X1239Y8662D01*
X1238Y8662D01*
X1237Y8662D01*
X1236Y8662D01*
X1235Y8662D01*
X1234Y8662D01*
X1233Y8662D01*
X1232Y8662D01*
X1231Y8662D01*
X1230Y8662D01*
X1229Y8662D01*
X1228Y8662D01*
X1227Y8662D01*
X1226Y8662D01*
X1225Y8662D01*
X1224Y8662D01*
X1223Y8662D01*
X1222Y8662D01*
X1221Y8662D01*
X1220Y8662D01*
X1219Y8662D01*
X1218Y8662D01*
X1217Y8662D01*
X1216Y8662D01*
X1215Y8662D01*
X1214Y8662D01*
X1213Y8662D01*
X1212Y8662D01*
X1211Y8662D01*
X1210Y8662D01*
X1209Y8662D01*
X1208Y8662D01*
X1207Y8662D01*
X1206Y8662D01*
X1205Y8662D01*
X1204Y8662D01*
X1203Y8662D01*
X1202Y8662D01*
X1201Y8662D01*
X1200Y8662D01*
X1199Y8662D01*
X1198Y8662D01*
X1197Y8662D01*
X1196Y8662D01*
X1195Y8662D01*
X1194Y8662D01*
X1193Y8662D01*
X1192Y8662D01*
X1191Y8662D01*
X1190Y8662D01*
X1189Y8662D01*
X1188Y8662D01*
X1187Y8662D01*
X1186Y8662D01*
X1185Y8662D01*
X1184Y8662D01*
X1183Y8662D01*
X1182Y8662D01*
X1181Y8662D01*
X1180Y8662D01*
X1179Y8662D01*
X1178Y8662D01*
X1177Y8662D01*
X1176Y8662D01*
X1175Y8662D01*
X1174Y8662D01*
X1173Y8662D01*
X1172Y8662D01*
X1171Y8662D01*
X1170Y8662D01*
X1169Y8662D01*
X1168Y8662D01*
X1167Y8662D01*
X1166Y8662D01*
X1165Y8662D01*
X1164Y8662D01*
X1163Y8662D01*
X1162Y8662D01*
X1161Y8662D01*
X1160Y8662D01*
X1159Y8662D01*
X1158Y8662D01*
X1157Y8662D01*
X1156Y8662D01*
X1155Y8662D01*
X1154Y8662D01*
X1153Y8662D01*
X1152Y8662D01*
X1151Y8662D01*
X1150Y8662D01*
X1149Y8662D01*
X1148Y8662D01*
X1147Y8662D01*
X1146Y8662D01*
X1145Y8662D01*
X1144Y8662D01*
X1143Y8662D01*
X1142Y8662D01*
X1141Y8662D01*
X1140Y8662D01*
X1139Y8662D01*
X1138Y8662D01*
X1137Y8662D01*
X1136Y8662D01*
X1135Y8662D01*
X1134Y8662D01*
X1133Y8662D01*
X1132Y8662D01*
X1131Y8662D01*
X1130Y8662D01*
X1129Y8662D01*
X1128Y8662D01*
X1127Y8662D01*
X1126Y8662D01*
X1125Y8662D01*
X1124Y8662D01*
X1123Y8662D01*
X1122Y8662D01*
X1121Y8662D01*
X1120Y8662D01*
X1119Y8662D01*
X1118Y8662D01*
X1117Y8662D01*
X1116Y8662D01*
X1115Y8662D01*
X1114Y8662D01*
X1113Y8662D01*
X1112Y8662D01*
X1111Y8662D01*
X1110Y8662D01*
X1109Y8662D01*
X1108Y8662D01*
X1107Y8662D01*
X1106Y8662D01*
X1105Y8662D01*
X1104Y8662D01*
X1103Y8662D01*
X1102Y8662D01*
X1101Y8662D01*
X1100Y8662D01*
X1099Y8662D01*
X1098Y8662D01*
X1097Y8662D01*
X1096Y8662D01*
X1095Y8662D01*
X1094Y8662D01*
X1093Y8662D01*
X1092Y8662D01*
X1091Y8662D01*
X1090Y8662D01*
X1089Y8662D01*
X1088Y8662D01*
X1087Y8662D01*
X1086Y8662D01*
X1085Y8662D01*
X1084Y8662D01*
X1083Y8662D01*
X1082Y8662D01*
X1081Y8662D01*
X1080Y8662D01*
X1079Y8662D01*
X1078Y8662D01*
X1077Y8662D01*
X1076Y8662D01*
X1075Y8662D01*
X1074Y8662D01*
X1073Y8662D01*
X1072Y8662D01*
X1071Y8662D01*
X1070Y8662D01*
X1069Y8662D01*
X1068Y8662D01*
X1067Y8662D01*
X1066Y8662D01*
X1065Y8662D01*
X1064Y8662D01*
X1063Y8662D01*
X1062Y8662D01*
X1061Y8662D01*
X1060Y8662D01*
X1059Y8662D01*
X1058Y8662D01*
X1057Y8662D01*
X1056Y8662D01*
X1055Y8662D01*
X1054Y8662D01*
X1053Y8662D01*
X1052Y8662D01*
X1051Y8662D01*
X1050Y8662D01*
X1049Y8662D01*
X1048Y8662D01*
X1047Y8662D01*
X1046Y8662D01*
X1045Y8662D01*
X1044Y8662D01*
X1043Y8662D01*
X1042Y8662D01*
X1041Y8662D01*
X1040Y8662D01*
X1039Y8662D01*
X1038Y8662D01*
X1037Y8662D01*
X1036Y8662D01*
X1035Y8662D01*
X1034Y8662D01*
X1033Y8662D01*
X1032Y8662D01*
X1031Y8662D01*
X1030Y8662D01*
X1029Y8662D01*
X1028Y8662D01*
X1027Y8662D01*
X1026Y8662D01*
X1025Y8662D01*
X1024Y8662D01*
X1023Y8662D01*
X1022Y8662D01*
X1021Y8662D01*
X1020Y8662D01*
X1019Y8662D01*
X1018Y8662D01*
X1017Y8662D01*
X1016Y8662D01*
X1015Y8662D01*
X1014Y8662D01*
X1013Y8662D01*
X1012Y8662D01*
X1011Y8662D01*
X1010Y8662D01*
X1009Y8662D01*
X1008Y8662D01*
X1007Y8662D01*
X1006Y8662D01*
X1005Y8662D01*
X1004Y8662D01*
X1003Y8662D01*
X1002Y8662D01*
X1001Y8662D01*
X1000Y8662D01*
X999Y8662D01*
X998Y8662D01*
X997Y8662D01*
X996Y8662D01*
X995Y8662D01*
X994Y8662D01*
X993Y8662D01*
X992Y8662D01*
X991Y8662D01*
X990Y8662D01*
X989Y8662D01*
X988Y8662D01*
X987Y8662D01*
X986Y8662D01*
X985Y8662D01*
X984Y8662D01*
X983Y8662D01*
X982Y8662D01*
X981Y8662D01*
X980Y8662D01*
X979Y8662D01*
X978Y8662D01*
X977Y8662D01*
X976Y8662D01*
X975Y8662D01*
X974Y8662D01*
X973Y8662D01*
X972Y8662D01*
X971Y8662D01*
X970Y8662D01*
X969Y8662D01*
X968Y8662D01*
X967Y8662D01*
X966Y8662D01*
X965Y8662D01*
X964Y8662D01*
X963Y8662D01*
X962Y8662D01*
X961Y8662D01*
X960Y8662D01*
X959Y8662D01*
X958Y8662D01*
X957Y8662D01*
X956Y8662D01*
X955Y8662D01*
X954Y8662D01*
X953Y8662D01*
X952Y8662D01*
X951Y8662D01*
X950Y8662D01*
X949Y8662D01*
X948Y8662D01*
X947Y8662D01*
X946Y8662D01*
X945Y8662D01*
X944Y8662D01*
X943Y8662D01*
X942Y8662D01*
X941Y8662D01*
X940Y8662D01*
X939Y8662D01*
X938Y8662D01*
X937Y8662D01*
X936Y8662D01*
X935Y8662D01*
X934Y8662D01*
X933Y8662D01*
X932Y8662D01*
X931Y8662D01*
X930Y8662D01*
X929Y8662D01*
X928Y8662D01*
X927Y8662D01*
X926Y8662D01*
X925Y8662D01*
X924Y8662D01*
X923Y8662D01*
X922Y8662D01*
X921Y8662D01*
X920Y8662D01*
X919Y8662D01*
X918Y8662D01*
X917Y8662D01*
X916Y8662D01*
X915Y8662D01*
X914Y8662D01*
X913Y8662D01*
X912Y8662D01*
X911Y8662D01*
X910Y8662D01*
X909Y8662D01*
X908Y8662D01*
X907Y8662D01*
X906Y8662D01*
X905Y8662D01*
X904Y8662D01*
X903Y8662D01*
X902Y8662D01*
X901Y8662D01*
X900Y8662D01*
X899Y8662D01*
X898Y8662D01*
X897Y8662D01*
X896Y8662D01*
X895Y8662D01*
X894Y8662D01*
X893Y8662D01*
X892Y8662D01*
X891Y8662D01*
X890Y8662D01*
X889Y8662D01*
X888Y8662D01*
X887Y8662D01*
X886Y8662D01*
X885Y8662D01*
X884Y8662D01*
X883Y8662D01*
X882Y8662D01*
X881Y8662D01*
X880Y8662D01*
X879Y8662D01*
X878Y8662D01*
X877Y8662D01*
X876Y8662D01*
X875Y8662D01*
X874Y8662D01*
X873Y8662D01*
X872Y8662D01*
X871Y8662D01*
X870Y8662D01*
X869Y8662D01*
X868Y8662D01*
X867Y8662D01*
X866Y8662D01*
X865Y8662D01*
X864Y8662D01*
X863Y8662D01*
X862Y8662D01*
X861Y8662D01*
X860Y8662D01*
X859Y8662D01*
X858Y8662D01*
X857Y8662D01*
X856Y8662D01*
X855Y8662D01*
X854Y8662D01*
X853Y8662D01*
X852Y8662D01*
X851Y8662D01*
X850Y8662D01*
X849Y8662D01*
X848Y8662D01*
X847Y8662D01*
X846Y8662D01*
X845Y8662D01*
X844Y8662D01*
X843Y8662D01*
X842Y8662D01*
X841Y8662D01*
X840Y8662D01*
X839Y8662D01*
X838Y8662D01*
X837Y8662D01*
X836Y8662D01*
X835Y8662D01*
X834Y8662D01*
X833Y8662D01*
X832Y8662D01*
X831Y8662D01*
X830Y8662D01*
X829Y8662D01*
X828Y8662D01*
X827Y8662D01*
X826Y8662D01*
X825Y8662D01*
X824Y8662D01*
X823Y8662D01*
X822Y8662D01*
X821Y8662D01*
X820Y8662D01*
X819Y8662D01*
X818Y8662D01*
X817Y8662D01*
X816Y8662D01*
X815Y8662D01*
X814Y8662D01*
X813Y8662D01*
X812Y8662D01*
X811Y8662D01*
X810Y8662D01*
X809Y8662D01*
X808Y8662D01*
X807Y8662D01*
X806Y8662D01*
X805Y8662D01*
X804Y8662D01*
X803Y8662D01*
X802Y8662D01*
X801Y8662D01*
X800Y8662D01*
X799Y8662D01*
X798Y8662D01*
X797Y8662D01*
X796Y8662D01*
X795Y8662D01*
X794Y8662D01*
X793Y8662D01*
X792Y8662D01*
X791Y8662D01*
X790Y8662D01*
X789Y8662D01*
X788Y8662D01*
X787Y8662D01*
X786Y8662D01*
X785Y8662D01*
X784Y8662D01*
X783Y8662D01*
X782Y8662D01*
X781Y8662D01*
X780Y8662D01*
X779Y8662D01*
X778Y8662D01*
X777Y8662D01*
X776Y8662D01*
X775Y8662D01*
X774Y8662D01*
X773Y8662D01*
X772Y8662D01*
X771Y8662D01*
X770Y8662D01*
X769Y8662D01*
X768Y8662D01*
X767Y8662D01*
X766Y8662D01*
X765Y8662D01*
X764Y8662D01*
X763Y8662D01*
X762Y8662D01*
X761Y8662D01*
X760Y8662D01*
X759Y8662D01*
X758Y8662D01*
X757Y8662D01*
X756Y8662D01*
X755Y8662D01*
X754Y8662D01*
X753Y8662D01*
X752Y8662D01*
X751Y8662D01*
X750Y8662D01*
X749Y8662D01*
X748Y8662D01*
X747Y8662D01*
X746Y8662D01*
X745Y8662D01*
X744Y8662D01*
X743Y8662D01*
X742Y8662D01*
X741Y8662D01*
X740Y8662D01*
X739Y8662D01*
X738Y8662D01*
X737Y8662D01*
X736Y8662D01*
X735Y8662D01*
X734Y8662D01*
X733Y8662D01*
X732Y8662D01*
X731Y8662D01*
X730Y8662D01*
X729Y8662D01*
X728Y8662D01*
X727Y8662D01*
X726Y8662D01*
X725Y8662D01*
X724Y8662D01*
X723Y8662D01*
X722Y8662D01*
X721Y8662D01*
X720Y8662D01*
X719Y8662D01*
X718Y8662D01*
X717Y8662D01*
X716Y8662D01*
X715Y8662D01*
X714Y8662D01*
X713Y8662D01*
X712Y8662D01*
X711Y8662D01*
X710Y8662D01*
X709Y8662D01*
X708Y8662D01*
X707Y8662D01*
X706Y8662D01*
X705Y8662D01*
X704Y8662D01*
X703Y8662D01*
X702Y8662D01*
X701Y8662D01*
X700Y8662D01*
X699Y8662D01*
X698Y8662D01*
X697Y8662D01*
X696Y8662D01*
X695Y8662D01*
X694Y8662D01*
X693Y8662D01*
X692Y8662D01*
X691Y8662D01*
X690Y8662D01*
X689Y8662D01*
X688Y8662D01*
X687Y8662D01*
X686Y8662D01*
X685Y8662D01*
X684Y8662D01*
X683Y8662D01*
X682Y8662D01*
X681Y8662D01*
X680Y8662D01*
X679Y8662D01*
X678Y8662D01*
X677Y8662D01*
X676Y8662D01*
X675Y8662D01*
X674Y8662D01*
X673Y8662D01*
X672Y8662D01*
X671Y8662D01*
X670Y8662D01*
X669Y8662D01*
X668Y8662D01*
X667Y8662D01*
X666Y8662D01*
X665Y8662D01*
X664Y8662D01*
X663Y8662D01*
X662Y8662D01*
X661Y8662D01*
X660Y8662D01*
X659Y8662D01*
X658Y8662D01*
X657Y8662D01*
X656Y8662D01*
X655Y8662D01*
X654Y8662D01*
X653Y8662D01*
X652Y8662D01*
X651Y8662D01*
X650Y8662D01*
X649Y8662D01*
X648Y8662D01*
X647Y8662D01*
X646Y8662D01*
X645Y8662D01*
X644Y8662D01*
X643Y8662D01*
X642Y8662D01*
X641Y8662D01*
X640Y8662D01*
X639Y8662D01*
X638Y8662D01*
X637Y8662D01*
X636Y8662D01*
X635Y8662D01*
X634Y8662D01*
X633Y8662D01*
X632Y8662D01*
X631Y8662D01*
X630Y8662D01*
X629Y8662D01*
X628Y8662D01*
X627Y8662D01*
X626Y8662D01*
X625Y8662D01*
X624Y8662D01*
X623Y8662D01*
X622Y8662D01*
X621Y8662D01*
X620Y8662D01*
X619Y8662D01*
X618Y8662D01*
X617Y8662D01*
X616Y8662D01*
X615Y8662D01*
X614Y8662D01*
X613Y8662D01*
X612Y8662D01*
X611Y8662D01*
X610Y8662D01*
X609Y8662D01*
X608Y8662D01*
X607Y8662D01*
X606Y8662D01*
X605Y8662D01*
X604Y8662D01*
X603Y8662D01*
X602Y8662D01*
X601Y8662D01*
X600Y8662D01*
X599Y8662D01*
X598Y8662D01*
X597Y8662D01*
X596Y8662D01*
X595Y8662D01*
X594Y8662D01*
X593Y8662D01*
X592Y8662D01*
X591Y8662D01*
X590Y8662D01*
X589Y8662D01*
X588Y8662D01*
X587Y8662D01*
X586Y8662D01*
X585Y8662D01*
X584Y8662D01*
X583Y8662D01*
X582Y8662D01*
X581Y8662D01*
X580Y8662D01*
X579Y8662D01*
X578Y8662D01*
X577Y8662D01*
X576Y8662D01*
X575Y8662D01*
X574Y8662D01*
X573Y8662D01*
X572Y8662D01*
X571Y8662D01*
X570Y8662D01*
X569Y8662D01*
X568Y8662D01*
X567Y8662D01*
X566Y8662D01*
X565Y8662D01*
X564Y8662D01*
X563Y8662D01*
X562Y8662D01*
X561Y8662D01*
X560Y8662D01*
X559Y8662D01*
X558Y8662D01*
X557Y8662D01*
X556Y8662D01*
X555Y8662D01*
X554Y8662D01*
X553Y8662D01*
X552Y8662D01*
X551Y8662D01*
X550Y8662D01*
X549Y8662D01*
X548Y8662D01*
X547Y8662D01*
X546Y8662D01*
X545Y8662D01*
X544Y8662D01*
X543Y8662D01*
X542Y8662D01*
X541Y8662D01*
X540Y8662D01*
X539Y8662D01*
X538Y8662D01*
X537Y8662D01*
X536Y8662D01*
X535Y8662D01*
X534Y8662D01*
X533Y8662D01*
X532Y8662D01*
X531Y8662D01*
X530Y8662D01*
X529Y8662D01*
X528Y8662D01*
X527Y8662D01*
X526Y8662D01*
X525Y8662D01*
X524Y8662D01*
X523Y8662D01*
X522Y8662D01*
X521Y8662D01*
X520Y8662D01*
X519Y8662D01*
X518Y8662D01*
X517Y8662D01*
X516Y8662D01*
X515Y8662D01*
X514Y8662D01*
X513Y8662D01*
X512Y8662D01*
X511Y8662D01*
X510Y8662D01*
X509Y8662D01*
X508Y8662D01*
X507Y8662D01*
X506Y8662D01*
X505Y8662D01*
X504Y8662D01*
X503Y8662D01*
X502Y8662D01*
X501Y8662D01*
X500Y8662D01*
X499Y8662D01*
X498Y8662D01*
X497Y8662D01*
X496Y8662D01*
X495Y8662D01*
X494Y8662D01*
X493Y8662D01*
X492Y8662D01*
X491Y8662D01*
X490Y8662D01*
X489Y8662D01*
X488Y8662D01*
X487Y8662D01*
X486Y8662D01*
X485Y8662D01*
X484Y8662D01*
X483Y8662D01*
X482Y8662D01*
X481Y8662D01*
X480Y8662D01*
X479Y8662D01*
X478Y8662D01*
X477Y8662D01*
X476Y8662D01*
X475Y8662D01*
X474Y8662D01*
X473Y8662D01*
X472Y8662D01*
X471Y8662D01*
X470Y8662D01*
X469Y8662D01*
X468Y8662D01*
X467Y8662D01*
X466Y8662D01*
X465Y8662D01*
X464Y8662D01*
X463Y8662D01*
X462Y8662D01*
X461Y8662D01*
X460Y8662D01*
X459Y8662D01*
X458Y8662D01*
X457Y8662D01*
X456Y8662D01*
X455Y8662D01*
X454Y8662D01*
X453Y8662D01*
X452Y8662D01*
X451Y8662D01*
X450Y8662D01*
X449Y8662D01*
X448Y8662D01*
X447Y8662D01*
X446Y8662D01*
X445Y8662D01*
X444Y8662D01*
X443Y8662D01*
X442Y8662D01*
X441Y8662D01*
X440Y8662D01*
X439Y8662D01*
X438Y8662D01*
X437Y8662D01*
X436Y8662D01*
X435Y8662D01*
X434Y8662D01*
X433Y8662D01*
X432Y8662D01*
X431Y8662D01*
X430Y8662D01*
X429Y8662D01*
X428Y8662D01*
X427Y8662D01*
X426Y8662D01*
X425Y8662D01*
X424Y8662D01*
X423Y8662D01*
X422Y8662D01*
X421Y8662D01*
X420Y8662D01*
X419Y8662D01*
X418Y8662D01*
X417Y8662D01*
X416Y8662D01*
X415Y8662D01*
X414Y8662D01*
X413Y8662D01*
X412Y8662D01*
X411Y8662D01*
X410Y8662D01*
X409Y8662D01*
X408Y8662D01*
X407Y8662D01*
X406Y8662D01*
X405Y8662D01*
X404Y8662D01*
X403Y8662D01*
X402Y8662D01*
X401Y8662D01*
X400Y8662D01*
X399Y8662D01*
X398Y8662D01*
X397Y8662D01*
X396Y8662D01*
X395Y8662D01*
X394Y8662D01*
X393Y8662D01*
X392Y8662D01*
X391Y8662D01*
X390Y8662D01*
X389Y8662D01*
X388Y8662D01*
X387Y8662D01*
X386Y8662D01*
X385Y8662D01*
X384Y8662D01*
X383Y8662D01*
X382Y8662D01*
X381Y8662D01*
X380Y8662D01*
X379Y8662D01*
X378Y8662D01*
X377Y8662D01*
X376Y8662D01*
X375Y8662D01*
X374Y8662D01*
X373Y8662D01*
X372Y8662D01*
X371Y8662D01*
X370Y8662D01*
X369Y8662D01*
X368Y8662D01*
X367Y8662D01*
X366Y8662D01*
X365Y8662D01*
X364Y8662D01*
X363Y8662D01*
X362Y8662D01*
X361Y8662D01*
X360Y8662D01*
X359Y8662D01*
X358Y8662D01*
X357Y8662D01*
X356Y8662D01*
X355Y8662D01*
X354Y8662D01*
X353Y8662D01*
X352Y8662D01*
X351Y8662D01*
X350Y8662D01*
X349Y8662D01*
X348Y8662D01*
X347Y8662D01*
X346Y8662D01*
X345Y8662D01*
X344Y8662D01*
X343Y8662D01*
X342Y8662D01*
X341Y8662D01*
X340Y8662D01*
X339Y8662D01*
X338Y8662D01*
X337Y8662D01*
X336Y8662D01*
X335Y8662D01*
X334Y8662D01*
X333Y8662D01*
X332Y8662D01*
X331Y8662D01*
X330Y8662D01*
X329Y8662D01*
X328Y8662D01*
X327Y8662D01*
X326Y8662D01*
X325Y8662D01*
X324Y8662D01*
X323Y8662D01*
X322Y8662D01*
X321Y8662D01*
X320Y8662D01*
X319Y8662D01*
X318Y8662D01*
X317Y8662D01*
X316Y8662D01*
X315Y8662D01*
X314Y8662D01*
X313Y8662D01*
X312Y8662D01*
X311Y8662D01*
X310Y8662D01*
X309Y8662D01*
X308Y8662D01*
X307Y8662D01*
X306Y8662D01*
X305Y8662D01*
X304Y8662D01*
X303Y8662D01*
X302Y8662D01*
X301Y8662D01*
X300Y8662D01*
X299Y8662D01*
X298Y8662D01*
X297Y8662D01*
X296Y8662D01*
X295Y8662D01*
X294Y8662D01*
X293Y8662D01*
X292Y8662D01*
X291Y8662D01*
X290Y8662D01*
X289Y8662D01*
X288Y8662D01*
X287Y8662D01*
X286Y8662D01*
X285Y8662D01*
X284Y8662D01*
X283Y8662D01*
X282Y8662D01*
X281Y8662D01*
X280Y8662D01*
X279Y8662D01*
X278Y8662D01*
X277Y8662D01*
X276Y8662D01*
X275Y8662D01*
X274Y8662D01*
X273Y8662D01*
X272Y8662D01*
X271Y8662D01*
X270Y8662D01*
X269Y8662D01*
X268Y8662D01*
X267Y8662D01*
X266Y8662D01*
X265Y8662D01*
X264Y8662D01*
X263Y8662D01*
X262Y8662D01*
X261Y8662D01*
X260Y8662D01*
X259Y8662D01*
X258Y8662D01*
X257Y8662D01*
X256Y8662D01*
X255Y8662D01*
X254Y8662D01*
X253Y8662D01*
X252Y8662D01*
X251Y8662D01*
X250Y8662D01*
X249Y8662D01*
X248Y8662D01*
X247Y8662D01*
X246Y8662D01*
X245Y8662D01*
X244Y8662D01*
X243Y8662D01*
X242Y8662D01*
X241Y8662D01*
X240Y8662D01*
X239Y8662D01*
X238Y8662D01*
X237Y8662D01*
X236Y8662D01*
X235Y8662D01*
X234Y8662D01*
X233Y8662D01*
X232Y8662D01*
X231Y8662D01*
X230Y8662D01*
X229Y8662D01*
X228Y8662D01*
X227Y8662D01*
X226Y8662D01*
X225Y8662D01*
X224Y8662D01*
X223Y8662D01*
X222Y8662D01*
X221Y8662D01*
X220Y8662D01*
X219Y8662D01*
X218Y8662D01*
X217Y8662D01*
X216Y8662D01*
X215Y8662D01*
X214Y8662D01*
X213Y8662D01*
X212Y8662D01*
X211Y8662D01*
X210Y8662D01*
X209Y8662D01*
X208Y8662D01*
X207Y8662D01*
X206Y8662D01*
X205Y8662D01*
X204Y8662D01*
X203Y8662D01*
X202Y8662D01*
X201Y8662D01*
X200Y8662D01*
X199Y8662D01*
X198Y8662D01*
X197Y8662D01*
X196Y8662D01*
X195Y8662D01*
X194Y8662D01*
X193Y8662D01*
X192Y8662D01*
X191Y8662D01*
X190Y8662D01*
X189Y8662D01*
X188Y8662D01*
X187Y8662D01*
X186Y8662D01*
X185Y8662D01*
X184Y8662D01*
X183Y8662D01*
X182Y8662D01*
X181Y8662D01*
X180Y8662D01*
X179Y8662D01*
X178Y8662D01*
X177Y8662D01*
X176Y8662D01*
X175Y8662D01*
X174Y8662D01*
X173Y8662D01*
X172Y8662D01*
X171Y8662D01*
X170Y8662D01*
X169Y8662D01*
X168Y8662D01*
X167Y8662D01*
X166Y8662D01*
X165Y8662D01*
X164Y8662D01*
X163Y8662D01*
X162Y8662D01*
X161Y8662D01*
X160Y8662D01*
X159Y8662D01*
X158Y8662D01*
X157Y8662D01*
X156Y8662D01*
X155Y8662D01*
X154Y8662D01*
X153Y8662D01*
X152Y8662D01*
X151Y8662D01*
X150Y8662D01*
X149Y8662D01*
X148Y8662D01*
X147Y8662D01*
X146Y8662D01*
X145Y8662D01*
X144Y8662D01*
X143Y8662D01*
X142Y8662D01*
X141Y8662D01*
X140Y8662D01*
X139Y8662D01*
X138Y8662D01*
X137Y8662D01*
X136Y8662D01*
X135Y8662D01*
X134Y8662D01*
X133Y8662D01*
X132Y8662D01*
X131Y8662D01*
X130Y8662D01*
X129Y8662D01*
X128Y8662D01*
X127Y8662D01*
X126Y8662D01*
X125Y8662D01*
X124Y8662D01*
X123Y8662D01*
X122Y8662D01*
X121Y8662D01*
X120Y8662D01*
X119Y8662D01*
X118Y8662D01*
X117Y8662D01*
X116Y8662D01*
X115Y8662D01*
X114Y8662D01*
X113Y8662D01*
X112Y8662D01*
X111Y8662D01*
X110Y8662D01*
X109Y8662D01*
X108Y8662D01*
X107Y8662D01*
X106Y8662D01*
X105Y8662D01*
X104Y8662D01*
X103Y8662D01*
X102Y8662D01*
X101Y8662D01*
X100Y8662D01*
X99Y8662D01*
X98Y8662D01*
X97Y8662D01*
X96Y8662D01*
X95Y8662D01*
X94Y8662D01*
X93Y8662D01*
X92Y8662D01*
X91Y8662D01*
X90Y8662D01*
X89Y8662D01*
X88Y8662D01*
X87Y8662D01*
X86Y8662D01*
X85Y8662D01*
X84Y8662D01*
X83Y8662D01*
X82Y8662D01*
X81Y8662D01*
X80Y8662D01*
X79Y8662D01*
X78Y8662D01*
X77Y8662D01*
X76Y8662D01*
X75Y8662D01*
X74Y8662D01*
X73Y8662D01*
X72Y8662D01*
X71Y8662D01*
X70Y8662D01*
X69Y8662D01*
X68Y8662D01*
X67Y8662D01*
X66Y8662D01*
X65Y8662D01*
X64Y8662D01*
X63Y8662D01*
X62Y8662D01*
X61Y8662D01*
X60Y8662D01*
X59Y8662D01*
X58Y8662D01*
X57Y8662D01*
X56Y8662D01*
X55Y8662D01*
X54Y8662D01*
X53Y8662D01*
X52Y8662D01*
X51Y8662D01*
X50Y8662D01*
X49Y8662D01*
X48Y8662D01*
X47Y8662D01*
X46Y8662D01*
X45Y8662D01*
X44Y8662D01*
X43Y8662D01*
X42Y8662D01*
X41Y8662D01*
X40Y8662D01*
X39Y8662D01*
X38Y8662D01*
X37Y8662D01*
X36Y8662D01*
X35Y8662D01*
X34Y8662D01*
X33Y8662D01*
X32Y8662D01*
X31Y8662D01*
X30Y8662D01*
X29Y8662D01*
X28Y8662D01*
X27Y8662D01*
X26Y8662D01*
X25Y8662D01*
X24Y8662D01*
X23Y8662D01*
X22Y8662D01*
X21Y8662D01*
X20Y8662D01*
X19Y8662D01*
X18Y8662D01*
X17Y8662D01*
X16Y8662D01*
X15Y8662D01*
X14Y8662D01*
X13Y8662D01*
X12Y8662D01*
X11Y8662D01*
X10Y8662D01*
X9Y8662D01*
X8Y8662D01*
X7Y8662D01*
X6Y8662D01*
X5Y8662D01*
X4Y8662D01*
X3Y8662D01*
X2Y8662D01*
X1Y8662D01*
X0Y8662D01*
D02*
G04 End of contour*
M02*