; NON-PLATED HOLES START AT T1
; THROUGH (PLATED) HOLES START AT T100
M48
INCH
T100C0.027559
T101C0.039370
T102C0.196851
T103C0.022222
T104C0.025000
T105C0.035000
T106C0.015748
%
T100
X001241Y008621
X026171Y068984
X025171Y068984
X024171Y068984
X003505Y059648
X001241Y002645
X003505Y058648
X001241Y060680
X016103Y068967
X003505Y055648
X001241Y082302
X016103Y080778
X001241Y004645
X003505Y061648
X041989Y017983
X001241Y009621
X003505Y056648
X001241Y085302
X041989Y008141
X001241Y003645
X001241Y015621
X003505Y060648
X001241Y079302
X001241Y061680
X041989Y004204
X016103Y076841
X041989Y010109
X022171Y068984
X001241Y001645
X023171Y068984
X016103Y074873
X041989Y016015
X001241Y057680
X041989Y019952
X001241Y084302
X001241Y056680
X001241Y012621
X041989Y014046
X001241Y055680
X001241Y010621
X001241Y058680
X016103Y062078
X001241Y059680
X001241Y014621
X001241Y083302
X016103Y065030
X016103Y066999
X003505Y057648
X001241Y013621
X001241Y080302
X016103Y072904
X016103Y082747
X027171Y068984
X041989Y012078
X028171Y068984
X001241Y011621
X016103Y078810
X001241Y081302
X041989Y021920
X041989Y006172
T101
X042284Y025889
X042284Y024889
X042284Y023889
T102
X019548Y067688
T103
X027749Y006959
X025749Y003711
X009410Y006369
X009410Y002727
X027749Y003711
X022335Y003711
X025749Y006959
X011410Y002727
X020335Y003711
X011410Y006369
T104
X012068Y021200
X011647Y060109
X011647Y072904
X007638Y012274
X023351Y002235
X025749Y060109
X025355Y020211
X024961Y028192
X013642Y049998
X011083Y028192
X011647Y071920
X038115Y016999
X024371Y008436
X019450Y011416
X041036Y016015
X023485Y049998
X029883Y043066
X011576Y012274
X029292Y016211
X010591Y015254
X011674Y049998
X026930Y028192
X021516Y054892
X009115Y031172
X015513Y015254
X011647Y083731
X013052Y031172
X041036Y019952
X018331Y001940
X021516Y050955
X039036Y008141
X027422Y049998
X020532Y054892
X013544Y011416
X010099Y021200
X016497Y012274
X013544Y016211
X026930Y037892
X023977Y045066
X011647Y070936
X029391Y047018
X019942Y023200
X021910Y024255
X038115Y020936
X008131Y043066
X018564Y050955
X010099Y045066
X028898Y031172
X025946Y022200
X026930Y034912
X018072Y039019
X026339Y016211
X038115Y026841
X018465Y015254
X011647Y073889
X012068Y024255
X022190Y073987
X026438Y050955
X013347Y006959
X010099Y041999
X014036Y022200
X021516Y057872
X034115Y024873
X028308Y019191
X010099Y024255
X014627Y062078
X038115Y003219
X021910Y021200
X029292Y011416
X020532Y057872
X016989Y031172
X040036Y023889
X030375Y053935
X016595Y053935
X014627Y079794
X014627Y081763
X008623Y015254
X039036Y012078
X020040Y045066
X021516Y047018
X030375Y054892
X017973Y021200
X016595Y054892
X022501Y054892
X019942Y022200
X010690Y054892
X011647Y064046
X029883Y027235
X013544Y008436
X007638Y016211
X010591Y069459
X008721Y053935
X011576Y016211
X029391Y049998
X029292Y012274
X023485Y047018
X023977Y021200
X029883Y039019
X021418Y015254
X020926Y037892
X026438Y045998
X010591Y062570
X030670Y060109
X040036Y017983
X030867Y034912
X015611Y057872
X011083Y037892
X010591Y065522
X008131Y039019
X019450Y008436
X014627Y049998
X016497Y019191
X011647Y061093
X010591Y082255
X024371Y011416
X011647Y077826
X014627Y066015
X007611Y073396
X018564Y045998
X013544Y012274
X025453Y049998
X025158Y069987
X016497Y016211
X028406Y049998
X010591Y068475
X022894Y031172
X039036Y025857
X009705Y050955
X039036Y027826
X007611Y068475
X022796Y063089
X018072Y043066
X010690Y057872
X013347Y002908
X041036Y006172
X010591Y073396
X017902Y003908
X030375Y057872
X026339Y012274
X020434Y019191
X024174Y073987
X011647Y069952
X016595Y057872
X029292Y008436
X022501Y057872
X007611Y082255
X014528Y015254
X023977Y024255
X010591Y019191
X014036Y023200
X007611Y065522
X012068Y044066
X014331Y001940
X022009Y041999
X007611Y062570
X017973Y024255
X018957Y031172
X020828Y063089
X016103Y041999
X019351Y006664
X015611Y054892
X023780Y063089
X028111Y069987
X012658Y053935
X016103Y044066
X007611Y069459
X007737Y050955
X025946Y023200
X008131Y027235
X022009Y045066
X011647Y068967
X010690Y053935
X041036Y014046
X027717Y063089
X038115Y022904
X013347Y003908
X008068Y003908
X022009Y043066
X041036Y010109
X012068Y041999
X016497Y008436
X027422Y057872
X028898Y034912
X009607Y015254
X014627Y054892
X014036Y027235
X014627Y073889
X019843Y060109
X034115Y018967
X011674Y054892
X018957Y037892
X030375Y045998
X016595Y045998
X040036Y027826
X011647Y062078
X023190Y069987
X008721Y050955
X038115Y005188
X020926Y034912
X018072Y041999
X021418Y011416
X015611Y047018
X010099Y039019
X011647Y079794
X013642Y057872
X011647Y081763
X023780Y060109
X008131Y023200
X025946Y027235
X018072Y045066
X010591Y080286
X029883Y023200
X007611Y080286
X014627Y060109
X027717Y060109
X034115Y011093
X030867Y028192
X023977Y039019
X026733Y060109
X017481Y015254
X014627Y072904
X014627Y071920
X012658Y050955
X012068Y004991
X024764Y060109
X039036Y017983
X020532Y049998
X018859Y060109
X027422Y054892
X040036Y025857
X027324Y015254
X007737Y053935
X013544Y020211
X014627Y057872
X025453Y047018
X010690Y050955
X019548Y049998
X014528Y011416
X028308Y012274
X009705Y053935
X011674Y057872
X008623Y019191
X020434Y015254
X014627Y083731
X024371Y012274
X012560Y016211
X025355Y016211
X038115Y013062
X025355Y008436
X029292Y020211
X019548Y047018
X030276Y012274
X024961Y034912
X013642Y054892
X014627Y070936
X030670Y063089
X020040Y043066
X013052Y037892
X014627Y069952
X007611Y083239
X041036Y004204
X019548Y054892
X021418Y008436
X021812Y063089
X038115Y007156
X021516Y053935
X008131Y022200
X022009Y039019
X015020Y034912
X015611Y049998
X040036Y012078
X027914Y024255
X009705Y054892
X025946Y044066
X017579Y049998
X039036Y023889
X041036Y021920
X007611Y060601
X026142Y069987
X010690Y045998
X010591Y061585
X038115Y015030
X019843Y063089
X011083Y034912
X012658Y045998
X014036Y044066
X016005Y021200
X016497Y011416
X014627Y068967
X010099Y043066
X020926Y028192
X040036Y008141
X019548Y057872
X024764Y063089
X014922Y004991
X008131Y045066
X025355Y011416
X014627Y064046
X026733Y063089
X027914Y021200
X019450Y015254
X023977Y043066
X030375Y050955
X016595Y050955
X008721Y045998
X023387Y015254
X009705Y057872
X027914Y044066
X007611Y061585
X015020Y028192
X029686Y063089
X014528Y008436
X038115Y009125
X010591Y060601
X012560Y012274
X024371Y016211
X025355Y012274
X022894Y034912
X007638Y020211
X018564Y053935
X023351Y005188
X016005Y024255
X022402Y015254
X029883Y045066
X028308Y016211
X029883Y022200
X024469Y049998
X015020Y037892
X020040Y039019
X014627Y061093
X010591Y083239
X027127Y069987
X011647Y066015
X030276Y016211
X011576Y020211
X014627Y077826
X022501Y049998
X019942Y027235
X026438Y053935
X009115Y034912
X022402Y011416
X007611Y064538
X023190Y073987
X010591Y066507
X010591Y067491
X007611Y079302
X007611Y074381
X007611Y078318
X028898Y028192
X014036Y043066
X010591Y075365
X009607Y012274
X039036Y019952
X017875Y005975
X028898Y037892
X010591Y077333
X041036Y008141
X034115Y022904
X017579Y047018
X007638Y008436
X010099Y044066
X014627Y078810
X025453Y057872
X016989Y028192
X026438Y049998
X022501Y053935
X024469Y053935
X013347Y001908
X034115Y005188
X016005Y027235
X022796Y060109
X029390Y057872
X008721Y054892
X014627Y045998
X025946Y043066
X009705Y047018
X021910Y023200
X019942Y024255
X011647Y065030
X028406Y045998
X019351Y005188
X015513Y011416
X007611Y081270
X039036Y016015
X038115Y018967
X018564Y049998
X040036Y021920
X011647Y063062
X010591Y081270
X015611Y053935
X041036Y012078
X019450Y016211
X017902Y004991
X026930Y031172
X017481Y012274
X014627Y066999
X017579Y053935
X023387Y016211
X027422Y050955
X027914Y027235
X011576Y008436
X021516Y049998
X012068Y023200
X013347Y004959
X011647Y067983
X038115Y011093
X027324Y012274
X020434Y008436
X040036Y004204
X011083Y031172
X024961Y031172
X013347Y005959
X017973Y022200
X019942Y021200
X011674Y050955
X008623Y011416
X014895Y005975
X024371Y015254
X010099Y023200
X020040Y041999
X025453Y054892
X007611Y077333
X028308Y015254
X022402Y016211
X027324Y008436
X020434Y012274
X007611Y075365
X023485Y050955
X010591Y078318
X008721Y057872
X029390Y054892
X023977Y044066
X010591Y074381
X010591Y079302
X007611Y067491
X021418Y020211
X023977Y022200
X013052Y028192
X010591Y008436
X034115Y013062
X013642Y050955
X009115Y028192
X027914Y043066
X007611Y066507
X010591Y064538
X030276Y015254
X015513Y008436
X019548Y053935
X014036Y021200
X012068Y045066
X021910Y022200
X016989Y034912
X026142Y073987
X028406Y057872
X007737Y049998
X041036Y025857
X034115Y007156
X014036Y041999
X030276Y019191
X020532Y053935
X007611Y070444
X014036Y039019
X009607Y016211
X025946Y021200
X007638Y011416
X022009Y044066
X016103Y045066
X014627Y082747
X024371Y019191
X034115Y015030
X011647Y076841
X018957Y028192
X025946Y041999
X022402Y008436
X009705Y049998
X026438Y057872
X025946Y039019
X018859Y063089
X019450Y012274
X028406Y050955
X017481Y016211
X023977Y023200
X025453Y050955
X010591Y011416
X014627Y050955
X028406Y054892
X014528Y019191
X008131Y041999
X015513Y020211
X039036Y014046
X040036Y010109
X027324Y011416
X030867Y037892
X017973Y023200
X018465Y019191
X027127Y073987
X027324Y016211
X010099Y022200
X014627Y080778
X008623Y008436
X023387Y012274
X020040Y044066
X014036Y024255
X022402Y012274
X020434Y011416
X020434Y016211
X012068Y022200
X025355Y015254
X014627Y074873
X022894Y028192
X010591Y070444
X012560Y015254
X029391Y050955
X011576Y011416
X014627Y075857
X022402Y019191
X041036Y027826
X009115Y037892
X023977Y041999
X039036Y006172
X028701Y060109
X025946Y024255
X034115Y009125
X026438Y054892
X027914Y039019
X014627Y063062
X018564Y054892
X022894Y037892
X020828Y060109
X023977Y027235
X007638Y015254
X011647Y066999
X030867Y031172
X011576Y015254
X029883Y021200
X010591Y012274
X034115Y016999
X017579Y057872
X021418Y016211
X017973Y027235
X014627Y067983
X040036Y006172
X010591Y071428
X034115Y020936
X019548Y050955
X019450Y020211
X007737Y054892
X040036Y014046
X010690Y049998
X013052Y034912
X027914Y022200
X009607Y008436
X015513Y012274
X017481Y008436
X012560Y011416
X020532Y050955
X008131Y024255
X012658Y049998
X029686Y060109
X023351Y006664
X023485Y054892
X039036Y010109
X023387Y020211
X018331Y006959
X012560Y019191
X024469Y054892
X016497Y015254
X030276Y008436
X026339Y019191
X018564Y057872
X014922Y003908
X029391Y053935
X026339Y011416
X029883Y024255
X014528Y016211
X034115Y026841
X018957Y034912
X016103Y043066
X016005Y022200
X008721Y049998
X011674Y047018
X018465Y012274
X017579Y054892
X007611Y071428
X023387Y011416
X007737Y057872
X011647Y078810
X025453Y053935
X018072Y044066
X028406Y053935
X027914Y041999
X008131Y021200
X014627Y053935
X034115Y003219
X022190Y069987
X024469Y045998
X008623Y012274
X012068Y043066
X018465Y011416
X038115Y024873
X014627Y065030
X022501Y045998
X023485Y057872
X041036Y017983
X028308Y008436
X024469Y057872
X022501Y050955
X030276Y011416
X007611Y076349
X008068Y004991
X027422Y047018
X017875Y002924
X027914Y045066
X024469Y050955
X015020Y031172
X021418Y012274
X009607Y011416
X025158Y073987
X017481Y011416
X011647Y080778
X012560Y008436
X020926Y031172
X027914Y023200
X008131Y044066
X016989Y037892
X029292Y015254
X010591Y016211
X012068Y027235
X029883Y041999
X015513Y016211
X017481Y020211
X041036Y023889
X011647Y074873
X039036Y021920
X016595Y049998
X013642Y047018
X011647Y075857
X030375Y049998
X012658Y057872
X010099Y027235
X010591Y063554
X029883Y044066
X021812Y060109
X007611Y072412
X013544Y015254
X039036Y004204
X027324Y020211
X028111Y073987
X012068Y003908
X028308Y011416
X014528Y012274
X011674Y053935
X025946Y045066
X020532Y045998
X023485Y053935
X010591Y072412
X026339Y015254
X014331Y006959
X018465Y008436
X007611Y063554
X018465Y016211
X013642Y053935
X024961Y037892
X040036Y016015
X019351Y002235
X016103Y039019
X016005Y023200
X023387Y008436
X028701Y063089
X007737Y047018
X025749Y063089
X017579Y050955
X012658Y054892
X015611Y050955
X011647Y082747
X024174Y069987
X014036Y045066
X014627Y076841
X026339Y008436
X021910Y027235
X027422Y053935
X009607Y020211
X010591Y076349
X008623Y016211
X012068Y039019
X040036Y019952
X014895Y002924
T105
X003406Y004400
X003406Y002629
X005965Y004400
X005965Y002629
T106
X013052Y029892
X032146Y031959
X026339Y010601
X006949Y057156
X005572Y080778
X018957Y032452
X009705Y056172
X004095Y076349
X006064Y079302
X006457Y014046
X023780Y064735
X015611Y052235
X022894Y034125
X027324Y013554
X005079Y080286
X019548Y055680
X017579Y055680
X004095Y068967
X028308Y010109
X030670Y065227
X019450Y009617
X006064Y082747
X036083Y030483
X030867Y029400
X022501Y052727
X004587Y063062
X019843Y064243
X023387Y013554
X022402Y014538
X029391Y056172
X005572Y064538
X006556Y083239
X006556Y074873
X004587Y075365
X005079Y066507
X005572Y074381
X014627Y052727
X005079Y075857
X004981Y010601
X016497Y014538
X004095Y073889
X021516Y055680
X005473Y013062
X003997Y009617
X011083Y017983
X028898Y028908
X004587Y067983
X005473Y055680
X014528Y014538
X023879Y035700
X012560Y010109
X036083Y034912
X017579Y051743
X027422Y052235
X006064Y065030
X021516Y051743
X004587Y070936
X005572Y078810
X016497Y010601
X034607Y037570
X003505Y009125
X005079Y071428
X029686Y065719
X025946Y028908
X020926Y033633
X023387Y009617
X007048Y083731
X005079Y073396
X035591Y035700
X011083Y029400
X019548Y052235
X025454Y056172
X029391Y051743
X011576Y013554
X007638Y013554
X015513Y009617
X034115Y037077
X012658Y052727
X016989Y031959
X004981Y053219
X035099Y036192
X022402Y010109
X007638Y009617
X033623Y034125
X036576Y029892
X004489Y052727
X005572Y082255
X029883Y025857
X003505Y051743
X008623Y014538
X004095Y078318
X013642Y056172
X025454Y051743
X024371Y010601
X012560Y014538
X011674Y052235
X037068Y029400
X023485Y056172
X005079Y081763
X028702Y064735
X010591Y014538
X022796Y065227
X011576Y009617
X007737Y056172
X032639Y032452
X018465Y014538
X020434Y010109
X033131Y033633
X022894Y036192
X020532Y052727
X014528Y010109
X026339Y014046
X027914Y025857
X006457Y056664
X027422Y056172
X013642Y051743
X005079Y068475
X021812Y065227
X004587Y081270
X003997Y052235
X009705Y051743
X007737Y052235
X023485Y052235
X024371Y014046
X027324Y009617
X027717Y064243
X004489Y010109
X011674Y056172
X005965Y056172
X015611Y055680
X024764Y065719
X018465Y010601
X027914Y029400
X029883Y029892
X020828Y064735
X020434Y014538
X004587Y077826
X025946Y036192
X010591Y010601
X028308Y014046
X005572Y066999
X009607Y013554
X005965Y013554
X004095Y071920
X006949Y014538
X025355Y013554
X008623Y010601
X013544Y013554
T00
M30
