G04 MADE WITH FRITZING*
G04 WWW.FRITZING.ORG*
G04 DOUBLE SIDED*
G04 HOLES PLATED*
G04 CONTOUR ON CENTER OF CONTOUR VECTOR*
%ASAXBY*%
%FSLAX23Y23*%
%MOIN*%
%OFA0B0*%
%SFA1.0B1.0*%
%ADD10R,0.001000X0.001000*%
%LNSILK1*%
G90*
G70*
G54D10*
X1Y7815D02*
X1Y7815D01*
X4241Y2750D02*
X4260Y2750D01*
X4239Y2749D02*
X4262Y2749D01*
X4237Y2748D02*
X4263Y2748D01*
X4237Y2747D02*
X4264Y2747D01*
X4236Y2746D02*
X4265Y2746D01*
X4236Y2745D02*
X4265Y2745D01*
X4236Y2744D02*
X4241Y2744D01*
X4260Y2744D02*
X4265Y2744D01*
X4236Y2743D02*
X4241Y2743D01*
X4260Y2743D02*
X4265Y2743D01*
X4236Y2742D02*
X4241Y2742D01*
X4260Y2742D02*
X4265Y2742D01*
X4205Y2741D02*
X4208Y2741D01*
X4236Y2741D02*
X4241Y2741D01*
X4260Y2741D02*
X4265Y2741D01*
X4205Y2740D02*
X4209Y2740D01*
X4236Y2740D02*
X4241Y2740D01*
X4260Y2740D02*
X4265Y2740D01*
X4204Y2739D02*
X4209Y2739D01*
X4236Y2739D02*
X4241Y2739D01*
X4260Y2739D02*
X4265Y2739D01*
X4204Y2738D02*
X4209Y2738D01*
X4236Y2738D02*
X4241Y2738D01*
X4260Y2738D02*
X4265Y2738D01*
X4204Y2737D02*
X4209Y2737D01*
X4236Y2737D02*
X4241Y2737D01*
X4260Y2737D02*
X4265Y2737D01*
X4204Y2736D02*
X4209Y2736D01*
X4236Y2736D02*
X4241Y2736D01*
X4260Y2736D02*
X4265Y2736D01*
X4204Y2735D02*
X4209Y2735D01*
X4236Y2735D02*
X4241Y2735D01*
X4260Y2735D02*
X4265Y2735D01*
X4204Y2734D02*
X4209Y2734D01*
X4236Y2734D02*
X4241Y2734D01*
X4260Y2734D02*
X4265Y2734D01*
X4204Y2733D02*
X4209Y2733D01*
X4236Y2733D02*
X4241Y2733D01*
X4260Y2733D02*
X4265Y2733D01*
X4204Y2732D02*
X4209Y2732D01*
X4236Y2732D02*
X4241Y2732D01*
X4260Y2732D02*
X4265Y2732D01*
X4204Y2731D02*
X4209Y2731D01*
X4236Y2731D02*
X4241Y2731D01*
X4260Y2731D02*
X4265Y2731D01*
X4204Y2730D02*
X4209Y2730D01*
X4236Y2730D02*
X4241Y2730D01*
X4260Y2730D02*
X4265Y2730D01*
X4193Y2729D02*
X4220Y2729D01*
X4236Y2729D02*
X4241Y2729D01*
X4260Y2729D02*
X4265Y2729D01*
X4192Y2728D02*
X4221Y2728D01*
X4236Y2728D02*
X4241Y2728D01*
X4260Y2728D02*
X4265Y2728D01*
X4192Y2727D02*
X4221Y2727D01*
X4236Y2727D02*
X4241Y2727D01*
X4260Y2727D02*
X4265Y2727D01*
X4192Y2726D02*
X4221Y2726D01*
X4236Y2726D02*
X4241Y2726D01*
X4260Y2726D02*
X4265Y2726D01*
X4193Y2725D02*
X4221Y2725D01*
X4236Y2725D02*
X4241Y2725D01*
X4260Y2725D02*
X4265Y2725D01*
X4194Y2724D02*
X4220Y2724D01*
X4236Y2724D02*
X4241Y2724D01*
X4260Y2724D02*
X4265Y2724D01*
X4204Y2723D02*
X4209Y2723D01*
X4236Y2723D02*
X4241Y2723D01*
X4260Y2723D02*
X4265Y2723D01*
X4204Y2722D02*
X4209Y2722D01*
X4236Y2722D02*
X4241Y2722D01*
X4260Y2722D02*
X4265Y2722D01*
X4204Y2721D02*
X4209Y2721D01*
X4236Y2721D02*
X4241Y2721D01*
X4260Y2721D02*
X4265Y2721D01*
X4204Y2720D02*
X4209Y2720D01*
X4236Y2720D02*
X4241Y2720D01*
X4260Y2720D02*
X4265Y2720D01*
X4204Y2719D02*
X4209Y2719D01*
X4236Y2719D02*
X4241Y2719D01*
X4260Y2719D02*
X4265Y2719D01*
X4204Y2718D02*
X4209Y2718D01*
X4236Y2718D02*
X4241Y2718D01*
X4260Y2718D02*
X4265Y2718D01*
X4204Y2717D02*
X4209Y2717D01*
X4236Y2717D02*
X4241Y2717D01*
X4260Y2717D02*
X4265Y2717D01*
X4204Y2716D02*
X4209Y2716D01*
X4236Y2716D02*
X4241Y2716D01*
X4260Y2716D02*
X4265Y2716D01*
X4204Y2715D02*
X4209Y2715D01*
X4236Y2715D02*
X4241Y2715D01*
X4260Y2715D02*
X4265Y2715D01*
X4204Y2714D02*
X4209Y2714D01*
X4236Y2714D02*
X4241Y2714D01*
X4260Y2714D02*
X4265Y2714D01*
X4205Y2713D02*
X4209Y2713D01*
X4236Y2713D02*
X4241Y2713D01*
X4260Y2713D02*
X4265Y2713D01*
X4206Y2712D02*
X4208Y2712D01*
X4236Y2712D02*
X4241Y2712D01*
X4260Y2712D02*
X4265Y2712D01*
X4236Y2711D02*
X4241Y2711D01*
X4260Y2711D02*
X4265Y2711D01*
X4236Y2710D02*
X4241Y2710D01*
X4260Y2710D02*
X4265Y2710D01*
X4236Y2709D02*
X4265Y2709D01*
X4236Y2708D02*
X4265Y2708D01*
X4236Y2707D02*
X4265Y2707D01*
X4237Y2706D02*
X4264Y2706D01*
X4238Y2705D02*
X4263Y2705D01*
X4239Y2704D02*
X4262Y2704D01*
X4242Y2703D02*
X4259Y2703D01*
X384Y613D02*
X386Y613D01*
X408Y613D02*
X411Y613D01*
X474Y613D02*
X486Y613D01*
X539Y613D02*
X542Y613D01*
X383Y612D02*
X387Y612D01*
X407Y612D02*
X411Y612D01*
X473Y612D02*
X487Y612D01*
X538Y612D02*
X543Y612D01*
X383Y611D02*
X388Y611D01*
X407Y611D02*
X412Y611D01*
X473Y611D02*
X487Y611D01*
X538Y611D02*
X543Y611D01*
X383Y610D02*
X388Y610D01*
X407Y610D02*
X412Y610D01*
X473Y610D02*
X487Y610D01*
X538Y610D02*
X543Y610D01*
X383Y609D02*
X388Y609D01*
X407Y609D02*
X412Y609D01*
X474Y609D02*
X487Y609D01*
X538Y609D02*
X543Y609D01*
X383Y608D02*
X388Y608D01*
X407Y608D02*
X412Y608D01*
X475Y608D02*
X487Y608D01*
X538Y608D02*
X543Y608D01*
X383Y607D02*
X388Y607D01*
X407Y607D02*
X412Y607D01*
X482Y607D02*
X487Y607D01*
X538Y607D02*
X543Y607D01*
X383Y606D02*
X388Y606D01*
X407Y606D02*
X412Y606D01*
X482Y606D02*
X487Y606D01*
X538Y606D02*
X543Y606D01*
X383Y605D02*
X388Y605D01*
X407Y605D02*
X412Y605D01*
X482Y605D02*
X487Y605D01*
X538Y605D02*
X543Y605D01*
X383Y604D02*
X388Y604D01*
X407Y604D02*
X412Y604D01*
X482Y604D02*
X487Y604D01*
X538Y604D02*
X543Y604D01*
X383Y603D02*
X388Y603D01*
X407Y603D02*
X412Y603D01*
X482Y603D02*
X487Y603D01*
X538Y603D02*
X543Y603D01*
X383Y602D02*
X388Y602D01*
X407Y602D02*
X412Y602D01*
X482Y602D02*
X487Y602D01*
X538Y602D02*
X543Y602D01*
X383Y601D02*
X388Y601D01*
X407Y601D02*
X412Y601D01*
X482Y601D02*
X487Y601D01*
X538Y601D02*
X543Y601D01*
X383Y600D02*
X388Y600D01*
X407Y600D02*
X412Y600D01*
X434Y600D02*
X448Y600D01*
X482Y600D02*
X487Y600D01*
X521Y600D02*
X533Y600D01*
X538Y600D02*
X543Y600D01*
X383Y599D02*
X388Y599D01*
X407Y599D02*
X412Y599D01*
X432Y599D02*
X450Y599D01*
X482Y599D02*
X487Y599D01*
X520Y599D02*
X534Y599D01*
X538Y599D02*
X543Y599D01*
X383Y598D02*
X388Y598D01*
X407Y598D02*
X412Y598D01*
X431Y598D02*
X451Y598D01*
X482Y598D02*
X487Y598D01*
X518Y598D02*
X535Y598D01*
X538Y598D02*
X543Y598D01*
X383Y597D02*
X388Y597D01*
X407Y597D02*
X412Y597D01*
X430Y597D02*
X452Y597D01*
X482Y597D02*
X487Y597D01*
X517Y597D02*
X543Y597D01*
X383Y596D02*
X388Y596D01*
X407Y596D02*
X412Y596D01*
X429Y596D02*
X453Y596D01*
X482Y596D02*
X487Y596D01*
X516Y596D02*
X543Y596D01*
X383Y595D02*
X388Y595D01*
X407Y595D02*
X412Y595D01*
X428Y595D02*
X454Y595D01*
X482Y595D02*
X487Y595D01*
X515Y595D02*
X543Y595D01*
X383Y594D02*
X388Y594D01*
X407Y594D02*
X412Y594D01*
X427Y594D02*
X435Y594D01*
X447Y594D02*
X455Y594D01*
X482Y594D02*
X487Y594D01*
X515Y594D02*
X522Y594D01*
X532Y594D02*
X543Y594D01*
X383Y593D02*
X412Y593D01*
X427Y593D02*
X433Y593D01*
X449Y593D02*
X455Y593D01*
X482Y593D02*
X487Y593D01*
X514Y593D02*
X521Y593D01*
X533Y593D02*
X543Y593D01*
X383Y592D02*
X412Y592D01*
X427Y592D02*
X432Y592D01*
X449Y592D02*
X455Y592D01*
X482Y592D02*
X487Y592D01*
X514Y592D02*
X520Y592D01*
X534Y592D02*
X543Y592D01*
X383Y591D02*
X412Y591D01*
X426Y591D02*
X432Y591D01*
X450Y591D02*
X455Y591D01*
X482Y591D02*
X487Y591D01*
X514Y591D02*
X519Y591D01*
X535Y591D02*
X543Y591D01*
X383Y590D02*
X412Y590D01*
X426Y590D02*
X431Y590D01*
X450Y590D02*
X455Y590D01*
X482Y590D02*
X487Y590D01*
X514Y590D02*
X519Y590D01*
X536Y590D02*
X543Y590D01*
X383Y589D02*
X412Y589D01*
X426Y589D02*
X431Y589D01*
X450Y589D02*
X455Y589D01*
X482Y589D02*
X487Y589D01*
X514Y589D02*
X519Y589D01*
X537Y589D02*
X543Y589D01*
X383Y588D02*
X412Y588D01*
X426Y588D02*
X431Y588D01*
X450Y588D02*
X455Y588D01*
X482Y588D02*
X487Y588D01*
X514Y588D02*
X519Y588D01*
X538Y588D02*
X543Y588D01*
X383Y587D02*
X388Y587D01*
X406Y587D02*
X412Y587D01*
X426Y587D02*
X431Y587D01*
X450Y587D02*
X455Y587D01*
X482Y587D02*
X487Y587D01*
X514Y587D02*
X519Y587D01*
X538Y587D02*
X543Y587D01*
X383Y586D02*
X388Y586D01*
X407Y586D02*
X412Y586D01*
X426Y586D02*
X431Y586D01*
X450Y586D02*
X455Y586D01*
X482Y586D02*
X487Y586D01*
X514Y586D02*
X519Y586D01*
X538Y586D02*
X543Y586D01*
X383Y585D02*
X388Y585D01*
X407Y585D02*
X412Y585D01*
X426Y585D02*
X431Y585D01*
X450Y585D02*
X455Y585D01*
X482Y585D02*
X487Y585D01*
X514Y585D02*
X519Y585D01*
X538Y585D02*
X543Y585D01*
X383Y584D02*
X388Y584D01*
X407Y584D02*
X412Y584D01*
X426Y584D02*
X431Y584D01*
X450Y584D02*
X455Y584D01*
X482Y584D02*
X487Y584D01*
X514Y584D02*
X519Y584D01*
X538Y584D02*
X543Y584D01*
X383Y583D02*
X388Y583D01*
X407Y583D02*
X412Y583D01*
X426Y583D02*
X431Y583D01*
X450Y583D02*
X455Y583D01*
X482Y583D02*
X487Y583D01*
X514Y583D02*
X519Y583D01*
X538Y583D02*
X543Y583D01*
X383Y582D02*
X388Y582D01*
X407Y582D02*
X412Y582D01*
X426Y582D02*
X431Y582D01*
X450Y582D02*
X455Y582D01*
X482Y582D02*
X487Y582D01*
X514Y582D02*
X519Y582D01*
X538Y582D02*
X543Y582D01*
X383Y581D02*
X388Y581D01*
X407Y581D02*
X412Y581D01*
X426Y581D02*
X431Y581D01*
X450Y581D02*
X455Y581D01*
X482Y581D02*
X487Y581D01*
X514Y581D02*
X519Y581D01*
X538Y581D02*
X543Y581D01*
X383Y580D02*
X388Y580D01*
X407Y580D02*
X412Y580D01*
X426Y580D02*
X431Y580D01*
X450Y580D02*
X455Y580D01*
X482Y580D02*
X487Y580D01*
X514Y580D02*
X519Y580D01*
X538Y580D02*
X543Y580D01*
X383Y579D02*
X388Y579D01*
X407Y579D02*
X412Y579D01*
X426Y579D02*
X431Y579D01*
X450Y579D02*
X455Y579D01*
X482Y579D02*
X487Y579D01*
X514Y579D02*
X519Y579D01*
X538Y579D02*
X543Y579D01*
X383Y578D02*
X388Y578D01*
X407Y578D02*
X412Y578D01*
X426Y578D02*
X431Y578D01*
X450Y578D02*
X455Y578D01*
X482Y578D02*
X487Y578D01*
X514Y578D02*
X519Y578D01*
X537Y578D02*
X543Y578D01*
X383Y577D02*
X388Y577D01*
X407Y577D02*
X412Y577D01*
X426Y577D02*
X432Y577D01*
X450Y577D02*
X455Y577D01*
X482Y577D02*
X487Y577D01*
X514Y577D02*
X519Y577D01*
X536Y577D02*
X543Y577D01*
X383Y576D02*
X388Y576D01*
X407Y576D02*
X412Y576D01*
X426Y576D02*
X432Y576D01*
X450Y576D02*
X455Y576D01*
X482Y576D02*
X487Y576D01*
X514Y576D02*
X519Y576D01*
X535Y576D02*
X543Y576D01*
X383Y575D02*
X388Y575D01*
X407Y575D02*
X412Y575D01*
X427Y575D02*
X433Y575D01*
X449Y575D02*
X455Y575D01*
X482Y575D02*
X487Y575D01*
X514Y575D02*
X520Y575D01*
X534Y575D02*
X543Y575D01*
X383Y574D02*
X388Y574D01*
X407Y574D02*
X412Y574D01*
X427Y574D02*
X434Y574D01*
X448Y574D02*
X455Y574D01*
X482Y574D02*
X487Y574D01*
X515Y574D02*
X521Y574D01*
X532Y574D02*
X543Y574D01*
X383Y573D02*
X388Y573D01*
X407Y573D02*
X412Y573D01*
X427Y573D02*
X435Y573D01*
X447Y573D02*
X454Y573D01*
X482Y573D02*
X487Y573D01*
X515Y573D02*
X523Y573D01*
X531Y573D02*
X543Y573D01*
X383Y572D02*
X388Y572D01*
X407Y572D02*
X412Y572D01*
X428Y572D02*
X454Y572D01*
X474Y572D02*
X495Y572D01*
X516Y572D02*
X543Y572D01*
X383Y571D02*
X388Y571D01*
X407Y571D02*
X412Y571D01*
X429Y571D02*
X453Y571D01*
X474Y571D02*
X496Y571D01*
X517Y571D02*
X543Y571D01*
X383Y570D02*
X388Y570D01*
X407Y570D02*
X412Y570D01*
X430Y570D02*
X452Y570D01*
X473Y570D02*
X496Y570D01*
X518Y570D02*
X536Y570D01*
X538Y570D02*
X543Y570D01*
X383Y569D02*
X388Y569D01*
X407Y569D02*
X412Y569D01*
X431Y569D02*
X450Y569D01*
X473Y569D02*
X496Y569D01*
X519Y569D02*
X535Y569D01*
X538Y569D02*
X543Y569D01*
X383Y568D02*
X387Y568D01*
X407Y568D02*
X411Y568D01*
X433Y568D02*
X449Y568D01*
X474Y568D02*
X496Y568D01*
X520Y568D02*
X534Y568D01*
X538Y568D02*
X543Y568D01*
X384Y567D02*
X386Y567D01*
X408Y567D02*
X410Y567D01*
X435Y567D02*
X447Y567D01*
X475Y567D02*
X495Y567D01*
X522Y567D02*
X532Y567D01*
X539Y567D02*
X542Y567D01*
D02*
G04 End of Silk1*
M02*